%TF.GenerationSoftware,KiCad,Pcbnew,7.0.1*%
%TF.CreationDate,2023-04-20T18:11:54+02:00*%
%TF.ProjectId,PCB_Tetris,5043425f-5465-4747-9269-732e6b696361,rev?*%
%TF.SameCoordinates,Original*%
%TF.FileFunction,Legend,Top*%
%TF.FilePolarity,Positive*%
%FSLAX46Y46*%
G04 Gerber Fmt 4.6, Leading zero omitted, Abs format (unit mm)*
G04 Created by KiCad (PCBNEW 7.0.1) date 2023-04-20 18:11:54*
%MOMM*%
%LPD*%
G01*
G04 APERTURE LIST*
%ADD10C,0.200000*%
%ADD11C,0.150000*%
%ADD12C,0.120000*%
G04 APERTURE END LIST*
D10*
X91977095Y-118702380D02*
X91596142Y-118969047D01*
X91977095Y-119159523D02*
X91177095Y-119159523D01*
X91177095Y-119159523D02*
X91177095Y-118854761D01*
X91177095Y-118854761D02*
X91215190Y-118778571D01*
X91215190Y-118778571D02*
X91253285Y-118740476D01*
X91253285Y-118740476D02*
X91329476Y-118702380D01*
X91329476Y-118702380D02*
X91443761Y-118702380D01*
X91443761Y-118702380D02*
X91519952Y-118740476D01*
X91519952Y-118740476D02*
X91558047Y-118778571D01*
X91558047Y-118778571D02*
X91596142Y-118854761D01*
X91596142Y-118854761D02*
X91596142Y-119159523D01*
X91177095Y-118435714D02*
X91977095Y-117902380D01*
X91177095Y-117902380D02*
X91977095Y-118435714D01*
X89602095Y-119410714D02*
X89602095Y-118915476D01*
X89602095Y-118915476D02*
X89906857Y-119182142D01*
X89906857Y-119182142D02*
X89906857Y-119067857D01*
X89906857Y-119067857D02*
X89944952Y-118991666D01*
X89944952Y-118991666D02*
X89983047Y-118953571D01*
X89983047Y-118953571D02*
X90059238Y-118915476D01*
X90059238Y-118915476D02*
X90249714Y-118915476D01*
X90249714Y-118915476D02*
X90325904Y-118953571D01*
X90325904Y-118953571D02*
X90364000Y-118991666D01*
X90364000Y-118991666D02*
X90402095Y-119067857D01*
X90402095Y-119067857D02*
X90402095Y-119296428D01*
X90402095Y-119296428D02*
X90364000Y-119372619D01*
X90364000Y-119372619D02*
X90325904Y-119410714D01*
X90325904Y-118572618D02*
X90364000Y-118534523D01*
X90364000Y-118534523D02*
X90402095Y-118572618D01*
X90402095Y-118572618D02*
X90364000Y-118610714D01*
X90364000Y-118610714D02*
X90325904Y-118572618D01*
X90325904Y-118572618D02*
X90402095Y-118572618D01*
X89602095Y-118267857D02*
X89602095Y-117772619D01*
X89602095Y-117772619D02*
X89906857Y-118039285D01*
X89906857Y-118039285D02*
X89906857Y-117925000D01*
X89906857Y-117925000D02*
X89944952Y-117848809D01*
X89944952Y-117848809D02*
X89983047Y-117810714D01*
X89983047Y-117810714D02*
X90059238Y-117772619D01*
X90059238Y-117772619D02*
X90249714Y-117772619D01*
X90249714Y-117772619D02*
X90325904Y-117810714D01*
X90325904Y-117810714D02*
X90364000Y-117848809D01*
X90364000Y-117848809D02*
X90402095Y-117925000D01*
X90402095Y-117925000D02*
X90402095Y-118153571D01*
X90402095Y-118153571D02*
X90364000Y-118229762D01*
X90364000Y-118229762D02*
X90325904Y-118267857D01*
X93627095Y-118998809D02*
X93627095Y-118541666D01*
X94427095Y-118770238D02*
X93627095Y-118770238D01*
X93627095Y-118351190D02*
X94427095Y-117817856D01*
X93627095Y-117817856D02*
X94427095Y-118351190D01*
X96940190Y-114115476D02*
X96902095Y-114191666D01*
X96902095Y-114191666D02*
X96902095Y-114305952D01*
X96902095Y-114305952D02*
X96940190Y-114420238D01*
X96940190Y-114420238D02*
X97016380Y-114496428D01*
X97016380Y-114496428D02*
X97092571Y-114534523D01*
X97092571Y-114534523D02*
X97244952Y-114572619D01*
X97244952Y-114572619D02*
X97359238Y-114572619D01*
X97359238Y-114572619D02*
X97511619Y-114534523D01*
X97511619Y-114534523D02*
X97587809Y-114496428D01*
X97587809Y-114496428D02*
X97664000Y-114420238D01*
X97664000Y-114420238D02*
X97702095Y-114305952D01*
X97702095Y-114305952D02*
X97702095Y-114229761D01*
X97702095Y-114229761D02*
X97664000Y-114115476D01*
X97664000Y-114115476D02*
X97625904Y-114077380D01*
X97625904Y-114077380D02*
X97359238Y-114077380D01*
X97359238Y-114077380D02*
X97359238Y-114229761D01*
X97702095Y-113734523D02*
X96902095Y-113734523D01*
X96902095Y-113734523D02*
X97702095Y-113277380D01*
X97702095Y-113277380D02*
X96902095Y-113277380D01*
X97702095Y-112896428D02*
X96902095Y-112896428D01*
X96902095Y-112896428D02*
X96902095Y-112705952D01*
X96902095Y-112705952D02*
X96940190Y-112591666D01*
X96940190Y-112591666D02*
X97016380Y-112515476D01*
X97016380Y-112515476D02*
X97092571Y-112477381D01*
X97092571Y-112477381D02*
X97244952Y-112439285D01*
X97244952Y-112439285D02*
X97359238Y-112439285D01*
X97359238Y-112439285D02*
X97511619Y-112477381D01*
X97511619Y-112477381D02*
X97587809Y-112515476D01*
X97587809Y-112515476D02*
X97664000Y-112591666D01*
X97664000Y-112591666D02*
X97702095Y-112705952D01*
X97702095Y-112705952D02*
X97702095Y-112896428D01*
D11*
%TO.C,R6*%
X86212619Y-107016666D02*
X85736428Y-107349999D01*
X86212619Y-107588094D02*
X85212619Y-107588094D01*
X85212619Y-107588094D02*
X85212619Y-107207142D01*
X85212619Y-107207142D02*
X85260238Y-107111904D01*
X85260238Y-107111904D02*
X85307857Y-107064285D01*
X85307857Y-107064285D02*
X85403095Y-107016666D01*
X85403095Y-107016666D02*
X85545952Y-107016666D01*
X85545952Y-107016666D02*
X85641190Y-107064285D01*
X85641190Y-107064285D02*
X85688809Y-107111904D01*
X85688809Y-107111904D02*
X85736428Y-107207142D01*
X85736428Y-107207142D02*
X85736428Y-107588094D01*
X85212619Y-106159523D02*
X85212619Y-106349999D01*
X85212619Y-106349999D02*
X85260238Y-106445237D01*
X85260238Y-106445237D02*
X85307857Y-106492856D01*
X85307857Y-106492856D02*
X85450714Y-106588094D01*
X85450714Y-106588094D02*
X85641190Y-106635713D01*
X85641190Y-106635713D02*
X86022142Y-106635713D01*
X86022142Y-106635713D02*
X86117380Y-106588094D01*
X86117380Y-106588094D02*
X86165000Y-106540475D01*
X86165000Y-106540475D02*
X86212619Y-106445237D01*
X86212619Y-106445237D02*
X86212619Y-106254761D01*
X86212619Y-106254761D02*
X86165000Y-106159523D01*
X86165000Y-106159523D02*
X86117380Y-106111904D01*
X86117380Y-106111904D02*
X86022142Y-106064285D01*
X86022142Y-106064285D02*
X85784047Y-106064285D01*
X85784047Y-106064285D02*
X85688809Y-106111904D01*
X85688809Y-106111904D02*
X85641190Y-106159523D01*
X85641190Y-106159523D02*
X85593571Y-106254761D01*
X85593571Y-106254761D02*
X85593571Y-106445237D01*
X85593571Y-106445237D02*
X85641190Y-106540475D01*
X85641190Y-106540475D02*
X85688809Y-106588094D01*
X85688809Y-106588094D02*
X85784047Y-106635713D01*
%TO.C,R2*%
X74462619Y-98516666D02*
X73986428Y-98849999D01*
X74462619Y-99088094D02*
X73462619Y-99088094D01*
X73462619Y-99088094D02*
X73462619Y-98707142D01*
X73462619Y-98707142D02*
X73510238Y-98611904D01*
X73510238Y-98611904D02*
X73557857Y-98564285D01*
X73557857Y-98564285D02*
X73653095Y-98516666D01*
X73653095Y-98516666D02*
X73795952Y-98516666D01*
X73795952Y-98516666D02*
X73891190Y-98564285D01*
X73891190Y-98564285D02*
X73938809Y-98611904D01*
X73938809Y-98611904D02*
X73986428Y-98707142D01*
X73986428Y-98707142D02*
X73986428Y-99088094D01*
X73557857Y-98135713D02*
X73510238Y-98088094D01*
X73510238Y-98088094D02*
X73462619Y-97992856D01*
X73462619Y-97992856D02*
X73462619Y-97754761D01*
X73462619Y-97754761D02*
X73510238Y-97659523D01*
X73510238Y-97659523D02*
X73557857Y-97611904D01*
X73557857Y-97611904D02*
X73653095Y-97564285D01*
X73653095Y-97564285D02*
X73748333Y-97564285D01*
X73748333Y-97564285D02*
X73891190Y-97611904D01*
X73891190Y-97611904D02*
X74462619Y-98183332D01*
X74462619Y-98183332D02*
X74462619Y-97564285D01*
%TO.C,C1*%
X97858333Y-79567380D02*
X97810714Y-79615000D01*
X97810714Y-79615000D02*
X97667857Y-79662619D01*
X97667857Y-79662619D02*
X97572619Y-79662619D01*
X97572619Y-79662619D02*
X97429762Y-79615000D01*
X97429762Y-79615000D02*
X97334524Y-79519761D01*
X97334524Y-79519761D02*
X97286905Y-79424523D01*
X97286905Y-79424523D02*
X97239286Y-79234047D01*
X97239286Y-79234047D02*
X97239286Y-79091190D01*
X97239286Y-79091190D02*
X97286905Y-78900714D01*
X97286905Y-78900714D02*
X97334524Y-78805476D01*
X97334524Y-78805476D02*
X97429762Y-78710238D01*
X97429762Y-78710238D02*
X97572619Y-78662619D01*
X97572619Y-78662619D02*
X97667857Y-78662619D01*
X97667857Y-78662619D02*
X97810714Y-78710238D01*
X97810714Y-78710238D02*
X97858333Y-78757857D01*
X98810714Y-79662619D02*
X98239286Y-79662619D01*
X98525000Y-79662619D02*
X98525000Y-78662619D01*
X98525000Y-78662619D02*
X98429762Y-78805476D01*
X98429762Y-78805476D02*
X98334524Y-78900714D01*
X98334524Y-78900714D02*
X98239286Y-78948333D01*
%TO.C,D1*%
X74087619Y-90913094D02*
X73087619Y-90913094D01*
X73087619Y-90913094D02*
X73087619Y-90674999D01*
X73087619Y-90674999D02*
X73135238Y-90532142D01*
X73135238Y-90532142D02*
X73230476Y-90436904D01*
X73230476Y-90436904D02*
X73325714Y-90389285D01*
X73325714Y-90389285D02*
X73516190Y-90341666D01*
X73516190Y-90341666D02*
X73659047Y-90341666D01*
X73659047Y-90341666D02*
X73849523Y-90389285D01*
X73849523Y-90389285D02*
X73944761Y-90436904D01*
X73944761Y-90436904D02*
X74040000Y-90532142D01*
X74040000Y-90532142D02*
X74087619Y-90674999D01*
X74087619Y-90674999D02*
X74087619Y-90913094D01*
X74087619Y-89389285D02*
X74087619Y-89960713D01*
X74087619Y-89674999D02*
X73087619Y-89674999D01*
X73087619Y-89674999D02*
X73230476Y-89770237D01*
X73230476Y-89770237D02*
X73325714Y-89865475D01*
X73325714Y-89865475D02*
X73373333Y-89960713D01*
%TO.C,C2*%
X81017380Y-69216666D02*
X81065000Y-69264285D01*
X81065000Y-69264285D02*
X81112619Y-69407142D01*
X81112619Y-69407142D02*
X81112619Y-69502380D01*
X81112619Y-69502380D02*
X81065000Y-69645237D01*
X81065000Y-69645237D02*
X80969761Y-69740475D01*
X80969761Y-69740475D02*
X80874523Y-69788094D01*
X80874523Y-69788094D02*
X80684047Y-69835713D01*
X80684047Y-69835713D02*
X80541190Y-69835713D01*
X80541190Y-69835713D02*
X80350714Y-69788094D01*
X80350714Y-69788094D02*
X80255476Y-69740475D01*
X80255476Y-69740475D02*
X80160238Y-69645237D01*
X80160238Y-69645237D02*
X80112619Y-69502380D01*
X80112619Y-69502380D02*
X80112619Y-69407142D01*
X80112619Y-69407142D02*
X80160238Y-69264285D01*
X80160238Y-69264285D02*
X80207857Y-69216666D01*
X80207857Y-68835713D02*
X80160238Y-68788094D01*
X80160238Y-68788094D02*
X80112619Y-68692856D01*
X80112619Y-68692856D02*
X80112619Y-68454761D01*
X80112619Y-68454761D02*
X80160238Y-68359523D01*
X80160238Y-68359523D02*
X80207857Y-68311904D01*
X80207857Y-68311904D02*
X80303095Y-68264285D01*
X80303095Y-68264285D02*
X80398333Y-68264285D01*
X80398333Y-68264285D02*
X80541190Y-68311904D01*
X80541190Y-68311904D02*
X81112619Y-68883332D01*
X81112619Y-68883332D02*
X81112619Y-68264285D01*
%TO.C,R3*%
X74037619Y-93116666D02*
X73561428Y-93449999D01*
X74037619Y-93688094D02*
X73037619Y-93688094D01*
X73037619Y-93688094D02*
X73037619Y-93307142D01*
X73037619Y-93307142D02*
X73085238Y-93211904D01*
X73085238Y-93211904D02*
X73132857Y-93164285D01*
X73132857Y-93164285D02*
X73228095Y-93116666D01*
X73228095Y-93116666D02*
X73370952Y-93116666D01*
X73370952Y-93116666D02*
X73466190Y-93164285D01*
X73466190Y-93164285D02*
X73513809Y-93211904D01*
X73513809Y-93211904D02*
X73561428Y-93307142D01*
X73561428Y-93307142D02*
X73561428Y-93688094D01*
X73037619Y-92783332D02*
X73037619Y-92164285D01*
X73037619Y-92164285D02*
X73418571Y-92497618D01*
X73418571Y-92497618D02*
X73418571Y-92354761D01*
X73418571Y-92354761D02*
X73466190Y-92259523D01*
X73466190Y-92259523D02*
X73513809Y-92211904D01*
X73513809Y-92211904D02*
X73609047Y-92164285D01*
X73609047Y-92164285D02*
X73847142Y-92164285D01*
X73847142Y-92164285D02*
X73942380Y-92211904D01*
X73942380Y-92211904D02*
X73990000Y-92259523D01*
X73990000Y-92259523D02*
X74037619Y-92354761D01*
X74037619Y-92354761D02*
X74037619Y-92640475D01*
X74037619Y-92640475D02*
X73990000Y-92735713D01*
X73990000Y-92735713D02*
X73942380Y-92783332D01*
%TO.C,D2*%
X95537619Y-114438094D02*
X94537619Y-114438094D01*
X94537619Y-114438094D02*
X94537619Y-114199999D01*
X94537619Y-114199999D02*
X94585238Y-114057142D01*
X94585238Y-114057142D02*
X94680476Y-113961904D01*
X94680476Y-113961904D02*
X94775714Y-113914285D01*
X94775714Y-113914285D02*
X94966190Y-113866666D01*
X94966190Y-113866666D02*
X95109047Y-113866666D01*
X95109047Y-113866666D02*
X95299523Y-113914285D01*
X95299523Y-113914285D02*
X95394761Y-113961904D01*
X95394761Y-113961904D02*
X95490000Y-114057142D01*
X95490000Y-114057142D02*
X95537619Y-114199999D01*
X95537619Y-114199999D02*
X95537619Y-114438094D01*
X94632857Y-113485713D02*
X94585238Y-113438094D01*
X94585238Y-113438094D02*
X94537619Y-113342856D01*
X94537619Y-113342856D02*
X94537619Y-113104761D01*
X94537619Y-113104761D02*
X94585238Y-113009523D01*
X94585238Y-113009523D02*
X94632857Y-112961904D01*
X94632857Y-112961904D02*
X94728095Y-112914285D01*
X94728095Y-112914285D02*
X94823333Y-112914285D01*
X94823333Y-112914285D02*
X94966190Y-112961904D01*
X94966190Y-112961904D02*
X95537619Y-113533332D01*
X95537619Y-113533332D02*
X95537619Y-112914285D01*
X95587619Y-112408332D02*
X94587619Y-112408332D01*
X94587619Y-112408332D02*
X94587619Y-112027380D01*
X94587619Y-112027380D02*
X94635238Y-111932142D01*
X94635238Y-111932142D02*
X94682857Y-111884523D01*
X94682857Y-111884523D02*
X94778095Y-111836904D01*
X94778095Y-111836904D02*
X94920952Y-111836904D01*
X94920952Y-111836904D02*
X95016190Y-111884523D01*
X95016190Y-111884523D02*
X95063809Y-111932142D01*
X95063809Y-111932142D02*
X95111428Y-112027380D01*
X95111428Y-112027380D02*
X95111428Y-112408332D01*
X94587619Y-111503570D02*
X95587619Y-111265475D01*
X95587619Y-111265475D02*
X94873333Y-111074999D01*
X94873333Y-111074999D02*
X95587619Y-110884523D01*
X95587619Y-110884523D02*
X94587619Y-110646428D01*
X95587619Y-109694047D02*
X95111428Y-110027380D01*
X95587619Y-110265475D02*
X94587619Y-110265475D01*
X94587619Y-110265475D02*
X94587619Y-109884523D01*
X94587619Y-109884523D02*
X94635238Y-109789285D01*
X94635238Y-109789285D02*
X94682857Y-109741666D01*
X94682857Y-109741666D02*
X94778095Y-109694047D01*
X94778095Y-109694047D02*
X94920952Y-109694047D01*
X94920952Y-109694047D02*
X95016190Y-109741666D01*
X95016190Y-109741666D02*
X95063809Y-109789285D01*
X95063809Y-109789285D02*
X95111428Y-109884523D01*
X95111428Y-109884523D02*
X95111428Y-110265475D01*
%TO.C,R5*%
X95637619Y-103866666D02*
X95161428Y-104199999D01*
X95637619Y-104438094D02*
X94637619Y-104438094D01*
X94637619Y-104438094D02*
X94637619Y-104057142D01*
X94637619Y-104057142D02*
X94685238Y-103961904D01*
X94685238Y-103961904D02*
X94732857Y-103914285D01*
X94732857Y-103914285D02*
X94828095Y-103866666D01*
X94828095Y-103866666D02*
X94970952Y-103866666D01*
X94970952Y-103866666D02*
X95066190Y-103914285D01*
X95066190Y-103914285D02*
X95113809Y-103961904D01*
X95113809Y-103961904D02*
X95161428Y-104057142D01*
X95161428Y-104057142D02*
X95161428Y-104438094D01*
X94637619Y-102961904D02*
X94637619Y-103438094D01*
X94637619Y-103438094D02*
X95113809Y-103485713D01*
X95113809Y-103485713D02*
X95066190Y-103438094D01*
X95066190Y-103438094D02*
X95018571Y-103342856D01*
X95018571Y-103342856D02*
X95018571Y-103104761D01*
X95018571Y-103104761D02*
X95066190Y-103009523D01*
X95066190Y-103009523D02*
X95113809Y-102961904D01*
X95113809Y-102961904D02*
X95209047Y-102914285D01*
X95209047Y-102914285D02*
X95447142Y-102914285D01*
X95447142Y-102914285D02*
X95542380Y-102961904D01*
X95542380Y-102961904D02*
X95590000Y-103009523D01*
X95590000Y-103009523D02*
X95637619Y-103104761D01*
X95637619Y-103104761D02*
X95637619Y-103342856D01*
X95637619Y-103342856D02*
X95590000Y-103438094D01*
X95590000Y-103438094D02*
X95542380Y-103485713D01*
%TO.C,R1*%
X79262619Y-74341666D02*
X78786428Y-74674999D01*
X79262619Y-74913094D02*
X78262619Y-74913094D01*
X78262619Y-74913094D02*
X78262619Y-74532142D01*
X78262619Y-74532142D02*
X78310238Y-74436904D01*
X78310238Y-74436904D02*
X78357857Y-74389285D01*
X78357857Y-74389285D02*
X78453095Y-74341666D01*
X78453095Y-74341666D02*
X78595952Y-74341666D01*
X78595952Y-74341666D02*
X78691190Y-74389285D01*
X78691190Y-74389285D02*
X78738809Y-74436904D01*
X78738809Y-74436904D02*
X78786428Y-74532142D01*
X78786428Y-74532142D02*
X78786428Y-74913094D01*
X79262619Y-73389285D02*
X79262619Y-73960713D01*
X79262619Y-73674999D02*
X78262619Y-73674999D01*
X78262619Y-73674999D02*
X78405476Y-73770237D01*
X78405476Y-73770237D02*
X78500714Y-73865475D01*
X78500714Y-73865475D02*
X78548333Y-73960713D01*
%TO.C,FASTDROP1*%
X47294809Y-92299857D02*
X47294809Y-92633190D01*
X47818619Y-92633190D02*
X46818619Y-92633190D01*
X46818619Y-92633190D02*
X46818619Y-92157000D01*
X47532904Y-91823666D02*
X47532904Y-91347476D01*
X47818619Y-91918904D02*
X46818619Y-91585571D01*
X46818619Y-91585571D02*
X47818619Y-91252238D01*
X47771000Y-90966523D02*
X47818619Y-90823666D01*
X47818619Y-90823666D02*
X47818619Y-90585571D01*
X47818619Y-90585571D02*
X47771000Y-90490333D01*
X47771000Y-90490333D02*
X47723380Y-90442714D01*
X47723380Y-90442714D02*
X47628142Y-90395095D01*
X47628142Y-90395095D02*
X47532904Y-90395095D01*
X47532904Y-90395095D02*
X47437666Y-90442714D01*
X47437666Y-90442714D02*
X47390047Y-90490333D01*
X47390047Y-90490333D02*
X47342428Y-90585571D01*
X47342428Y-90585571D02*
X47294809Y-90776047D01*
X47294809Y-90776047D02*
X47247190Y-90871285D01*
X47247190Y-90871285D02*
X47199571Y-90918904D01*
X47199571Y-90918904D02*
X47104333Y-90966523D01*
X47104333Y-90966523D02*
X47009095Y-90966523D01*
X47009095Y-90966523D02*
X46913857Y-90918904D01*
X46913857Y-90918904D02*
X46866238Y-90871285D01*
X46866238Y-90871285D02*
X46818619Y-90776047D01*
X46818619Y-90776047D02*
X46818619Y-90537952D01*
X46818619Y-90537952D02*
X46866238Y-90395095D01*
X46818619Y-90109380D02*
X46818619Y-89537952D01*
X47818619Y-89823666D02*
X46818619Y-89823666D01*
X47818619Y-89204618D02*
X46818619Y-89204618D01*
X46818619Y-89204618D02*
X46818619Y-88966523D01*
X46818619Y-88966523D02*
X46866238Y-88823666D01*
X46866238Y-88823666D02*
X46961476Y-88728428D01*
X46961476Y-88728428D02*
X47056714Y-88680809D01*
X47056714Y-88680809D02*
X47247190Y-88633190D01*
X47247190Y-88633190D02*
X47390047Y-88633190D01*
X47390047Y-88633190D02*
X47580523Y-88680809D01*
X47580523Y-88680809D02*
X47675761Y-88728428D01*
X47675761Y-88728428D02*
X47771000Y-88823666D01*
X47771000Y-88823666D02*
X47818619Y-88966523D01*
X47818619Y-88966523D02*
X47818619Y-89204618D01*
X47818619Y-87633190D02*
X47342428Y-87966523D01*
X47818619Y-88204618D02*
X46818619Y-88204618D01*
X46818619Y-88204618D02*
X46818619Y-87823666D01*
X46818619Y-87823666D02*
X46866238Y-87728428D01*
X46866238Y-87728428D02*
X46913857Y-87680809D01*
X46913857Y-87680809D02*
X47009095Y-87633190D01*
X47009095Y-87633190D02*
X47151952Y-87633190D01*
X47151952Y-87633190D02*
X47247190Y-87680809D01*
X47247190Y-87680809D02*
X47294809Y-87728428D01*
X47294809Y-87728428D02*
X47342428Y-87823666D01*
X47342428Y-87823666D02*
X47342428Y-88204618D01*
X46818619Y-87014142D02*
X46818619Y-86823666D01*
X46818619Y-86823666D02*
X46866238Y-86728428D01*
X46866238Y-86728428D02*
X46961476Y-86633190D01*
X46961476Y-86633190D02*
X47151952Y-86585571D01*
X47151952Y-86585571D02*
X47485285Y-86585571D01*
X47485285Y-86585571D02*
X47675761Y-86633190D01*
X47675761Y-86633190D02*
X47771000Y-86728428D01*
X47771000Y-86728428D02*
X47818619Y-86823666D01*
X47818619Y-86823666D02*
X47818619Y-87014142D01*
X47818619Y-87014142D02*
X47771000Y-87109380D01*
X47771000Y-87109380D02*
X47675761Y-87204618D01*
X47675761Y-87204618D02*
X47485285Y-87252237D01*
X47485285Y-87252237D02*
X47151952Y-87252237D01*
X47151952Y-87252237D02*
X46961476Y-87204618D01*
X46961476Y-87204618D02*
X46866238Y-87109380D01*
X46866238Y-87109380D02*
X46818619Y-87014142D01*
X47818619Y-86156999D02*
X46818619Y-86156999D01*
X46818619Y-86156999D02*
X46818619Y-85776047D01*
X46818619Y-85776047D02*
X46866238Y-85680809D01*
X46866238Y-85680809D02*
X46913857Y-85633190D01*
X46913857Y-85633190D02*
X47009095Y-85585571D01*
X47009095Y-85585571D02*
X47151952Y-85585571D01*
X47151952Y-85585571D02*
X47247190Y-85633190D01*
X47247190Y-85633190D02*
X47294809Y-85680809D01*
X47294809Y-85680809D02*
X47342428Y-85776047D01*
X47342428Y-85776047D02*
X47342428Y-86156999D01*
X47818619Y-84633190D02*
X47818619Y-85204618D01*
X47818619Y-84918904D02*
X46818619Y-84918904D01*
X46818619Y-84918904D02*
X46961476Y-85014142D01*
X46961476Y-85014142D02*
X47056714Y-85109380D01*
X47056714Y-85109380D02*
X47104333Y-85204618D01*
%TO.C,HARDDROP1*%
X47477619Y-123758285D02*
X46477619Y-123758285D01*
X46953809Y-123758285D02*
X46953809Y-123186857D01*
X47477619Y-123186857D02*
X46477619Y-123186857D01*
X47191904Y-122758285D02*
X47191904Y-122282095D01*
X47477619Y-122853523D02*
X46477619Y-122520190D01*
X46477619Y-122520190D02*
X47477619Y-122186857D01*
X47477619Y-121282095D02*
X47001428Y-121615428D01*
X47477619Y-121853523D02*
X46477619Y-121853523D01*
X46477619Y-121853523D02*
X46477619Y-121472571D01*
X46477619Y-121472571D02*
X46525238Y-121377333D01*
X46525238Y-121377333D02*
X46572857Y-121329714D01*
X46572857Y-121329714D02*
X46668095Y-121282095D01*
X46668095Y-121282095D02*
X46810952Y-121282095D01*
X46810952Y-121282095D02*
X46906190Y-121329714D01*
X46906190Y-121329714D02*
X46953809Y-121377333D01*
X46953809Y-121377333D02*
X47001428Y-121472571D01*
X47001428Y-121472571D02*
X47001428Y-121853523D01*
X47477619Y-120853523D02*
X46477619Y-120853523D01*
X46477619Y-120853523D02*
X46477619Y-120615428D01*
X46477619Y-120615428D02*
X46525238Y-120472571D01*
X46525238Y-120472571D02*
X46620476Y-120377333D01*
X46620476Y-120377333D02*
X46715714Y-120329714D01*
X46715714Y-120329714D02*
X46906190Y-120282095D01*
X46906190Y-120282095D02*
X47049047Y-120282095D01*
X47049047Y-120282095D02*
X47239523Y-120329714D01*
X47239523Y-120329714D02*
X47334761Y-120377333D01*
X47334761Y-120377333D02*
X47430000Y-120472571D01*
X47430000Y-120472571D02*
X47477619Y-120615428D01*
X47477619Y-120615428D02*
X47477619Y-120853523D01*
X47477619Y-119853523D02*
X46477619Y-119853523D01*
X46477619Y-119853523D02*
X46477619Y-119615428D01*
X46477619Y-119615428D02*
X46525238Y-119472571D01*
X46525238Y-119472571D02*
X46620476Y-119377333D01*
X46620476Y-119377333D02*
X46715714Y-119329714D01*
X46715714Y-119329714D02*
X46906190Y-119282095D01*
X46906190Y-119282095D02*
X47049047Y-119282095D01*
X47049047Y-119282095D02*
X47239523Y-119329714D01*
X47239523Y-119329714D02*
X47334761Y-119377333D01*
X47334761Y-119377333D02*
X47430000Y-119472571D01*
X47430000Y-119472571D02*
X47477619Y-119615428D01*
X47477619Y-119615428D02*
X47477619Y-119853523D01*
X47477619Y-118282095D02*
X47001428Y-118615428D01*
X47477619Y-118853523D02*
X46477619Y-118853523D01*
X46477619Y-118853523D02*
X46477619Y-118472571D01*
X46477619Y-118472571D02*
X46525238Y-118377333D01*
X46525238Y-118377333D02*
X46572857Y-118329714D01*
X46572857Y-118329714D02*
X46668095Y-118282095D01*
X46668095Y-118282095D02*
X46810952Y-118282095D01*
X46810952Y-118282095D02*
X46906190Y-118329714D01*
X46906190Y-118329714D02*
X46953809Y-118377333D01*
X46953809Y-118377333D02*
X47001428Y-118472571D01*
X47001428Y-118472571D02*
X47001428Y-118853523D01*
X46477619Y-117663047D02*
X46477619Y-117472571D01*
X46477619Y-117472571D02*
X46525238Y-117377333D01*
X46525238Y-117377333D02*
X46620476Y-117282095D01*
X46620476Y-117282095D02*
X46810952Y-117234476D01*
X46810952Y-117234476D02*
X47144285Y-117234476D01*
X47144285Y-117234476D02*
X47334761Y-117282095D01*
X47334761Y-117282095D02*
X47430000Y-117377333D01*
X47430000Y-117377333D02*
X47477619Y-117472571D01*
X47477619Y-117472571D02*
X47477619Y-117663047D01*
X47477619Y-117663047D02*
X47430000Y-117758285D01*
X47430000Y-117758285D02*
X47334761Y-117853523D01*
X47334761Y-117853523D02*
X47144285Y-117901142D01*
X47144285Y-117901142D02*
X46810952Y-117901142D01*
X46810952Y-117901142D02*
X46620476Y-117853523D01*
X46620476Y-117853523D02*
X46525238Y-117758285D01*
X46525238Y-117758285D02*
X46477619Y-117663047D01*
X47477619Y-116805904D02*
X46477619Y-116805904D01*
X46477619Y-116805904D02*
X46477619Y-116424952D01*
X46477619Y-116424952D02*
X46525238Y-116329714D01*
X46525238Y-116329714D02*
X46572857Y-116282095D01*
X46572857Y-116282095D02*
X46668095Y-116234476D01*
X46668095Y-116234476D02*
X46810952Y-116234476D01*
X46810952Y-116234476D02*
X46906190Y-116282095D01*
X46906190Y-116282095D02*
X46953809Y-116329714D01*
X46953809Y-116329714D02*
X47001428Y-116424952D01*
X47001428Y-116424952D02*
X47001428Y-116805904D01*
X47477619Y-115282095D02*
X47477619Y-115853523D01*
X47477619Y-115567809D02*
X46477619Y-115567809D01*
X46477619Y-115567809D02*
X46620476Y-115663047D01*
X46620476Y-115663047D02*
X46715714Y-115758285D01*
X46715714Y-115758285D02*
X46763333Y-115853523D01*
%TO.C,R7*%
X74262619Y-86966666D02*
X73786428Y-87299999D01*
X74262619Y-87538094D02*
X73262619Y-87538094D01*
X73262619Y-87538094D02*
X73262619Y-87157142D01*
X73262619Y-87157142D02*
X73310238Y-87061904D01*
X73310238Y-87061904D02*
X73357857Y-87014285D01*
X73357857Y-87014285D02*
X73453095Y-86966666D01*
X73453095Y-86966666D02*
X73595952Y-86966666D01*
X73595952Y-86966666D02*
X73691190Y-87014285D01*
X73691190Y-87014285D02*
X73738809Y-87061904D01*
X73738809Y-87061904D02*
X73786428Y-87157142D01*
X73786428Y-87157142D02*
X73786428Y-87538094D01*
X73262619Y-86633332D02*
X73262619Y-85966666D01*
X73262619Y-85966666D02*
X74262619Y-86395237D01*
%TO.C,RECHTS1*%
X47969419Y-101931400D02*
X47493228Y-102264733D01*
X47969419Y-102502828D02*
X46969419Y-102502828D01*
X46969419Y-102502828D02*
X46969419Y-102121876D01*
X46969419Y-102121876D02*
X47017038Y-102026638D01*
X47017038Y-102026638D02*
X47064657Y-101979019D01*
X47064657Y-101979019D02*
X47159895Y-101931400D01*
X47159895Y-101931400D02*
X47302752Y-101931400D01*
X47302752Y-101931400D02*
X47397990Y-101979019D01*
X47397990Y-101979019D02*
X47445609Y-102026638D01*
X47445609Y-102026638D02*
X47493228Y-102121876D01*
X47493228Y-102121876D02*
X47493228Y-102502828D01*
X47445609Y-101502828D02*
X47445609Y-101169495D01*
X47969419Y-101026638D02*
X47969419Y-101502828D01*
X47969419Y-101502828D02*
X46969419Y-101502828D01*
X46969419Y-101502828D02*
X46969419Y-101026638D01*
X47874180Y-100026638D02*
X47921800Y-100074257D01*
X47921800Y-100074257D02*
X47969419Y-100217114D01*
X47969419Y-100217114D02*
X47969419Y-100312352D01*
X47969419Y-100312352D02*
X47921800Y-100455209D01*
X47921800Y-100455209D02*
X47826561Y-100550447D01*
X47826561Y-100550447D02*
X47731323Y-100598066D01*
X47731323Y-100598066D02*
X47540847Y-100645685D01*
X47540847Y-100645685D02*
X47397990Y-100645685D01*
X47397990Y-100645685D02*
X47207514Y-100598066D01*
X47207514Y-100598066D02*
X47112276Y-100550447D01*
X47112276Y-100550447D02*
X47017038Y-100455209D01*
X47017038Y-100455209D02*
X46969419Y-100312352D01*
X46969419Y-100312352D02*
X46969419Y-100217114D01*
X46969419Y-100217114D02*
X47017038Y-100074257D01*
X47017038Y-100074257D02*
X47064657Y-100026638D01*
X47969419Y-99598066D02*
X46969419Y-99598066D01*
X47445609Y-99598066D02*
X47445609Y-99026638D01*
X47969419Y-99026638D02*
X46969419Y-99026638D01*
X46969419Y-98693304D02*
X46969419Y-98121876D01*
X47969419Y-98407590D02*
X46969419Y-98407590D01*
X47921800Y-97836161D02*
X47969419Y-97693304D01*
X47969419Y-97693304D02*
X47969419Y-97455209D01*
X47969419Y-97455209D02*
X47921800Y-97359971D01*
X47921800Y-97359971D02*
X47874180Y-97312352D01*
X47874180Y-97312352D02*
X47778942Y-97264733D01*
X47778942Y-97264733D02*
X47683704Y-97264733D01*
X47683704Y-97264733D02*
X47588466Y-97312352D01*
X47588466Y-97312352D02*
X47540847Y-97359971D01*
X47540847Y-97359971D02*
X47493228Y-97455209D01*
X47493228Y-97455209D02*
X47445609Y-97645685D01*
X47445609Y-97645685D02*
X47397990Y-97740923D01*
X47397990Y-97740923D02*
X47350371Y-97788542D01*
X47350371Y-97788542D02*
X47255133Y-97836161D01*
X47255133Y-97836161D02*
X47159895Y-97836161D01*
X47159895Y-97836161D02*
X47064657Y-97788542D01*
X47064657Y-97788542D02*
X47017038Y-97740923D01*
X47017038Y-97740923D02*
X46969419Y-97645685D01*
X46969419Y-97645685D02*
X46969419Y-97407590D01*
X46969419Y-97407590D02*
X47017038Y-97264733D01*
X47969419Y-96312352D02*
X47969419Y-96883780D01*
X47969419Y-96598066D02*
X46969419Y-96598066D01*
X46969419Y-96598066D02*
X47112276Y-96693304D01*
X47112276Y-96693304D02*
X47207514Y-96788542D01*
X47207514Y-96788542D02*
X47255133Y-96883780D01*
%TO.C,ROTATE1*%
X57408619Y-91144333D02*
X56932428Y-91477666D01*
X57408619Y-91715761D02*
X56408619Y-91715761D01*
X56408619Y-91715761D02*
X56408619Y-91334809D01*
X56408619Y-91334809D02*
X56456238Y-91239571D01*
X56456238Y-91239571D02*
X56503857Y-91191952D01*
X56503857Y-91191952D02*
X56599095Y-91144333D01*
X56599095Y-91144333D02*
X56741952Y-91144333D01*
X56741952Y-91144333D02*
X56837190Y-91191952D01*
X56837190Y-91191952D02*
X56884809Y-91239571D01*
X56884809Y-91239571D02*
X56932428Y-91334809D01*
X56932428Y-91334809D02*
X56932428Y-91715761D01*
X56408619Y-90525285D02*
X56408619Y-90334809D01*
X56408619Y-90334809D02*
X56456238Y-90239571D01*
X56456238Y-90239571D02*
X56551476Y-90144333D01*
X56551476Y-90144333D02*
X56741952Y-90096714D01*
X56741952Y-90096714D02*
X57075285Y-90096714D01*
X57075285Y-90096714D02*
X57265761Y-90144333D01*
X57265761Y-90144333D02*
X57361000Y-90239571D01*
X57361000Y-90239571D02*
X57408619Y-90334809D01*
X57408619Y-90334809D02*
X57408619Y-90525285D01*
X57408619Y-90525285D02*
X57361000Y-90620523D01*
X57361000Y-90620523D02*
X57265761Y-90715761D01*
X57265761Y-90715761D02*
X57075285Y-90763380D01*
X57075285Y-90763380D02*
X56741952Y-90763380D01*
X56741952Y-90763380D02*
X56551476Y-90715761D01*
X56551476Y-90715761D02*
X56456238Y-90620523D01*
X56456238Y-90620523D02*
X56408619Y-90525285D01*
X56408619Y-89810999D02*
X56408619Y-89239571D01*
X57408619Y-89525285D02*
X56408619Y-89525285D01*
X57122904Y-88953856D02*
X57122904Y-88477666D01*
X57408619Y-89049094D02*
X56408619Y-88715761D01*
X56408619Y-88715761D02*
X57408619Y-88382428D01*
X56408619Y-88191951D02*
X56408619Y-87620523D01*
X57408619Y-87906237D02*
X56408619Y-87906237D01*
X56884809Y-87287189D02*
X56884809Y-86953856D01*
X57408619Y-86810999D02*
X57408619Y-87287189D01*
X57408619Y-87287189D02*
X56408619Y-87287189D01*
X56408619Y-87287189D02*
X56408619Y-86810999D01*
X57408619Y-85858618D02*
X57408619Y-86430046D01*
X57408619Y-86144332D02*
X56408619Y-86144332D01*
X56408619Y-86144332D02*
X56551476Y-86239570D01*
X56551476Y-86239570D02*
X56646714Y-86334808D01*
X56646714Y-86334808D02*
X56694333Y-86430046D01*
%TO.C,C4*%
X88692380Y-64466666D02*
X88740000Y-64514285D01*
X88740000Y-64514285D02*
X88787619Y-64657142D01*
X88787619Y-64657142D02*
X88787619Y-64752380D01*
X88787619Y-64752380D02*
X88740000Y-64895237D01*
X88740000Y-64895237D02*
X88644761Y-64990475D01*
X88644761Y-64990475D02*
X88549523Y-65038094D01*
X88549523Y-65038094D02*
X88359047Y-65085713D01*
X88359047Y-65085713D02*
X88216190Y-65085713D01*
X88216190Y-65085713D02*
X88025714Y-65038094D01*
X88025714Y-65038094D02*
X87930476Y-64990475D01*
X87930476Y-64990475D02*
X87835238Y-64895237D01*
X87835238Y-64895237D02*
X87787619Y-64752380D01*
X87787619Y-64752380D02*
X87787619Y-64657142D01*
X87787619Y-64657142D02*
X87835238Y-64514285D01*
X87835238Y-64514285D02*
X87882857Y-64466666D01*
X88120952Y-63609523D02*
X88787619Y-63609523D01*
X87740000Y-63847618D02*
X88454285Y-64085713D01*
X88454285Y-64085713D02*
X88454285Y-63466666D01*
%TO.C,RESET1*%
X69387619Y-111128571D02*
X68911428Y-111461904D01*
X69387619Y-111699999D02*
X68387619Y-111699999D01*
X68387619Y-111699999D02*
X68387619Y-111319047D01*
X68387619Y-111319047D02*
X68435238Y-111223809D01*
X68435238Y-111223809D02*
X68482857Y-111176190D01*
X68482857Y-111176190D02*
X68578095Y-111128571D01*
X68578095Y-111128571D02*
X68720952Y-111128571D01*
X68720952Y-111128571D02*
X68816190Y-111176190D01*
X68816190Y-111176190D02*
X68863809Y-111223809D01*
X68863809Y-111223809D02*
X68911428Y-111319047D01*
X68911428Y-111319047D02*
X68911428Y-111699999D01*
X68863809Y-110699999D02*
X68863809Y-110366666D01*
X69387619Y-110223809D02*
X69387619Y-110699999D01*
X69387619Y-110699999D02*
X68387619Y-110699999D01*
X68387619Y-110699999D02*
X68387619Y-110223809D01*
X69340000Y-109842856D02*
X69387619Y-109699999D01*
X69387619Y-109699999D02*
X69387619Y-109461904D01*
X69387619Y-109461904D02*
X69340000Y-109366666D01*
X69340000Y-109366666D02*
X69292380Y-109319047D01*
X69292380Y-109319047D02*
X69197142Y-109271428D01*
X69197142Y-109271428D02*
X69101904Y-109271428D01*
X69101904Y-109271428D02*
X69006666Y-109319047D01*
X69006666Y-109319047D02*
X68959047Y-109366666D01*
X68959047Y-109366666D02*
X68911428Y-109461904D01*
X68911428Y-109461904D02*
X68863809Y-109652380D01*
X68863809Y-109652380D02*
X68816190Y-109747618D01*
X68816190Y-109747618D02*
X68768571Y-109795237D01*
X68768571Y-109795237D02*
X68673333Y-109842856D01*
X68673333Y-109842856D02*
X68578095Y-109842856D01*
X68578095Y-109842856D02*
X68482857Y-109795237D01*
X68482857Y-109795237D02*
X68435238Y-109747618D01*
X68435238Y-109747618D02*
X68387619Y-109652380D01*
X68387619Y-109652380D02*
X68387619Y-109414285D01*
X68387619Y-109414285D02*
X68435238Y-109271428D01*
X68863809Y-108842856D02*
X68863809Y-108509523D01*
X69387619Y-108366666D02*
X69387619Y-108842856D01*
X69387619Y-108842856D02*
X68387619Y-108842856D01*
X68387619Y-108842856D02*
X68387619Y-108366666D01*
X68387619Y-108080951D02*
X68387619Y-107509523D01*
X69387619Y-107795237D02*
X68387619Y-107795237D01*
X69387619Y-106652380D02*
X69387619Y-107223808D01*
X69387619Y-106938094D02*
X68387619Y-106938094D01*
X68387619Y-106938094D02*
X68530476Y-107033332D01*
X68530476Y-107033332D02*
X68625714Y-107128570D01*
X68625714Y-107128570D02*
X68673333Y-107223808D01*
%TO.C,LINKS1*%
X48018619Y-79288561D02*
X48018619Y-79764751D01*
X48018619Y-79764751D02*
X47018619Y-79764751D01*
X48018619Y-78955227D02*
X47018619Y-78955227D01*
X48018619Y-78479037D02*
X47018619Y-78479037D01*
X47018619Y-78479037D02*
X48018619Y-77907609D01*
X48018619Y-77907609D02*
X47018619Y-77907609D01*
X48018619Y-77431418D02*
X47018619Y-77431418D01*
X48018619Y-76859990D02*
X47447190Y-77288561D01*
X47018619Y-76859990D02*
X47590047Y-77431418D01*
X47971000Y-76479037D02*
X48018619Y-76336180D01*
X48018619Y-76336180D02*
X48018619Y-76098085D01*
X48018619Y-76098085D02*
X47971000Y-76002847D01*
X47971000Y-76002847D02*
X47923380Y-75955228D01*
X47923380Y-75955228D02*
X47828142Y-75907609D01*
X47828142Y-75907609D02*
X47732904Y-75907609D01*
X47732904Y-75907609D02*
X47637666Y-75955228D01*
X47637666Y-75955228D02*
X47590047Y-76002847D01*
X47590047Y-76002847D02*
X47542428Y-76098085D01*
X47542428Y-76098085D02*
X47494809Y-76288561D01*
X47494809Y-76288561D02*
X47447190Y-76383799D01*
X47447190Y-76383799D02*
X47399571Y-76431418D01*
X47399571Y-76431418D02*
X47304333Y-76479037D01*
X47304333Y-76479037D02*
X47209095Y-76479037D01*
X47209095Y-76479037D02*
X47113857Y-76431418D01*
X47113857Y-76431418D02*
X47066238Y-76383799D01*
X47066238Y-76383799D02*
X47018619Y-76288561D01*
X47018619Y-76288561D02*
X47018619Y-76050466D01*
X47018619Y-76050466D02*
X47066238Y-75907609D01*
X48018619Y-74955228D02*
X48018619Y-75526656D01*
X48018619Y-75240942D02*
X47018619Y-75240942D01*
X47018619Y-75240942D02*
X47161476Y-75336180D01*
X47161476Y-75336180D02*
X47256714Y-75431418D01*
X47256714Y-75431418D02*
X47304333Y-75526656D01*
%TO.C,Prog1*%
X87207619Y-118152380D02*
X86207619Y-118152380D01*
X86207619Y-118152380D02*
X86207619Y-117771428D01*
X86207619Y-117771428D02*
X86255238Y-117676190D01*
X86255238Y-117676190D02*
X86302857Y-117628571D01*
X86302857Y-117628571D02*
X86398095Y-117580952D01*
X86398095Y-117580952D02*
X86540952Y-117580952D01*
X86540952Y-117580952D02*
X86636190Y-117628571D01*
X86636190Y-117628571D02*
X86683809Y-117676190D01*
X86683809Y-117676190D02*
X86731428Y-117771428D01*
X86731428Y-117771428D02*
X86731428Y-118152380D01*
X87207619Y-117152380D02*
X86540952Y-117152380D01*
X86731428Y-117152380D02*
X86636190Y-117104761D01*
X86636190Y-117104761D02*
X86588571Y-117057142D01*
X86588571Y-117057142D02*
X86540952Y-116961904D01*
X86540952Y-116961904D02*
X86540952Y-116866666D01*
X87207619Y-116390475D02*
X87160000Y-116485713D01*
X87160000Y-116485713D02*
X87112380Y-116533332D01*
X87112380Y-116533332D02*
X87017142Y-116580951D01*
X87017142Y-116580951D02*
X86731428Y-116580951D01*
X86731428Y-116580951D02*
X86636190Y-116533332D01*
X86636190Y-116533332D02*
X86588571Y-116485713D01*
X86588571Y-116485713D02*
X86540952Y-116390475D01*
X86540952Y-116390475D02*
X86540952Y-116247618D01*
X86540952Y-116247618D02*
X86588571Y-116152380D01*
X86588571Y-116152380D02*
X86636190Y-116104761D01*
X86636190Y-116104761D02*
X86731428Y-116057142D01*
X86731428Y-116057142D02*
X87017142Y-116057142D01*
X87017142Y-116057142D02*
X87112380Y-116104761D01*
X87112380Y-116104761D02*
X87160000Y-116152380D01*
X87160000Y-116152380D02*
X87207619Y-116247618D01*
X87207619Y-116247618D02*
X87207619Y-116390475D01*
X86540952Y-115199999D02*
X87350476Y-115199999D01*
X87350476Y-115199999D02*
X87445714Y-115247618D01*
X87445714Y-115247618D02*
X87493333Y-115295237D01*
X87493333Y-115295237D02*
X87540952Y-115390475D01*
X87540952Y-115390475D02*
X87540952Y-115533332D01*
X87540952Y-115533332D02*
X87493333Y-115628570D01*
X87160000Y-115199999D02*
X87207619Y-115295237D01*
X87207619Y-115295237D02*
X87207619Y-115485713D01*
X87207619Y-115485713D02*
X87160000Y-115580951D01*
X87160000Y-115580951D02*
X87112380Y-115628570D01*
X87112380Y-115628570D02*
X87017142Y-115676189D01*
X87017142Y-115676189D02*
X86731428Y-115676189D01*
X86731428Y-115676189D02*
X86636190Y-115628570D01*
X86636190Y-115628570D02*
X86588571Y-115580951D01*
X86588571Y-115580951D02*
X86540952Y-115485713D01*
X86540952Y-115485713D02*
X86540952Y-115295237D01*
X86540952Y-115295237D02*
X86588571Y-115199999D01*
X87207619Y-114199999D02*
X87207619Y-114771427D01*
X87207619Y-114485713D02*
X86207619Y-114485713D01*
X86207619Y-114485713D02*
X86350476Y-114580951D01*
X86350476Y-114580951D02*
X86445714Y-114676189D01*
X86445714Y-114676189D02*
X86493333Y-114771427D01*
%TO.C,PLO1*%
X82787619Y-74441666D02*
X81787619Y-74441666D01*
X81787619Y-74441666D02*
X81787619Y-74060714D01*
X81787619Y-74060714D02*
X81835238Y-73965476D01*
X81835238Y-73965476D02*
X81882857Y-73917857D01*
X81882857Y-73917857D02*
X81978095Y-73870238D01*
X81978095Y-73870238D02*
X82120952Y-73870238D01*
X82120952Y-73870238D02*
X82216190Y-73917857D01*
X82216190Y-73917857D02*
X82263809Y-73965476D01*
X82263809Y-73965476D02*
X82311428Y-74060714D01*
X82311428Y-74060714D02*
X82311428Y-74441666D01*
X82787619Y-72965476D02*
X82787619Y-73441666D01*
X82787619Y-73441666D02*
X81787619Y-73441666D01*
X81787619Y-72441666D02*
X81787619Y-72251190D01*
X81787619Y-72251190D02*
X81835238Y-72155952D01*
X81835238Y-72155952D02*
X81930476Y-72060714D01*
X81930476Y-72060714D02*
X82120952Y-72013095D01*
X82120952Y-72013095D02*
X82454285Y-72013095D01*
X82454285Y-72013095D02*
X82644761Y-72060714D01*
X82644761Y-72060714D02*
X82740000Y-72155952D01*
X82740000Y-72155952D02*
X82787619Y-72251190D01*
X82787619Y-72251190D02*
X82787619Y-72441666D01*
X82787619Y-72441666D02*
X82740000Y-72536904D01*
X82740000Y-72536904D02*
X82644761Y-72632142D01*
X82644761Y-72632142D02*
X82454285Y-72679761D01*
X82454285Y-72679761D02*
X82120952Y-72679761D01*
X82120952Y-72679761D02*
X81930476Y-72632142D01*
X81930476Y-72632142D02*
X81835238Y-72536904D01*
X81835238Y-72536904D02*
X81787619Y-72441666D01*
X82787619Y-71060714D02*
X82787619Y-71632142D01*
X82787619Y-71346428D02*
X81787619Y-71346428D01*
X81787619Y-71346428D02*
X81930476Y-71441666D01*
X81930476Y-71441666D02*
X82025714Y-71536904D01*
X82025714Y-71536904D02*
X82073333Y-71632142D01*
%TO.C,C3*%
X82717380Y-66266666D02*
X82765000Y-66314285D01*
X82765000Y-66314285D02*
X82812619Y-66457142D01*
X82812619Y-66457142D02*
X82812619Y-66552380D01*
X82812619Y-66552380D02*
X82765000Y-66695237D01*
X82765000Y-66695237D02*
X82669761Y-66790475D01*
X82669761Y-66790475D02*
X82574523Y-66838094D01*
X82574523Y-66838094D02*
X82384047Y-66885713D01*
X82384047Y-66885713D02*
X82241190Y-66885713D01*
X82241190Y-66885713D02*
X82050714Y-66838094D01*
X82050714Y-66838094D02*
X81955476Y-66790475D01*
X81955476Y-66790475D02*
X81860238Y-66695237D01*
X81860238Y-66695237D02*
X81812619Y-66552380D01*
X81812619Y-66552380D02*
X81812619Y-66457142D01*
X81812619Y-66457142D02*
X81860238Y-66314285D01*
X81860238Y-66314285D02*
X81907857Y-66266666D01*
X81812619Y-65933332D02*
X81812619Y-65314285D01*
X81812619Y-65314285D02*
X82193571Y-65647618D01*
X82193571Y-65647618D02*
X82193571Y-65504761D01*
X82193571Y-65504761D02*
X82241190Y-65409523D01*
X82241190Y-65409523D02*
X82288809Y-65361904D01*
X82288809Y-65361904D02*
X82384047Y-65314285D01*
X82384047Y-65314285D02*
X82622142Y-65314285D01*
X82622142Y-65314285D02*
X82717380Y-65361904D01*
X82717380Y-65361904D02*
X82765000Y-65409523D01*
X82765000Y-65409523D02*
X82812619Y-65504761D01*
X82812619Y-65504761D02*
X82812619Y-65790475D01*
X82812619Y-65790475D02*
X82765000Y-65885713D01*
X82765000Y-65885713D02*
X82717380Y-65933332D01*
%TO.C,SW1*%
X73165000Y-81333332D02*
X73212619Y-81190475D01*
X73212619Y-81190475D02*
X73212619Y-80952380D01*
X73212619Y-80952380D02*
X73165000Y-80857142D01*
X73165000Y-80857142D02*
X73117380Y-80809523D01*
X73117380Y-80809523D02*
X73022142Y-80761904D01*
X73022142Y-80761904D02*
X72926904Y-80761904D01*
X72926904Y-80761904D02*
X72831666Y-80809523D01*
X72831666Y-80809523D02*
X72784047Y-80857142D01*
X72784047Y-80857142D02*
X72736428Y-80952380D01*
X72736428Y-80952380D02*
X72688809Y-81142856D01*
X72688809Y-81142856D02*
X72641190Y-81238094D01*
X72641190Y-81238094D02*
X72593571Y-81285713D01*
X72593571Y-81285713D02*
X72498333Y-81333332D01*
X72498333Y-81333332D02*
X72403095Y-81333332D01*
X72403095Y-81333332D02*
X72307857Y-81285713D01*
X72307857Y-81285713D02*
X72260238Y-81238094D01*
X72260238Y-81238094D02*
X72212619Y-81142856D01*
X72212619Y-81142856D02*
X72212619Y-80904761D01*
X72212619Y-80904761D02*
X72260238Y-80761904D01*
X72212619Y-80428570D02*
X73212619Y-80190475D01*
X73212619Y-80190475D02*
X72498333Y-79999999D01*
X72498333Y-79999999D02*
X73212619Y-79809523D01*
X73212619Y-79809523D02*
X72212619Y-79571428D01*
X73212619Y-78666666D02*
X73212619Y-79238094D01*
X73212619Y-78952380D02*
X72212619Y-78952380D01*
X72212619Y-78952380D02*
X72355476Y-79047618D01*
X72355476Y-79047618D02*
X72450714Y-79142856D01*
X72450714Y-79142856D02*
X72498333Y-79238094D01*
X74038809Y-80563094D02*
X74038809Y-80229761D01*
X74562619Y-80086904D02*
X74562619Y-80563094D01*
X74562619Y-80563094D02*
X73562619Y-80563094D01*
X73562619Y-80563094D02*
X73562619Y-80086904D01*
X74562619Y-79658332D02*
X73562619Y-79658332D01*
X73562619Y-79658332D02*
X74562619Y-79086904D01*
X74562619Y-79086904D02*
X73562619Y-79086904D01*
%TO.C,J1*%
X101557619Y-124678333D02*
X102271904Y-124678333D01*
X102271904Y-124678333D02*
X102414761Y-124725952D01*
X102414761Y-124725952D02*
X102510000Y-124821190D01*
X102510000Y-124821190D02*
X102557619Y-124964047D01*
X102557619Y-124964047D02*
X102557619Y-125059285D01*
X102557619Y-123678333D02*
X102557619Y-124249761D01*
X102557619Y-123964047D02*
X101557619Y-123964047D01*
X101557619Y-123964047D02*
X101700476Y-124059285D01*
X101700476Y-124059285D02*
X101795714Y-124154523D01*
X101795714Y-124154523D02*
X101843333Y-124249761D01*
%TO.C,ESP32*%
X97663809Y-97442856D02*
X97663809Y-97109523D01*
X98187619Y-96966666D02*
X98187619Y-97442856D01*
X98187619Y-97442856D02*
X97187619Y-97442856D01*
X97187619Y-97442856D02*
X97187619Y-96966666D01*
X98140000Y-96585713D02*
X98187619Y-96442856D01*
X98187619Y-96442856D02*
X98187619Y-96204761D01*
X98187619Y-96204761D02*
X98140000Y-96109523D01*
X98140000Y-96109523D02*
X98092380Y-96061904D01*
X98092380Y-96061904D02*
X97997142Y-96014285D01*
X97997142Y-96014285D02*
X97901904Y-96014285D01*
X97901904Y-96014285D02*
X97806666Y-96061904D01*
X97806666Y-96061904D02*
X97759047Y-96109523D01*
X97759047Y-96109523D02*
X97711428Y-96204761D01*
X97711428Y-96204761D02*
X97663809Y-96395237D01*
X97663809Y-96395237D02*
X97616190Y-96490475D01*
X97616190Y-96490475D02*
X97568571Y-96538094D01*
X97568571Y-96538094D02*
X97473333Y-96585713D01*
X97473333Y-96585713D02*
X97378095Y-96585713D01*
X97378095Y-96585713D02*
X97282857Y-96538094D01*
X97282857Y-96538094D02*
X97235238Y-96490475D01*
X97235238Y-96490475D02*
X97187619Y-96395237D01*
X97187619Y-96395237D02*
X97187619Y-96157142D01*
X97187619Y-96157142D02*
X97235238Y-96014285D01*
X98187619Y-95585713D02*
X97187619Y-95585713D01*
X97187619Y-95585713D02*
X97187619Y-95204761D01*
X97187619Y-95204761D02*
X97235238Y-95109523D01*
X97235238Y-95109523D02*
X97282857Y-95061904D01*
X97282857Y-95061904D02*
X97378095Y-95014285D01*
X97378095Y-95014285D02*
X97520952Y-95014285D01*
X97520952Y-95014285D02*
X97616190Y-95061904D01*
X97616190Y-95061904D02*
X97663809Y-95109523D01*
X97663809Y-95109523D02*
X97711428Y-95204761D01*
X97711428Y-95204761D02*
X97711428Y-95585713D01*
X97187619Y-94680951D02*
X97187619Y-94061904D01*
X97187619Y-94061904D02*
X97568571Y-94395237D01*
X97568571Y-94395237D02*
X97568571Y-94252380D01*
X97568571Y-94252380D02*
X97616190Y-94157142D01*
X97616190Y-94157142D02*
X97663809Y-94109523D01*
X97663809Y-94109523D02*
X97759047Y-94061904D01*
X97759047Y-94061904D02*
X97997142Y-94061904D01*
X97997142Y-94061904D02*
X98092380Y-94109523D01*
X98092380Y-94109523D02*
X98140000Y-94157142D01*
X98140000Y-94157142D02*
X98187619Y-94252380D01*
X98187619Y-94252380D02*
X98187619Y-94538094D01*
X98187619Y-94538094D02*
X98140000Y-94633332D01*
X98140000Y-94633332D02*
X98092380Y-94680951D01*
X97282857Y-93680951D02*
X97235238Y-93633332D01*
X97235238Y-93633332D02*
X97187619Y-93538094D01*
X97187619Y-93538094D02*
X97187619Y-93299999D01*
X97187619Y-93299999D02*
X97235238Y-93204761D01*
X97235238Y-93204761D02*
X97282857Y-93157142D01*
X97282857Y-93157142D02*
X97378095Y-93109523D01*
X97378095Y-93109523D02*
X97473333Y-93109523D01*
X97473333Y-93109523D02*
X97616190Y-93157142D01*
X97616190Y-93157142D02*
X98187619Y-93728570D01*
X98187619Y-93728570D02*
X98187619Y-93109523D01*
%TO.C,SW2*%
X70165000Y-103458332D02*
X70212619Y-103315475D01*
X70212619Y-103315475D02*
X70212619Y-103077380D01*
X70212619Y-103077380D02*
X70165000Y-102982142D01*
X70165000Y-102982142D02*
X70117380Y-102934523D01*
X70117380Y-102934523D02*
X70022142Y-102886904D01*
X70022142Y-102886904D02*
X69926904Y-102886904D01*
X69926904Y-102886904D02*
X69831666Y-102934523D01*
X69831666Y-102934523D02*
X69784047Y-102982142D01*
X69784047Y-102982142D02*
X69736428Y-103077380D01*
X69736428Y-103077380D02*
X69688809Y-103267856D01*
X69688809Y-103267856D02*
X69641190Y-103363094D01*
X69641190Y-103363094D02*
X69593571Y-103410713D01*
X69593571Y-103410713D02*
X69498333Y-103458332D01*
X69498333Y-103458332D02*
X69403095Y-103458332D01*
X69403095Y-103458332D02*
X69307857Y-103410713D01*
X69307857Y-103410713D02*
X69260238Y-103363094D01*
X69260238Y-103363094D02*
X69212619Y-103267856D01*
X69212619Y-103267856D02*
X69212619Y-103029761D01*
X69212619Y-103029761D02*
X69260238Y-102886904D01*
X69212619Y-102553570D02*
X70212619Y-102315475D01*
X70212619Y-102315475D02*
X69498333Y-102124999D01*
X69498333Y-102124999D02*
X70212619Y-101934523D01*
X70212619Y-101934523D02*
X69212619Y-101696428D01*
X69307857Y-101363094D02*
X69260238Y-101315475D01*
X69260238Y-101315475D02*
X69212619Y-101220237D01*
X69212619Y-101220237D02*
X69212619Y-100982142D01*
X69212619Y-100982142D02*
X69260238Y-100886904D01*
X69260238Y-100886904D02*
X69307857Y-100839285D01*
X69307857Y-100839285D02*
X69403095Y-100791666D01*
X69403095Y-100791666D02*
X69498333Y-100791666D01*
X69498333Y-100791666D02*
X69641190Y-100839285D01*
X69641190Y-100839285D02*
X70212619Y-101410713D01*
X70212619Y-101410713D02*
X70212619Y-100791666D01*
X71063809Y-103865476D02*
X71063809Y-104198809D01*
X71587619Y-104198809D02*
X70587619Y-104198809D01*
X70587619Y-104198809D02*
X70587619Y-103722619D01*
X71587619Y-102865476D02*
X71587619Y-103341666D01*
X71587619Y-103341666D02*
X70587619Y-103341666D01*
X71301904Y-102579761D02*
X71301904Y-102103571D01*
X71587619Y-102674999D02*
X70587619Y-102341666D01*
X70587619Y-102341666D02*
X71587619Y-102008333D01*
X71540000Y-101722618D02*
X71587619Y-101579761D01*
X71587619Y-101579761D02*
X71587619Y-101341666D01*
X71587619Y-101341666D02*
X71540000Y-101246428D01*
X71540000Y-101246428D02*
X71492380Y-101198809D01*
X71492380Y-101198809D02*
X71397142Y-101151190D01*
X71397142Y-101151190D02*
X71301904Y-101151190D01*
X71301904Y-101151190D02*
X71206666Y-101198809D01*
X71206666Y-101198809D02*
X71159047Y-101246428D01*
X71159047Y-101246428D02*
X71111428Y-101341666D01*
X71111428Y-101341666D02*
X71063809Y-101532142D01*
X71063809Y-101532142D02*
X71016190Y-101627380D01*
X71016190Y-101627380D02*
X70968571Y-101674999D01*
X70968571Y-101674999D02*
X70873333Y-101722618D01*
X70873333Y-101722618D02*
X70778095Y-101722618D01*
X70778095Y-101722618D02*
X70682857Y-101674999D01*
X70682857Y-101674999D02*
X70635238Y-101627380D01*
X70635238Y-101627380D02*
X70587619Y-101532142D01*
X70587619Y-101532142D02*
X70587619Y-101294047D01*
X70587619Y-101294047D02*
X70635238Y-101151190D01*
X71587619Y-100722618D02*
X70587619Y-100722618D01*
X71063809Y-100722618D02*
X71063809Y-100151190D01*
X71587619Y-100151190D02*
X70587619Y-100151190D01*
%TO.C,R4*%
X95512619Y-107141666D02*
X95036428Y-107474999D01*
X95512619Y-107713094D02*
X94512619Y-107713094D01*
X94512619Y-107713094D02*
X94512619Y-107332142D01*
X94512619Y-107332142D02*
X94560238Y-107236904D01*
X94560238Y-107236904D02*
X94607857Y-107189285D01*
X94607857Y-107189285D02*
X94703095Y-107141666D01*
X94703095Y-107141666D02*
X94845952Y-107141666D01*
X94845952Y-107141666D02*
X94941190Y-107189285D01*
X94941190Y-107189285D02*
X94988809Y-107236904D01*
X94988809Y-107236904D02*
X95036428Y-107332142D01*
X95036428Y-107332142D02*
X95036428Y-107713094D01*
X94845952Y-106284523D02*
X95512619Y-106284523D01*
X94465000Y-106522618D02*
X95179285Y-106760713D01*
X95179285Y-106760713D02*
X95179285Y-106141666D01*
D12*
%TO.C,R6*%
X85117000Y-104147864D02*
X85117000Y-103693736D01*
X86587000Y-104147864D02*
X86587000Y-103693736D01*
%TO.C,R2*%
X76226936Y-97664600D02*
X76681064Y-97664600D01*
X76226936Y-99134600D02*
X76681064Y-99134600D01*
%TO.C,C1*%
X95365000Y-78386252D02*
X95365000Y-77863748D01*
X96835000Y-78386252D02*
X96835000Y-77863748D01*
%TO.C,D1*%
X74340000Y-89260800D02*
X74340000Y-91180800D01*
X74340000Y-91180800D02*
X77200000Y-91180800D01*
X77200000Y-89260800D02*
X74340000Y-89260800D01*
%TO.C,C2*%
X81565000Y-69511252D02*
X81565000Y-68988748D01*
X83035000Y-69511252D02*
X83035000Y-68988748D01*
%TO.C,R3*%
X75871336Y-92787800D02*
X76325464Y-92787800D01*
X75871336Y-94257800D02*
X76325464Y-94257800D01*
%TO.C,D2*%
X92461200Y-113721600D02*
X94381200Y-113721600D01*
X94381200Y-113721600D02*
X94381200Y-110861600D01*
X92461200Y-110861600D02*
X92461200Y-113721600D01*
%TO.C,R5*%
X92737000Y-102589064D02*
X92737000Y-102134936D01*
X94207000Y-102589064D02*
X94207000Y-102134936D01*
%TO.C,R1*%
X80327064Y-76785000D02*
X79872936Y-76785000D01*
X80327064Y-75315000D02*
X79872936Y-75315000D01*
%TO.C,FASTDROP1*%
X51350000Y-92175000D02*
X52850000Y-92175000D01*
X55350000Y-90925000D02*
X55350000Y-86425000D01*
X48850000Y-86425000D02*
X48850000Y-90925000D01*
X52850000Y-85175000D02*
X51350000Y-85175000D01*
%TO.C,HARDDROP1*%
X51250000Y-123175000D02*
X52750000Y-123175000D01*
X55250000Y-121925000D02*
X55250000Y-117425000D01*
X48750000Y-117425000D02*
X48750000Y-121925000D01*
X52750000Y-116175000D02*
X51250000Y-116175000D01*
%TO.C,R7*%
X76176136Y-86082200D02*
X76630264Y-86082200D01*
X76176136Y-87552200D02*
X76630264Y-87552200D01*
%TO.C,RECHTS1*%
X51325000Y-103075000D02*
X52825000Y-103075000D01*
X55325000Y-101825000D02*
X55325000Y-97325000D01*
X48825000Y-97325000D02*
X48825000Y-101825000D01*
X52825000Y-96075000D02*
X51325000Y-96075000D01*
%TO.C,ROTATE1*%
X60675000Y-92225000D02*
X62175000Y-92225000D01*
X64675000Y-90975000D02*
X64675000Y-86475000D01*
X58175000Y-86475000D02*
X58175000Y-90975000D01*
X62175000Y-85225000D02*
X60675000Y-85225000D01*
%TO.C,C4*%
X88463748Y-65565000D02*
X88986252Y-65565000D01*
X88463748Y-67035000D02*
X88986252Y-67035000D01*
%TO.C,RESET1*%
X78250000Y-109825000D02*
X78250000Y-108325000D01*
X77000000Y-105825000D02*
X72500000Y-105825000D01*
X72500000Y-112325000D02*
X77000000Y-112325000D01*
X71250000Y-108325000D02*
X71250000Y-109825000D01*
%TO.C,LINKS1*%
X51400000Y-81200000D02*
X52900000Y-81200000D01*
X55400000Y-79950000D02*
X55400000Y-75450000D01*
X48900000Y-75450000D02*
X48900000Y-79950000D01*
X52900000Y-74200000D02*
X51400000Y-74200000D01*
%TO.C,Prog1*%
X87745000Y-117530000D02*
X87745000Y-116200000D01*
X89075000Y-117530000D02*
X87745000Y-117530000D01*
X90345000Y-117530000D02*
X98025000Y-117530000D01*
X90345000Y-117530000D02*
X90345000Y-114870000D01*
X98025000Y-117530000D02*
X98025000Y-114870000D01*
X90345000Y-114870000D02*
X98025000Y-114870000D01*
%TO.C,PLO1*%
X90410000Y-67650000D02*
X90410000Y-73660000D01*
X83590000Y-69900000D02*
X83590000Y-73660000D01*
X90410000Y-73660000D02*
X89150000Y-73660000D01*
X83590000Y-73660000D02*
X84850000Y-73660000D01*
%TO.C,C3*%
X84613748Y-65565000D02*
X85136252Y-65565000D01*
X84613748Y-67035000D02*
X85136252Y-67035000D01*
%TO.C,Kroonsteen1*%
X98585000Y-65705000D02*
X90965000Y-65705000D01*
X90965000Y-65705000D02*
X90965000Y-75865000D01*
X98585000Y-75865000D02*
X98585000Y-65705000D01*
X92235000Y-75865000D02*
X92235000Y-65705000D01*
X90965000Y-75865000D02*
X98585000Y-75865000D01*
%TO.C,SW1*%
X76905000Y-75215000D02*
X76905000Y-77065000D01*
X77555000Y-77065000D02*
X76905000Y-77065000D01*
X77555000Y-77065000D02*
X77555000Y-82585000D01*
X76164000Y-77065000D02*
X74895000Y-77065000D01*
X74895000Y-77065000D02*
X74895000Y-82585000D01*
X77555000Y-82585000D02*
X76286000Y-82585000D01*
X76164000Y-82585000D02*
X74895000Y-82585000D01*
%TO.C,J1*%
X100655000Y-121745000D02*
X80215000Y-121745000D01*
X100655000Y-121745000D02*
X100655000Y-124345000D01*
X80215000Y-121745000D02*
X80215000Y-126945000D01*
X100655000Y-124345000D02*
X98055000Y-124345000D01*
X98055000Y-124345000D02*
X98055000Y-126945000D01*
X100655000Y-125615000D02*
X100655000Y-126945000D01*
X100655000Y-126945000D02*
X99325000Y-126945000D01*
X98055000Y-126945000D02*
X80215000Y-126945000D01*
%TO.C,ESP32*%
X104915800Y-80763800D02*
X98500800Y-80763800D01*
X104915800Y-80763800D02*
X104915800Y-99003800D01*
X98500800Y-80763800D02*
X98500800Y-80383800D01*
X79955800Y-80763800D02*
X79175800Y-80763800D01*
X79175800Y-80763800D02*
X79175800Y-81763800D01*
X104915800Y-99003800D02*
X98500800Y-99003800D01*
X79955800Y-99003800D02*
X79175800Y-99003800D01*
X79175800Y-99003800D02*
X79175800Y-98003800D01*
%TO.C,SW2*%
X81445000Y-102915000D02*
X79595000Y-102915000D01*
X79595000Y-103565000D02*
X79595000Y-102915000D01*
X79595000Y-103565000D02*
X74075000Y-103565000D01*
X79595000Y-102174000D02*
X79595000Y-100905000D01*
X79595000Y-100905000D02*
X74075000Y-100905000D01*
X74075000Y-103565000D02*
X74075000Y-102296000D01*
X74075000Y-102174000D02*
X74075000Y-100905000D01*
%TO.C,R4*%
X94207000Y-106808536D02*
X94207000Y-107262664D01*
X92737000Y-106808536D02*
X92737000Y-107262664D01*
%TD*%
M02*
