M48
; DRILL file {KiCad 7.0.1} date Thu Apr 20 18:11:43 2023
; FORMAT={-:-/ absolute / inch / decimal}
; #@! TF.CreationDate,2023-04-20T18:11:43+02:00
; #@! TF.GenerationSoftware,Kicad,Pcbnew,7.0.1
; #@! TF.FileFunction,MixedPlating,1,2
FMAT,2
INCH
; #@! TA.AperFunction,Plated,PTH,ComponentDrill
T1C0.0118
; #@! TA.AperFunction,Plated,PTH,ViaDrill
T2C0.0157
; #@! TA.AperFunction,Plated,PTH,ComponentDrill
T3C0.0394
; #@! TA.AperFunction,Plated,PTH,ComponentDrill
T4C0.0433
; #@! TA.AperFunction,Plated,PTH,ComponentDrill
T5C0.0598
%
G90
G05
T1
X3.4819Y-3.4819
X3.4819Y-3.542
X3.5119Y-3.4519
X3.5119Y-3.512
X3.5119Y-3.572
X3.542Y-3.4819
X3.542Y-3.542
X3.572Y-3.4519
X3.572Y-3.512
X3.572Y-3.572
X3.602Y-3.4819
X3.602Y-3.542
T2
X1.8622Y-3.7205
X2.0669Y-4.2972
X2.0778Y-3.8484
X2.2372Y-3.7028
X2.2628Y-2.6909
X2.29Y-4.96
X2.3337Y-4.3622
X2.3885Y-3.3195
X2.4485Y-4.0895
X2.45Y-4.65
X2.4535Y-3.0795
X2.6073Y-4.622
X2.6486Y-3.3593
X2.6703Y-2.6565
X2.6801Y-2.9656
X2.685Y-4.96
X2.69Y-3.72
X2.7175Y-4.748
X2.7648Y-3.0748
X2.7726Y-4.6713
X2.8209Y-3.2333
X2.8287Y-4.6545
X2.8474Y-3.5344
X2.87Y-3.88
X2.8799Y-3.71
X2.9242Y-4.5394
X2.9409Y-2.8248
X2.9616Y-5.0935
X2.9685Y-4.41
X2.97Y-3.876
X3.0187Y-2.7175
X3.035Y-4.545
X3.045Y-3.42
X3.0492Y-4.9518
X3.0846Y-2.8543
X3.13Y-3.715
X3.1693Y-4.3258
X3.1772Y-2.9094
X3.18Y-3.195
X3.2402Y-2.7672
X3.247Y-4.6545
X3.2495Y-4.438
X3.28Y-3.205
X3.2809Y-4.5654
X3.305Y-3.515
X3.33Y-3.13
X3.3346Y-2.7047
X3.3484Y-4.6781
X3.3809Y-3.1959
X3.382Y-4.132
X3.3848Y-3.1411
X3.43Y-3.195
X3.435Y-5.0522
X3.445Y-4.04
X3.4724Y-4.2156
X3.48Y-3.195
X3.4931Y-4.3602
X3.5157Y-4.1978
X3.5423Y-4.4213
X3.5551Y-4.0266
X3.5896Y-3.0837
X3.5915Y-4.4675
X3.6535Y-5.0236
X3.655Y-3.73
X3.682Y-4.07
X3.7047Y-2.5453
X3.71Y-3.37
X3.7156Y-4.124
X3.74Y-4.265
X3.7402Y-4.0344
X3.752Y-5.0679
X3.753Y-3.6634
X3.7765Y-3.8832
X3.782Y-3.194
X3.7835Y-4.7077
X3.805Y-3.95
X3.83Y-4.04
X3.8455Y-4.1024
X3.8602Y-3.0472
X3.8711Y-3.9872
X3.8898Y-5.0443
X4.0197Y-4.6939
X4.0659Y-4.9843
X4.124Y-4.69
X4.1407Y-4.9065
T3
X3.2104Y-4.8455
X3.2104Y-4.9455
X3.3104Y-4.8455
X3.3104Y-4.9455
X3.4104Y-4.8455
X3.4104Y-4.9455
X3.5069Y-4.5748
X3.5104Y-4.8455
X3.5104Y-4.9455
X3.6069Y-4.5748
X3.6104Y-4.8455
X3.6104Y-4.9455
X3.7069Y-4.5748
X3.7104Y-4.8455
X3.7104Y-4.9455
X3.8069Y-4.5748
X3.8104Y-4.8455
X3.8104Y-4.9455
X3.9104Y-4.8455
X3.9104Y-4.9455
T4
X1.9587Y-4.5837
X1.9587Y-4.8396
X1.9616Y-3.7923
X1.9616Y-4.0482
X1.9626Y-3.3632
X1.9626Y-3.6191
X1.9646Y-2.9311
X1.9646Y-3.187
X2.1358Y-4.5837
X2.1358Y-4.8396
X2.1388Y-3.7923
X2.1388Y-4.0482
X2.1398Y-3.3632
X2.1398Y-3.6191
X2.1417Y-2.9311
X2.1417Y-3.187
X2.3297Y-3.3652
X2.3297Y-3.6211
X2.5069Y-3.3652
X2.5069Y-3.6211
X2.815Y-4.2057
X2.815Y-4.3829
X3.0709Y-4.2057
X3.0709Y-4.3829
T5
X3.7313Y-2.6868
X3.7313Y-2.8868
T0
M30
