%TF.GenerationSoftware,KiCad,Pcbnew,7.0.1*%
%TF.CreationDate,2023-04-20T18:11:54+02:00*%
%TF.ProjectId,PCB_Tetris,5043425f-5465-4747-9269-732e6b696361,rev?*%
%TF.SameCoordinates,Original*%
%TF.FileFunction,Soldermask,Bot*%
%TF.FilePolarity,Negative*%
%FSLAX46Y46*%
G04 Gerber Fmt 4.6, Leading zero omitted, Abs format (unit mm)*
G04 Created by KiCad (PCBNEW 7.0.1) date 2023-04-20 18:11:54*
%MOMM*%
%LPD*%
G01*
G04 APERTURE LIST*
%ADD10C,2.000000*%
%ADD11R,1.700000X1.700000*%
%ADD12O,1.700000X1.700000*%
%ADD13R,3.000000X3.000000*%
%ADD14C,3.000000*%
G04 APERTURE END LIST*
D10*
%TO.C,FASTDROP1*%
X49850000Y-91925000D03*
X49850000Y-85425000D03*
X54350000Y-91925000D03*
X54350000Y-85425000D03*
%TD*%
%TO.C,HARDDROP1*%
X49750000Y-122925000D03*
X49750000Y-116425000D03*
X54250000Y-122925000D03*
X54250000Y-116425000D03*
%TD*%
%TO.C,RECHTS1*%
X49825000Y-102825000D03*
X49825000Y-96325000D03*
X54325000Y-102825000D03*
X54325000Y-96325000D03*
%TD*%
%TO.C,ROTATE1*%
X59175000Y-91975000D03*
X59175000Y-85475000D03*
X63675000Y-91975000D03*
X63675000Y-85475000D03*
%TD*%
%TO.C,RESET1*%
X78000000Y-111325000D03*
X71500000Y-111325000D03*
X78000000Y-106825000D03*
X71500000Y-106825000D03*
%TD*%
%TO.C,LINKS1*%
X49900000Y-80950000D03*
X49900000Y-74450000D03*
X54400000Y-80950000D03*
X54400000Y-74450000D03*
%TD*%
D11*
%TO.C,Prog1*%
X89075000Y-116200000D03*
D12*
X91615000Y-116200000D03*
X94155000Y-116200000D03*
X96695000Y-116200000D03*
%TD*%
D13*
%TO.C,Kroonsteen1*%
X94775000Y-68245000D03*
D14*
X94775000Y-73325000D03*
%TD*%
D11*
%TO.C,J1*%
X99325000Y-125615000D03*
D12*
X99325000Y-123075000D03*
X96785000Y-125615000D03*
X96785000Y-123075000D03*
X94245000Y-125615000D03*
X94245000Y-123075000D03*
X91705000Y-125615000D03*
X91705000Y-123075000D03*
X89165000Y-125615000D03*
X89165000Y-123075000D03*
X86625000Y-125615000D03*
X86625000Y-123075000D03*
X84085000Y-125615000D03*
X84085000Y-123075000D03*
X81545000Y-125615000D03*
X81545000Y-123075000D03*
%TD*%
M02*
