%TF.GenerationSoftware,KiCad,Pcbnew,7.0.1*%
%TF.CreationDate,2023-04-20T18:11:54+02:00*%
%TF.ProjectId,PCB_Tetris,5043425f-5465-4747-9269-732e6b696361,rev?*%
%TF.SameCoordinates,Original*%
%TF.FileFunction,Copper,L1,Top*%
%TF.FilePolarity,Positive*%
%FSLAX46Y46*%
G04 Gerber Fmt 4.6, Leading zero omitted, Abs format (unit mm)*
G04 Created by KiCad (PCBNEW 7.0.1) date 2023-04-20 18:11:54*
%MOMM*%
%LPD*%
G01*
G04 APERTURE LIST*
G04 Aperture macros list*
%AMRoundRect*
0 Rectangle with rounded corners*
0 $1 Rounding radius*
0 $2 $3 $4 $5 $6 $7 $8 $9 X,Y pos of 4 corners*
0 Add a 4 corners polygon primitive as box body*
4,1,4,$2,$3,$4,$5,$6,$7,$8,$9,$2,$3,0*
0 Add four circle primitives for the rounded corners*
1,1,$1+$1,$2,$3*
1,1,$1+$1,$4,$5*
1,1,$1+$1,$6,$7*
1,1,$1+$1,$8,$9*
0 Add four rect primitives between the rounded corners*
20,1,$1+$1,$2,$3,$4,$5,0*
20,1,$1+$1,$4,$5,$6,$7,0*
20,1,$1+$1,$6,$7,$8,$9,0*
20,1,$1+$1,$8,$9,$2,$3,0*%
G04 Aperture macros list end*
%TA.AperFunction,SMDPad,CuDef*%
%ADD10RoundRect,0.250000X0.450000X-0.350000X0.450000X0.350000X-0.450000X0.350000X-0.450000X-0.350000X0*%
%TD*%
%TA.AperFunction,SMDPad,CuDef*%
%ADD11RoundRect,0.250000X-0.350000X-0.450000X0.350000X-0.450000X0.350000X0.450000X-0.350000X0.450000X0*%
%TD*%
%TA.AperFunction,SMDPad,CuDef*%
%ADD12RoundRect,0.250000X0.475000X-0.337500X0.475000X0.337500X-0.475000X0.337500X-0.475000X-0.337500X0*%
%TD*%
%TA.AperFunction,SMDPad,CuDef*%
%ADD13RoundRect,0.250000X-0.325000X-0.450000X0.325000X-0.450000X0.325000X0.450000X-0.325000X0.450000X0*%
%TD*%
%TA.AperFunction,SMDPad,CuDef*%
%ADD14RoundRect,0.250000X0.450000X-0.325000X0.450000X0.325000X-0.450000X0.325000X-0.450000X-0.325000X0*%
%TD*%
%TA.AperFunction,SMDPad,CuDef*%
%ADD15RoundRect,0.250000X0.350000X0.450000X-0.350000X0.450000X-0.350000X-0.450000X0.350000X-0.450000X0*%
%TD*%
%TA.AperFunction,ComponentPad*%
%ADD16C,2.000000*%
%TD*%
%TA.AperFunction,SMDPad,CuDef*%
%ADD17RoundRect,0.250000X-0.337500X-0.475000X0.337500X-0.475000X0.337500X0.475000X-0.337500X0.475000X0*%
%TD*%
%TA.AperFunction,ComponentPad*%
%ADD18R,1.700000X1.700000*%
%TD*%
%TA.AperFunction,ComponentPad*%
%ADD19O,1.700000X1.700000*%
%TD*%
%TA.AperFunction,SMDPad,CuDef*%
%ADD20R,1.500000X2.000000*%
%TD*%
%TA.AperFunction,SMDPad,CuDef*%
%ADD21R,3.800000X2.000000*%
%TD*%
%TA.AperFunction,ComponentPad*%
%ADD22R,3.000000X3.000000*%
%TD*%
%TA.AperFunction,ComponentPad*%
%ADD23C,3.000000*%
%TD*%
%TA.AperFunction,SMDPad,CuDef*%
%ADD24R,0.760000X1.600000*%
%TD*%
%TA.AperFunction,SMDPad,CuDef*%
%ADD25R,0.900000X1.500000*%
%TD*%
%TA.AperFunction,SMDPad,CuDef*%
%ADD26R,1.500000X0.900000*%
%TD*%
%TA.AperFunction,SMDPad,CuDef*%
%ADD27R,1.050000X1.050000*%
%TD*%
%TA.AperFunction,HeatsinkPad*%
%ADD28C,0.600000*%
%TD*%
%TA.AperFunction,SMDPad,CuDef*%
%ADD29R,4.200000X4.200000*%
%TD*%
%TA.AperFunction,SMDPad,CuDef*%
%ADD30R,1.600000X0.760000*%
%TD*%
%TA.AperFunction,SMDPad,CuDef*%
%ADD31RoundRect,0.250000X-0.450000X0.350000X-0.450000X-0.350000X0.450000X-0.350000X0.450000X0.350000X0*%
%TD*%
%TA.AperFunction,ViaPad*%
%ADD32C,0.800000*%
%TD*%
%TA.AperFunction,Conductor*%
%ADD33C,0.400000*%
%TD*%
%TA.AperFunction,Conductor*%
%ADD34C,0.250000*%
%TD*%
G04 APERTURE END LIST*
D10*
%TO.P,R6,1*%
%TO.N,+3.3V*%
X85852000Y-104920800D03*
%TO.P,R6,2*%
%TO.N,GPIO5*%
X85852000Y-102920800D03*
%TD*%
D11*
%TO.P,R2,1*%
%TO.N,+3.3V*%
X75454000Y-98399600D03*
%TO.P,R2,2*%
%TO.N,GPIO0*%
X77454000Y-98399600D03*
%TD*%
D12*
%TO.P,C1,1*%
%TO.N,+3.3V*%
X96100000Y-79162500D03*
%TO.P,C1,2*%
%TO.N,GND*%
X96100000Y-77087500D03*
%TD*%
D13*
%TO.P,D1,1,K*%
%TO.N,Net-(D1-K)*%
X75175000Y-90220800D03*
%TO.P,D1,2,A*%
%TO.N,GPIO2*%
X77225000Y-90220800D03*
%TD*%
D12*
%TO.P,C2,1*%
%TO.N,VDD*%
X82300000Y-70287500D03*
%TO.P,C2,2*%
%TO.N,GND*%
X82300000Y-68212500D03*
%TD*%
D11*
%TO.P,R3,1*%
%TO.N,GND*%
X75098400Y-93522800D03*
%TO.P,R3,2*%
%TO.N,GPIO2*%
X77098400Y-93522800D03*
%TD*%
D14*
%TO.P,D2,1,K*%
%TO.N,GND*%
X93421200Y-112886600D03*
%TO.P,D2,2,A*%
%TO.N,Net-(D2-A)*%
X93421200Y-110836600D03*
%TD*%
D10*
%TO.P,R5,1*%
%TO.N,+3.3V*%
X93472000Y-103362000D03*
%TO.P,R5,2*%
%TO.N,TX0*%
X93472000Y-101362000D03*
%TD*%
D15*
%TO.P,R1,1*%
%TO.N,+3.3V*%
X81100000Y-76050000D03*
%TO.P,R1,2*%
%TO.N,/EN*%
X79100000Y-76050000D03*
%TD*%
D16*
%TO.P,FASTDROP1,1,1*%
%TO.N,+3.3V*%
X49850000Y-91925000D03*
X49850000Y-85425000D03*
%TO.P,FASTDROP1,2,2*%
%TO.N,GPIO35*%
X54350000Y-91925000D03*
X54350000Y-85425000D03*
%TD*%
%TO.P,HARDDROP1,1,1*%
%TO.N,GND*%
X49750000Y-122925000D03*
X49750000Y-116425000D03*
%TO.P,HARDDROP1,2,2*%
%TO.N,GPIO4*%
X54250000Y-122925000D03*
X54250000Y-116425000D03*
%TD*%
D11*
%TO.P,R7,1*%
%TO.N,Net-(D1-K)*%
X75403200Y-86817200D03*
%TO.P,R7,2*%
%TO.N,GND*%
X77403200Y-86817200D03*
%TD*%
D16*
%TO.P,RECHTS1,1,1*%
%TO.N,GND*%
X49825000Y-102825000D03*
X49825000Y-96325000D03*
%TO.P,RECHTS1,2,2*%
%TO.N,GPIO19*%
X54325000Y-102825000D03*
X54325000Y-96325000D03*
%TD*%
%TO.P,ROTATE1,1,1*%
%TO.N,+3.3V*%
X59175000Y-91975000D03*
X59175000Y-85475000D03*
%TO.P,ROTATE1,2,2*%
%TO.N,GPIO2*%
X63675000Y-91975000D03*
X63675000Y-85475000D03*
%TD*%
D17*
%TO.P,C4,1*%
%TO.N,+3.3V*%
X87687500Y-66300000D03*
%TO.P,C4,2*%
%TO.N,GND*%
X89762500Y-66300000D03*
%TD*%
D16*
%TO.P,RESET1,1,1*%
%TO.N,GND*%
X78000000Y-111325000D03*
X71500000Y-111325000D03*
%TO.P,RESET1,2,2*%
%TO.N,GPIO0*%
X78000000Y-106825000D03*
X71500000Y-106825000D03*
%TD*%
%TO.P,LINKS1,1,1*%
%TO.N,GND*%
X49900000Y-80950000D03*
X49900000Y-74450000D03*
%TO.P,LINKS1,2,2*%
%TO.N,GPIO13*%
X54400000Y-80950000D03*
X54400000Y-74450000D03*
%TD*%
D18*
%TO.P,Prog1,1,Pin_1*%
%TO.N,+3.3V*%
X89075000Y-116200000D03*
D19*
%TO.P,Prog1,2,Pin_2*%
%TO.N,RX0*%
X91615000Y-116200000D03*
%TO.P,Prog1,3,Pin_3*%
%TO.N,TX0*%
X94155000Y-116200000D03*
%TO.P,Prog1,4,Pin_4*%
%TO.N,GND*%
X96695000Y-116200000D03*
%TD*%
D20*
%TO.P,PLO1,1,GND*%
%TO.N,GND*%
X89300000Y-68600000D03*
%TO.P,PLO1,2,VO*%
%TO.N,+3.3V*%
X87000000Y-68600000D03*
D21*
X87000000Y-74900000D03*
D20*
%TO.P,PLO1,3,VI*%
%TO.N,VDD*%
X84700000Y-68600000D03*
%TD*%
D17*
%TO.P,C3,1*%
%TO.N,GND*%
X83837500Y-66300000D03*
%TO.P,C3,2*%
%TO.N,+3.3V*%
X85912500Y-66300000D03*
%TD*%
D22*
%TO.P,Kroonsteen1,1,Pin_1*%
%TO.N,VDD*%
X94775000Y-68245000D03*
D23*
%TO.P,Kroonsteen1,2,Pin_2*%
%TO.N,GND*%
X94775000Y-73325000D03*
%TD*%
D24*
%TO.P,SW1,1,1*%
%TO.N,/EN*%
X76225000Y-76015000D03*
%TO.P,SW1,2,2*%
%TO.N,GND*%
X76225000Y-83635000D03*
%TD*%
D18*
%TO.P,J1,1,Pin_1*%
%TO.N,GPIO26*%
X99325000Y-125615000D03*
D19*
%TO.P,J1,2,Pin_2*%
%TO.N,GPIO25*%
X99325000Y-123075000D03*
%TO.P,J1,3,Pin_3*%
%TO.N,GND*%
X96785000Y-125615000D03*
%TO.P,J1,4,Pin_4*%
%TO.N,GPIO27*%
X96785000Y-123075000D03*
%TO.P,J1,5,Pin_5*%
%TO.N,GPIO22*%
X94245000Y-125615000D03*
%TO.P,J1,6,Pin_6*%
%TO.N,GPIO21*%
X94245000Y-123075000D03*
%TO.P,J1,7,Pin_7*%
%TO.N,GND*%
X91705000Y-125615000D03*
%TO.P,J1,8,Pin_8*%
%TO.N,GPIO23*%
X91705000Y-123075000D03*
%TO.P,J1,9,Pin_9*%
%TO.N,GPIO16*%
X89165000Y-125615000D03*
%TO.P,J1,10,Pin_10*%
%TO.N,GPIO12*%
X89165000Y-123075000D03*
%TO.P,J1,11,Pin_11*%
%TO.N,GPIO18*%
X86625000Y-125615000D03*
%TO.P,J1,12,Pin_12*%
%TO.N,GPIO17*%
X86625000Y-123075000D03*
%TO.P,J1,13,Pin_13*%
%TO.N,GPIO32*%
X84085000Y-125615000D03*
%TO.P,J1,14,Pin_14*%
%TO.N,GPIO15*%
X84085000Y-123075000D03*
%TO.P,J1,15,Pin_15*%
%TO.N,GND*%
X81545000Y-125615000D03*
%TO.P,J1,16,Pin_16*%
%TO.N,GPIO33*%
X81545000Y-123075000D03*
%TD*%
D25*
%TO.P,ESP32,1,GND*%
%TO.N,GND*%
X97305800Y-81133800D03*
%TO.P,ESP32,2,VDD*%
%TO.N,+3.3V*%
X96035800Y-81133800D03*
%TO.P,ESP32,3,EN*%
%TO.N,/EN*%
X94765800Y-81133800D03*
%TO.P,ESP32,4,SENSOR_VP*%
%TO.N,unconnected-(ESP32-SENSOR_VP-Pad4)*%
X93495800Y-81133800D03*
%TO.P,ESP32,5,SENSOR_VN*%
%TO.N,unconnected-(ESP32-SENSOR_VN-Pad5)*%
X92225800Y-81133800D03*
%TO.P,ESP32,6,IO34*%
%TO.N,unconnected-(ESP32-IO34-Pad6)*%
X90955800Y-81133800D03*
%TO.P,ESP32,7,IO35*%
%TO.N,GPIO35*%
X89685800Y-81133800D03*
%TO.P,ESP32,8,IO32*%
%TO.N,GPIO32*%
X88415800Y-81133800D03*
%TO.P,ESP32,9,IO33*%
%TO.N,GPIO33*%
X87145800Y-81133800D03*
%TO.P,ESP32,10,IO25*%
%TO.N,GPIO25*%
X85875800Y-81133800D03*
%TO.P,ESP32,11,IO26*%
%TO.N,GPIO26*%
X84605800Y-81133800D03*
%TO.P,ESP32,12,IO27*%
%TO.N,GPIO27*%
X83335800Y-81133800D03*
%TO.P,ESP32,13,IO14*%
%TO.N,unconnected-(ESP32-IO14-Pad13)*%
X82065800Y-81133800D03*
%TO.P,ESP32,14,IO12*%
%TO.N,GPIO12*%
X80795800Y-81133800D03*
D26*
%TO.P,ESP32,15,GND*%
%TO.N,GND*%
X79545800Y-84173800D03*
%TO.P,ESP32,16,IO13*%
%TO.N,GPIO13*%
X79545800Y-85443800D03*
%TO.P,ESP32,17,SHD/SD2*%
%TO.N,unconnected-(ESP32-SHD{slash}SD2-Pad17)*%
X79545800Y-86713800D03*
%TO.P,ESP32,18,SWP/SD3*%
%TO.N,unconnected-(ESP32-SWP{slash}SD3-Pad18)*%
X79545800Y-87983800D03*
%TO.P,ESP32,19,SCS/CMD*%
%TO.N,unconnected-(ESP32-SCS{slash}CMD-Pad19)*%
X79545800Y-89253800D03*
%TO.P,ESP32,20,SCK/CLK*%
%TO.N,unconnected-(ESP32-SCK{slash}CLK-Pad20)*%
X79545800Y-90523800D03*
%TO.P,ESP32,21,SDO/SD0*%
%TO.N,unconnected-(ESP32-SDO{slash}SD0-Pad21)*%
X79545800Y-91793800D03*
%TO.P,ESP32,22,SDI/SD1*%
%TO.N,unconnected-(ESP32-SDI{slash}SD1-Pad22)*%
X79545800Y-93063800D03*
%TO.P,ESP32,23,IO15*%
%TO.N,GPIO15*%
X79545800Y-94333800D03*
%TO.P,ESP32,24,IO2*%
%TO.N,GPIO2*%
X79545800Y-95603800D03*
D25*
%TO.P,ESP32,25,IO0*%
%TO.N,GPIO0*%
X80795800Y-98633800D03*
%TO.P,ESP32,26,IO4*%
%TO.N,GPIO4*%
X82065800Y-98633800D03*
%TO.P,ESP32,27,IO16*%
%TO.N,GPIO16*%
X83335800Y-98633800D03*
%TO.P,ESP32,28,IO17*%
%TO.N,GPIO17*%
X84605800Y-98633800D03*
%TO.P,ESP32,29,IO5*%
%TO.N,GPIO5*%
X85875800Y-98633800D03*
%TO.P,ESP32,30,IO18*%
%TO.N,GPIO18*%
X87145800Y-98633800D03*
%TO.P,ESP32,31,IO19*%
%TO.N,GPIO19*%
X88415800Y-98633800D03*
%TO.P,ESP32,32,NC*%
%TO.N,unconnected-(ESP32-NC-Pad32)*%
X89685800Y-98633800D03*
%TO.P,ESP32,33,IO21*%
%TO.N,GPIO21*%
X90955800Y-98633800D03*
%TO.P,ESP32,34,RXD0/IO3*%
%TO.N,RX0*%
X92225800Y-98633800D03*
%TO.P,ESP32,35,TXD0/IO1*%
%TO.N,TX0*%
X93495800Y-98633800D03*
%TO.P,ESP32,36,IO22*%
%TO.N,GPIO22*%
X94765800Y-98633800D03*
%TO.P,ESP32,37,IO23*%
%TO.N,GPIO23*%
X96035800Y-98633800D03*
%TO.P,ESP32,38,GND*%
%TO.N,GND*%
X97305800Y-98633800D03*
D27*
%TO.P,ESP32,39,GND*%
X91490800Y-87678800D03*
D28*
X90728300Y-87678800D03*
D27*
X89965800Y-87678800D03*
D28*
X89203300Y-87678800D03*
D27*
X88440800Y-87678800D03*
D28*
X91490800Y-88441300D03*
X89965800Y-88441300D03*
X88440800Y-88441300D03*
D27*
X91490800Y-89203800D03*
D28*
X90728300Y-89203800D03*
D27*
X89965800Y-89203800D03*
D29*
X89965800Y-89203800D03*
D28*
X89203300Y-89203800D03*
D27*
X88440800Y-89203800D03*
D28*
X91490800Y-89966300D03*
X89965800Y-89966300D03*
X88440800Y-89966300D03*
D27*
X91490800Y-90728800D03*
D28*
X90728300Y-90728800D03*
D27*
X89965800Y-90728800D03*
D28*
X89203300Y-90728800D03*
D27*
X88440800Y-90728800D03*
%TD*%
D30*
%TO.P,SW2,1,1*%
%TO.N,GPIO0*%
X80645000Y-102235000D03*
%TO.P,SW2,2,2*%
%TO.N,GND*%
X73025000Y-102235000D03*
%TD*%
D31*
%TO.P,R4,1*%
%TO.N,+3.3V*%
X93472000Y-106035600D03*
%TO.P,R4,2*%
%TO.N,Net-(D2-A)*%
X93472000Y-108035600D03*
%TD*%
D32*
%TO.N,GND*%
X78350000Y-72500000D03*
X94100000Y-64650000D03*
X98050000Y-77400000D03*
X91175000Y-78325000D03*
X68075000Y-75325000D03*
X71650000Y-82125000D03*
X67275000Y-85325000D03*
X56825000Y-94050000D03*
X47300000Y-94500000D03*
X59275000Y-110800000D03*
X104750000Y-119125000D03*
X96100000Y-119575000D03*
X82475000Y-118225000D03*
X77450000Y-125775000D03*
X98325000Y-101275000D03*
X97675000Y-104200000D03*
%TO.N,+3.3V*%
X80700000Y-73900000D03*
%TO.N,GND*%
X67825000Y-67475000D03*
%TO.N,+3.3V*%
X93522800Y-103378000D03*
X85902800Y-104952800D03*
X75438000Y-98450400D03*
X96062800Y-81127600D03*
%TO.N,GND*%
X91225000Y-113475000D03*
X94234000Y-85598000D03*
X83947000Y-89281000D03*
X82536300Y-112725000D03*
X68199000Y-125984000D03*
X92837000Y-94742000D03*
X95300000Y-128725000D03*
X102100000Y-119225000D03*
X95325000Y-93050000D03*
X62191000Y-103873000D03*
X62318000Y-78219000D03*
X105175000Y-124625000D03*
X72898000Y-98552000D03*
X77343000Y-86868000D03*
X76675000Y-69025000D03*
X95000000Y-102475000D03*
X89975000Y-112300000D03*
X75400000Y-112014000D03*
X72325000Y-89775000D03*
X74700000Y-71750000D03*
X94996000Y-108331000D03*
X92800000Y-127600500D03*
X60667000Y-84315000D03*
X52775000Y-97750000D03*
X88200000Y-107075000D03*
X52500000Y-109150000D03*
X58166000Y-125984000D03*
X74275000Y-115300000D03*
X62230000Y-118110000D03*
X57475000Y-68350000D03*
X70225000Y-78100000D03*
X94375000Y-104750000D03*
X80500000Y-109875000D03*
X77089000Y-115443000D03*
X88725000Y-110750000D03*
X85975000Y-79784298D03*
%TO.N,VDD*%
X84700000Y-68700000D03*
X82300000Y-70287500D03*
%TO.N,GPIO25*%
X103275000Y-126600000D03*
X71850000Y-118225000D03*
X85875000Y-81175000D03*
X75225000Y-129375000D03*
%TO.N,GPIO27*%
X69025000Y-120600000D03*
X70425000Y-118650000D03*
X83312000Y-81407000D03*
X87250000Y-128325500D03*
%TO.N,GPIO21*%
X89300000Y-106625000D03*
%TO.N,GPIO23*%
X95922500Y-98633800D03*
X90300000Y-102275000D03*
%TO.N,GPIO12*%
X80772000Y-81153000D03*
%TO.N,GPIO15*%
X79502000Y-94361000D03*
X73150000Y-94234000D03*
X66225000Y-117400000D03*
X68326000Y-94488000D03*
%TO.N,GPIO33*%
X87503000Y-102616000D03*
X87122000Y-81153000D03*
X85050000Y-118825000D03*
%TO.N,GPIO26*%
X98800000Y-128125000D03*
X84582000Y-79502000D03*
%TO.N,GPIO22*%
X97282000Y-102616000D03*
%TO.N,GPIO16*%
X83335800Y-115960800D03*
%TO.N,GPIO32*%
X88392000Y-81153000D03*
X96647000Y-100330000D03*
%TD*%
D33*
%TO.N,GPIO32*%
X84085000Y-127590000D02*
X84085000Y-125615000D01*
X84000000Y-127675000D02*
X84085000Y-127590000D01*
X104325000Y-127325000D02*
X101800000Y-129850000D01*
X86175000Y-129850000D02*
X84000000Y-127675000D01*
X104325000Y-125375000D02*
X104325000Y-127325000D01*
X96647000Y-100751472D02*
X98475000Y-102579472D01*
X98475000Y-119525000D02*
X104325000Y-125375000D01*
X101800000Y-129850000D02*
X86175000Y-129850000D01*
X96647000Y-100330000D02*
X96647000Y-100751472D01*
X98475000Y-102579472D02*
X98475000Y-119525000D01*
%TO.N,+3.3V*%
X80700000Y-73900000D02*
X80925000Y-74125000D01*
X81100000Y-76050000D02*
X81100000Y-74300000D01*
X81100000Y-74300000D02*
X80700000Y-73900000D01*
X96062800Y-81127600D02*
X96062800Y-79199700D01*
X87000000Y-68600000D02*
X87000000Y-74900000D01*
X82250000Y-74900000D02*
X87000000Y-74900000D01*
X96062800Y-79199700D02*
X96100000Y-79162500D01*
X87000000Y-68600000D02*
X87000000Y-66987500D01*
X95212500Y-79162500D02*
X96100000Y-79162500D01*
X85912500Y-66300000D02*
X87687500Y-66300000D01*
X87000000Y-74900000D02*
X90950000Y-74900000D01*
X90950000Y-74900000D02*
X95212500Y-79162500D01*
X87000000Y-66987500D02*
X87687500Y-66300000D01*
X81100000Y-76050000D02*
X82250000Y-74900000D01*
X93472000Y-103362000D02*
X93522800Y-103378000D01*
X93522800Y-103378000D02*
X93472000Y-106035600D01*
X96035800Y-81133800D02*
X96062800Y-81127600D01*
%TO.N,GND*%
X89203300Y-87678800D02*
X89965800Y-87678800D01*
X91490800Y-89966300D02*
X91490800Y-90728800D01*
X88440800Y-87678800D02*
X89965800Y-89203800D01*
X88440800Y-88441300D02*
X88440800Y-87678800D01*
X88440800Y-89203800D02*
X88440800Y-88441300D01*
X90728300Y-90728800D02*
X89965800Y-90728800D01*
X91490800Y-90728800D02*
X90728300Y-90728800D01*
D34*
X95300000Y-128725000D02*
X95400500Y-128725000D01*
D33*
X89965800Y-89203800D02*
X91490800Y-87678800D01*
X91490800Y-87678800D02*
X91490800Y-88441300D01*
X89965800Y-89203800D02*
X88440800Y-90728800D01*
X91490800Y-89203800D02*
X91490800Y-89966300D01*
X95400500Y-128725000D02*
X96785000Y-127340500D01*
X90728300Y-87678800D02*
X91490800Y-88441300D01*
X89965800Y-90728800D02*
X89203300Y-90728800D01*
X96785000Y-127340500D02*
X96785000Y-125615000D01*
X88440800Y-90728800D02*
X88440800Y-89966300D01*
X88440800Y-87678800D02*
X89203300Y-87678800D01*
X89203300Y-90728800D02*
X88440800Y-90728800D01*
X88440800Y-89966300D02*
X88440800Y-89203800D01*
X89965800Y-89203800D02*
X91490800Y-90728800D01*
X96387299Y-116507701D02*
X96695000Y-116200000D01*
X90728300Y-87678800D02*
X91490800Y-87678800D01*
X89965800Y-87678800D02*
X90728300Y-87678800D01*
X92800000Y-127600500D02*
X91705000Y-126505500D01*
X91705000Y-126505500D02*
X91705000Y-125615000D01*
X91490800Y-88441300D02*
X91490800Y-89203800D01*
%TO.N,VDD*%
X84700000Y-68600000D02*
X84700000Y-68700000D01*
%TO.N,Net-(D1-K)*%
X75403200Y-89992600D02*
X75175000Y-90220800D01*
X75403200Y-86817200D02*
X75403200Y-89992600D01*
%TO.N,GPIO2*%
X63675000Y-91975000D02*
X63675000Y-86043800D01*
X77098400Y-93522800D02*
X77098400Y-94156400D01*
X67303800Y-95603800D02*
X63675000Y-91975000D01*
X69242200Y-95603800D02*
X67303800Y-95603800D01*
X69242200Y-95603800D02*
X79545800Y-95603800D01*
X77098400Y-93522800D02*
X77098400Y-90347400D01*
X78545800Y-95603800D02*
X79545800Y-95603800D01*
X77098400Y-94156400D02*
X78545800Y-95603800D01*
X77098400Y-90347400D02*
X77225000Y-90220800D01*
%TO.N,Net-(D2-A)*%
X93472000Y-108035600D02*
X93472000Y-110785800D01*
X93472000Y-110785800D02*
X93421200Y-110836600D01*
%TO.N,GPIO35*%
X75975000Y-78400000D02*
X75362500Y-77787500D01*
X87532000Y-78400000D02*
X75975000Y-78400000D01*
X52075000Y-83150000D02*
X52075000Y-81850000D01*
X89685800Y-80553800D02*
X87532000Y-78400000D01*
X89685800Y-81133800D02*
X89685800Y-80553800D01*
X52075000Y-81850000D02*
X52075000Y-73850000D01*
X54350000Y-85425000D02*
X54350000Y-91925000D01*
X69675000Y-72100000D02*
X75362500Y-77787500D01*
X53825000Y-72100000D02*
X69675000Y-72100000D01*
X54350000Y-85425000D02*
X52075000Y-83150000D01*
X52075000Y-73850000D02*
X53825000Y-72100000D01*
%TO.N,GPIO4*%
X54250000Y-122925000D02*
X54250000Y-116425000D01*
X82065800Y-111684200D02*
X77325000Y-116425000D01*
X82065800Y-98633800D02*
X82065800Y-111684200D01*
X77325000Y-116425000D02*
X54250000Y-116425000D01*
%TO.N,RX0*%
X92225800Y-99696600D02*
X91325000Y-100597400D01*
X91325000Y-107709439D02*
X92321200Y-108705639D01*
X92225800Y-98633800D02*
X92225800Y-99696600D01*
X91325000Y-100597400D02*
X91325000Y-107709439D01*
X92321200Y-115493800D02*
X91615000Y-116200000D01*
X92321200Y-108705639D02*
X92321200Y-115493800D01*
%TO.N,TX0*%
X95961200Y-102158800D02*
X95300800Y-101498400D01*
X93495800Y-98633800D02*
X93495800Y-101338200D01*
X95961200Y-114393800D02*
X95961200Y-102158800D01*
X93495800Y-101338200D02*
X93472000Y-101362000D01*
X94155000Y-116200000D02*
X95961200Y-114393800D01*
X95300800Y-101498400D02*
X93608400Y-101498400D01*
X93608400Y-101498400D02*
X93472000Y-101362000D01*
%TO.N,GPIO25*%
X71850000Y-118225000D02*
X75225000Y-121600000D01*
X103275000Y-126600000D02*
X103275000Y-125900000D01*
X75225000Y-121600000D02*
X75225000Y-129375000D01*
D34*
X75225000Y-129375000D02*
X75225000Y-121625000D01*
D33*
X103275000Y-125900000D02*
X100450000Y-123075000D01*
X100450000Y-123075000D02*
X99325000Y-123075000D01*
%TO.N,GPIO27*%
X87850000Y-129000000D02*
X93875000Y-129000000D01*
X93875000Y-129000000D02*
X95535000Y-127340000D01*
X95535000Y-127340000D02*
X95535000Y-124325000D01*
X95535000Y-124325000D02*
X96785000Y-123075000D01*
X87250000Y-128400000D02*
X87850000Y-129000000D01*
X69025000Y-120600000D02*
X70425000Y-119200000D01*
X70425000Y-119200000D02*
X70425000Y-118650000D01*
%TO.N,GPIO21*%
X89300000Y-106625000D02*
X89300000Y-101454000D01*
X89300000Y-101454000D02*
X90955800Y-99798200D01*
X90955800Y-99798200D02*
X90955800Y-98633800D01*
%TO.N,GPIO23*%
X91225000Y-120975000D02*
X91705000Y-121455000D01*
X90300000Y-102275000D02*
X90300000Y-110400000D01*
X91705000Y-121455000D02*
X91705000Y-123075000D01*
X87175000Y-117425000D02*
X90725000Y-120975000D01*
X90300000Y-110400000D02*
X87175000Y-113525000D01*
X87175000Y-113525000D02*
X87175000Y-117425000D01*
X90725000Y-120975000D02*
X91225000Y-120975000D01*
%TO.N,GPIO17*%
X84225000Y-99014600D02*
X84605800Y-98633800D01*
X86625000Y-123075000D02*
X84225000Y-120675000D01*
X84225000Y-120675000D02*
X84225000Y-99014600D01*
%TO.N,GPIO15*%
X78400000Y-117400000D02*
X84075000Y-123075000D01*
X68580000Y-94234000D02*
X68326000Y-94488000D01*
X73150000Y-94234000D02*
X68580000Y-94234000D01*
X84075000Y-123075000D02*
X84085000Y-123075000D01*
X66225000Y-117400000D02*
X78400000Y-117400000D01*
%TO.N,GPIO33*%
X87503000Y-105647000D02*
X87503000Y-102616000D01*
X85050000Y-118825000D02*
X85775000Y-118100000D01*
X85775000Y-118100000D02*
X85775000Y-107375000D01*
X85775000Y-107375000D02*
X87503000Y-105647000D01*
%TO.N,GPIO26*%
X84582000Y-81110000D02*
X84605800Y-81133800D01*
X98800000Y-126140000D02*
X99325000Y-125615000D01*
X84582000Y-79502000D02*
X84582000Y-81110000D01*
X98800000Y-128125000D02*
X98800000Y-126140000D01*
%TO.N,GPIO22*%
X97282000Y-102616000D02*
X96774000Y-102108000D01*
X96774000Y-101727000D02*
X94765800Y-99718800D01*
X94765800Y-99718800D02*
X94765800Y-98633800D01*
X96774000Y-102108000D02*
X96774000Y-101727000D01*
%TO.N,GPIO16*%
X83335800Y-115960800D02*
X83335800Y-98633800D01*
%TO.N,GPIO18*%
X87875000Y-121850000D02*
X87875000Y-124365000D01*
X87172800Y-98704400D02*
X87249000Y-98780600D01*
X88475000Y-101475000D02*
X88475000Y-105523528D01*
X86375000Y-114820601D02*
X86424500Y-114870101D01*
X87249000Y-98780600D02*
X87249000Y-100249000D01*
X87249000Y-100249000D02*
X88475000Y-101475000D01*
X88475000Y-105523528D02*
X87175000Y-106823528D01*
X86375000Y-113025000D02*
X86375000Y-114820601D01*
X87175000Y-106823528D02*
X87175000Y-112225000D01*
X86424500Y-114870101D02*
X86424500Y-119250500D01*
X87875000Y-124365000D02*
X86625000Y-125615000D01*
X86424500Y-119250500D02*
X85850000Y-119825000D01*
X85850000Y-119825000D02*
X87875000Y-121850000D01*
X87175000Y-112225000D02*
X86375000Y-113025000D01*
%TO.N,GPIO13*%
X79545800Y-85443800D02*
X72186099Y-85443800D01*
X67692299Y-80950000D02*
X54400000Y-80950000D01*
X54400000Y-74450000D02*
X54400000Y-80950000D01*
X72186099Y-85443800D02*
X67692299Y-80950000D01*
%TO.N,/EN*%
X76225000Y-76015000D02*
X79065000Y-76015000D01*
X94765800Y-80133800D02*
X94207000Y-79575000D01*
X90375000Y-79575000D02*
X88275000Y-77475000D01*
X79065000Y-76015000D02*
X79100000Y-76050000D01*
X94207000Y-79575000D02*
X90375000Y-79575000D01*
X88275000Y-77475000D02*
X77685000Y-77475000D01*
X94765800Y-81133800D02*
X94765800Y-80133800D01*
X77685000Y-77475000D02*
X76225000Y-76015000D01*
%TO.N,GPIO0*%
X78000000Y-106825000D02*
X80645000Y-104180000D01*
X80795800Y-98633800D02*
X77688200Y-98633800D01*
X80645000Y-102235000D02*
X80645000Y-98784600D01*
X80645000Y-104180000D02*
X80645000Y-102235000D01*
X80645000Y-98784600D02*
X80795800Y-98633800D01*
X78000000Y-106825000D02*
X71500000Y-106825000D01*
X77688200Y-98633800D02*
X77454000Y-98399600D01*
%TO.N,GPIO5*%
X85875800Y-98633800D02*
X85875800Y-102897000D01*
X85875800Y-102897000D02*
X85852000Y-102920800D01*
%TO.N,GPIO19*%
X65350000Y-96950000D02*
X64725000Y-96325000D01*
X88415800Y-97458200D02*
X87884000Y-96926400D01*
X70309000Y-96950000D02*
X65350000Y-96950000D01*
X70332600Y-96926400D02*
X70309000Y-96950000D01*
X87884000Y-96926400D02*
X70332600Y-96926400D01*
X54325000Y-96325000D02*
X54325000Y-102825000D01*
X64725000Y-96325000D02*
X54325000Y-96325000D01*
X88415800Y-98633800D02*
X88415800Y-97458200D01*
%TD*%
%TA.AperFunction,Conductor*%
%TO.N,GND*%
G36*
X98793800Y-63270113D02*
G01*
X98839187Y-63315500D01*
X98855800Y-63377500D01*
X98855800Y-101670253D01*
X98842285Y-101726548D01*
X98804685Y-101770571D01*
X98751198Y-101792726D01*
X98693482Y-101788184D01*
X98644119Y-101757934D01*
X97554957Y-100668772D01*
X97522064Y-100610037D01*
X97524708Y-100542771D01*
X97532674Y-100518256D01*
X97552460Y-100330000D01*
X97532674Y-100141744D01*
X97501602Y-100046117D01*
X97497061Y-99988402D01*
X97519216Y-99934915D01*
X97563239Y-99897315D01*
X97619534Y-99883800D01*
X97803624Y-99883800D01*
X97863175Y-99877397D01*
X97997889Y-99827152D01*
X98112988Y-99740988D01*
X98199152Y-99625889D01*
X98249397Y-99491175D01*
X98255800Y-99431624D01*
X98255800Y-98883800D01*
X97179800Y-98883800D01*
X97117800Y-98867187D01*
X97072413Y-98821800D01*
X97055800Y-98759800D01*
X97055800Y-97383800D01*
X97555800Y-97383800D01*
X97555800Y-98383800D01*
X98255800Y-98383800D01*
X98255800Y-97835976D01*
X98249397Y-97776424D01*
X98199152Y-97641710D01*
X98112988Y-97526611D01*
X97997889Y-97440447D01*
X97863175Y-97390202D01*
X97803624Y-97383800D01*
X97555800Y-97383800D01*
X97055800Y-97383800D01*
X96807976Y-97383800D01*
X96748422Y-97390202D01*
X96714847Y-97402725D01*
X96671514Y-97410543D01*
X96628181Y-97402725D01*
X96593284Y-97389709D01*
X96581361Y-97388427D01*
X96533673Y-97383300D01*
X96533669Y-97383300D01*
X95537930Y-97383300D01*
X95478316Y-97389709D01*
X95444131Y-97402459D01*
X95400800Y-97410276D01*
X95357468Y-97402458D01*
X95323286Y-97389709D01*
X95297735Y-97386962D01*
X95263673Y-97383300D01*
X95263669Y-97383300D01*
X94267930Y-97383300D01*
X94208316Y-97389709D01*
X94174131Y-97402459D01*
X94130800Y-97410276D01*
X94087468Y-97402458D01*
X94053286Y-97389709D01*
X94027735Y-97386962D01*
X93993673Y-97383300D01*
X93993669Y-97383300D01*
X92997930Y-97383300D01*
X92938316Y-97389709D01*
X92904131Y-97402459D01*
X92860800Y-97410276D01*
X92817468Y-97402458D01*
X92783286Y-97389709D01*
X92757735Y-97386962D01*
X92723673Y-97383300D01*
X92723669Y-97383300D01*
X91727930Y-97383300D01*
X91668316Y-97389709D01*
X91634131Y-97402459D01*
X91590800Y-97410276D01*
X91547468Y-97402458D01*
X91513286Y-97389709D01*
X91487735Y-97386962D01*
X91453673Y-97383300D01*
X91453669Y-97383300D01*
X90457930Y-97383300D01*
X90398316Y-97389709D01*
X90364131Y-97402459D01*
X90320800Y-97410276D01*
X90277468Y-97402458D01*
X90243286Y-97389709D01*
X90217735Y-97386962D01*
X90183673Y-97383300D01*
X90183669Y-97383300D01*
X89222170Y-97383300D01*
X89173566Y-97373378D01*
X89132741Y-97345198D01*
X89106228Y-97303272D01*
X89097348Y-97279858D01*
X89091322Y-97258244D01*
X89089495Y-97248269D01*
X89064809Y-97193420D01*
X89061952Y-97186526D01*
X89040618Y-97130270D01*
X89040616Y-97130268D01*
X89040616Y-97130266D01*
X89034862Y-97121931D01*
X89023833Y-97102377D01*
X89019678Y-97093144D01*
X88982580Y-97045791D01*
X88978152Y-97039773D01*
X88974815Y-97034939D01*
X88943983Y-96990271D01*
X88898953Y-96950378D01*
X88893515Y-96945258D01*
X88396940Y-96448683D01*
X88391822Y-96443247D01*
X88351929Y-96398217D01*
X88302432Y-96364051D01*
X88296405Y-96359616D01*
X88249054Y-96322520D01*
X88239813Y-96318361D01*
X88220273Y-96307341D01*
X88211930Y-96301582D01*
X88211927Y-96301581D01*
X88211926Y-96301580D01*
X88155701Y-96280256D01*
X88148783Y-96277391D01*
X88093929Y-96252703D01*
X88083952Y-96250875D01*
X88062339Y-96244850D01*
X88052873Y-96241260D01*
X87993172Y-96234010D01*
X87985771Y-96232883D01*
X87926607Y-96222041D01*
X87866566Y-96225674D01*
X87859079Y-96225900D01*
X80920300Y-96225900D01*
X80858300Y-96209287D01*
X80812913Y-96163900D01*
X80796300Y-96101900D01*
X80796299Y-95105930D01*
X80795811Y-95101388D01*
X80789891Y-95046317D01*
X80777140Y-95012131D01*
X80769323Y-94968800D01*
X80777142Y-94925465D01*
X80789890Y-94891285D01*
X80789889Y-94891285D01*
X80789891Y-94891283D01*
X80796300Y-94831673D01*
X80796299Y-93835928D01*
X80789891Y-93776317D01*
X80777140Y-93742131D01*
X80769323Y-93698800D01*
X80777142Y-93655465D01*
X80789890Y-93621285D01*
X80789889Y-93621285D01*
X80789891Y-93621283D01*
X80796300Y-93561673D01*
X80796299Y-92565928D01*
X80789891Y-92506317D01*
X80777140Y-92472131D01*
X80769323Y-92428799D01*
X80777142Y-92385465D01*
X80789890Y-92351285D01*
X80789889Y-92351285D01*
X80789891Y-92351283D01*
X80796300Y-92291673D01*
X80796299Y-91295928D01*
X80789891Y-91236317D01*
X80777140Y-91202131D01*
X80769323Y-91158800D01*
X80777142Y-91115465D01*
X80789890Y-91081285D01*
X80789889Y-91081285D01*
X80789891Y-91081283D01*
X80796300Y-91021673D01*
X80796299Y-90025928D01*
X80789891Y-89966317D01*
X80777140Y-89932131D01*
X80769323Y-89888800D01*
X80777142Y-89845465D01*
X80789890Y-89811285D01*
X80789889Y-89811285D01*
X80789891Y-89811283D01*
X80796300Y-89751673D01*
X80796300Y-89453800D01*
X87365800Y-89453800D01*
X87365800Y-91351624D01*
X87372202Y-91411175D01*
X87422447Y-91545889D01*
X87508611Y-91660988D01*
X87623710Y-91747152D01*
X87758424Y-91797397D01*
X87817976Y-91803800D01*
X89715800Y-91803800D01*
X90215800Y-91803800D01*
X92113624Y-91803800D01*
X92173175Y-91797397D01*
X92307889Y-91747152D01*
X92422988Y-91660988D01*
X92509152Y-91545889D01*
X92559397Y-91411175D01*
X92565800Y-91351624D01*
X92565800Y-89453800D01*
X91740800Y-89453800D01*
X91740800Y-89862747D01*
X91756672Y-89878619D01*
X91788766Y-89934206D01*
X91788766Y-89998394D01*
X91756672Y-90053981D01*
X91740800Y-90069852D01*
X91740800Y-90854800D01*
X91724187Y-90916800D01*
X91678800Y-90962187D01*
X91616800Y-90978800D01*
X90831852Y-90978800D01*
X90815981Y-90994672D01*
X90760394Y-91026766D01*
X90696206Y-91026766D01*
X90640619Y-90994672D01*
X90624747Y-90978800D01*
X90215800Y-90978800D01*
X90215800Y-91803800D01*
X89715800Y-91803800D01*
X89715800Y-90978800D01*
X89306852Y-90978800D01*
X89290981Y-90994672D01*
X89235394Y-91026766D01*
X89171206Y-91026766D01*
X89115619Y-90994672D01*
X89099747Y-90978800D01*
X88314800Y-90978800D01*
X88252800Y-90962187D01*
X88207413Y-90916800D01*
X88190800Y-90854800D01*
X88190800Y-90069854D01*
X88190799Y-90069852D01*
X88174928Y-90053981D01*
X88142834Y-89998394D01*
X88142834Y-89966300D01*
X88794353Y-89966300D01*
X89203300Y-90375247D01*
X89612247Y-89966300D01*
X90319353Y-89966300D01*
X90728300Y-90375247D01*
X91137247Y-89966300D01*
X90728300Y-89557353D01*
X90319353Y-89966300D01*
X89612247Y-89966300D01*
X89203300Y-89557353D01*
X88794353Y-89966300D01*
X88142834Y-89966300D01*
X88142834Y-89934206D01*
X88174928Y-89878619D01*
X88190799Y-89862747D01*
X88190800Y-89862747D01*
X88190800Y-89453800D01*
X87365800Y-89453800D01*
X80796300Y-89453800D01*
X80796299Y-88953800D01*
X87365800Y-88953800D01*
X88190800Y-88953800D01*
X88190800Y-88544854D01*
X88190799Y-88544852D01*
X88174928Y-88528981D01*
X88142834Y-88473394D01*
X88142834Y-88441300D01*
X88794353Y-88441300D01*
X89203300Y-88850247D01*
X89612247Y-88441300D01*
X90319353Y-88441300D01*
X90728300Y-88850247D01*
X91137247Y-88441300D01*
X90728300Y-88032353D01*
X90319353Y-88441300D01*
X89612247Y-88441300D01*
X89203300Y-88032353D01*
X88794353Y-88441300D01*
X88142834Y-88441300D01*
X88142834Y-88409206D01*
X88174928Y-88353619D01*
X88190799Y-88337747D01*
X88190800Y-88337747D01*
X88190800Y-87552800D01*
X88207413Y-87490800D01*
X88252800Y-87445413D01*
X88314800Y-87428800D01*
X89099747Y-87428800D01*
X89099747Y-87428799D01*
X89115619Y-87412928D01*
X89171206Y-87380834D01*
X89235394Y-87380834D01*
X89290981Y-87412928D01*
X89306853Y-87428800D01*
X89715800Y-87428800D01*
X89715800Y-86603800D01*
X90215800Y-86603800D01*
X90215800Y-87428800D01*
X90624747Y-87428800D01*
X90624747Y-87428799D01*
X90640619Y-87412928D01*
X90696206Y-87380834D01*
X90760394Y-87380834D01*
X90815981Y-87412928D01*
X90831853Y-87428800D01*
X91616800Y-87428800D01*
X91678800Y-87445413D01*
X91724187Y-87490800D01*
X91740800Y-87552800D01*
X91740800Y-88337747D01*
X91756672Y-88353619D01*
X91788766Y-88409206D01*
X91788766Y-88473394D01*
X91756672Y-88528981D01*
X91740800Y-88544852D01*
X91740800Y-88953800D01*
X92565800Y-88953800D01*
X92565800Y-87055976D01*
X92559397Y-86996424D01*
X92509152Y-86861710D01*
X92422988Y-86746611D01*
X92307889Y-86660447D01*
X92173175Y-86610202D01*
X92113624Y-86603800D01*
X90215800Y-86603800D01*
X89715800Y-86603800D01*
X87817976Y-86603800D01*
X87758424Y-86610202D01*
X87623710Y-86660447D01*
X87508611Y-86746611D01*
X87422447Y-86861710D01*
X87372202Y-86996424D01*
X87365800Y-87055976D01*
X87365800Y-88953800D01*
X80796299Y-88953800D01*
X80796299Y-88755928D01*
X80789891Y-88696317D01*
X80777140Y-88662130D01*
X80769323Y-88618800D01*
X80777142Y-88575465D01*
X80789890Y-88541285D01*
X80789889Y-88541285D01*
X80789891Y-88541283D01*
X80796300Y-88481673D01*
X80796299Y-87485928D01*
X80789891Y-87426317D01*
X80777140Y-87392131D01*
X80769323Y-87348799D01*
X80777142Y-87305465D01*
X80789890Y-87271285D01*
X80789889Y-87271285D01*
X80789891Y-87271283D01*
X80796300Y-87211673D01*
X80796299Y-86215928D01*
X80789891Y-86156317D01*
X80777140Y-86122131D01*
X80769323Y-86078800D01*
X80777142Y-86035465D01*
X80780023Y-86027739D01*
X80789891Y-86001283D01*
X80796300Y-85941673D01*
X80796299Y-84945928D01*
X80789891Y-84886317D01*
X80776875Y-84851419D01*
X80769056Y-84808084D01*
X80776875Y-84764749D01*
X80789397Y-84731176D01*
X80795800Y-84671624D01*
X80795800Y-84423800D01*
X78295800Y-84423800D01*
X78295800Y-84619300D01*
X78279187Y-84681300D01*
X78233800Y-84726687D01*
X78171800Y-84743300D01*
X77202251Y-84743300D01*
X77144776Y-84729175D01*
X77100395Y-84690020D01*
X77079218Y-84634753D01*
X77086069Y-84575966D01*
X77098597Y-84542375D01*
X77105000Y-84482824D01*
X77105000Y-83923800D01*
X78295800Y-83923800D01*
X79295800Y-83923800D01*
X79295800Y-83223800D01*
X79795800Y-83223800D01*
X79795800Y-83923800D01*
X80795800Y-83923800D01*
X80795800Y-83675976D01*
X80789397Y-83616424D01*
X80739152Y-83481710D01*
X80652988Y-83366611D01*
X80537889Y-83280447D01*
X80403175Y-83230202D01*
X80343624Y-83223800D01*
X79795800Y-83223800D01*
X79295800Y-83223800D01*
X78747976Y-83223800D01*
X78688424Y-83230202D01*
X78553710Y-83280447D01*
X78438611Y-83366611D01*
X78352447Y-83481710D01*
X78302202Y-83616424D01*
X78295800Y-83675976D01*
X78295800Y-83923800D01*
X77105000Y-83923800D01*
X77105000Y-83885000D01*
X75345000Y-83885000D01*
X75345000Y-84482824D01*
X75351402Y-84542375D01*
X75363931Y-84575966D01*
X75370782Y-84634753D01*
X75349605Y-84690020D01*
X75305224Y-84729175D01*
X75247749Y-84743300D01*
X72527618Y-84743300D01*
X72480165Y-84733861D01*
X72439937Y-84706981D01*
X71117956Y-83385000D01*
X75345000Y-83385000D01*
X75975000Y-83385000D01*
X75975000Y-82335000D01*
X76475000Y-82335000D01*
X76475000Y-83385000D01*
X77105000Y-83385000D01*
X77105000Y-82787176D01*
X77098597Y-82727624D01*
X77048352Y-82592910D01*
X76962188Y-82477811D01*
X76847089Y-82391647D01*
X76712375Y-82341402D01*
X76652824Y-82335000D01*
X76475000Y-82335000D01*
X75975000Y-82335000D01*
X75797176Y-82335000D01*
X75737624Y-82341402D01*
X75602910Y-82391647D01*
X75487811Y-82477811D01*
X75401647Y-82592910D01*
X75351402Y-82727624D01*
X75345000Y-82787176D01*
X75345000Y-83385000D01*
X71117956Y-83385000D01*
X68205239Y-80472283D01*
X68200121Y-80466847D01*
X68160228Y-80421817D01*
X68110731Y-80387651D01*
X68104704Y-80383216D01*
X68057353Y-80346120D01*
X68048112Y-80341961D01*
X68028572Y-80330941D01*
X68020229Y-80325182D01*
X68020226Y-80325181D01*
X68020225Y-80325180D01*
X67964000Y-80303856D01*
X67957082Y-80300991D01*
X67902228Y-80276303D01*
X67892251Y-80274475D01*
X67870638Y-80268450D01*
X67861172Y-80264860D01*
X67801471Y-80257610D01*
X67794070Y-80256483D01*
X67734906Y-80245641D01*
X67674865Y-80249274D01*
X67667378Y-80249500D01*
X55801802Y-80249500D01*
X55742785Y-80234555D01*
X55697993Y-80193322D01*
X55674856Y-80157908D01*
X55588164Y-80025215D01*
X55419744Y-79842262D01*
X55373056Y-79805923D01*
X55223514Y-79689529D01*
X55223510Y-79689526D01*
X55223509Y-79689526D01*
X55165480Y-79658122D01*
X55117977Y-79612543D01*
X55100500Y-79549069D01*
X55100500Y-75850931D01*
X55117977Y-75787457D01*
X55165480Y-75741877D01*
X55223509Y-75710474D01*
X55419744Y-75557738D01*
X55588164Y-75374785D01*
X55724173Y-75166607D01*
X55824063Y-74938881D01*
X55885108Y-74697821D01*
X55905643Y-74450000D01*
X55885108Y-74202179D01*
X55824063Y-73961119D01*
X55724173Y-73733393D01*
X55588164Y-73525215D01*
X55419744Y-73342262D01*
X55333970Y-73275501D01*
X55223514Y-73189529D01*
X55223510Y-73189526D01*
X55223509Y-73189526D01*
X55004810Y-73071172D01*
X55004806Y-73071170D01*
X55004805Y-73071170D01*
X54919198Y-73041781D01*
X54862880Y-73002270D01*
X54836291Y-72938820D01*
X54847614Y-72870962D01*
X54893365Y-72819584D01*
X54959461Y-72800500D01*
X69333481Y-72800500D01*
X69380934Y-72809939D01*
X69421162Y-72836819D01*
X75462058Y-78877715D01*
X75467178Y-78883153D01*
X75507071Y-78928183D01*
X75507072Y-78928184D01*
X75556573Y-78962352D01*
X75562591Y-78966780D01*
X75609944Y-79003878D01*
X75619180Y-79008034D01*
X75638731Y-79019062D01*
X75647066Y-79024816D01*
X75647068Y-79024816D01*
X75647070Y-79024818D01*
X75703326Y-79046152D01*
X75710220Y-79049009D01*
X75765069Y-79073695D01*
X75775044Y-79075522D01*
X75796656Y-79081547D01*
X75806128Y-79085140D01*
X75865841Y-79092390D01*
X75873185Y-79093507D01*
X75932394Y-79104358D01*
X75989102Y-79100927D01*
X75992434Y-79100726D01*
X75999921Y-79100500D01*
X83594942Y-79100500D01*
X83651237Y-79114015D01*
X83695260Y-79151614D01*
X83717415Y-79205102D01*
X83712873Y-79262818D01*
X83696326Y-79313742D01*
X83676540Y-79502000D01*
X83696326Y-79690256D01*
X83706310Y-79720984D01*
X83710851Y-79778699D01*
X83688695Y-79832186D01*
X83644672Y-79869785D01*
X83588378Y-79883300D01*
X82837930Y-79883300D01*
X82778314Y-79889709D01*
X82744129Y-79902459D01*
X82700798Y-79910276D01*
X82657467Y-79902458D01*
X82623286Y-79889709D01*
X82597735Y-79886962D01*
X82563673Y-79883300D01*
X82563669Y-79883300D01*
X81567930Y-79883300D01*
X81508314Y-79889709D01*
X81474129Y-79902459D01*
X81430798Y-79910276D01*
X81387467Y-79902458D01*
X81353286Y-79889709D01*
X81327735Y-79886962D01*
X81293673Y-79883300D01*
X81293669Y-79883300D01*
X80297930Y-79883300D01*
X80238315Y-79889709D01*
X80103469Y-79940004D01*
X79988254Y-80026254D01*
X79902004Y-80141468D01*
X79853152Y-80272446D01*
X79851709Y-80276317D01*
X79846456Y-80325180D01*
X79845300Y-80335930D01*
X79845300Y-81931669D01*
X79851697Y-81991175D01*
X79851709Y-81991283D01*
X79902004Y-82126131D01*
X79988254Y-82241346D01*
X80103469Y-82327596D01*
X80238317Y-82377891D01*
X80297927Y-82384300D01*
X81293672Y-82384299D01*
X81353283Y-82377891D01*
X81387465Y-82365141D01*
X81430799Y-82357323D01*
X81474132Y-82365140D01*
X81508317Y-82377891D01*
X81567927Y-82384300D01*
X82563672Y-82384299D01*
X82623283Y-82377891D01*
X82657465Y-82365141D01*
X82700799Y-82357323D01*
X82744132Y-82365140D01*
X82778317Y-82377891D01*
X82837927Y-82384300D01*
X83833672Y-82384299D01*
X83893283Y-82377891D01*
X83927465Y-82365141D01*
X83970799Y-82357323D01*
X84014132Y-82365140D01*
X84048317Y-82377891D01*
X84107927Y-82384300D01*
X85103672Y-82384299D01*
X85163283Y-82377891D01*
X85197465Y-82365141D01*
X85240799Y-82357323D01*
X85284132Y-82365140D01*
X85318317Y-82377891D01*
X85377927Y-82384300D01*
X86373672Y-82384299D01*
X86433283Y-82377891D01*
X86467465Y-82365141D01*
X86510799Y-82357323D01*
X86554132Y-82365140D01*
X86588317Y-82377891D01*
X86647927Y-82384300D01*
X87643672Y-82384299D01*
X87703283Y-82377891D01*
X87737465Y-82365141D01*
X87780799Y-82357323D01*
X87824132Y-82365140D01*
X87858317Y-82377891D01*
X87917927Y-82384300D01*
X88913672Y-82384299D01*
X88973283Y-82377891D01*
X89007465Y-82365141D01*
X89050799Y-82357323D01*
X89094132Y-82365140D01*
X89128317Y-82377891D01*
X89187927Y-82384300D01*
X90183672Y-82384299D01*
X90243283Y-82377891D01*
X90277465Y-82365141D01*
X90320799Y-82357323D01*
X90364132Y-82365140D01*
X90398317Y-82377891D01*
X90457927Y-82384300D01*
X91453672Y-82384299D01*
X91513283Y-82377891D01*
X91547465Y-82365141D01*
X91590799Y-82357323D01*
X91634132Y-82365140D01*
X91668317Y-82377891D01*
X91727927Y-82384300D01*
X92723672Y-82384299D01*
X92783283Y-82377891D01*
X92817465Y-82365141D01*
X92860799Y-82357323D01*
X92904132Y-82365140D01*
X92938317Y-82377891D01*
X92997927Y-82384300D01*
X93993672Y-82384299D01*
X94053283Y-82377891D01*
X94087465Y-82365141D01*
X94130799Y-82357323D01*
X94174132Y-82365140D01*
X94208317Y-82377891D01*
X94267927Y-82384300D01*
X95263672Y-82384299D01*
X95323283Y-82377891D01*
X95357465Y-82365141D01*
X95400799Y-82357323D01*
X95444132Y-82365140D01*
X95478317Y-82377891D01*
X95537927Y-82384300D01*
X96533672Y-82384299D01*
X96593283Y-82377891D01*
X96628184Y-82364873D01*
X96671512Y-82357056D01*
X96714848Y-82364875D01*
X96748421Y-82377397D01*
X96807976Y-82383800D01*
X97055800Y-82383800D01*
X97055800Y-81383800D01*
X97555800Y-81383800D01*
X97555800Y-82383800D01*
X97803624Y-82383800D01*
X97863175Y-82377397D01*
X97997889Y-82327152D01*
X98112988Y-82240988D01*
X98199152Y-82125889D01*
X98249397Y-81991175D01*
X98255800Y-81931624D01*
X98255800Y-81383800D01*
X97555800Y-81383800D01*
X97055800Y-81383800D01*
X97055800Y-81007800D01*
X97072413Y-80945800D01*
X97117800Y-80900413D01*
X97179800Y-80883800D01*
X98255800Y-80883800D01*
X98255800Y-80335976D01*
X98249397Y-80276424D01*
X98199152Y-80141710D01*
X98112988Y-80026611D01*
X97997889Y-79940447D01*
X97863175Y-79890202D01*
X97803624Y-79883800D01*
X97410172Y-79883800D01*
X97353716Y-79870203D01*
X97309642Y-79832393D01*
X97287615Y-79778662D01*
X97292465Y-79720797D01*
X97314999Y-79652797D01*
X97325500Y-79550009D01*
X97325499Y-78774992D01*
X97314999Y-78672203D01*
X97259814Y-78505666D01*
X97167712Y-78356344D01*
X97167711Y-78356342D01*
X97043659Y-78232290D01*
X97040345Y-78230246D01*
X96997163Y-78185138D01*
X96981440Y-78124704D01*
X96997164Y-78064271D01*
X97040348Y-78019164D01*
X97043348Y-78017313D01*
X97167316Y-77893345D01*
X97259357Y-77744122D01*
X97314506Y-77577696D01*
X97325000Y-77474979D01*
X97325000Y-77337500D01*
X94875001Y-77337500D01*
X94875001Y-77474979D01*
X94880467Y-77528489D01*
X94871807Y-77588211D01*
X94835982Y-77636772D01*
X94781476Y-77662672D01*
X94721200Y-77659777D01*
X94669428Y-77628771D01*
X93878157Y-76837500D01*
X94875000Y-76837500D01*
X95850000Y-76837500D01*
X95850000Y-76000001D01*
X95575021Y-76000001D01*
X95472304Y-76010493D01*
X95305877Y-76065642D01*
X95156654Y-76157683D01*
X95032683Y-76281654D01*
X94940642Y-76430877D01*
X94885493Y-76597303D01*
X94875000Y-76700021D01*
X94875000Y-76837500D01*
X93878157Y-76837500D01*
X93040657Y-76000000D01*
X96350000Y-76000000D01*
X96350000Y-76837500D01*
X97324999Y-76837500D01*
X97324999Y-76700021D01*
X97314506Y-76597304D01*
X97259357Y-76430877D01*
X97167316Y-76281654D01*
X97043345Y-76157683D01*
X96894122Y-76065642D01*
X96727696Y-76010493D01*
X96624979Y-76000000D01*
X96350000Y-76000000D01*
X93040657Y-76000000D01*
X91945772Y-74905115D01*
X93548436Y-74905115D01*
X93690958Y-75011806D01*
X93942047Y-75148911D01*
X94210097Y-75248888D01*
X94489642Y-75309699D01*
X94775000Y-75330109D01*
X95060357Y-75309699D01*
X95339902Y-75248888D01*
X95607952Y-75148911D01*
X95859041Y-75011806D01*
X96001562Y-74905115D01*
X94775001Y-73678553D01*
X94775000Y-73678553D01*
X93548436Y-74905115D01*
X91945772Y-74905115D01*
X91462940Y-74422283D01*
X91457822Y-74416847D01*
X91417929Y-74371817D01*
X91368432Y-74337651D01*
X91362405Y-74333216D01*
X91315054Y-74296120D01*
X91305813Y-74291961D01*
X91286273Y-74280941D01*
X91277930Y-74275182D01*
X91277927Y-74275181D01*
X91277926Y-74275180D01*
X91221701Y-74253856D01*
X91214783Y-74250991D01*
X91159929Y-74226303D01*
X91149952Y-74224475D01*
X91128339Y-74218450D01*
X91118873Y-74214860D01*
X91059172Y-74207610D01*
X91051771Y-74206483D01*
X90992607Y-74195641D01*
X90932566Y-74199274D01*
X90925079Y-74199500D01*
X89524499Y-74199500D01*
X89462499Y-74182887D01*
X89417112Y-74137500D01*
X89400499Y-74075500D01*
X89400499Y-73852130D01*
X89395690Y-73807394D01*
X89394091Y-73792517D01*
X89343796Y-73657669D01*
X89257546Y-73542454D01*
X89142331Y-73456204D01*
X89007483Y-73405909D01*
X88947873Y-73399500D01*
X88947869Y-73399500D01*
X87824500Y-73399500D01*
X87762500Y-73382887D01*
X87717113Y-73337500D01*
X87713763Y-73324999D01*
X92769890Y-73324999D01*
X92790300Y-73610357D01*
X92851111Y-73889902D01*
X92951088Y-74157952D01*
X93088193Y-74409042D01*
X93194883Y-74551562D01*
X94421446Y-73325001D01*
X95128553Y-73325001D01*
X96355115Y-74551562D01*
X96461806Y-74409041D01*
X96598911Y-74157952D01*
X96698888Y-73889902D01*
X96759699Y-73610357D01*
X96780109Y-73324999D01*
X96759699Y-73039642D01*
X96698888Y-72760097D01*
X96598911Y-72492047D01*
X96461806Y-72240958D01*
X96355115Y-72098436D01*
X95128553Y-73325000D01*
X95128553Y-73325001D01*
X94421446Y-73325001D01*
X94421446Y-73325000D01*
X93194883Y-72098436D01*
X93194882Y-72098437D01*
X93088195Y-72240954D01*
X92951088Y-72492047D01*
X92851111Y-72760097D01*
X92790300Y-73039642D01*
X92769890Y-73324999D01*
X87713763Y-73324999D01*
X87700500Y-73275500D01*
X87700500Y-71744883D01*
X93548436Y-71744883D01*
X94775000Y-72971446D01*
X94775001Y-72971446D01*
X96001562Y-71744883D01*
X95859042Y-71638193D01*
X95607952Y-71501088D01*
X95339902Y-71401111D01*
X95060357Y-71340300D01*
X94775000Y-71319890D01*
X94489642Y-71340300D01*
X94210097Y-71401111D01*
X93942047Y-71501088D01*
X93690954Y-71638195D01*
X93548437Y-71744882D01*
X93548436Y-71744883D01*
X87700500Y-71744883D01*
X87700500Y-70222351D01*
X87714969Y-70164223D01*
X87754998Y-70119660D01*
X87811246Y-70099061D01*
X87857483Y-70094091D01*
X87992331Y-70043796D01*
X88076109Y-69981079D01*
X88124057Y-69959182D01*
X88176774Y-69959182D01*
X88224727Y-69981081D01*
X88307911Y-70043352D01*
X88442624Y-70093597D01*
X88502176Y-70100000D01*
X89050000Y-70100000D01*
X89050000Y-68850000D01*
X89550000Y-68850000D01*
X89550000Y-70100000D01*
X90097824Y-70100000D01*
X90157375Y-70093597D01*
X90292089Y-70043352D01*
X90407188Y-69957188D01*
X90493352Y-69842089D01*
X90511710Y-69792869D01*
X92774500Y-69792869D01*
X92780909Y-69852484D01*
X92798628Y-69899990D01*
X92831204Y-69987331D01*
X92917454Y-70102546D01*
X93032669Y-70188796D01*
X93167517Y-70239091D01*
X93227127Y-70245500D01*
X96322872Y-70245499D01*
X96382483Y-70239091D01*
X96517331Y-70188796D01*
X96632546Y-70102546D01*
X96718796Y-69987331D01*
X96769091Y-69852483D01*
X96775500Y-69792873D01*
X96775499Y-66697128D01*
X96769091Y-66637517D01*
X96718796Y-66502669D01*
X96632546Y-66387454D01*
X96517331Y-66301204D01*
X96382483Y-66250909D01*
X96322873Y-66244500D01*
X96322869Y-66244500D01*
X93227130Y-66244500D01*
X93167515Y-66250909D01*
X93032669Y-66301204D01*
X92917454Y-66387454D01*
X92831204Y-66502668D01*
X92780909Y-66637516D01*
X92774500Y-66697130D01*
X92774500Y-69792869D01*
X90511710Y-69792869D01*
X90543597Y-69707375D01*
X90550000Y-69647824D01*
X90550000Y-68850000D01*
X89550000Y-68850000D01*
X89050000Y-68850000D01*
X89050000Y-68474000D01*
X89066613Y-68412000D01*
X89112000Y-68366613D01*
X89174000Y-68350000D01*
X90550000Y-68350000D01*
X90550000Y-67552176D01*
X90543079Y-67487805D01*
X90536345Y-67447763D01*
X90546321Y-67401900D01*
X90572629Y-67363030D01*
X90692318Y-67243342D01*
X90784357Y-67094122D01*
X90839506Y-66927696D01*
X90850000Y-66824979D01*
X90850000Y-66550000D01*
X89636500Y-66550000D01*
X89574500Y-66533387D01*
X89529113Y-66488000D01*
X89512500Y-66426000D01*
X89512500Y-65075001D01*
X89375021Y-65075001D01*
X89272304Y-65085493D01*
X89105877Y-65140642D01*
X88956654Y-65232683D01*
X88832683Y-65356654D01*
X88830830Y-65359659D01*
X88785721Y-65402838D01*
X88725289Y-65418559D01*
X88664857Y-65402834D01*
X88619752Y-65359652D01*
X88617903Y-65356654D01*
X88617712Y-65356344D01*
X88617710Y-65356342D01*
X88617709Y-65356340D01*
X88493657Y-65232288D01*
X88344334Y-65140186D01*
X88177797Y-65085000D01*
X88079904Y-65075000D01*
X90012500Y-65075000D01*
X90012500Y-66050000D01*
X90849999Y-66050000D01*
X90849999Y-65775021D01*
X90839506Y-65672304D01*
X90784357Y-65505877D01*
X90692316Y-65356654D01*
X90568345Y-65232683D01*
X90419122Y-65140642D01*
X90252696Y-65085493D01*
X90149979Y-65075000D01*
X90012500Y-65075000D01*
X88079904Y-65075000D01*
X88075009Y-65074500D01*
X87299991Y-65074500D01*
X87197203Y-65085000D01*
X87030665Y-65140186D01*
X86869007Y-65239897D01*
X86867567Y-65237562D01*
X86832094Y-65258044D01*
X86767906Y-65258044D01*
X86732432Y-65237562D01*
X86730993Y-65239897D01*
X86569334Y-65140186D01*
X86402797Y-65085000D01*
X86300009Y-65074500D01*
X85524991Y-65074500D01*
X85422203Y-65085000D01*
X85255665Y-65140186D01*
X85106342Y-65232288D01*
X84982286Y-65356344D01*
X84980242Y-65359659D01*
X84935135Y-65402837D01*
X84874704Y-65418558D01*
X84814274Y-65402835D01*
X84769168Y-65359656D01*
X84767316Y-65356654D01*
X84643345Y-65232683D01*
X84494122Y-65140642D01*
X84327696Y-65085493D01*
X84224979Y-65075000D01*
X84087500Y-65075000D01*
X84087500Y-66426000D01*
X84070887Y-66488000D01*
X84025500Y-66533387D01*
X83963500Y-66550000D01*
X82750001Y-66550000D01*
X82750001Y-66824979D01*
X82760493Y-66927695D01*
X82771860Y-66961996D01*
X82776711Y-67019863D01*
X82754684Y-67073593D01*
X82710610Y-67111403D01*
X82654154Y-67125000D01*
X82550000Y-67125000D01*
X82550000Y-68338500D01*
X82533387Y-68400500D01*
X82488000Y-68445887D01*
X82426000Y-68462500D01*
X81075001Y-68462500D01*
X81075001Y-68599979D01*
X81085493Y-68702695D01*
X81140642Y-68869122D01*
X81232683Y-69018345D01*
X81356654Y-69142316D01*
X81359656Y-69144168D01*
X81402835Y-69189274D01*
X81418558Y-69249704D01*
X81402837Y-69310135D01*
X81359659Y-69355242D01*
X81356344Y-69357286D01*
X81232288Y-69481342D01*
X81140186Y-69630665D01*
X81085000Y-69797202D01*
X81074500Y-69899990D01*
X81074500Y-70675008D01*
X81085000Y-70777796D01*
X81140186Y-70944334D01*
X81232288Y-71093657D01*
X81356342Y-71217711D01*
X81356344Y-71217712D01*
X81505666Y-71309814D01*
X81617017Y-71346712D01*
X81672202Y-71364999D01*
X81682703Y-71366071D01*
X81774991Y-71375500D01*
X82825008Y-71375499D01*
X82927797Y-71364999D01*
X83094334Y-71309814D01*
X83243656Y-71217712D01*
X83367712Y-71093656D01*
X83459814Y-70944334D01*
X83514999Y-70777797D01*
X83525500Y-70675009D01*
X83525499Y-70154441D01*
X83539623Y-70096968D01*
X83578779Y-70052587D01*
X83634046Y-70031410D01*
X83692833Y-70038261D01*
X83707665Y-70043793D01*
X83707669Y-70043796D01*
X83842517Y-70094091D01*
X83902127Y-70100500D01*
X85497872Y-70100499D01*
X85557483Y-70094091D01*
X85692331Y-70043796D01*
X85775692Y-69981391D01*
X85823640Y-69959494D01*
X85876357Y-69959494D01*
X85924308Y-69981392D01*
X86007669Y-70043796D01*
X86142517Y-70094091D01*
X86188756Y-70099062D01*
X86245003Y-70119661D01*
X86285032Y-70164224D01*
X86299500Y-70222352D01*
X86299500Y-73275501D01*
X86282887Y-73337501D01*
X86237500Y-73382888D01*
X86175500Y-73399501D01*
X85052128Y-73399501D01*
X85022322Y-73402705D01*
X84992515Y-73405909D01*
X84857669Y-73456204D01*
X84742454Y-73542454D01*
X84656204Y-73657668D01*
X84605909Y-73792515D01*
X84605909Y-73792517D01*
X84601657Y-73832071D01*
X84599500Y-73852131D01*
X84599500Y-74075500D01*
X84582887Y-74137500D01*
X84537500Y-74182887D01*
X84475500Y-74199500D01*
X82274921Y-74199500D01*
X82267434Y-74199274D01*
X82207391Y-74195641D01*
X82148227Y-74206483D01*
X82140828Y-74207610D01*
X82081124Y-74214860D01*
X82071651Y-74218453D01*
X82050047Y-74224476D01*
X82040069Y-74226305D01*
X81985225Y-74250987D01*
X81978311Y-74253851D01*
X81955882Y-74262358D01*
X81900688Y-74269908D01*
X81847759Y-74252535D01*
X81807776Y-74213743D01*
X81788811Y-74161363D01*
X81786236Y-74140157D01*
X81785140Y-74131128D01*
X81785139Y-74131125D01*
X81781546Y-74121650D01*
X81775519Y-74100029D01*
X81773694Y-74090068D01*
X81749012Y-74035228D01*
X81746151Y-74028322D01*
X81724818Y-73972070D01*
X81719058Y-73963726D01*
X81708030Y-73944172D01*
X81703877Y-73934943D01*
X81666783Y-73887595D01*
X81662362Y-73881588D01*
X81628183Y-73832071D01*
X81628182Y-73832070D01*
X81620414Y-73820816D01*
X81603282Y-73798766D01*
X81590218Y-73754985D01*
X81587974Y-73733634D01*
X81585674Y-73711744D01*
X81585674Y-73711742D01*
X81527179Y-73531715D01*
X81432533Y-73367783D01*
X81305870Y-73227110D01*
X81152730Y-73115848D01*
X80979802Y-73038855D01*
X80794648Y-72999500D01*
X80794646Y-72999500D01*
X80605354Y-72999500D01*
X80605352Y-72999500D01*
X80420197Y-73038855D01*
X80247269Y-73115848D01*
X80094129Y-73227110D01*
X79967466Y-73367783D01*
X79872820Y-73531715D01*
X79814326Y-73711742D01*
X79794540Y-73900000D01*
X79814326Y-74088257D01*
X79872820Y-74268284D01*
X79967466Y-74432216D01*
X80094129Y-74572889D01*
X80247267Y-74684150D01*
X80277773Y-74697732D01*
X80325936Y-74719175D01*
X80364698Y-74746317D01*
X80390471Y-74786004D01*
X80399500Y-74832455D01*
X80399500Y-74865202D01*
X80383777Y-74925634D01*
X80340596Y-74970741D01*
X80281342Y-75007288D01*
X80187681Y-75100950D01*
X80132094Y-75133044D01*
X80067906Y-75133044D01*
X80012319Y-75100950D01*
X79918657Y-75007288D01*
X79769334Y-74915186D01*
X79602797Y-74860000D01*
X79500009Y-74849500D01*
X78699991Y-74849500D01*
X78597203Y-74860000D01*
X78430665Y-74915186D01*
X78281342Y-75007288D01*
X78157288Y-75131342D01*
X78080649Y-75255596D01*
X78035542Y-75298777D01*
X77975110Y-75314500D01*
X77229499Y-75314500D01*
X77167499Y-75297887D01*
X77122112Y-75252500D01*
X77105499Y-75190500D01*
X77105499Y-75167130D01*
X77105443Y-75166607D01*
X77099091Y-75107517D01*
X77048796Y-74972669D01*
X76962546Y-74857454D01*
X76847331Y-74771204D01*
X76712483Y-74720909D01*
X76652873Y-74714500D01*
X76652869Y-74714500D01*
X75797130Y-74714500D01*
X75737515Y-74720909D01*
X75602669Y-74771204D01*
X75487454Y-74857454D01*
X75401204Y-74972668D01*
X75350909Y-75107515D01*
X75350909Y-75107517D01*
X75344557Y-75166604D01*
X75344500Y-75167131D01*
X75344500Y-76479481D01*
X75330985Y-76535776D01*
X75293385Y-76579799D01*
X75239898Y-76601954D01*
X75182182Y-76597412D01*
X75132819Y-76567162D01*
X70187940Y-71622283D01*
X70182822Y-71616847D01*
X70142929Y-71571817D01*
X70093432Y-71537651D01*
X70087405Y-71533216D01*
X70058709Y-71510735D01*
X70040057Y-71496122D01*
X70040055Y-71496121D01*
X70040054Y-71496120D01*
X70030813Y-71491961D01*
X70011273Y-71480941D01*
X70002930Y-71475182D01*
X70002927Y-71475181D01*
X70002926Y-71475180D01*
X69946701Y-71453856D01*
X69939783Y-71450991D01*
X69884929Y-71426303D01*
X69874952Y-71424475D01*
X69853339Y-71418450D01*
X69843873Y-71414860D01*
X69784172Y-71407610D01*
X69776771Y-71406483D01*
X69717607Y-71395641D01*
X69657566Y-71399274D01*
X69650079Y-71399500D01*
X53849921Y-71399500D01*
X53842434Y-71399274D01*
X53782391Y-71395641D01*
X53723227Y-71406483D01*
X53715828Y-71407610D01*
X53656124Y-71414860D01*
X53646651Y-71418453D01*
X53625047Y-71424476D01*
X53615069Y-71426305D01*
X53560225Y-71450987D01*
X53553310Y-71453851D01*
X53497070Y-71475181D01*
X53488723Y-71480943D01*
X53469187Y-71491961D01*
X53459944Y-71496121D01*
X53412608Y-71533205D01*
X53406582Y-71537639D01*
X53357072Y-71571816D01*
X53317184Y-71616838D01*
X53312052Y-71622289D01*
X51597290Y-73337051D01*
X51591838Y-73342183D01*
X51546816Y-73382070D01*
X51512649Y-73431568D01*
X51508213Y-73437597D01*
X51471121Y-73484942D01*
X51466961Y-73494186D01*
X51455941Y-73513725D01*
X51450182Y-73522069D01*
X51428853Y-73578305D01*
X51425989Y-73585219D01*
X51396919Y-73649814D01*
X51355174Y-73700355D01*
X51293494Y-73722550D01*
X51229117Y-73710197D01*
X51180034Y-73666748D01*
X51123434Y-73580116D01*
X50253553Y-74450000D01*
X50253553Y-74450001D01*
X51123434Y-75319882D01*
X51146692Y-75284285D01*
X51193294Y-75242091D01*
X51254600Y-75228175D01*
X51314852Y-75246113D01*
X51358564Y-75291295D01*
X51374500Y-75352107D01*
X51374500Y-80047892D01*
X51358564Y-80108704D01*
X51314852Y-80153886D01*
X51254600Y-80171824D01*
X51193294Y-80157908D01*
X51146692Y-80115714D01*
X51123434Y-80080116D01*
X50253553Y-80950000D01*
X50253553Y-80950001D01*
X51123434Y-81819882D01*
X51146692Y-81784285D01*
X51193294Y-81742091D01*
X51254600Y-81728175D01*
X51314852Y-81746113D01*
X51358564Y-81791295D01*
X51374500Y-81852107D01*
X51374500Y-83125079D01*
X51374274Y-83132566D01*
X51370641Y-83192607D01*
X51381483Y-83251771D01*
X51382610Y-83259172D01*
X51389860Y-83318873D01*
X51393450Y-83328339D01*
X51399475Y-83349952D01*
X51401303Y-83359929D01*
X51425991Y-83414783D01*
X51428856Y-83421701D01*
X51450180Y-83477926D01*
X51450182Y-83477930D01*
X51455941Y-83486273D01*
X51466961Y-83505813D01*
X51471120Y-83515054D01*
X51508216Y-83562405D01*
X51512651Y-83568432D01*
X51546817Y-83617929D01*
X51591847Y-83657822D01*
X51597283Y-83662940D01*
X52864906Y-84930563D01*
X52896776Y-84985326D01*
X52897431Y-85048684D01*
X52864891Y-85177183D01*
X52844356Y-85424999D01*
X52864891Y-85672816D01*
X52864891Y-85672819D01*
X52864892Y-85672821D01*
X52925937Y-85913881D01*
X52951423Y-85971983D01*
X53025825Y-86141604D01*
X53025827Y-86141607D01*
X53161836Y-86349785D01*
X53330256Y-86532738D01*
X53395667Y-86583650D01*
X53526485Y-86685470D01*
X53526487Y-86685471D01*
X53526491Y-86685474D01*
X53584519Y-86716877D01*
X53632023Y-86762457D01*
X53649500Y-86825931D01*
X53649500Y-90524069D01*
X53632023Y-90587543D01*
X53584519Y-90633122D01*
X53557108Y-90647957D01*
X53526485Y-90664529D01*
X53330259Y-90817259D01*
X53330256Y-90817261D01*
X53330256Y-90817262D01*
X53161836Y-91000215D01*
X53116499Y-91069607D01*
X53025825Y-91208395D01*
X52958130Y-91362726D01*
X52925937Y-91436119D01*
X52868992Y-91660988D01*
X52864891Y-91677183D01*
X52844356Y-91925000D01*
X52864891Y-92172816D01*
X52864891Y-92172819D01*
X52864892Y-92172821D01*
X52925937Y-92413881D01*
X52966483Y-92506316D01*
X53025825Y-92641604D01*
X53025827Y-92641607D01*
X53161836Y-92849785D01*
X53330256Y-93032738D01*
X53395667Y-93083649D01*
X53526485Y-93185470D01*
X53526487Y-93185471D01*
X53526491Y-93185474D01*
X53745190Y-93303828D01*
X53980386Y-93384571D01*
X54225665Y-93425500D01*
X54474335Y-93425500D01*
X54719614Y-93384571D01*
X54954810Y-93303828D01*
X55173509Y-93185474D01*
X55369744Y-93032738D01*
X55538164Y-92849785D01*
X55674173Y-92641607D01*
X55774063Y-92413881D01*
X55835108Y-92172821D01*
X55851500Y-91975000D01*
X57669356Y-91975000D01*
X57689891Y-92222816D01*
X57689892Y-92222818D01*
X57689892Y-92222821D01*
X57750937Y-92463881D01*
X57795699Y-92565927D01*
X57850825Y-92691604D01*
X57850827Y-92691607D01*
X57986836Y-92899785D01*
X58155256Y-93082738D01*
X58155259Y-93082740D01*
X58351485Y-93235470D01*
X58351487Y-93235471D01*
X58351491Y-93235474D01*
X58570190Y-93353828D01*
X58805386Y-93434571D01*
X59050665Y-93475500D01*
X59299335Y-93475500D01*
X59544614Y-93434571D01*
X59779810Y-93353828D01*
X59998509Y-93235474D01*
X60194744Y-93082738D01*
X60363164Y-92899785D01*
X60499173Y-92691607D01*
X60599063Y-92463881D01*
X60660108Y-92222821D01*
X60680643Y-91975000D01*
X60660108Y-91727179D01*
X60599063Y-91486119D01*
X60499173Y-91258393D01*
X60363164Y-91050215D01*
X60194744Y-90867262D01*
X60130500Y-90817259D01*
X59998514Y-90714529D01*
X59998510Y-90714526D01*
X59998509Y-90714526D01*
X59779810Y-90596172D01*
X59779806Y-90596170D01*
X59779805Y-90596170D01*
X59544615Y-90515429D01*
X59299335Y-90474500D01*
X59050665Y-90474500D01*
X58805384Y-90515429D01*
X58570194Y-90596170D01*
X58351485Y-90714529D01*
X58155259Y-90867259D01*
X58155256Y-90867261D01*
X58155256Y-90867262D01*
X57986836Y-91050215D01*
X57966537Y-91081285D01*
X57850825Y-91258395D01*
X57779369Y-91421300D01*
X57758769Y-91468265D01*
X57750938Y-91486117D01*
X57689891Y-91727183D01*
X57669356Y-91975000D01*
X55851500Y-91975000D01*
X55855643Y-91925000D01*
X55835108Y-91677179D01*
X55774063Y-91436119D01*
X55674173Y-91208393D01*
X55538164Y-91000215D01*
X55369744Y-90817262D01*
X55347612Y-90800036D01*
X55173514Y-90664529D01*
X55173510Y-90664526D01*
X55173509Y-90664526D01*
X55115480Y-90633122D01*
X55067977Y-90587543D01*
X55050500Y-90524069D01*
X55050500Y-86825931D01*
X55067977Y-86762457D01*
X55115480Y-86716877D01*
X55173509Y-86685474D01*
X55369744Y-86532738D01*
X55538164Y-86349785D01*
X55674173Y-86141607D01*
X55774063Y-85913881D01*
X55835108Y-85672821D01*
X55851500Y-85475000D01*
X57669356Y-85475000D01*
X57689891Y-85722816D01*
X57689891Y-85722819D01*
X57689892Y-85722821D01*
X57750937Y-85963881D01*
X57782337Y-86035465D01*
X57850825Y-86191604D01*
X57850827Y-86191607D01*
X57986836Y-86399785D01*
X58155256Y-86582738D01*
X58190542Y-86610202D01*
X58351485Y-86735470D01*
X58351487Y-86735471D01*
X58351491Y-86735474D01*
X58570190Y-86853828D01*
X58805386Y-86934571D01*
X59050665Y-86975500D01*
X59299335Y-86975500D01*
X59544614Y-86934571D01*
X59779810Y-86853828D01*
X59998509Y-86735474D01*
X60194744Y-86582738D01*
X60363164Y-86399785D01*
X60499173Y-86191607D01*
X60599063Y-85963881D01*
X60660108Y-85722821D01*
X60680643Y-85475000D01*
X60660108Y-85227179D01*
X60599063Y-84986119D01*
X60499173Y-84758393D01*
X60363164Y-84550215D01*
X60194744Y-84367262D01*
X60130500Y-84317259D01*
X59998514Y-84214529D01*
X59998510Y-84214526D01*
X59998509Y-84214526D01*
X59779810Y-84096172D01*
X59779806Y-84096170D01*
X59779805Y-84096170D01*
X59544615Y-84015429D01*
X59299335Y-83974500D01*
X59050665Y-83974500D01*
X58805384Y-84015429D01*
X58570194Y-84096170D01*
X58351485Y-84214529D01*
X58155259Y-84367259D01*
X57986837Y-84550214D01*
X57850825Y-84758395D01*
X57760780Y-84963678D01*
X57750937Y-84986119D01*
X57702554Y-85177179D01*
X57689891Y-85227183D01*
X57669356Y-85475000D01*
X55851500Y-85475000D01*
X55855643Y-85425000D01*
X55835108Y-85177179D01*
X55774063Y-84936119D01*
X55674173Y-84708393D01*
X55538164Y-84500215D01*
X55369744Y-84317262D01*
X55347612Y-84300036D01*
X55173514Y-84164529D01*
X55173510Y-84164526D01*
X55173509Y-84164526D01*
X54954810Y-84046172D01*
X54954806Y-84046170D01*
X54954805Y-84046170D01*
X54719615Y-83965429D01*
X54474335Y-83924500D01*
X54225665Y-83924500D01*
X53980380Y-83965429D01*
X53979660Y-83965677D01*
X53978557Y-83965733D01*
X53970251Y-83967120D01*
X53970092Y-83966170D01*
X53911454Y-83969198D01*
X53851729Y-83936072D01*
X52811819Y-82896162D01*
X52784939Y-82855934D01*
X52775500Y-82808481D01*
X52775500Y-81573314D01*
X52793506Y-81508962D01*
X52842294Y-81463298D01*
X52907695Y-81449585D01*
X52970717Y-81471805D01*
X53013056Y-81523504D01*
X53075825Y-81666604D01*
X53075827Y-81666607D01*
X53211836Y-81874785D01*
X53380256Y-82057738D01*
X53380259Y-82057740D01*
X53576485Y-82210470D01*
X53576487Y-82210471D01*
X53576491Y-82210474D01*
X53795190Y-82328828D01*
X54030386Y-82409571D01*
X54275665Y-82450500D01*
X54524335Y-82450500D01*
X54769614Y-82409571D01*
X55004810Y-82328828D01*
X55223509Y-82210474D01*
X55419744Y-82057738D01*
X55588164Y-81874785D01*
X55697994Y-81706677D01*
X55742785Y-81665445D01*
X55801802Y-81650500D01*
X67350780Y-81650500D01*
X67398233Y-81659939D01*
X67438461Y-81686819D01*
X71673157Y-85921515D01*
X71678277Y-85926953D01*
X71718170Y-85971983D01*
X71767676Y-86006155D01*
X71773696Y-86010585D01*
X71821040Y-86047677D01*
X71821041Y-86047677D01*
X71821042Y-86047678D01*
X71830283Y-86051837D01*
X71849829Y-86062861D01*
X71858169Y-86068618D01*
X71914412Y-86089947D01*
X71921316Y-86092807D01*
X71976168Y-86117495D01*
X71986143Y-86119322D01*
X72007755Y-86125347D01*
X72017227Y-86128940D01*
X72076940Y-86136190D01*
X72084284Y-86137307D01*
X72143493Y-86148158D01*
X72200201Y-86144727D01*
X72203533Y-86144526D01*
X72211020Y-86144300D01*
X74183049Y-86144300D01*
X74248657Y-86163078D01*
X74294393Y-86213725D01*
X74306407Y-86280902D01*
X74302700Y-86317190D01*
X74302700Y-87317208D01*
X74313200Y-87419996D01*
X74368386Y-87586534D01*
X74460488Y-87735857D01*
X74584542Y-87859911D01*
X74643796Y-87896459D01*
X74686977Y-87941566D01*
X74702700Y-88001998D01*
X74702700Y-88939439D01*
X74692077Y-88989655D01*
X74662029Y-89031266D01*
X74617706Y-89057143D01*
X74561936Y-89075623D01*
X74530665Y-89085986D01*
X74381342Y-89178088D01*
X74257288Y-89302142D01*
X74165186Y-89451465D01*
X74110000Y-89618002D01*
X74099500Y-89720790D01*
X74099500Y-90720808D01*
X74110000Y-90823596D01*
X74165186Y-90990134D01*
X74257288Y-91139457D01*
X74381342Y-91263511D01*
X74410394Y-91281430D01*
X74530666Y-91355614D01*
X74642016Y-91392512D01*
X74697202Y-91410799D01*
X74700883Y-91411175D01*
X74799991Y-91421300D01*
X75550008Y-91421299D01*
X75652797Y-91410799D01*
X75819334Y-91355614D01*
X75968656Y-91263512D01*
X76092712Y-91139456D01*
X76094460Y-91136621D01*
X76139568Y-91093440D01*
X76200000Y-91077717D01*
X76260432Y-91093440D01*
X76305539Y-91136621D01*
X76307286Y-91139454D01*
X76307287Y-91139455D01*
X76307288Y-91139456D01*
X76361583Y-91193751D01*
X76388461Y-91233977D01*
X76397900Y-91281430D01*
X76397900Y-92338002D01*
X76382177Y-92398434D01*
X76338996Y-92443541D01*
X76279744Y-92480086D01*
X76185727Y-92574104D01*
X76130139Y-92606197D01*
X76065952Y-92606197D01*
X76010365Y-92574103D01*
X75916745Y-92480483D01*
X75767522Y-92388442D01*
X75601096Y-92333293D01*
X75498379Y-92322800D01*
X75348400Y-92322800D01*
X75348400Y-93648800D01*
X75331787Y-93710800D01*
X75286400Y-93756187D01*
X75224400Y-93772800D01*
X73995126Y-93772800D01*
X73933126Y-93756187D01*
X73887739Y-93710800D01*
X73882533Y-93701784D01*
X73755870Y-93561110D01*
X73602730Y-93449848D01*
X73429802Y-93372855D01*
X73244648Y-93333500D01*
X73244646Y-93333500D01*
X73055354Y-93333500D01*
X73055352Y-93333500D01*
X72870197Y-93372855D01*
X72697272Y-93449847D01*
X72614730Y-93509818D01*
X72580162Y-93527431D01*
X72541844Y-93533500D01*
X68604910Y-93533500D01*
X68597423Y-93533274D01*
X68537391Y-93529642D01*
X68478242Y-93540481D01*
X68470843Y-93541608D01*
X68411122Y-93548860D01*
X68401641Y-93552456D01*
X68380036Y-93558479D01*
X68370068Y-93560306D01*
X68333917Y-93576576D01*
X68283027Y-93587500D01*
X68231352Y-93587500D01*
X68046197Y-93626855D01*
X67873269Y-93703848D01*
X67720129Y-93815110D01*
X67593466Y-93955783D01*
X67498820Y-94119715D01*
X67440326Y-94299742D01*
X67424709Y-94448331D01*
X67398767Y-94512137D01*
X67342780Y-94552257D01*
X67274021Y-94556311D01*
X67213707Y-94523050D01*
X65963457Y-93272800D01*
X73998400Y-93272800D01*
X74848400Y-93272800D01*
X74848400Y-92322801D01*
X74698421Y-92322801D01*
X74595704Y-92333293D01*
X74429277Y-92388442D01*
X74280054Y-92480483D01*
X74156083Y-92604454D01*
X74064042Y-92753677D01*
X74008893Y-92920103D01*
X73998400Y-93022821D01*
X73998400Y-93272800D01*
X65963457Y-93272800D01*
X65160092Y-92469435D01*
X65128222Y-92414671D01*
X65127568Y-92351315D01*
X65160108Y-92222821D01*
X65180643Y-91975000D01*
X65160108Y-91727179D01*
X65099063Y-91486119D01*
X64999173Y-91258393D01*
X64863164Y-91050215D01*
X64694744Y-90867262D01*
X64630500Y-90817259D01*
X64498514Y-90714529D01*
X64498510Y-90714526D01*
X64498509Y-90714526D01*
X64440480Y-90683122D01*
X64392977Y-90637543D01*
X64375500Y-90574069D01*
X64375500Y-86875931D01*
X64392977Y-86812457D01*
X64440480Y-86766877D01*
X64498509Y-86735474D01*
X64694744Y-86582738D01*
X64863164Y-86399785D01*
X64999173Y-86191607D01*
X65099063Y-85963881D01*
X65160108Y-85722821D01*
X65180643Y-85475000D01*
X65160108Y-85227179D01*
X65099063Y-84986119D01*
X64999173Y-84758393D01*
X64863164Y-84550215D01*
X64694744Y-84367262D01*
X64630500Y-84317259D01*
X64498514Y-84214529D01*
X64498510Y-84214526D01*
X64498509Y-84214526D01*
X64279810Y-84096172D01*
X64279806Y-84096170D01*
X64279805Y-84096170D01*
X64044615Y-84015429D01*
X63799335Y-83974500D01*
X63550665Y-83974500D01*
X63305384Y-84015429D01*
X63070194Y-84096170D01*
X62851485Y-84214529D01*
X62655259Y-84367259D01*
X62486837Y-84550214D01*
X62350825Y-84758395D01*
X62260780Y-84963678D01*
X62250937Y-84986119D01*
X62202554Y-85177179D01*
X62189891Y-85227183D01*
X62169356Y-85475000D01*
X62189891Y-85722816D01*
X62189891Y-85722819D01*
X62189892Y-85722821D01*
X62250937Y-85963881D01*
X62282337Y-86035465D01*
X62350825Y-86191604D01*
X62350827Y-86191607D01*
X62486836Y-86399785D01*
X62655256Y-86582738D01*
X62690542Y-86610202D01*
X62851485Y-86735470D01*
X62851487Y-86735471D01*
X62851491Y-86735474D01*
X62909519Y-86766877D01*
X62957023Y-86812457D01*
X62974500Y-86875931D01*
X62974500Y-90574069D01*
X62957023Y-90637543D01*
X62909519Y-90683122D01*
X62868922Y-90705092D01*
X62851485Y-90714529D01*
X62655259Y-90867259D01*
X62655256Y-90867261D01*
X62655256Y-90867262D01*
X62486836Y-91050215D01*
X62466537Y-91081285D01*
X62350825Y-91258395D01*
X62279369Y-91421300D01*
X62258769Y-91468265D01*
X62250938Y-91486117D01*
X62189891Y-91727183D01*
X62169356Y-91975000D01*
X62189891Y-92222816D01*
X62189892Y-92222818D01*
X62189892Y-92222821D01*
X62250937Y-92463881D01*
X62295699Y-92565927D01*
X62350825Y-92691604D01*
X62350827Y-92691607D01*
X62486836Y-92899785D01*
X62655256Y-93082738D01*
X62655259Y-93082740D01*
X62851485Y-93235470D01*
X62851487Y-93235471D01*
X62851491Y-93235474D01*
X63070190Y-93353828D01*
X63305386Y-93434571D01*
X63550665Y-93475500D01*
X63799335Y-93475500D01*
X64044614Y-93434571D01*
X64045321Y-93434328D01*
X64046409Y-93434271D01*
X64054750Y-93432880D01*
X64054908Y-93433831D01*
X64113536Y-93430798D01*
X64173270Y-93463927D01*
X66747162Y-96037819D01*
X66777412Y-96087182D01*
X66781954Y-96144898D01*
X66759799Y-96198385D01*
X66715776Y-96235985D01*
X66659481Y-96249500D01*
X65691518Y-96249500D01*
X65644065Y-96240061D01*
X65603837Y-96213181D01*
X65428475Y-96037819D01*
X65237940Y-95847283D01*
X65232822Y-95841847D01*
X65192929Y-95796817D01*
X65143432Y-95762651D01*
X65137405Y-95758216D01*
X65090054Y-95721120D01*
X65080813Y-95716961D01*
X65061273Y-95705941D01*
X65052930Y-95700182D01*
X65052927Y-95700181D01*
X65052926Y-95700180D01*
X64996701Y-95678856D01*
X64989783Y-95675991D01*
X64934929Y-95651303D01*
X64924952Y-95649475D01*
X64903339Y-95643450D01*
X64893873Y-95639860D01*
X64834172Y-95632610D01*
X64826771Y-95631483D01*
X64767607Y-95620641D01*
X64707566Y-95624274D01*
X64700079Y-95624500D01*
X55726802Y-95624500D01*
X55667785Y-95609555D01*
X55622993Y-95568322D01*
X55513164Y-95400215D01*
X55344744Y-95217262D01*
X55322612Y-95200036D01*
X55148514Y-95064529D01*
X55148510Y-95064526D01*
X55148509Y-95064526D01*
X54929810Y-94946172D01*
X54929806Y-94946170D01*
X54929805Y-94946170D01*
X54694615Y-94865429D01*
X54449335Y-94824500D01*
X54200665Y-94824500D01*
X53955384Y-94865429D01*
X53720194Y-94946170D01*
X53501485Y-95064529D01*
X53305259Y-95217259D01*
X53136837Y-95400214D01*
X53000825Y-95608395D01*
X52918177Y-95796816D01*
X52900937Y-95836119D01*
X52898781Y-95844634D01*
X52839891Y-96077183D01*
X52819356Y-96325000D01*
X52839891Y-96572816D01*
X52839891Y-96572819D01*
X52839892Y-96572821D01*
X52900937Y-96813881D01*
X52945960Y-96916523D01*
X53000825Y-97041604D01*
X53000827Y-97041607D01*
X53136836Y-97249785D01*
X53305256Y-97432738D01*
X53315161Y-97440447D01*
X53501485Y-97585470D01*
X53501487Y-97585471D01*
X53501491Y-97585474D01*
X53559519Y-97616877D01*
X53607023Y-97662457D01*
X53624500Y-97725931D01*
X53624500Y-101424069D01*
X53607023Y-101487543D01*
X53559519Y-101533122D01*
X53522453Y-101553182D01*
X53501485Y-101564529D01*
X53305259Y-101717259D01*
X53305256Y-101717261D01*
X53305256Y-101717262D01*
X53163672Y-101871063D01*
X53136837Y-101900214D01*
X53000825Y-102108395D01*
X52928046Y-102274317D01*
X52900937Y-102336119D01*
X52866667Y-102471447D01*
X52839891Y-102577183D01*
X52819356Y-102825000D01*
X52839891Y-103072816D01*
X52839891Y-103072819D01*
X52839892Y-103072821D01*
X52900937Y-103313881D01*
X52935585Y-103392870D01*
X53000825Y-103541604D01*
X53000827Y-103541607D01*
X53136836Y-103749785D01*
X53305256Y-103932738D01*
X53305259Y-103932740D01*
X53501485Y-104085470D01*
X53501487Y-104085471D01*
X53501491Y-104085474D01*
X53720190Y-104203828D01*
X53955386Y-104284571D01*
X54200665Y-104325500D01*
X54449335Y-104325500D01*
X54694614Y-104284571D01*
X54929810Y-104203828D01*
X55148509Y-104085474D01*
X55344744Y-103932738D01*
X55513164Y-103749785D01*
X55649173Y-103541607D01*
X55749063Y-103313881D01*
X55810108Y-103072821D01*
X55830643Y-102825000D01*
X55810108Y-102577179D01*
X55786765Y-102485000D01*
X71725000Y-102485000D01*
X71725000Y-102662824D01*
X71731402Y-102722375D01*
X71781647Y-102857089D01*
X71867811Y-102972188D01*
X71982910Y-103058352D01*
X72117624Y-103108597D01*
X72177176Y-103115000D01*
X72775000Y-103115000D01*
X72775000Y-102485000D01*
X73275000Y-102485000D01*
X73275000Y-103115000D01*
X73872824Y-103115000D01*
X73932375Y-103108597D01*
X74067089Y-103058352D01*
X74182188Y-102972188D01*
X74268352Y-102857089D01*
X74318597Y-102722375D01*
X74325000Y-102662824D01*
X74325000Y-102485000D01*
X73275000Y-102485000D01*
X72775000Y-102485000D01*
X71725000Y-102485000D01*
X55786765Y-102485000D01*
X55749063Y-102336119D01*
X55649173Y-102108393D01*
X55568557Y-101985000D01*
X71725000Y-101985000D01*
X72775000Y-101985000D01*
X72775000Y-101355000D01*
X73275000Y-101355000D01*
X73275000Y-101985000D01*
X74325000Y-101985000D01*
X74325000Y-101807176D01*
X74318597Y-101747624D01*
X74268352Y-101612910D01*
X74182188Y-101497811D01*
X74067089Y-101411647D01*
X73932375Y-101361402D01*
X73872824Y-101355000D01*
X73275000Y-101355000D01*
X72775000Y-101355000D01*
X72177176Y-101355000D01*
X72117624Y-101361402D01*
X71982910Y-101411647D01*
X71867811Y-101497811D01*
X71781647Y-101612910D01*
X71731402Y-101747624D01*
X71725000Y-101807176D01*
X71725000Y-101985000D01*
X55568557Y-101985000D01*
X55513164Y-101900215D01*
X55344744Y-101717262D01*
X55210673Y-101612910D01*
X55148514Y-101564529D01*
X55148510Y-101564526D01*
X55148509Y-101564526D01*
X55090480Y-101533122D01*
X55042977Y-101487543D01*
X55025500Y-101424069D01*
X55025500Y-97725931D01*
X55042977Y-97662457D01*
X55090480Y-97616877D01*
X55148509Y-97585474D01*
X55344744Y-97432738D01*
X55513164Y-97249785D01*
X55622994Y-97081677D01*
X55667785Y-97040445D01*
X55726802Y-97025500D01*
X64383481Y-97025500D01*
X64430934Y-97034939D01*
X64471162Y-97061819D01*
X64837051Y-97427707D01*
X64842171Y-97433145D01*
X64882071Y-97478183D01*
X64931577Y-97512354D01*
X64937606Y-97516790D01*
X64984943Y-97553877D01*
X64994178Y-97558033D01*
X65013726Y-97569058D01*
X65022070Y-97574818D01*
X65078322Y-97596151D01*
X65085228Y-97599012D01*
X65140068Y-97623694D01*
X65150030Y-97625519D01*
X65171650Y-97631546D01*
X65181125Y-97635139D01*
X65181128Y-97635140D01*
X65240856Y-97642392D01*
X65248201Y-97643509D01*
X65307394Y-97654357D01*
X65367421Y-97650726D01*
X65374909Y-97650500D01*
X70284079Y-97650500D01*
X70291566Y-97650726D01*
X70294706Y-97650915D01*
X70351606Y-97654358D01*
X70410782Y-97643513D01*
X70418181Y-97642387D01*
X70477872Y-97635140D01*
X70478197Y-97635016D01*
X70478350Y-97634959D01*
X70522323Y-97626900D01*
X74248581Y-97626900D01*
X74305037Y-97640497D01*
X74349111Y-97678307D01*
X74371138Y-97732038D01*
X74366287Y-97789905D01*
X74364000Y-97796804D01*
X74353500Y-97899590D01*
X74353500Y-98899608D01*
X74364000Y-99002396D01*
X74419186Y-99168934D01*
X74511288Y-99318257D01*
X74635342Y-99442311D01*
X74639778Y-99445047D01*
X74784666Y-99534414D01*
X74896017Y-99571312D01*
X74951202Y-99589599D01*
X74961703Y-99590671D01*
X75053991Y-99600100D01*
X75854008Y-99600099D01*
X75956797Y-99589599D01*
X76123334Y-99534414D01*
X76272656Y-99442312D01*
X76366320Y-99348647D01*
X76421906Y-99316555D01*
X76486094Y-99316555D01*
X76541679Y-99348647D01*
X76624656Y-99431624D01*
X76635345Y-99442313D01*
X76639778Y-99445047D01*
X76784666Y-99534414D01*
X76896017Y-99571312D01*
X76951202Y-99589599D01*
X76961703Y-99590671D01*
X77053991Y-99600100D01*
X77854008Y-99600099D01*
X77956797Y-99589599D01*
X78123334Y-99534414D01*
X78272656Y-99442312D01*
X78344351Y-99370616D01*
X78384577Y-99343739D01*
X78432030Y-99334300D01*
X79723449Y-99334300D01*
X79781577Y-99348769D01*
X79826140Y-99388798D01*
X79846739Y-99445047D01*
X79851709Y-99491284D01*
X79902004Y-99626132D01*
X79919766Y-99649858D01*
X79938154Y-99685009D01*
X79944500Y-99724169D01*
X79944500Y-101230501D01*
X79927887Y-101292501D01*
X79882500Y-101337888D01*
X79820500Y-101354501D01*
X79797128Y-101354501D01*
X79767322Y-101357704D01*
X79737515Y-101360909D01*
X79602669Y-101411204D01*
X79487454Y-101497454D01*
X79401204Y-101612668D01*
X79362850Y-101715500D01*
X79350909Y-101747517D01*
X79346049Y-101792726D01*
X79344500Y-101807130D01*
X79344500Y-102662869D01*
X79350897Y-102722375D01*
X79350909Y-102722483D01*
X79401204Y-102857331D01*
X79487454Y-102972546D01*
X79602669Y-103058796D01*
X79737517Y-103109091D01*
X79797127Y-103115500D01*
X79820500Y-103115500D01*
X79882500Y-103132113D01*
X79927887Y-103177500D01*
X79944500Y-103239500D01*
X79944500Y-103838481D01*
X79935061Y-103885934D01*
X79908181Y-103926162D01*
X78498269Y-105336072D01*
X78438541Y-105369199D01*
X78379907Y-105366168D01*
X78379749Y-105367120D01*
X78371420Y-105365730D01*
X78370332Y-105365674D01*
X78369621Y-105365430D01*
X78124335Y-105324500D01*
X77875665Y-105324500D01*
X77630384Y-105365429D01*
X77395194Y-105446170D01*
X77176485Y-105564529D01*
X76980259Y-105717259D01*
X76980256Y-105717261D01*
X76980256Y-105717262D01*
X76811836Y-105900215D01*
X76723899Y-106034814D01*
X76702007Y-106068322D01*
X76657215Y-106109555D01*
X76598198Y-106124500D01*
X72901802Y-106124500D01*
X72842785Y-106109555D01*
X72797993Y-106068322D01*
X72688164Y-105900215D01*
X72519744Y-105717262D01*
X72472606Y-105680573D01*
X72323514Y-105564529D01*
X72323510Y-105564526D01*
X72323509Y-105564526D01*
X72104810Y-105446172D01*
X72104806Y-105446170D01*
X72104805Y-105446170D01*
X71869615Y-105365429D01*
X71624335Y-105324500D01*
X71375665Y-105324500D01*
X71130384Y-105365429D01*
X70895194Y-105446170D01*
X70676485Y-105564529D01*
X70480259Y-105717259D01*
X70480256Y-105717261D01*
X70480256Y-105717262D01*
X70311837Y-105900214D01*
X70175825Y-106108395D01*
X70121178Y-106232980D01*
X70075937Y-106336119D01*
X70062136Y-106390618D01*
X70014891Y-106577183D01*
X69994356Y-106825000D01*
X70014891Y-107072816D01*
X70014891Y-107072819D01*
X70014892Y-107072821D01*
X70075937Y-107313881D01*
X70084058Y-107332394D01*
X70175825Y-107541604D01*
X70175827Y-107541607D01*
X70311836Y-107749785D01*
X70480256Y-107932738D01*
X70480259Y-107932740D01*
X70676485Y-108085470D01*
X70676487Y-108085471D01*
X70676491Y-108085474D01*
X70895190Y-108203828D01*
X71130386Y-108284571D01*
X71375665Y-108325500D01*
X71624335Y-108325500D01*
X71869614Y-108284571D01*
X72104810Y-108203828D01*
X72323509Y-108085474D01*
X72519744Y-107932738D01*
X72688164Y-107749785D01*
X72797994Y-107581677D01*
X72842785Y-107540445D01*
X72901802Y-107525500D01*
X76598198Y-107525500D01*
X76657215Y-107540445D01*
X76702005Y-107581677D01*
X76811836Y-107749785D01*
X76980256Y-107932738D01*
X76980259Y-107932740D01*
X77176485Y-108085470D01*
X77176487Y-108085471D01*
X77176491Y-108085474D01*
X77395190Y-108203828D01*
X77630386Y-108284571D01*
X77875665Y-108325500D01*
X78124335Y-108325500D01*
X78369614Y-108284571D01*
X78604810Y-108203828D01*
X78823509Y-108085474D01*
X79019744Y-107932738D01*
X79188164Y-107749785D01*
X79324173Y-107541607D01*
X79424063Y-107313881D01*
X79485108Y-107072821D01*
X79505643Y-106825000D01*
X79485108Y-106577179D01*
X79452567Y-106448683D01*
X79453223Y-106385325D01*
X79485091Y-106330564D01*
X81122731Y-104692924D01*
X81128148Y-104687824D01*
X81150573Y-104667958D01*
X81159077Y-104660426D01*
X81208729Y-104633599D01*
X81265127Y-104631556D01*
X81316590Y-104654719D01*
X81352457Y-104698290D01*
X81365300Y-104753245D01*
X81365300Y-111342681D01*
X81355861Y-111390134D01*
X81328981Y-111430362D01*
X77071162Y-115688181D01*
X77030934Y-115715061D01*
X76983481Y-115724500D01*
X55651802Y-115724500D01*
X55592785Y-115709555D01*
X55547993Y-115668322D01*
X55438164Y-115500215D01*
X55269744Y-115317262D01*
X55226278Y-115283431D01*
X55073514Y-115164529D01*
X55073510Y-115164526D01*
X55073509Y-115164526D01*
X54854810Y-115046172D01*
X54854806Y-115046170D01*
X54854805Y-115046170D01*
X54619615Y-114965429D01*
X54374335Y-114924500D01*
X54125665Y-114924500D01*
X53880384Y-114965429D01*
X53645194Y-115046170D01*
X53426485Y-115164529D01*
X53230259Y-115317259D01*
X53230256Y-115317261D01*
X53230256Y-115317262D01*
X53061836Y-115500215D01*
X53025968Y-115555116D01*
X52925825Y-115708395D01*
X52851155Y-115878627D01*
X52825937Y-115936119D01*
X52764892Y-116177179D01*
X52764891Y-116177183D01*
X52744356Y-116425000D01*
X52764891Y-116672816D01*
X52764891Y-116672819D01*
X52764892Y-116672821D01*
X52825937Y-116913881D01*
X52830069Y-116923300D01*
X52925825Y-117141604D01*
X52925827Y-117141607D01*
X53061836Y-117349785D01*
X53230256Y-117532738D01*
X53295667Y-117583650D01*
X53426485Y-117685470D01*
X53426487Y-117685471D01*
X53426491Y-117685474D01*
X53484519Y-117716877D01*
X53532023Y-117762457D01*
X53549500Y-117825931D01*
X53549500Y-121524069D01*
X53532023Y-121587543D01*
X53484519Y-121633122D01*
X53451400Y-121651046D01*
X53426485Y-121664529D01*
X53230259Y-121817259D01*
X53230256Y-121817261D01*
X53230256Y-121817262D01*
X53104505Y-121953864D01*
X53061837Y-122000214D01*
X52925825Y-122208395D01*
X52825938Y-122436117D01*
X52764891Y-122677183D01*
X52744356Y-122924999D01*
X52764891Y-123172816D01*
X52764891Y-123172819D01*
X52764892Y-123172821D01*
X52825937Y-123413881D01*
X52870960Y-123516523D01*
X52925825Y-123641604D01*
X52925827Y-123641607D01*
X53061836Y-123849785D01*
X53230256Y-124032738D01*
X53295667Y-124083649D01*
X53426485Y-124185470D01*
X53426487Y-124185471D01*
X53426491Y-124185474D01*
X53645190Y-124303828D01*
X53880386Y-124384571D01*
X54125665Y-124425500D01*
X54374335Y-124425500D01*
X54619614Y-124384571D01*
X54854810Y-124303828D01*
X55073509Y-124185474D01*
X55269744Y-124032738D01*
X55438164Y-123849785D01*
X55574173Y-123641607D01*
X55674063Y-123413881D01*
X55735108Y-123172821D01*
X55755643Y-122925000D01*
X55735108Y-122677179D01*
X55674063Y-122436119D01*
X55574173Y-122208393D01*
X55438164Y-122000215D01*
X55269744Y-121817262D01*
X55235702Y-121790766D01*
X55073514Y-121664529D01*
X55073510Y-121664526D01*
X55073509Y-121664526D01*
X55015480Y-121633122D01*
X54967977Y-121587543D01*
X54950500Y-121524069D01*
X54950500Y-117825931D01*
X54967977Y-117762457D01*
X55015480Y-117716877D01*
X55073509Y-117685474D01*
X55269744Y-117532738D01*
X55438164Y-117349785D01*
X55547994Y-117181677D01*
X55592785Y-117140445D01*
X55651802Y-117125500D01*
X65210675Y-117125500D01*
X65276385Y-117144342D01*
X65322125Y-117195142D01*
X65333995Y-117262459D01*
X65330856Y-117292331D01*
X65319540Y-117399999D01*
X65339326Y-117588257D01*
X65397820Y-117768284D01*
X65492466Y-117932216D01*
X65619129Y-118072889D01*
X65772269Y-118184151D01*
X65945197Y-118261144D01*
X66130352Y-118300500D01*
X66130354Y-118300500D01*
X66319646Y-118300500D01*
X66319648Y-118300500D01*
X66466333Y-118269321D01*
X66504803Y-118261144D01*
X66677730Y-118184151D01*
X66760271Y-118124181D01*
X66794838Y-118106569D01*
X66833156Y-118100500D01*
X69487672Y-118100500D01*
X69549674Y-118117114D01*
X69595061Y-118162503D01*
X69611672Y-118224505D01*
X69599836Y-118268667D01*
X69601848Y-118269321D01*
X69539326Y-118461742D01*
X69519540Y-118649999D01*
X69539326Y-118838257D01*
X69578812Y-118959780D01*
X69581455Y-119027045D01*
X69548562Y-119085779D01*
X68962027Y-119672315D01*
X68933514Y-119693607D01*
X68900127Y-119705924D01*
X68745197Y-119738855D01*
X68572269Y-119815848D01*
X68419129Y-119927110D01*
X68292466Y-120067783D01*
X68197820Y-120231715D01*
X68139326Y-120411742D01*
X68119540Y-120600000D01*
X68139326Y-120788257D01*
X68197820Y-120968284D01*
X68292466Y-121132216D01*
X68419129Y-121272889D01*
X68572269Y-121384151D01*
X68745197Y-121461144D01*
X68930352Y-121500500D01*
X68930354Y-121500500D01*
X69119646Y-121500500D01*
X69119648Y-121500500D01*
X69282352Y-121465916D01*
X69304803Y-121461144D01*
X69477730Y-121384151D01*
X69530497Y-121345814D01*
X69630870Y-121272889D01*
X69631608Y-121272070D01*
X69757533Y-121132216D01*
X69852179Y-120968284D01*
X69910674Y-120788256D01*
X69915864Y-120738866D01*
X69927263Y-120698450D01*
X69951500Y-120664155D01*
X70902731Y-119712924D01*
X70908150Y-119707823D01*
X70953183Y-119667929D01*
X70987355Y-119618420D01*
X70991775Y-119612413D01*
X71028878Y-119565057D01*
X71033035Y-119555819D01*
X71044060Y-119536270D01*
X71049818Y-119527930D01*
X71071152Y-119471673D01*
X71073996Y-119464808D01*
X71098695Y-119409932D01*
X71100522Y-119399958D01*
X71106552Y-119378331D01*
X71110140Y-119368871D01*
X71111708Y-119355961D01*
X71117387Y-119309181D01*
X71118514Y-119301780D01*
X71124125Y-119271162D01*
X71129358Y-119242606D01*
X71129357Y-119242603D01*
X71129724Y-119240605D01*
X71152479Y-119194348D01*
X71151016Y-119193504D01*
X71193987Y-119119075D01*
X71230218Y-119056320D01*
X71271895Y-119013163D01*
X71328956Y-118994623D01*
X71388041Y-119005042D01*
X71570198Y-119086145D01*
X71725126Y-119119075D01*
X71758513Y-119131391D01*
X71787027Y-119152684D01*
X74488181Y-121853838D01*
X74515061Y-121894066D01*
X74524500Y-121941519D01*
X74524500Y-128759608D01*
X74516264Y-128804045D01*
X74492650Y-128842580D01*
X74492466Y-128842783D01*
X74397820Y-129006715D01*
X74339326Y-129186742D01*
X74319540Y-129374999D01*
X74339326Y-129563257D01*
X74397820Y-129743284D01*
X74492466Y-129907216D01*
X74619129Y-130047889D01*
X74772269Y-130159151D01*
X74945197Y-130236144D01*
X75130352Y-130275500D01*
X75130354Y-130275500D01*
X75319646Y-130275500D01*
X75319648Y-130275500D01*
X75443083Y-130249262D01*
X75504803Y-130236144D01*
X75677730Y-130159151D01*
X75677729Y-130159151D01*
X75830870Y-130047889D01*
X75957533Y-129907216D01*
X76052179Y-129743284D01*
X76074825Y-129673587D01*
X76110674Y-129563256D01*
X76130460Y-129375000D01*
X76110674Y-129186744D01*
X76077786Y-129085525D01*
X76052179Y-129006715D01*
X75957533Y-128842783D01*
X75957350Y-128842580D01*
X75933736Y-128804045D01*
X75925500Y-128759608D01*
X75925500Y-125865000D01*
X80214364Y-125865000D01*
X80271569Y-126078492D01*
X80371399Y-126292576D01*
X80506893Y-126486081D01*
X80673918Y-126653106D01*
X80867423Y-126788600D01*
X81081507Y-126888430D01*
X81294999Y-126945635D01*
X81295000Y-126945636D01*
X81295000Y-125865000D01*
X80214364Y-125865000D01*
X75925500Y-125865000D01*
X75925500Y-121624921D01*
X75925726Y-121617434D01*
X75925927Y-121614102D01*
X75929358Y-121557394D01*
X75918507Y-121498185D01*
X75917390Y-121490841D01*
X75910140Y-121431128D01*
X75906547Y-121421656D01*
X75900522Y-121400044D01*
X75898695Y-121390069D01*
X75874009Y-121335220D01*
X75871152Y-121328326D01*
X75849818Y-121272070D01*
X75849816Y-121272068D01*
X75849816Y-121272066D01*
X75844062Y-121263731D01*
X75833033Y-121244177D01*
X75828878Y-121234944D01*
X75791780Y-121187591D01*
X75787352Y-121181573D01*
X75753184Y-121132072D01*
X75738126Y-121118732D01*
X75708153Y-121092178D01*
X75702715Y-121087058D01*
X72927838Y-118312181D01*
X72897588Y-118262818D01*
X72893046Y-118205102D01*
X72915201Y-118151615D01*
X72959224Y-118114015D01*
X73015519Y-118100500D01*
X78058481Y-118100500D01*
X78105934Y-118109939D01*
X78146162Y-118136819D01*
X81525873Y-121516530D01*
X81559253Y-121577372D01*
X81554714Y-121646621D01*
X81513679Y-121702586D01*
X81449000Y-121727739D01*
X81309592Y-121739936D01*
X81081336Y-121801097D01*
X80867170Y-121900965D01*
X80673598Y-122036505D01*
X80506505Y-122203598D01*
X80370965Y-122397170D01*
X80271097Y-122611336D01*
X80209936Y-122839592D01*
X80189340Y-123074999D01*
X80209936Y-123310407D01*
X80237619Y-123413721D01*
X80271097Y-123538663D01*
X80370965Y-123752830D01*
X80506505Y-123946401D01*
X80673599Y-124113495D01*
X80859597Y-124243732D01*
X80898460Y-124288048D01*
X80912471Y-124345305D01*
X80898461Y-124402561D01*
X80859595Y-124446880D01*
X80673919Y-124576892D01*
X80506890Y-124743921D01*
X80371400Y-124937421D01*
X80271569Y-125151507D01*
X80214364Y-125364999D01*
X80214364Y-125365000D01*
X81671000Y-125365000D01*
X81733000Y-125381613D01*
X81778387Y-125427000D01*
X81795000Y-125489000D01*
X81795000Y-126945635D01*
X82008492Y-126888430D01*
X82222576Y-126788600D01*
X82416081Y-126653106D01*
X82583109Y-126486078D01*
X82713119Y-126300405D01*
X82757437Y-126261539D01*
X82814694Y-126247528D01*
X82871951Y-126261539D01*
X82916267Y-126300402D01*
X83046505Y-126486401D01*
X83046507Y-126486403D01*
X83046508Y-126486404D01*
X83213598Y-126653494D01*
X83331623Y-126736136D01*
X83370489Y-126780454D01*
X83384500Y-126837711D01*
X83384500Y-127304545D01*
X83366618Y-127368693D01*
X83356522Y-127385393D01*
X83346058Y-127418974D01*
X83340749Y-127432972D01*
X83326305Y-127465064D01*
X83319960Y-127499689D01*
X83316377Y-127514223D01*
X83305913Y-127547802D01*
X83303789Y-127582919D01*
X83301984Y-127597779D01*
X83295641Y-127632391D01*
X83297766Y-127667514D01*
X83297766Y-127682486D01*
X83295641Y-127717607D01*
X83301984Y-127752218D01*
X83303789Y-127767079D01*
X83305913Y-127802195D01*
X83316377Y-127835774D01*
X83319960Y-127850310D01*
X83326305Y-127884931D01*
X83340744Y-127917013D01*
X83346054Y-127931014D01*
X83347839Y-127936742D01*
X83356522Y-127964606D01*
X83374726Y-127994719D01*
X83381678Y-128007966D01*
X83396121Y-128040057D01*
X83417821Y-128067754D01*
X83426326Y-128080076D01*
X83444528Y-128110185D01*
X83474710Y-128140367D01*
X85662051Y-130327707D01*
X85667171Y-130333145D01*
X85707071Y-130378183D01*
X85756565Y-130412346D01*
X85756577Y-130412354D01*
X85762603Y-130416788D01*
X85809943Y-130453877D01*
X85819178Y-130458033D01*
X85838726Y-130469058D01*
X85847070Y-130474818D01*
X85903322Y-130496151D01*
X85910228Y-130499012D01*
X85965068Y-130523694D01*
X85975030Y-130525519D01*
X85996650Y-130531546D01*
X86004622Y-130534569D01*
X86006128Y-130535140D01*
X86065856Y-130542392D01*
X86073201Y-130543509D01*
X86132394Y-130554357D01*
X86192421Y-130550726D01*
X86199909Y-130550500D01*
X101775079Y-130550500D01*
X101782566Y-130550726D01*
X101785706Y-130550915D01*
X101842606Y-130554358D01*
X101901782Y-130543513D01*
X101909181Y-130542387D01*
X101968872Y-130535140D01*
X101978335Y-130531550D01*
X101999958Y-130525522D01*
X102009932Y-130523695D01*
X102064808Y-130498996D01*
X102071673Y-130496152D01*
X102127930Y-130474818D01*
X102136270Y-130469060D01*
X102155819Y-130458035D01*
X102165057Y-130453878D01*
X102212413Y-130416775D01*
X102218423Y-130412354D01*
X102267929Y-130378183D01*
X102307823Y-130333150D01*
X102312924Y-130327731D01*
X102965655Y-129675000D01*
X105969880Y-129675000D01*
X105988315Y-129873957D01*
X106042995Y-130066134D01*
X106132054Y-130244991D01*
X106252468Y-130404445D01*
X106400126Y-130539053D01*
X106570008Y-130644239D01*
X106738948Y-130709686D01*
X106756321Y-130716417D01*
X106952726Y-130753131D01*
X107152532Y-130753131D01*
X107152534Y-130753131D01*
X107348939Y-130716417D01*
X107473148Y-130668297D01*
X107535251Y-130644239D01*
X107543377Y-130639208D01*
X107705133Y-130539053D01*
X107794012Y-130458029D01*
X107852791Y-130404445D01*
X107902452Y-130338683D01*
X107973203Y-130244994D01*
X107973203Y-130244992D01*
X107973205Y-130244991D01*
X108062264Y-130066134D01*
X108116944Y-129873957D01*
X108119826Y-129842849D01*
X108135380Y-129675000D01*
X108116944Y-129476045D01*
X108116944Y-129476042D01*
X108062264Y-129283865D01*
X107973205Y-129105008D01*
X107852791Y-128945554D01*
X107705133Y-128810946D01*
X107535251Y-128705760D01*
X107348943Y-128633584D01*
X107348940Y-128633583D01*
X107348939Y-128633583D01*
X107152534Y-128596869D01*
X106952726Y-128596869D01*
X106756321Y-128633583D01*
X106756316Y-128633584D01*
X106570008Y-128705760D01*
X106400126Y-128810946D01*
X106252468Y-128945554D01*
X106132054Y-129105008D01*
X106042995Y-129283865D01*
X105988315Y-129476042D01*
X105969880Y-129675000D01*
X102965655Y-129675000D01*
X104802731Y-127837924D01*
X104808150Y-127832823D01*
X104853183Y-127792929D01*
X104887351Y-127743426D01*
X104891763Y-127737428D01*
X104928878Y-127690057D01*
X104933034Y-127680820D01*
X104944062Y-127661267D01*
X104949818Y-127652930D01*
X104971153Y-127596671D01*
X104973997Y-127589803D01*
X104998694Y-127534932D01*
X105000519Y-127524970D01*
X105006545Y-127503348D01*
X105010140Y-127493872D01*
X105017389Y-127434165D01*
X105018516Y-127426762D01*
X105019943Y-127418974D01*
X105029357Y-127367606D01*
X105025726Y-127307577D01*
X105025500Y-127300090D01*
X105025500Y-125399910D01*
X105025726Y-125392423D01*
X105026502Y-125379592D01*
X105029357Y-125332394D01*
X105018509Y-125273201D01*
X105017392Y-125265856D01*
X105010140Y-125206128D01*
X105010139Y-125206125D01*
X105006546Y-125196650D01*
X105000519Y-125175029D01*
X104998694Y-125165068D01*
X104974012Y-125110228D01*
X104971151Y-125103322D01*
X104949818Y-125047070D01*
X104944058Y-125038726D01*
X104933030Y-125019172D01*
X104928877Y-125009943D01*
X104896037Y-124968026D01*
X104891788Y-124962602D01*
X104887349Y-124956569D01*
X104853184Y-124907072D01*
X104853183Y-124907071D01*
X104808153Y-124867178D01*
X104802715Y-124862058D01*
X99211819Y-119271162D01*
X99184939Y-119230934D01*
X99175500Y-119183481D01*
X99175500Y-116547800D01*
X99192113Y-116485800D01*
X99237500Y-116440413D01*
X99299500Y-116423800D01*
X108451000Y-116423800D01*
X108513000Y-116440413D01*
X108558387Y-116485800D01*
X108575000Y-116547800D01*
X108575000Y-130926000D01*
X108558387Y-130988000D01*
X108513000Y-131033387D01*
X108451000Y-131050000D01*
X45599000Y-131050000D01*
X45537000Y-131033387D01*
X45491613Y-130988000D01*
X45475000Y-130926000D01*
X45475000Y-129474630D01*
X46034250Y-129474630D01*
X46052685Y-129673587D01*
X46107365Y-129865764D01*
X46196424Y-130044621D01*
X46316838Y-130204075D01*
X46464496Y-130338683D01*
X46634378Y-130443869D01*
X46776706Y-130499007D01*
X46820691Y-130516047D01*
X47017096Y-130552761D01*
X47216902Y-130552761D01*
X47216904Y-130552761D01*
X47413309Y-130516047D01*
X47551116Y-130462660D01*
X47599621Y-130443869D01*
X47607747Y-130438838D01*
X47769503Y-130338683D01*
X47917162Y-130204074D01*
X48037573Y-130044624D01*
X48037573Y-130044622D01*
X48037575Y-130044621D01*
X48126634Y-129865764D01*
X48181314Y-129673587D01*
X48191537Y-129563257D01*
X48199750Y-129474630D01*
X48181314Y-129275675D01*
X48181314Y-129275672D01*
X48126634Y-129083495D01*
X48037575Y-128904638D01*
X47917161Y-128745184D01*
X47769503Y-128610576D01*
X47599621Y-128505390D01*
X47413313Y-128433214D01*
X47413310Y-128433213D01*
X47413309Y-128433213D01*
X47216904Y-128396499D01*
X47017096Y-128396499D01*
X46820691Y-128433213D01*
X46820686Y-128433214D01*
X46634378Y-128505390D01*
X46464496Y-128610576D01*
X46316838Y-128745184D01*
X46196424Y-128904638D01*
X46107365Y-129083495D01*
X46052685Y-129275672D01*
X46034250Y-129474630D01*
X45475000Y-129474630D01*
X45475000Y-124148610D01*
X48879942Y-124148610D01*
X48926766Y-124185055D01*
X49145393Y-124303368D01*
X49380506Y-124384083D01*
X49625707Y-124425000D01*
X49874293Y-124425000D01*
X50119493Y-124384083D01*
X50354606Y-124303368D01*
X50573233Y-124185053D01*
X50620056Y-124148609D01*
X49750000Y-123278553D01*
X48879942Y-124148609D01*
X48879942Y-124148610D01*
X45475000Y-124148610D01*
X45475000Y-122924999D01*
X48244858Y-122924999D01*
X48265386Y-123172732D01*
X48326413Y-123413721D01*
X48426268Y-123641370D01*
X48526563Y-123794882D01*
X48526564Y-123794882D01*
X49396447Y-122925001D01*
X50103553Y-122925001D01*
X50973434Y-123794882D01*
X51073730Y-123641369D01*
X51173586Y-123413721D01*
X51234613Y-123172732D01*
X51255141Y-122924999D01*
X51234613Y-122677267D01*
X51173586Y-122436278D01*
X51073730Y-122208630D01*
X50973434Y-122055116D01*
X50103553Y-122925000D01*
X50103553Y-122925001D01*
X49396447Y-122925001D01*
X49396447Y-122925000D01*
X48526564Y-122055116D01*
X48426266Y-122208634D01*
X48326413Y-122436278D01*
X48265386Y-122677267D01*
X48244858Y-122924999D01*
X45475000Y-122924999D01*
X45475000Y-121701390D01*
X48879942Y-121701390D01*
X49750000Y-122571447D01*
X49750001Y-122571447D01*
X50620057Y-121701390D01*
X50620056Y-121701388D01*
X50573235Y-121664947D01*
X50354606Y-121546631D01*
X50119493Y-121465916D01*
X49874293Y-121425000D01*
X49625707Y-121425000D01*
X49380506Y-121465916D01*
X49145393Y-121546631D01*
X48926764Y-121664946D01*
X48879942Y-121701388D01*
X48879942Y-121701390D01*
X45475000Y-121701390D01*
X45475000Y-117648610D01*
X48879942Y-117648610D01*
X48926766Y-117685055D01*
X49145393Y-117803368D01*
X49380506Y-117884083D01*
X49625707Y-117925000D01*
X49874293Y-117925000D01*
X50119493Y-117884083D01*
X50354606Y-117803368D01*
X50573233Y-117685053D01*
X50620056Y-117648609D01*
X49750000Y-116778553D01*
X48879942Y-117648609D01*
X48879942Y-117648610D01*
X45475000Y-117648610D01*
X45475000Y-116424999D01*
X48244858Y-116424999D01*
X48265386Y-116672732D01*
X48326413Y-116913721D01*
X48426268Y-117141370D01*
X48526563Y-117294882D01*
X48526564Y-117294882D01*
X49396447Y-116425001D01*
X50103553Y-116425001D01*
X50973434Y-117294882D01*
X51073730Y-117141369D01*
X51173586Y-116913721D01*
X51234613Y-116672732D01*
X51255141Y-116424999D01*
X51234613Y-116177267D01*
X51173586Y-115936278D01*
X51073730Y-115708630D01*
X50973434Y-115555116D01*
X50103553Y-116425000D01*
X50103553Y-116425001D01*
X49396447Y-116425001D01*
X49396447Y-116425000D01*
X48526564Y-115555116D01*
X48426266Y-115708634D01*
X48326413Y-115936278D01*
X48265386Y-116177267D01*
X48244858Y-116424999D01*
X45475000Y-116424999D01*
X45475000Y-115201390D01*
X48879942Y-115201390D01*
X49750000Y-116071447D01*
X49750001Y-116071447D01*
X50620057Y-115201390D01*
X50620056Y-115201388D01*
X50573235Y-115164947D01*
X50354606Y-115046631D01*
X50119493Y-114965916D01*
X49874293Y-114925000D01*
X49625707Y-114925000D01*
X49380506Y-114965916D01*
X49145393Y-115046631D01*
X48926764Y-115164946D01*
X48879942Y-115201388D01*
X48879942Y-115201390D01*
X45475000Y-115201390D01*
X45475000Y-112548610D01*
X70629942Y-112548610D01*
X70676766Y-112585055D01*
X70895393Y-112703368D01*
X71130506Y-112784083D01*
X71375707Y-112825000D01*
X71624293Y-112825000D01*
X71869493Y-112784083D01*
X72104606Y-112703368D01*
X72323233Y-112585053D01*
X72370055Y-112548610D01*
X77129942Y-112548610D01*
X77176766Y-112585055D01*
X77395393Y-112703368D01*
X77630506Y-112784083D01*
X77875707Y-112825000D01*
X78124293Y-112825000D01*
X78369493Y-112784083D01*
X78604606Y-112703368D01*
X78823233Y-112585053D01*
X78870056Y-112548609D01*
X78000000Y-111678553D01*
X77129942Y-112548609D01*
X77129942Y-112548610D01*
X72370055Y-112548610D01*
X72370056Y-112548609D01*
X71500000Y-111678553D01*
X70629942Y-112548609D01*
X70629942Y-112548610D01*
X45475000Y-112548610D01*
X45475000Y-111325000D01*
X69994858Y-111325000D01*
X70015386Y-111572732D01*
X70076413Y-111813721D01*
X70176268Y-112041370D01*
X70276563Y-112194882D01*
X70276564Y-112194882D01*
X71146447Y-111325001D01*
X71146447Y-111325000D01*
X71853553Y-111325000D01*
X72723434Y-112194882D01*
X72823730Y-112041369D01*
X72923586Y-111813721D01*
X72984613Y-111572732D01*
X73005141Y-111324999D01*
X76494858Y-111324999D01*
X76515386Y-111572732D01*
X76576413Y-111813721D01*
X76676268Y-112041370D01*
X76776563Y-112194882D01*
X76776564Y-112194882D01*
X77646447Y-111325001D01*
X77646447Y-111325000D01*
X78353553Y-111325000D01*
X79223434Y-112194882D01*
X79323730Y-112041369D01*
X79423586Y-111813721D01*
X79484613Y-111572732D01*
X79505141Y-111324999D01*
X79484613Y-111077267D01*
X79423586Y-110836278D01*
X79323730Y-110608630D01*
X79223434Y-110455116D01*
X78353553Y-111325000D01*
X77646447Y-111325000D01*
X76776564Y-110455116D01*
X76676266Y-110608634D01*
X76576413Y-110836278D01*
X76515386Y-111077267D01*
X76494858Y-111324999D01*
X73005141Y-111324999D01*
X72984613Y-111077267D01*
X72923586Y-110836278D01*
X72823730Y-110608630D01*
X72723434Y-110455116D01*
X71853553Y-111325000D01*
X71146447Y-111325000D01*
X70276564Y-110455116D01*
X70176266Y-110608634D01*
X70076413Y-110836278D01*
X70015386Y-111077267D01*
X69994858Y-111325000D01*
X45475000Y-111325000D01*
X45475000Y-110101390D01*
X70629942Y-110101390D01*
X71500000Y-110971447D01*
X71500001Y-110971447D01*
X72370057Y-110101390D01*
X77129942Y-110101390D01*
X78000000Y-110971447D01*
X78000001Y-110971447D01*
X78870057Y-110101390D01*
X78870056Y-110101388D01*
X78823235Y-110064947D01*
X78604606Y-109946631D01*
X78369493Y-109865916D01*
X78124293Y-109825000D01*
X77875707Y-109825000D01*
X77630506Y-109865916D01*
X77395393Y-109946631D01*
X77176764Y-110064946D01*
X77129942Y-110101388D01*
X77129942Y-110101390D01*
X72370057Y-110101390D01*
X72370056Y-110101388D01*
X72323235Y-110064947D01*
X72104606Y-109946631D01*
X71869493Y-109865916D01*
X71624293Y-109825000D01*
X71375707Y-109825000D01*
X71130506Y-109865916D01*
X70895393Y-109946631D01*
X70676764Y-110064946D01*
X70629942Y-110101388D01*
X70629942Y-110101390D01*
X45475000Y-110101390D01*
X45475000Y-104048610D01*
X48954942Y-104048610D01*
X49001766Y-104085055D01*
X49220393Y-104203368D01*
X49455506Y-104284083D01*
X49700707Y-104325000D01*
X49949293Y-104325000D01*
X50194493Y-104284083D01*
X50429606Y-104203368D01*
X50648233Y-104085053D01*
X50695056Y-104048609D01*
X49825000Y-103178553D01*
X48954942Y-104048609D01*
X48954942Y-104048610D01*
X45475000Y-104048610D01*
X45475000Y-102825000D01*
X48319858Y-102825000D01*
X48340386Y-103072732D01*
X48401413Y-103313721D01*
X48501268Y-103541370D01*
X48601563Y-103694882D01*
X48601564Y-103694882D01*
X49471447Y-102825001D01*
X50178553Y-102825001D01*
X51048434Y-103694882D01*
X51148730Y-103541369D01*
X51248586Y-103313721D01*
X51309613Y-103072732D01*
X51330141Y-102825000D01*
X51309613Y-102577267D01*
X51248586Y-102336278D01*
X51148730Y-102108630D01*
X51048434Y-101955116D01*
X50178553Y-102825000D01*
X50178553Y-102825001D01*
X49471447Y-102825001D01*
X49471447Y-102825000D01*
X48601564Y-101955116D01*
X48501266Y-102108634D01*
X48401413Y-102336278D01*
X48340386Y-102577267D01*
X48319858Y-102825000D01*
X45475000Y-102825000D01*
X45475000Y-101601390D01*
X48954942Y-101601390D01*
X49825000Y-102471447D01*
X49825001Y-102471447D01*
X50695057Y-101601390D01*
X50695056Y-101601388D01*
X50648235Y-101564947D01*
X50429606Y-101446631D01*
X50194493Y-101365916D01*
X49949293Y-101325000D01*
X49700707Y-101325000D01*
X49455506Y-101365916D01*
X49220393Y-101446631D01*
X49001764Y-101564946D01*
X48954942Y-101601388D01*
X48954942Y-101601390D01*
X45475000Y-101601390D01*
X45475000Y-97548610D01*
X48954942Y-97548610D01*
X49001766Y-97585055D01*
X49220393Y-97703368D01*
X49455506Y-97784083D01*
X49700707Y-97825000D01*
X49949293Y-97825000D01*
X50194493Y-97784083D01*
X50429606Y-97703368D01*
X50648233Y-97585053D01*
X50695056Y-97548609D01*
X49825000Y-96678553D01*
X48954942Y-97548609D01*
X48954942Y-97548610D01*
X45475000Y-97548610D01*
X45475000Y-96325000D01*
X48319858Y-96325000D01*
X48340386Y-96572732D01*
X48401413Y-96813721D01*
X48501268Y-97041370D01*
X48601563Y-97194882D01*
X48601564Y-97194882D01*
X49471447Y-96325001D01*
X50178553Y-96325001D01*
X51048434Y-97194882D01*
X51148730Y-97041369D01*
X51248586Y-96813721D01*
X51309613Y-96572732D01*
X51330141Y-96325000D01*
X51309613Y-96077267D01*
X51248586Y-95836278D01*
X51148730Y-95608630D01*
X51048434Y-95455116D01*
X50178553Y-96325000D01*
X50178553Y-96325001D01*
X49471447Y-96325001D01*
X49471447Y-96325000D01*
X48601564Y-95455116D01*
X48501266Y-95608634D01*
X48401413Y-95836278D01*
X48340386Y-96077267D01*
X48319858Y-96325000D01*
X45475000Y-96325000D01*
X45475000Y-95101390D01*
X48954942Y-95101390D01*
X49825000Y-95971447D01*
X49825001Y-95971447D01*
X50695057Y-95101390D01*
X50695056Y-95101388D01*
X50648235Y-95064947D01*
X50429606Y-94946631D01*
X50194493Y-94865916D01*
X49949293Y-94825000D01*
X49700707Y-94825000D01*
X49455506Y-94865916D01*
X49220393Y-94946631D01*
X49001764Y-95064946D01*
X48954942Y-95101388D01*
X48954942Y-95101390D01*
X45475000Y-95101390D01*
X45475000Y-91925000D01*
X48344356Y-91925000D01*
X48364891Y-92172816D01*
X48364891Y-92172819D01*
X48364892Y-92172821D01*
X48425937Y-92413881D01*
X48466483Y-92506316D01*
X48525825Y-92641604D01*
X48525827Y-92641607D01*
X48661836Y-92849785D01*
X48830256Y-93032738D01*
X48895667Y-93083649D01*
X49026485Y-93185470D01*
X49026487Y-93185471D01*
X49026491Y-93185474D01*
X49245190Y-93303828D01*
X49480386Y-93384571D01*
X49725665Y-93425500D01*
X49974335Y-93425500D01*
X50219614Y-93384571D01*
X50454810Y-93303828D01*
X50673509Y-93185474D01*
X50869744Y-93032738D01*
X51038164Y-92849785D01*
X51174173Y-92641607D01*
X51274063Y-92413881D01*
X51335108Y-92172821D01*
X51355643Y-91925000D01*
X51335108Y-91677179D01*
X51274063Y-91436119D01*
X51174173Y-91208393D01*
X51038164Y-91000215D01*
X50869744Y-90817262D01*
X50847612Y-90800036D01*
X50673514Y-90664529D01*
X50673510Y-90664526D01*
X50673509Y-90664526D01*
X50454810Y-90546172D01*
X50454806Y-90546170D01*
X50454805Y-90546170D01*
X50219615Y-90465429D01*
X49974335Y-90424500D01*
X49725665Y-90424500D01*
X49480384Y-90465429D01*
X49245194Y-90546170D01*
X49026485Y-90664529D01*
X48830259Y-90817259D01*
X48830256Y-90817261D01*
X48830256Y-90817262D01*
X48661836Y-91000215D01*
X48616499Y-91069607D01*
X48525825Y-91208395D01*
X48458130Y-91362726D01*
X48425937Y-91436119D01*
X48368992Y-91660988D01*
X48364891Y-91677183D01*
X48344356Y-91925000D01*
X45475000Y-91925000D01*
X45475000Y-85424999D01*
X48344356Y-85424999D01*
X48364891Y-85672816D01*
X48364891Y-85672819D01*
X48364892Y-85672821D01*
X48425937Y-85913881D01*
X48451423Y-85971983D01*
X48525825Y-86141604D01*
X48525827Y-86141607D01*
X48661836Y-86349785D01*
X48830256Y-86532738D01*
X48895667Y-86583650D01*
X49026485Y-86685470D01*
X49026487Y-86685471D01*
X49026491Y-86685474D01*
X49245190Y-86803828D01*
X49480386Y-86884571D01*
X49725665Y-86925500D01*
X49974335Y-86925500D01*
X50219614Y-86884571D01*
X50454810Y-86803828D01*
X50673509Y-86685474D01*
X50869744Y-86532738D01*
X51038164Y-86349785D01*
X51174173Y-86141607D01*
X51274063Y-85913881D01*
X51335108Y-85672821D01*
X51355643Y-85425000D01*
X51335108Y-85177179D01*
X51274063Y-84936119D01*
X51174173Y-84708393D01*
X51038164Y-84500215D01*
X50869744Y-84317262D01*
X50847612Y-84300036D01*
X50673514Y-84164529D01*
X50673510Y-84164526D01*
X50673509Y-84164526D01*
X50454810Y-84046172D01*
X50454806Y-84046170D01*
X50454805Y-84046170D01*
X50219615Y-83965429D01*
X49974335Y-83924500D01*
X49725665Y-83924500D01*
X49480384Y-83965429D01*
X49245194Y-84046170D01*
X49026485Y-84164529D01*
X48830259Y-84317259D01*
X48830256Y-84317261D01*
X48830256Y-84317262D01*
X48661836Y-84500215D01*
X48616499Y-84569607D01*
X48525825Y-84708395D01*
X48447782Y-84886317D01*
X48425937Y-84936119D01*
X48397432Y-85048684D01*
X48364891Y-85177183D01*
X48344356Y-85424999D01*
X45475000Y-85424999D01*
X45475000Y-82173610D01*
X49029942Y-82173610D01*
X49076766Y-82210055D01*
X49295393Y-82328368D01*
X49530506Y-82409083D01*
X49775707Y-82450000D01*
X50024293Y-82450000D01*
X50269493Y-82409083D01*
X50504606Y-82328368D01*
X50723233Y-82210053D01*
X50770056Y-82173609D01*
X49900000Y-81303553D01*
X49029942Y-82173609D01*
X49029942Y-82173610D01*
X45475000Y-82173610D01*
X45475000Y-80949999D01*
X48394858Y-80949999D01*
X48415386Y-81197732D01*
X48476413Y-81438721D01*
X48576268Y-81666370D01*
X48676563Y-81819882D01*
X48676564Y-81819882D01*
X49546447Y-80950001D01*
X49546447Y-80950000D01*
X48676564Y-80080116D01*
X48576266Y-80233634D01*
X48476413Y-80461278D01*
X48415386Y-80702267D01*
X48394858Y-80949999D01*
X45475000Y-80949999D01*
X45475000Y-79726390D01*
X49029942Y-79726390D01*
X49900000Y-80596447D01*
X49900001Y-80596447D01*
X50770057Y-79726390D01*
X50770056Y-79726388D01*
X50723235Y-79689947D01*
X50504606Y-79571631D01*
X50269493Y-79490916D01*
X50024293Y-79450000D01*
X49775707Y-79450000D01*
X49530506Y-79490916D01*
X49295393Y-79571631D01*
X49076764Y-79689946D01*
X49029942Y-79726388D01*
X49029942Y-79726390D01*
X45475000Y-79726390D01*
X45475000Y-75673610D01*
X49029942Y-75673610D01*
X49076766Y-75710055D01*
X49295393Y-75828368D01*
X49530506Y-75909083D01*
X49775707Y-75950000D01*
X50024293Y-75950000D01*
X50269493Y-75909083D01*
X50504606Y-75828368D01*
X50723233Y-75710053D01*
X50770056Y-75673609D01*
X49900000Y-74803553D01*
X49029942Y-75673609D01*
X49029942Y-75673610D01*
X45475000Y-75673610D01*
X45475000Y-74449999D01*
X48394858Y-74449999D01*
X48415386Y-74697732D01*
X48476413Y-74938721D01*
X48576268Y-75166370D01*
X48676563Y-75319882D01*
X48676564Y-75319882D01*
X49546447Y-74450001D01*
X49546447Y-74450000D01*
X48676564Y-73580116D01*
X48576266Y-73733634D01*
X48476413Y-73961278D01*
X48415386Y-74202267D01*
X48394858Y-74449999D01*
X45475000Y-74449999D01*
X45475000Y-73226390D01*
X49029942Y-73226390D01*
X49900000Y-74096447D01*
X49900001Y-74096447D01*
X50770057Y-73226390D01*
X50770056Y-73226388D01*
X50723235Y-73189947D01*
X50504606Y-73071631D01*
X50269493Y-72990916D01*
X50024293Y-72950000D01*
X49775707Y-72950000D01*
X49530506Y-72990916D01*
X49295393Y-73071631D01*
X49076764Y-73189946D01*
X49029942Y-73226388D01*
X49029942Y-73226390D01*
X45475000Y-73226390D01*
X45475000Y-67962500D01*
X81075000Y-67962500D01*
X82050000Y-67962500D01*
X82050000Y-67125001D01*
X81775021Y-67125001D01*
X81672304Y-67135493D01*
X81505877Y-67190642D01*
X81356654Y-67282683D01*
X81232683Y-67406654D01*
X81140642Y-67555877D01*
X81085493Y-67722303D01*
X81075000Y-67825021D01*
X81075000Y-67962500D01*
X45475000Y-67962500D01*
X45475000Y-66050000D01*
X82750000Y-66050000D01*
X83587500Y-66050000D01*
X83587500Y-65075001D01*
X83450021Y-65075001D01*
X83347304Y-65085493D01*
X83180877Y-65140642D01*
X83031654Y-65232683D01*
X82907683Y-65356654D01*
X82815642Y-65505877D01*
X82760493Y-65672303D01*
X82750000Y-65775021D01*
X82750000Y-66050000D01*
X45475000Y-66050000D01*
X45475000Y-64699999D01*
X45942250Y-64699999D01*
X45960685Y-64898957D01*
X46015365Y-65091134D01*
X46104424Y-65269991D01*
X46224838Y-65429445D01*
X46372496Y-65564053D01*
X46542378Y-65669239D01*
X46711318Y-65734686D01*
X46728691Y-65741417D01*
X46925096Y-65778131D01*
X47124902Y-65778131D01*
X47124904Y-65778131D01*
X47321309Y-65741417D01*
X47499709Y-65672304D01*
X47507621Y-65669239D01*
X47515747Y-65664208D01*
X47677503Y-65564053D01*
X47741319Y-65505877D01*
X47825161Y-65429445D01*
X47833382Y-65418559D01*
X47945573Y-65269994D01*
X47945573Y-65269992D01*
X47945575Y-65269991D01*
X48034634Y-65091134D01*
X48089314Y-64898957D01*
X48091987Y-64870105D01*
X48107750Y-64700000D01*
X48089314Y-64501045D01*
X48089314Y-64501042D01*
X48034634Y-64308865D01*
X47945575Y-64130008D01*
X47825161Y-63970554D01*
X47677503Y-63835946D01*
X47507621Y-63730760D01*
X47321313Y-63658584D01*
X47321310Y-63658583D01*
X47321309Y-63658583D01*
X47124904Y-63621869D01*
X46925096Y-63621869D01*
X46728691Y-63658583D01*
X46728686Y-63658584D01*
X46542378Y-63730760D01*
X46372496Y-63835946D01*
X46224838Y-63970554D01*
X46104424Y-64130008D01*
X46015365Y-64308865D01*
X45960685Y-64501042D01*
X45942250Y-64699999D01*
X45475000Y-64699999D01*
X45475000Y-63377500D01*
X45491613Y-63315500D01*
X45537000Y-63270113D01*
X45599000Y-63253500D01*
X98731800Y-63253500D01*
X98793800Y-63270113D01*
G37*
%TD.AperFunction*%
%TA.AperFunction,Conductor*%
G36*
X96973000Y-125381613D02*
G01*
X97018387Y-125427000D01*
X97035000Y-125489000D01*
X97035000Y-126945635D01*
X97248492Y-126888430D01*
X97462576Y-126788600D01*
X97656077Y-126653109D01*
X97778133Y-126531053D01*
X97830880Y-126499757D01*
X97892173Y-126497568D01*
X97947018Y-126525021D01*
X97981996Y-126575399D01*
X98011124Y-126653495D01*
X98031205Y-126707333D01*
X98074767Y-126765525D01*
X98093154Y-126800676D01*
X98099500Y-126839835D01*
X98099500Y-127509608D01*
X98091264Y-127554045D01*
X98067650Y-127592580D01*
X98067466Y-127592783D01*
X97972820Y-127756715D01*
X97914326Y-127936742D01*
X97894540Y-128125000D01*
X97914326Y-128313257D01*
X97972820Y-128493284D01*
X98067466Y-128657216D01*
X98194129Y-128797889D01*
X98347269Y-128909151D01*
X98354163Y-128912221D01*
X98405550Y-128954732D01*
X98427482Y-129017714D01*
X98413616Y-129082949D01*
X98367962Y-129131565D01*
X98303727Y-129149500D01*
X95015519Y-129149500D01*
X94959224Y-129135985D01*
X94915201Y-129098385D01*
X94893046Y-129044898D01*
X94897588Y-128987182D01*
X94927838Y-128937819D01*
X95469157Y-128396499D01*
X96012723Y-127852931D01*
X96018142Y-127847829D01*
X96063183Y-127807929D01*
X96097361Y-127758410D01*
X96101790Y-127752394D01*
X96138875Y-127705060D01*
X96138875Y-127705059D01*
X96138878Y-127705056D01*
X96143037Y-127695814D01*
X96154061Y-127676268D01*
X96159818Y-127667930D01*
X96181152Y-127611674D01*
X96183994Y-127604811D01*
X96208695Y-127549931D01*
X96210522Y-127539956D01*
X96216549Y-127518339D01*
X96220140Y-127508872D01*
X96227387Y-127449179D01*
X96228514Y-127441777D01*
X96239358Y-127382606D01*
X96235726Y-127322566D01*
X96235500Y-127315079D01*
X96235500Y-127026985D01*
X96248288Y-126972141D01*
X96284014Y-126928609D01*
X96335309Y-126905368D01*
X96391594Y-126907210D01*
X96534999Y-126945635D01*
X96535000Y-126945636D01*
X96535000Y-125489000D01*
X96551613Y-125427000D01*
X96597000Y-125381613D01*
X96659000Y-125365000D01*
X96911000Y-125365000D01*
X96973000Y-125381613D01*
G37*
%TD.AperFunction*%
%TA.AperFunction,Conductor*%
G36*
X91893000Y-125381613D02*
G01*
X91938387Y-125427000D01*
X91955000Y-125489000D01*
X91955000Y-126945635D01*
X92168492Y-126888430D01*
X92382576Y-126788600D01*
X92576081Y-126653106D01*
X92743109Y-126486078D01*
X92873119Y-126300405D01*
X92917437Y-126261539D01*
X92974694Y-126247528D01*
X93031951Y-126261539D01*
X93076267Y-126300402D01*
X93206505Y-126486401D01*
X93373599Y-126653495D01*
X93567170Y-126789035D01*
X93781337Y-126888903D01*
X94009592Y-126950063D01*
X94245000Y-126970659D01*
X94480408Y-126950063D01*
X94653406Y-126903709D01*
X94717590Y-126903709D01*
X94773178Y-126935803D01*
X94805272Y-126991390D01*
X94805272Y-127055578D01*
X94773178Y-127111165D01*
X93621162Y-128263181D01*
X93580934Y-128290061D01*
X93533481Y-128299500D01*
X88264377Y-128299500D01*
X88206162Y-128284985D01*
X88161576Y-128244839D01*
X88141057Y-128188464D01*
X88135674Y-128137244D01*
X88077179Y-127957216D01*
X88077179Y-127957215D01*
X87982533Y-127793283D01*
X87855870Y-127652610D01*
X87702730Y-127541348D01*
X87529802Y-127464355D01*
X87344648Y-127425000D01*
X87344646Y-127425000D01*
X87155354Y-127425000D01*
X87155352Y-127425000D01*
X86970197Y-127464355D01*
X86797269Y-127541348D01*
X86644129Y-127652610D01*
X86517466Y-127793283D01*
X86422820Y-127957215D01*
X86364326Y-128137242D01*
X86344540Y-128325499D01*
X86364326Y-128513757D01*
X86422820Y-128693784D01*
X86516572Y-128856167D01*
X86533067Y-128912758D01*
X86521567Y-128970572D01*
X86484671Y-129016543D01*
X86430717Y-129040283D01*
X86371897Y-129036428D01*
X86321504Y-129005848D01*
X85615156Y-128299500D01*
X84821819Y-127506162D01*
X84794939Y-127465934D01*
X84785500Y-127418481D01*
X84785500Y-126837711D01*
X84799511Y-126780454D01*
X84838377Y-126736136D01*
X84879512Y-126707333D01*
X84956401Y-126653495D01*
X85123495Y-126486401D01*
X85253426Y-126300839D01*
X85297743Y-126261975D01*
X85355000Y-126247964D01*
X85412257Y-126261975D01*
X85456573Y-126300839D01*
X85586505Y-126486401D01*
X85753599Y-126653495D01*
X85947170Y-126789035D01*
X86161337Y-126888903D01*
X86389592Y-126950063D01*
X86625000Y-126970659D01*
X86860408Y-126950063D01*
X87088663Y-126888903D01*
X87302830Y-126789035D01*
X87496401Y-126653495D01*
X87663495Y-126486401D01*
X87793426Y-126300839D01*
X87837743Y-126261975D01*
X87895000Y-126247964D01*
X87952257Y-126261975D01*
X87996573Y-126300839D01*
X88126505Y-126486401D01*
X88293599Y-126653495D01*
X88487170Y-126789035D01*
X88701337Y-126888903D01*
X88929592Y-126950063D01*
X89165000Y-126970659D01*
X89400408Y-126950063D01*
X89628663Y-126888903D01*
X89842830Y-126789035D01*
X90036401Y-126653495D01*
X90203495Y-126486401D01*
X90333732Y-126300402D01*
X90378048Y-126261539D01*
X90435305Y-126247528D01*
X90492562Y-126261539D01*
X90536880Y-126300404D01*
X90666893Y-126486081D01*
X90833918Y-126653106D01*
X91027423Y-126788600D01*
X91241507Y-126888430D01*
X91454999Y-126945635D01*
X91455000Y-126945636D01*
X91455000Y-125489000D01*
X91471613Y-125427000D01*
X91517000Y-125381613D01*
X91579000Y-125365000D01*
X91831000Y-125365000D01*
X91893000Y-125381613D01*
G37*
%TD.AperFunction*%
%TA.AperFunction,Conductor*%
G36*
X96836136Y-103403208D02*
G01*
X97002197Y-103477144D01*
X97002200Y-103477144D01*
X97002201Y-103477145D01*
X97187352Y-103516500D01*
X97187354Y-103516500D01*
X97376646Y-103516500D01*
X97376648Y-103516500D01*
X97561800Y-103477145D01*
X97561801Y-103477144D01*
X97561803Y-103477144D01*
X97600064Y-103460108D01*
X97660228Y-103449770D01*
X97718035Y-103469392D01*
X97759473Y-103514220D01*
X97774500Y-103573388D01*
X97774500Y-115070950D01*
X97760985Y-115127245D01*
X97723385Y-115171268D01*
X97669898Y-115193423D01*
X97612182Y-115188881D01*
X97575963Y-115166685D01*
X97574964Y-115168113D01*
X97372576Y-115026399D01*
X97158492Y-114926569D01*
X96945000Y-114869364D01*
X96945000Y-117530635D01*
X97158492Y-117473430D01*
X97372576Y-117373600D01*
X97574964Y-117231887D01*
X97575963Y-117233314D01*
X97612182Y-117211119D01*
X97669898Y-117206577D01*
X97723385Y-117228732D01*
X97760985Y-117272755D01*
X97774500Y-117329050D01*
X97774500Y-119500079D01*
X97774274Y-119507566D01*
X97770641Y-119567607D01*
X97781483Y-119626771D01*
X97782610Y-119634172D01*
X97789860Y-119693873D01*
X97793450Y-119703339D01*
X97799475Y-119724952D01*
X97801303Y-119734929D01*
X97825991Y-119789783D01*
X97828856Y-119796701D01*
X97839589Y-119825000D01*
X97850182Y-119852930D01*
X97855941Y-119861273D01*
X97866961Y-119880813D01*
X97871120Y-119890054D01*
X97908216Y-119937405D01*
X97912651Y-119943432D01*
X97946817Y-119992929D01*
X97991847Y-120032822D01*
X97997283Y-120037940D01*
X99471691Y-121512348D01*
X99502592Y-121563775D01*
X99505732Y-121623689D01*
X99480377Y-121678064D01*
X99432462Y-121714171D01*
X99373204Y-121723557D01*
X99325001Y-121719340D01*
X99089592Y-121739936D01*
X98861336Y-121801097D01*
X98647170Y-121900965D01*
X98453598Y-122036505D01*
X98286505Y-122203598D01*
X98156575Y-122389159D01*
X98112257Y-122428025D01*
X98055000Y-122442036D01*
X97997743Y-122428025D01*
X97953425Y-122389159D01*
X97938449Y-122367771D01*
X97823495Y-122203599D01*
X97656401Y-122036505D01*
X97462830Y-121900965D01*
X97248663Y-121801097D01*
X97187502Y-121784709D01*
X97020407Y-121739936D01*
X96785000Y-121719340D01*
X96549592Y-121739936D01*
X96321336Y-121801097D01*
X96107170Y-121900965D01*
X95913598Y-122036505D01*
X95746505Y-122203598D01*
X95616575Y-122389159D01*
X95572257Y-122428025D01*
X95515000Y-122442036D01*
X95457743Y-122428025D01*
X95413425Y-122389159D01*
X95398449Y-122367771D01*
X95283495Y-122203599D01*
X95116401Y-122036505D01*
X94922830Y-121900965D01*
X94708663Y-121801097D01*
X94647502Y-121784709D01*
X94480407Y-121739936D01*
X94245000Y-121719340D01*
X94009592Y-121739936D01*
X93781336Y-121801097D01*
X93567170Y-121900965D01*
X93373598Y-122036505D01*
X93206505Y-122203598D01*
X93076575Y-122389159D01*
X93032257Y-122428025D01*
X92975000Y-122442036D01*
X92917743Y-122428025D01*
X92873425Y-122389159D01*
X92858449Y-122367771D01*
X92743495Y-122203599D01*
X92576401Y-122036505D01*
X92458376Y-121953863D01*
X92419511Y-121909546D01*
X92405500Y-121852289D01*
X92405500Y-121479921D01*
X92405726Y-121472434D01*
X92406589Y-121458169D01*
X92409358Y-121412394D01*
X92398507Y-121353185D01*
X92397390Y-121345841D01*
X92390140Y-121286128D01*
X92386547Y-121276656D01*
X92380522Y-121255044D01*
X92378695Y-121245069D01*
X92354009Y-121190220D01*
X92351152Y-121183326D01*
X92329818Y-121127070D01*
X92324053Y-121118719D01*
X92313036Y-121099183D01*
X92308878Y-121089944D01*
X92271788Y-121042603D01*
X92267352Y-121036574D01*
X92233183Y-120987071D01*
X92188145Y-120947171D01*
X92182707Y-120942051D01*
X91737940Y-120497283D01*
X91732822Y-120491847D01*
X91692929Y-120446817D01*
X91643432Y-120412651D01*
X91637405Y-120408216D01*
X91590054Y-120371120D01*
X91580813Y-120366961D01*
X91561273Y-120355941D01*
X91552930Y-120350182D01*
X91552927Y-120350181D01*
X91552926Y-120350180D01*
X91496701Y-120328856D01*
X91489783Y-120325991D01*
X91434929Y-120301303D01*
X91424952Y-120299475D01*
X91403339Y-120293450D01*
X91393873Y-120289860D01*
X91334172Y-120282610D01*
X91326771Y-120281483D01*
X91267607Y-120270641D01*
X91207566Y-120274274D01*
X91200079Y-120274500D01*
X91066519Y-120274500D01*
X91019066Y-120265061D01*
X90978838Y-120238181D01*
X88502837Y-117762180D01*
X88472587Y-117712817D01*
X88468045Y-117655101D01*
X88490200Y-117601614D01*
X88534223Y-117564014D01*
X88590518Y-117550499D01*
X89972870Y-117550499D01*
X89972872Y-117550499D01*
X90032483Y-117544091D01*
X90167331Y-117493796D01*
X90282546Y-117407546D01*
X90368796Y-117292331D01*
X90417810Y-117160916D01*
X90452789Y-117110537D01*
X90507634Y-117083084D01*
X90568927Y-117085273D01*
X90621672Y-117116568D01*
X90743599Y-117238495D01*
X90937170Y-117374035D01*
X91151337Y-117473903D01*
X91379592Y-117535063D01*
X91615000Y-117555659D01*
X91850408Y-117535063D01*
X92078663Y-117473903D01*
X92292830Y-117374035D01*
X92486401Y-117238495D01*
X92653495Y-117071401D01*
X92783428Y-116885837D01*
X92827742Y-116846975D01*
X92884999Y-116832964D01*
X92942255Y-116846974D01*
X92986573Y-116885839D01*
X93116505Y-117071401D01*
X93283599Y-117238495D01*
X93477170Y-117374035D01*
X93691337Y-117473903D01*
X93919592Y-117535063D01*
X94155000Y-117555659D01*
X94390408Y-117535063D01*
X94618663Y-117473903D01*
X94832830Y-117374035D01*
X95026401Y-117238495D01*
X95193495Y-117071401D01*
X95323732Y-116885402D01*
X95368048Y-116846539D01*
X95425305Y-116832528D01*
X95482562Y-116846539D01*
X95526880Y-116885404D01*
X95656893Y-117071081D01*
X95823918Y-117238106D01*
X96017423Y-117373600D01*
X96231507Y-117473430D01*
X96444999Y-117530635D01*
X96445000Y-117530636D01*
X96445000Y-114956856D01*
X96455925Y-114905963D01*
X96486775Y-114864039D01*
X96489383Y-114861729D01*
X96523561Y-114812210D01*
X96527990Y-114806194D01*
X96565075Y-114758860D01*
X96565075Y-114758859D01*
X96565078Y-114758856D01*
X96569237Y-114749614D01*
X96580261Y-114730068D01*
X96586018Y-114721730D01*
X96607352Y-114665474D01*
X96610194Y-114658611D01*
X96634895Y-114603731D01*
X96636722Y-114593756D01*
X96642749Y-114572139D01*
X96646340Y-114562672D01*
X96653587Y-114502979D01*
X96654714Y-114495577D01*
X96665558Y-114436406D01*
X96661926Y-114376366D01*
X96661700Y-114368879D01*
X96661700Y-103516488D01*
X96676727Y-103457320D01*
X96718165Y-103412493D01*
X96775971Y-103392870D01*
X96836136Y-103403208D01*
G37*
%TD.AperFunction*%
%TA.AperFunction,Conductor*%
G36*
X82584185Y-112304400D02*
G01*
X82621785Y-112348423D01*
X82635300Y-112404718D01*
X82635300Y-115345408D01*
X82627064Y-115389845D01*
X82603450Y-115428380D01*
X82603266Y-115428583D01*
X82508620Y-115592515D01*
X82450126Y-115772542D01*
X82430340Y-115960800D01*
X82450126Y-116149057D01*
X82508620Y-116329084D01*
X82603266Y-116493016D01*
X82729929Y-116633689D01*
X82883069Y-116744951D01*
X83055997Y-116821944D01*
X83241152Y-116861300D01*
X83400500Y-116861300D01*
X83462500Y-116877913D01*
X83507887Y-116923300D01*
X83524500Y-116985300D01*
X83524500Y-120650079D01*
X83524274Y-120657566D01*
X83520641Y-120717607D01*
X83531483Y-120776771D01*
X83532610Y-120784172D01*
X83539860Y-120843873D01*
X83543450Y-120853339D01*
X83549475Y-120874952D01*
X83551303Y-120884929D01*
X83575991Y-120939783D01*
X83578856Y-120946701D01*
X83600180Y-121002926D01*
X83600182Y-121002930D01*
X83605941Y-121011273D01*
X83616961Y-121030813D01*
X83621120Y-121040054D01*
X83658216Y-121087405D01*
X83662651Y-121093432D01*
X83696817Y-121142929D01*
X83741847Y-121182822D01*
X83747283Y-121187940D01*
X84075069Y-121515726D01*
X84108449Y-121576568D01*
X84103910Y-121645817D01*
X84062875Y-121701783D01*
X83998196Y-121726935D01*
X83849590Y-121739936D01*
X83824887Y-121746555D01*
X83760702Y-121746553D01*
X83705117Y-121714460D01*
X78912940Y-116922283D01*
X78907822Y-116916847D01*
X78867929Y-116871817D01*
X78818432Y-116837651D01*
X78812405Y-116833216D01*
X78765054Y-116796120D01*
X78755813Y-116791961D01*
X78736273Y-116780941D01*
X78727930Y-116775182D01*
X78727927Y-116775181D01*
X78727926Y-116775180D01*
X78671701Y-116753856D01*
X78664783Y-116750991D01*
X78609929Y-116726303D01*
X78599952Y-116724475D01*
X78578339Y-116718450D01*
X78568873Y-116714860D01*
X78509172Y-116707610D01*
X78501771Y-116706483D01*
X78442607Y-116695641D01*
X78382566Y-116699274D01*
X78375079Y-116699500D01*
X78340519Y-116699500D01*
X78284224Y-116685985D01*
X78240201Y-116648385D01*
X78218046Y-116594898D01*
X78222588Y-116537182D01*
X78252838Y-116487819D01*
X82423619Y-112317037D01*
X82472982Y-112286787D01*
X82530698Y-112282245D01*
X82584185Y-112304400D01*
G37*
%TD.AperFunction*%
%TA.AperFunction,Conductor*%
G36*
X91162818Y-108557027D02*
G01*
X91212181Y-108587277D01*
X91584381Y-108959476D01*
X91611261Y-108999704D01*
X91620700Y-109047157D01*
X91620700Y-114730217D01*
X91605845Y-114789067D01*
X91564839Y-114833817D01*
X91507508Y-114853745D01*
X91379592Y-114864936D01*
X91151336Y-114926097D01*
X90937170Y-115025965D01*
X90743601Y-115161503D01*
X90621673Y-115283431D01*
X90568926Y-115314726D01*
X90507634Y-115316915D01*
X90452789Y-115289462D01*
X90417810Y-115239082D01*
X90407606Y-115211723D01*
X90368796Y-115107669D01*
X90282546Y-114992454D01*
X90167331Y-114906204D01*
X90032483Y-114855909D01*
X89972873Y-114849500D01*
X89972869Y-114849500D01*
X88177130Y-114849500D01*
X88117515Y-114855909D01*
X88042833Y-114883764D01*
X87984046Y-114890615D01*
X87928780Y-114869438D01*
X87889624Y-114825057D01*
X87875500Y-114767582D01*
X87875500Y-113866519D01*
X87884939Y-113819066D01*
X87911819Y-113778838D01*
X88554057Y-113136600D01*
X90777731Y-110912924D01*
X90783151Y-110907822D01*
X90828183Y-110867929D01*
X90862358Y-110818416D01*
X90866779Y-110812407D01*
X90903877Y-110765057D01*
X90908033Y-110755820D01*
X90919058Y-110736273D01*
X90924818Y-110727930D01*
X90946154Y-110671668D01*
X90949014Y-110664766D01*
X90973694Y-110609932D01*
X90975519Y-110599971D01*
X90981545Y-110578348D01*
X90985140Y-110568872D01*
X90992389Y-110509165D01*
X90993516Y-110501762D01*
X91004357Y-110442606D01*
X91000726Y-110382577D01*
X91000500Y-110375090D01*
X91000500Y-108674958D01*
X91014015Y-108618663D01*
X91051615Y-108574640D01*
X91105102Y-108552485D01*
X91162818Y-108557027D01*
G37*
%TD.AperFunction*%
%TA.AperFunction,Conductor*%
G36*
X95006734Y-102208339D02*
G01*
X95046962Y-102235219D01*
X95224381Y-102412638D01*
X95251261Y-102452866D01*
X95260700Y-102500319D01*
X95260700Y-114052282D01*
X95251261Y-114099735D01*
X95224381Y-114139963D01*
X94526994Y-114837347D01*
X94471408Y-114869441D01*
X94407222Y-114869441D01*
X94390410Y-114864936D01*
X94154999Y-114844340D01*
X93919592Y-114864936D01*
X93691336Y-114926097D01*
X93477170Y-115025965D01*
X93283598Y-115161505D01*
X93233381Y-115211723D01*
X93184018Y-115241973D01*
X93126302Y-115246515D01*
X93072815Y-115224360D01*
X93035215Y-115180337D01*
X93021700Y-115124042D01*
X93021700Y-114085600D01*
X93038313Y-114023600D01*
X93083700Y-113978213D01*
X93145700Y-113961600D01*
X93171200Y-113961600D01*
X93171200Y-113136600D01*
X93671200Y-113136600D01*
X93671200Y-113961599D01*
X93921179Y-113961599D01*
X94023895Y-113951106D01*
X94190322Y-113895957D01*
X94339545Y-113803916D01*
X94463516Y-113679945D01*
X94555557Y-113530722D01*
X94610706Y-113364296D01*
X94621200Y-113261579D01*
X94621200Y-113136600D01*
X93671200Y-113136600D01*
X93171200Y-113136600D01*
X93171200Y-112760600D01*
X93187813Y-112698600D01*
X93233200Y-112653213D01*
X93295200Y-112636600D01*
X94621199Y-112636600D01*
X94621199Y-112511621D01*
X94610706Y-112408904D01*
X94555557Y-112242477D01*
X94463516Y-112093254D01*
X94339544Y-111969282D01*
X94336543Y-111967431D01*
X94293361Y-111922323D01*
X94277640Y-111861889D01*
X94293366Y-111801456D01*
X94336547Y-111756352D01*
X94339856Y-111754312D01*
X94463912Y-111630256D01*
X94556014Y-111480934D01*
X94611199Y-111314397D01*
X94621700Y-111211609D01*
X94621699Y-110461592D01*
X94621037Y-110455116D01*
X94611199Y-110358803D01*
X94556014Y-110192266D01*
X94498793Y-110099495D01*
X94463911Y-110042942D01*
X94339858Y-109918889D01*
X94231403Y-109851994D01*
X94188223Y-109806887D01*
X94172500Y-109746455D01*
X94172500Y-109182078D01*
X94188223Y-109121646D01*
X94231404Y-109076539D01*
X94279040Y-109047157D01*
X94390656Y-108978312D01*
X94514712Y-108854256D01*
X94606814Y-108704934D01*
X94661999Y-108538397D01*
X94672500Y-108435609D01*
X94672499Y-107635592D01*
X94661999Y-107532803D01*
X94606814Y-107366266D01*
X94560762Y-107291604D01*
X94514713Y-107216945D01*
X94483891Y-107186123D01*
X94421047Y-107123279D01*
X94388955Y-107067694D01*
X94388955Y-107003506D01*
X94421047Y-106947920D01*
X94514712Y-106854256D01*
X94606814Y-106704934D01*
X94661999Y-106538397D01*
X94672500Y-106435609D01*
X94672499Y-105635592D01*
X94661999Y-105532803D01*
X94606814Y-105366266D01*
X94514712Y-105216944D01*
X94514711Y-105216942D01*
X94390658Y-105092889D01*
X94253210Y-105008111D01*
X94209457Y-104961966D01*
X94194330Y-104900204D01*
X94202214Y-104487793D01*
X94218496Y-104428700D01*
X94261094Y-104384625D01*
X94390656Y-104304712D01*
X94514712Y-104180656D01*
X94606814Y-104031334D01*
X94661999Y-103864797D01*
X94672500Y-103762009D01*
X94672499Y-102961992D01*
X94661999Y-102859203D01*
X94606814Y-102692666D01*
X94535584Y-102577183D01*
X94514711Y-102543342D01*
X94421049Y-102449680D01*
X94388955Y-102394092D01*
X94388955Y-102329904D01*
X94421048Y-102274319D01*
X94460150Y-102235217D01*
X94500378Y-102208339D01*
X94547830Y-102198900D01*
X94959281Y-102198900D01*
X95006734Y-102208339D01*
G37*
%TD.AperFunction*%
%TA.AperFunction,Conductor*%
G36*
X88384631Y-106773029D02*
G01*
X88418391Y-106825767D01*
X88472820Y-106993284D01*
X88567466Y-107157216D01*
X88694129Y-107297889D01*
X88847269Y-107409151D01*
X89020197Y-107486144D01*
X89205352Y-107525500D01*
X89205354Y-107525500D01*
X89394646Y-107525500D01*
X89394647Y-107525500D01*
X89449719Y-107513794D01*
X89504447Y-107514510D01*
X89553536Y-107538718D01*
X89587421Y-107581701D01*
X89599500Y-107635084D01*
X89599500Y-110058481D01*
X89590061Y-110105934D01*
X89563181Y-110146162D01*
X88087181Y-111622162D01*
X88037818Y-111652412D01*
X87980102Y-111656954D01*
X87926615Y-111634799D01*
X87889015Y-111590776D01*
X87875500Y-111534481D01*
X87875500Y-107165047D01*
X87884939Y-107117594D01*
X87911816Y-107077368D01*
X88212783Y-106776400D01*
X88266801Y-106744741D01*
X88329407Y-106743511D01*
X88384631Y-106773029D01*
G37*
%TD.AperFunction*%
%TA.AperFunction,Conductor*%
G36*
X77591200Y-86583813D02*
G01*
X77636587Y-86629200D01*
X77653200Y-86691200D01*
X77653200Y-88017199D01*
X77803179Y-88017199D01*
X77905895Y-88006706D01*
X78072319Y-87951558D01*
X78106203Y-87930659D01*
X78168595Y-87912228D01*
X78231732Y-87927920D01*
X78278233Y-87973419D01*
X78295300Y-88036198D01*
X78295300Y-88481669D01*
X78301709Y-88541285D01*
X78314458Y-88575467D01*
X78322276Y-88618799D01*
X78314459Y-88662130D01*
X78301709Y-88696315D01*
X78295300Y-88755931D01*
X78295300Y-89155369D01*
X78281785Y-89211664D01*
X78244185Y-89255687D01*
X78190698Y-89277842D01*
X78132982Y-89273300D01*
X78083619Y-89243050D01*
X78018657Y-89178088D01*
X77869334Y-89085986D01*
X77702797Y-89030800D01*
X77600009Y-89020300D01*
X76849991Y-89020300D01*
X76747203Y-89030800D01*
X76580665Y-89085986D01*
X76431342Y-89178088D01*
X76315381Y-89294050D01*
X76266018Y-89324300D01*
X76208302Y-89328842D01*
X76154815Y-89306687D01*
X76117215Y-89262664D01*
X76103700Y-89206369D01*
X76103700Y-88001998D01*
X76119423Y-87941566D01*
X76162604Y-87896459D01*
X76221854Y-87859913D01*
X76221853Y-87859913D01*
X76221856Y-87859912D01*
X76315873Y-87765894D01*
X76371459Y-87733802D01*
X76435646Y-87733802D01*
X76491234Y-87765896D01*
X76584854Y-87859516D01*
X76734077Y-87951557D01*
X76900503Y-88006706D01*
X77003221Y-88017200D01*
X77153200Y-88017200D01*
X77153200Y-86691200D01*
X77169813Y-86629200D01*
X77215200Y-86583813D01*
X77277200Y-86567200D01*
X77529200Y-86567200D01*
X77591200Y-86583813D01*
G37*
%TD.AperFunction*%
%TA.AperFunction,Conductor*%
G36*
X87237934Y-79109939D02*
G01*
X87278162Y-79136819D01*
X87822960Y-79681617D01*
X87855642Y-79739488D01*
X87853747Y-79805923D01*
X87817818Y-79861836D01*
X87758177Y-79891165D01*
X87719150Y-79887817D01*
X87718768Y-79891374D01*
X87703283Y-79889709D01*
X87643673Y-79883300D01*
X87643669Y-79883300D01*
X86647930Y-79883300D01*
X86588314Y-79889709D01*
X86554129Y-79902459D01*
X86510798Y-79910276D01*
X86467467Y-79902458D01*
X86433286Y-79889709D01*
X86407735Y-79886962D01*
X86373673Y-79883300D01*
X86373669Y-79883300D01*
X85575621Y-79883300D01*
X85519326Y-79869785D01*
X85475303Y-79832185D01*
X85453148Y-79778698D01*
X85457690Y-79720982D01*
X85457751Y-79720795D01*
X85467674Y-79690256D01*
X85487460Y-79502000D01*
X85467674Y-79313744D01*
X85451126Y-79262817D01*
X85446585Y-79205102D01*
X85468740Y-79151614D01*
X85512763Y-79114015D01*
X85569058Y-79100500D01*
X87190481Y-79100500D01*
X87237934Y-79109939D01*
G37*
%TD.AperFunction*%
%TA.AperFunction,Conductor*%
G36*
X84537501Y-75617113D02*
G01*
X84582888Y-75662500D01*
X84599501Y-75724500D01*
X84599501Y-75947870D01*
X84605909Y-76007484D01*
X84627601Y-76065642D01*
X84656204Y-76142331D01*
X84742454Y-76257546D01*
X84857669Y-76343796D01*
X84992517Y-76394091D01*
X85052127Y-76400500D01*
X88947872Y-76400499D01*
X89007483Y-76394091D01*
X89142331Y-76343796D01*
X89257546Y-76257546D01*
X89343796Y-76142331D01*
X89394091Y-76007483D01*
X89400500Y-75947873D01*
X89400500Y-75724500D01*
X89417113Y-75662500D01*
X89462500Y-75617113D01*
X89524500Y-75600500D01*
X90608481Y-75600500D01*
X90655934Y-75609939D01*
X90696162Y-75636819D01*
X93722162Y-78662819D01*
X93752412Y-78712182D01*
X93756954Y-78769898D01*
X93734799Y-78823385D01*
X93690776Y-78860985D01*
X93634481Y-78874500D01*
X90716518Y-78874500D01*
X90669065Y-78865061D01*
X90628837Y-78838181D01*
X88787940Y-76997283D01*
X88782822Y-76991847D01*
X88742929Y-76946817D01*
X88693432Y-76912651D01*
X88687405Y-76908216D01*
X88640054Y-76871120D01*
X88630813Y-76866961D01*
X88611273Y-76855941D01*
X88602930Y-76850182D01*
X88602927Y-76850181D01*
X88602926Y-76850180D01*
X88546701Y-76828856D01*
X88539783Y-76825991D01*
X88484929Y-76801303D01*
X88474952Y-76799475D01*
X88453339Y-76793450D01*
X88443873Y-76789860D01*
X88384172Y-76782610D01*
X88376771Y-76781483D01*
X88317607Y-76770641D01*
X88257566Y-76774274D01*
X88250079Y-76774500D01*
X82314879Y-76774500D01*
X82249271Y-76755722D01*
X82203534Y-76705074D01*
X82191521Y-76637898D01*
X82195668Y-76597303D01*
X82200500Y-76550009D01*
X82200499Y-75991517D01*
X82209938Y-75944065D01*
X82236815Y-75903840D01*
X82503836Y-75636819D01*
X82544065Y-75609939D01*
X82591518Y-75600500D01*
X84475501Y-75600500D01*
X84537501Y-75617113D01*
G37*
%TD.AperFunction*%
%TD*%
M02*
