%TF.GenerationSoftware,KiCad,Pcbnew,7.0.1*%
%TF.CreationDate,2023-04-20T18:11:54+02:00*%
%TF.ProjectId,PCB_Tetris,5043425f-5465-4747-9269-732e6b696361,rev?*%
%TF.SameCoordinates,Original*%
%TF.FileFunction,Legend,Bot*%
%TF.FilePolarity,Positive*%
%FSLAX46Y46*%
G04 Gerber Fmt 4.6, Leading zero omitted, Abs format (unit mm)*
G04 Created by KiCad (PCBNEW 7.0.1) date 2023-04-20 18:11:54*
%MOMM*%
%LPD*%
G01*
G04 APERTURE LIST*
%ADD10C,0.300000*%
%ADD11C,0.150000*%
G04 APERTURE END LIST*
D10*
X98137142Y-73282142D02*
X98208571Y-73425000D01*
X98208571Y-73425000D02*
X98208571Y-73639285D01*
X98208571Y-73639285D02*
X98137142Y-73853571D01*
X98137142Y-73853571D02*
X97994285Y-73996428D01*
X97994285Y-73996428D02*
X97851428Y-74067857D01*
X97851428Y-74067857D02*
X97565714Y-74139285D01*
X97565714Y-74139285D02*
X97351428Y-74139285D01*
X97351428Y-74139285D02*
X97065714Y-74067857D01*
X97065714Y-74067857D02*
X96922857Y-73996428D01*
X96922857Y-73996428D02*
X96780000Y-73853571D01*
X96780000Y-73853571D02*
X96708571Y-73639285D01*
X96708571Y-73639285D02*
X96708571Y-73496428D01*
X96708571Y-73496428D02*
X96780000Y-73282142D01*
X96780000Y-73282142D02*
X96851428Y-73210714D01*
X96851428Y-73210714D02*
X97351428Y-73210714D01*
X97351428Y-73210714D02*
X97351428Y-73496428D01*
X96708571Y-72567857D02*
X98208571Y-72567857D01*
X98208571Y-72567857D02*
X96708571Y-71710714D01*
X96708571Y-71710714D02*
X98208571Y-71710714D01*
X96708571Y-70996428D02*
X98208571Y-70996428D01*
X98208571Y-70996428D02*
X98208571Y-70639285D01*
X98208571Y-70639285D02*
X98137142Y-70424999D01*
X98137142Y-70424999D02*
X97994285Y-70282142D01*
X97994285Y-70282142D02*
X97851428Y-70210713D01*
X97851428Y-70210713D02*
X97565714Y-70139285D01*
X97565714Y-70139285D02*
X97351428Y-70139285D01*
X97351428Y-70139285D02*
X97065714Y-70210713D01*
X97065714Y-70210713D02*
X96922857Y-70282142D01*
X96922857Y-70282142D02*
X96780000Y-70424999D01*
X96780000Y-70424999D02*
X96708571Y-70639285D01*
X96708571Y-70639285D02*
X96708571Y-70996428D01*
X106438571Y-127692857D02*
X107938571Y-127692857D01*
X107938571Y-127692857D02*
X107938571Y-127335714D01*
X107938571Y-127335714D02*
X107867142Y-127121428D01*
X107867142Y-127121428D02*
X107724285Y-126978571D01*
X107724285Y-126978571D02*
X107581428Y-126907142D01*
X107581428Y-126907142D02*
X107295714Y-126835714D01*
X107295714Y-126835714D02*
X107081428Y-126835714D01*
X107081428Y-126835714D02*
X106795714Y-126907142D01*
X106795714Y-126907142D02*
X106652857Y-126978571D01*
X106652857Y-126978571D02*
X106510000Y-127121428D01*
X106510000Y-127121428D02*
X106438571Y-127335714D01*
X106438571Y-127335714D02*
X106438571Y-127692857D01*
X106510000Y-125621428D02*
X106438571Y-125764285D01*
X106438571Y-125764285D02*
X106438571Y-126050000D01*
X106438571Y-126050000D02*
X106510000Y-126192857D01*
X106510000Y-126192857D02*
X106652857Y-126264285D01*
X106652857Y-126264285D02*
X107224285Y-126264285D01*
X107224285Y-126264285D02*
X107367142Y-126192857D01*
X107367142Y-126192857D02*
X107438571Y-126050000D01*
X107438571Y-126050000D02*
X107438571Y-125764285D01*
X107438571Y-125764285D02*
X107367142Y-125621428D01*
X107367142Y-125621428D02*
X107224285Y-125550000D01*
X107224285Y-125550000D02*
X107081428Y-125550000D01*
X107081428Y-125550000D02*
X106938571Y-126264285D01*
X106438571Y-124907143D02*
X107438571Y-124907143D01*
X107152857Y-124907143D02*
X107295714Y-124835714D01*
X107295714Y-124835714D02*
X107367142Y-124764286D01*
X107367142Y-124764286D02*
X107438571Y-124621428D01*
X107438571Y-124621428D02*
X107438571Y-124478571D01*
X107438571Y-123335715D02*
X106438571Y-123335715D01*
X107438571Y-123978572D02*
X106652857Y-123978572D01*
X106652857Y-123978572D02*
X106510000Y-123907143D01*
X106510000Y-123907143D02*
X106438571Y-123764286D01*
X106438571Y-123764286D02*
X106438571Y-123550000D01*
X106438571Y-123550000D02*
X106510000Y-123407143D01*
X106510000Y-123407143D02*
X106581428Y-123335715D01*
X107438571Y-122764286D02*
X106438571Y-122407143D01*
X107438571Y-122050000D02*
X106438571Y-122407143D01*
X106438571Y-122407143D02*
X106081428Y-122550000D01*
X106081428Y-122550000D02*
X106010000Y-122621429D01*
X106010000Y-122621429D02*
X105938571Y-122764286D01*
X107438571Y-121692857D02*
X107438571Y-121121429D01*
X107938571Y-121478572D02*
X106652857Y-121478572D01*
X106652857Y-121478572D02*
X106510000Y-121407143D01*
X106510000Y-121407143D02*
X106438571Y-121264286D01*
X106438571Y-121264286D02*
X106438571Y-121121429D01*
X107438571Y-120835714D02*
X107438571Y-120264286D01*
X107938571Y-120621429D02*
X106652857Y-120621429D01*
X106652857Y-120621429D02*
X106510000Y-120550000D01*
X106510000Y-120550000D02*
X106438571Y-120407143D01*
X106438571Y-120407143D02*
X106438571Y-120264286D01*
X106510000Y-119192857D02*
X106438571Y-119335714D01*
X106438571Y-119335714D02*
X106438571Y-119621429D01*
X106438571Y-119621429D02*
X106510000Y-119764286D01*
X106510000Y-119764286D02*
X106652857Y-119835714D01*
X106652857Y-119835714D02*
X107224285Y-119835714D01*
X107224285Y-119835714D02*
X107367142Y-119764286D01*
X107367142Y-119764286D02*
X107438571Y-119621429D01*
X107438571Y-119621429D02*
X107438571Y-119335714D01*
X107438571Y-119335714D02*
X107367142Y-119192857D01*
X107367142Y-119192857D02*
X107224285Y-119121429D01*
X107224285Y-119121429D02*
X107081428Y-119121429D01*
X107081428Y-119121429D02*
X106938571Y-119835714D01*
X106438571Y-118478572D02*
X107438571Y-118478572D01*
X107152857Y-118478572D02*
X107295714Y-118407143D01*
X107295714Y-118407143D02*
X107367142Y-118335715D01*
X107367142Y-118335715D02*
X107438571Y-118192857D01*
X107438571Y-118192857D02*
X107438571Y-118050000D01*
X107224285Y-116407144D02*
X107224285Y-115907144D01*
X106438571Y-115692858D02*
X106438571Y-116407144D01*
X106438571Y-116407144D02*
X107938571Y-116407144D01*
X107938571Y-116407144D02*
X107938571Y-115692858D01*
X106438571Y-114835715D02*
X106510000Y-114978572D01*
X106510000Y-114978572D02*
X106652857Y-115050001D01*
X106652857Y-115050001D02*
X107938571Y-115050001D01*
X106438571Y-114264287D02*
X107438571Y-114264287D01*
X107938571Y-114264287D02*
X107867142Y-114335715D01*
X107867142Y-114335715D02*
X107795714Y-114264287D01*
X107795714Y-114264287D02*
X107867142Y-114192858D01*
X107867142Y-114192858D02*
X107938571Y-114264287D01*
X107938571Y-114264287D02*
X107795714Y-114264287D01*
X106438571Y-112907144D02*
X107224285Y-112907144D01*
X107224285Y-112907144D02*
X107367142Y-112978572D01*
X107367142Y-112978572D02*
X107438571Y-113121429D01*
X107438571Y-113121429D02*
X107438571Y-113407144D01*
X107438571Y-113407144D02*
X107367142Y-113550001D01*
X106510000Y-112907144D02*
X106438571Y-113050001D01*
X106438571Y-113050001D02*
X106438571Y-113407144D01*
X106438571Y-113407144D02*
X106510000Y-113550001D01*
X106510000Y-113550001D02*
X106652857Y-113621429D01*
X106652857Y-113621429D02*
X106795714Y-113621429D01*
X106795714Y-113621429D02*
X106938571Y-113550001D01*
X106938571Y-113550001D02*
X107010000Y-113407144D01*
X107010000Y-113407144D02*
X107010000Y-113050001D01*
X107010000Y-113050001D02*
X107081428Y-112907144D01*
X106510000Y-112264286D02*
X106438571Y-112121429D01*
X106438571Y-112121429D02*
X106438571Y-111835715D01*
X106438571Y-111835715D02*
X106510000Y-111692858D01*
X106510000Y-111692858D02*
X106652857Y-111621429D01*
X106652857Y-111621429D02*
X106724285Y-111621429D01*
X106724285Y-111621429D02*
X106867142Y-111692858D01*
X106867142Y-111692858D02*
X106938571Y-111835715D01*
X106938571Y-111835715D02*
X106938571Y-112050001D01*
X106938571Y-112050001D02*
X107010000Y-112192858D01*
X107010000Y-112192858D02*
X107152857Y-112264286D01*
X107152857Y-112264286D02*
X107224285Y-112264286D01*
X107224285Y-112264286D02*
X107367142Y-112192858D01*
X107367142Y-112192858D02*
X107438571Y-112050001D01*
X107438571Y-112050001D02*
X107438571Y-111835715D01*
X107438571Y-111835715D02*
X107367142Y-111692858D01*
X106438571Y-108621429D02*
X106438571Y-108692858D01*
X106438571Y-108692858D02*
X106510000Y-108835715D01*
X106510000Y-108835715D02*
X106724285Y-109050000D01*
X106724285Y-109050000D02*
X107152857Y-109407143D01*
X107152857Y-109407143D02*
X107367142Y-109550000D01*
X107367142Y-109550000D02*
X107581428Y-109621429D01*
X107581428Y-109621429D02*
X107724285Y-109621429D01*
X107724285Y-109621429D02*
X107867142Y-109550000D01*
X107867142Y-109550000D02*
X107938571Y-109407143D01*
X107938571Y-109407143D02*
X107938571Y-109335715D01*
X107938571Y-109335715D02*
X107867142Y-109192858D01*
X107867142Y-109192858D02*
X107724285Y-109121429D01*
X107724285Y-109121429D02*
X107652857Y-109121429D01*
X107652857Y-109121429D02*
X107510000Y-109192858D01*
X107510000Y-109192858D02*
X107438571Y-109264286D01*
X107438571Y-109264286D02*
X107152857Y-109692858D01*
X107152857Y-109692858D02*
X107081428Y-109764286D01*
X107081428Y-109764286D02*
X106938571Y-109835715D01*
X106938571Y-109835715D02*
X106724285Y-109835715D01*
X106724285Y-109835715D02*
X106581428Y-109764286D01*
X106581428Y-109764286D02*
X106510000Y-109692858D01*
X106510000Y-109692858D02*
X106438571Y-109550000D01*
X106438571Y-109550000D02*
X106438571Y-109335715D01*
X106438571Y-109335715D02*
X106510000Y-109192858D01*
X106510000Y-109192858D02*
X106581428Y-109121429D01*
X106581428Y-109121429D02*
X106867142Y-108907143D01*
X106867142Y-108907143D02*
X107081428Y-108835715D01*
X107081428Y-108835715D02*
X107224285Y-108835715D01*
X106438571Y-106835715D02*
X107938571Y-106835715D01*
X107938571Y-106835715D02*
X106867142Y-106335715D01*
X106867142Y-106335715D02*
X107938571Y-105835715D01*
X107938571Y-105835715D02*
X106438571Y-105835715D01*
X106438571Y-104907143D02*
X106510000Y-105050000D01*
X106510000Y-105050000D02*
X106581428Y-105121429D01*
X106581428Y-105121429D02*
X106724285Y-105192857D01*
X106724285Y-105192857D02*
X107152857Y-105192857D01*
X107152857Y-105192857D02*
X107295714Y-105121429D01*
X107295714Y-105121429D02*
X107367142Y-105050000D01*
X107367142Y-105050000D02*
X107438571Y-104907143D01*
X107438571Y-104907143D02*
X107438571Y-104692857D01*
X107438571Y-104692857D02*
X107367142Y-104550000D01*
X107367142Y-104550000D02*
X107295714Y-104478572D01*
X107295714Y-104478572D02*
X107152857Y-104407143D01*
X107152857Y-104407143D02*
X106724285Y-104407143D01*
X106724285Y-104407143D02*
X106581428Y-104478572D01*
X106581428Y-104478572D02*
X106510000Y-104550000D01*
X106510000Y-104550000D02*
X106438571Y-104692857D01*
X106438571Y-104692857D02*
X106438571Y-104907143D01*
X106438571Y-103764286D02*
X107438571Y-103764286D01*
X107152857Y-103764286D02*
X107295714Y-103692857D01*
X107295714Y-103692857D02*
X107367142Y-103621429D01*
X107367142Y-103621429D02*
X107438571Y-103478571D01*
X107438571Y-103478571D02*
X107438571Y-103335714D01*
X107438571Y-103050000D02*
X107438571Y-102478572D01*
X107938571Y-102835715D02*
X106652857Y-102835715D01*
X106652857Y-102835715D02*
X106510000Y-102764286D01*
X106510000Y-102764286D02*
X106438571Y-102621429D01*
X106438571Y-102621429D02*
X106438571Y-102478572D01*
X106438571Y-101978572D02*
X107438571Y-101978572D01*
X107938571Y-101978572D02*
X107867142Y-102050000D01*
X107867142Y-102050000D02*
X107795714Y-101978572D01*
X107795714Y-101978572D02*
X107867142Y-101907143D01*
X107867142Y-101907143D02*
X107938571Y-101978572D01*
X107938571Y-101978572D02*
X107795714Y-101978572D01*
X106510000Y-100692857D02*
X106438571Y-100835714D01*
X106438571Y-100835714D02*
X106438571Y-101121429D01*
X106438571Y-101121429D02*
X106510000Y-101264286D01*
X106510000Y-101264286D02*
X106652857Y-101335714D01*
X106652857Y-101335714D02*
X107224285Y-101335714D01*
X107224285Y-101335714D02*
X107367142Y-101264286D01*
X107367142Y-101264286D02*
X107438571Y-101121429D01*
X107438571Y-101121429D02*
X107438571Y-100835714D01*
X107438571Y-100835714D02*
X107367142Y-100692857D01*
X107367142Y-100692857D02*
X107224285Y-100621429D01*
X107224285Y-100621429D02*
X107081428Y-100621429D01*
X107081428Y-100621429D02*
X106938571Y-101335714D01*
X106438571Y-99978572D02*
X107438571Y-99978572D01*
X107152857Y-99978572D02*
X107295714Y-99907143D01*
X107295714Y-99907143D02*
X107367142Y-99835715D01*
X107367142Y-99835715D02*
X107438571Y-99692857D01*
X107438571Y-99692857D02*
X107438571Y-99550000D01*
X106438571Y-97907144D02*
X107938571Y-97907144D01*
X107938571Y-97907144D02*
X106867142Y-97407144D01*
X106867142Y-97407144D02*
X107938571Y-96907144D01*
X107938571Y-96907144D02*
X106438571Y-96907144D01*
X106438571Y-95550001D02*
X107224285Y-95550001D01*
X107224285Y-95550001D02*
X107367142Y-95621429D01*
X107367142Y-95621429D02*
X107438571Y-95764286D01*
X107438571Y-95764286D02*
X107438571Y-96050001D01*
X107438571Y-96050001D02*
X107367142Y-96192858D01*
X106510000Y-95550001D02*
X106438571Y-95692858D01*
X106438571Y-95692858D02*
X106438571Y-96050001D01*
X106438571Y-96050001D02*
X106510000Y-96192858D01*
X106510000Y-96192858D02*
X106652857Y-96264286D01*
X106652857Y-96264286D02*
X106795714Y-96264286D01*
X106795714Y-96264286D02*
X106938571Y-96192858D01*
X106938571Y-96192858D02*
X107010000Y-96050001D01*
X107010000Y-96050001D02*
X107010000Y-95692858D01*
X107010000Y-95692858D02*
X107081428Y-95550001D01*
X107438571Y-95050000D02*
X107438571Y-94478572D01*
X107938571Y-94835715D02*
X106652857Y-94835715D01*
X106652857Y-94835715D02*
X106510000Y-94764286D01*
X106510000Y-94764286D02*
X106438571Y-94621429D01*
X106438571Y-94621429D02*
X106438571Y-94478572D01*
X106510000Y-94050000D02*
X106438571Y-93907143D01*
X106438571Y-93907143D02*
X106438571Y-93621429D01*
X106438571Y-93621429D02*
X106510000Y-93478572D01*
X106510000Y-93478572D02*
X106652857Y-93407143D01*
X106652857Y-93407143D02*
X106724285Y-93407143D01*
X106724285Y-93407143D02*
X106867142Y-93478572D01*
X106867142Y-93478572D02*
X106938571Y-93621429D01*
X106938571Y-93621429D02*
X106938571Y-93835715D01*
X106938571Y-93835715D02*
X107010000Y-93978572D01*
X107010000Y-93978572D02*
X107152857Y-94050000D01*
X107152857Y-94050000D02*
X107224285Y-94050000D01*
X107224285Y-94050000D02*
X107367142Y-93978572D01*
X107367142Y-93978572D02*
X107438571Y-93835715D01*
X107438571Y-93835715D02*
X107438571Y-93621429D01*
X107438571Y-93621429D02*
X107367142Y-93478572D01*
X105508571Y-127907142D02*
X105508571Y-127050000D01*
X104008571Y-127478571D02*
X105508571Y-127478571D01*
X104080000Y-125978571D02*
X104008571Y-126121428D01*
X104008571Y-126121428D02*
X104008571Y-126407143D01*
X104008571Y-126407143D02*
X104080000Y-126550000D01*
X104080000Y-126550000D02*
X104222857Y-126621428D01*
X104222857Y-126621428D02*
X104794285Y-126621428D01*
X104794285Y-126621428D02*
X104937142Y-126550000D01*
X104937142Y-126550000D02*
X105008571Y-126407143D01*
X105008571Y-126407143D02*
X105008571Y-126121428D01*
X105008571Y-126121428D02*
X104937142Y-125978571D01*
X104937142Y-125978571D02*
X104794285Y-125907143D01*
X104794285Y-125907143D02*
X104651428Y-125907143D01*
X104651428Y-125907143D02*
X104508571Y-126621428D01*
X105008571Y-125478571D02*
X105008571Y-124907143D01*
X105508571Y-125264286D02*
X104222857Y-125264286D01*
X104222857Y-125264286D02*
X104080000Y-125192857D01*
X104080000Y-125192857D02*
X104008571Y-125050000D01*
X104008571Y-125050000D02*
X104008571Y-124907143D01*
X104008571Y-124407143D02*
X105008571Y-124407143D01*
X104722857Y-124407143D02*
X104865714Y-124335714D01*
X104865714Y-124335714D02*
X104937142Y-124264286D01*
X104937142Y-124264286D02*
X105008571Y-124121428D01*
X105008571Y-124121428D02*
X105008571Y-123978571D01*
X104008571Y-123478572D02*
X105008571Y-123478572D01*
X105508571Y-123478572D02*
X105437142Y-123550000D01*
X105437142Y-123550000D02*
X105365714Y-123478572D01*
X105365714Y-123478572D02*
X105437142Y-123407143D01*
X105437142Y-123407143D02*
X105508571Y-123478572D01*
X105508571Y-123478572D02*
X105365714Y-123478572D01*
X104080000Y-122835714D02*
X104008571Y-122692857D01*
X104008571Y-122692857D02*
X104008571Y-122407143D01*
X104008571Y-122407143D02*
X104080000Y-122264286D01*
X104080000Y-122264286D02*
X104222857Y-122192857D01*
X104222857Y-122192857D02*
X104294285Y-122192857D01*
X104294285Y-122192857D02*
X104437142Y-122264286D01*
X104437142Y-122264286D02*
X104508571Y-122407143D01*
X104508571Y-122407143D02*
X104508571Y-122621429D01*
X104508571Y-122621429D02*
X104580000Y-122764286D01*
X104580000Y-122764286D02*
X104722857Y-122835714D01*
X104722857Y-122835714D02*
X104794285Y-122835714D01*
X104794285Y-122835714D02*
X104937142Y-122764286D01*
X104937142Y-122764286D02*
X105008571Y-122621429D01*
X105008571Y-122621429D02*
X105008571Y-122407143D01*
X105008571Y-122407143D02*
X104937142Y-122264286D01*
X98408571Y-68857142D02*
X96908571Y-68357142D01*
X96908571Y-68357142D02*
X98408571Y-67857142D01*
X96908571Y-66714286D02*
X98408571Y-66714286D01*
X96980000Y-66714286D02*
X96908571Y-66857143D01*
X96908571Y-66857143D02*
X96908571Y-67142857D01*
X96908571Y-67142857D02*
X96980000Y-67285714D01*
X96980000Y-67285714D02*
X97051428Y-67357143D01*
X97051428Y-67357143D02*
X97194285Y-67428571D01*
X97194285Y-67428571D02*
X97622857Y-67428571D01*
X97622857Y-67428571D02*
X97765714Y-67357143D01*
X97765714Y-67357143D02*
X97837142Y-67285714D01*
X97837142Y-67285714D02*
X97908571Y-67142857D01*
X97908571Y-67142857D02*
X97908571Y-66857143D01*
X97908571Y-66857143D02*
X97837142Y-66714286D01*
X96908571Y-65357143D02*
X98408571Y-65357143D01*
X96980000Y-65357143D02*
X96908571Y-65500000D01*
X96908571Y-65500000D02*
X96908571Y-65785714D01*
X96908571Y-65785714D02*
X96980000Y-65928571D01*
X96980000Y-65928571D02*
X97051428Y-66000000D01*
X97051428Y-66000000D02*
X97194285Y-66071428D01*
X97194285Y-66071428D02*
X97622857Y-66071428D01*
X97622857Y-66071428D02*
X97765714Y-66000000D01*
X97765714Y-66000000D02*
X97837142Y-65928571D01*
X97837142Y-65928571D02*
X97908571Y-65785714D01*
X97908571Y-65785714D02*
X97908571Y-65500000D01*
X97908571Y-65500000D02*
X97837142Y-65357143D01*
D11*
%TO.C,Kroonsteen1*%
X92087619Y-66430237D02*
X91087619Y-66430237D01*
X92087619Y-67001665D02*
X91516190Y-66573094D01*
X91087619Y-67001665D02*
X91659047Y-66430237D01*
X92087619Y-67430237D02*
X91420952Y-67430237D01*
X91611428Y-67430237D02*
X91516190Y-67477856D01*
X91516190Y-67477856D02*
X91468571Y-67525475D01*
X91468571Y-67525475D02*
X91420952Y-67620713D01*
X91420952Y-67620713D02*
X91420952Y-67715951D01*
X92087619Y-68192142D02*
X92040000Y-68096904D01*
X92040000Y-68096904D02*
X91992380Y-68049285D01*
X91992380Y-68049285D02*
X91897142Y-68001666D01*
X91897142Y-68001666D02*
X91611428Y-68001666D01*
X91611428Y-68001666D02*
X91516190Y-68049285D01*
X91516190Y-68049285D02*
X91468571Y-68096904D01*
X91468571Y-68096904D02*
X91420952Y-68192142D01*
X91420952Y-68192142D02*
X91420952Y-68334999D01*
X91420952Y-68334999D02*
X91468571Y-68430237D01*
X91468571Y-68430237D02*
X91516190Y-68477856D01*
X91516190Y-68477856D02*
X91611428Y-68525475D01*
X91611428Y-68525475D02*
X91897142Y-68525475D01*
X91897142Y-68525475D02*
X91992380Y-68477856D01*
X91992380Y-68477856D02*
X92040000Y-68430237D01*
X92040000Y-68430237D02*
X92087619Y-68334999D01*
X92087619Y-68334999D02*
X92087619Y-68192142D01*
X92087619Y-69096904D02*
X92040000Y-69001666D01*
X92040000Y-69001666D02*
X91992380Y-68954047D01*
X91992380Y-68954047D02*
X91897142Y-68906428D01*
X91897142Y-68906428D02*
X91611428Y-68906428D01*
X91611428Y-68906428D02*
X91516190Y-68954047D01*
X91516190Y-68954047D02*
X91468571Y-69001666D01*
X91468571Y-69001666D02*
X91420952Y-69096904D01*
X91420952Y-69096904D02*
X91420952Y-69239761D01*
X91420952Y-69239761D02*
X91468571Y-69334999D01*
X91468571Y-69334999D02*
X91516190Y-69382618D01*
X91516190Y-69382618D02*
X91611428Y-69430237D01*
X91611428Y-69430237D02*
X91897142Y-69430237D01*
X91897142Y-69430237D02*
X91992380Y-69382618D01*
X91992380Y-69382618D02*
X92040000Y-69334999D01*
X92040000Y-69334999D02*
X92087619Y-69239761D01*
X92087619Y-69239761D02*
X92087619Y-69096904D01*
X91420952Y-69858809D02*
X92087619Y-69858809D01*
X91516190Y-69858809D02*
X91468571Y-69906428D01*
X91468571Y-69906428D02*
X91420952Y-70001666D01*
X91420952Y-70001666D02*
X91420952Y-70144523D01*
X91420952Y-70144523D02*
X91468571Y-70239761D01*
X91468571Y-70239761D02*
X91563809Y-70287380D01*
X91563809Y-70287380D02*
X92087619Y-70287380D01*
X92040000Y-70715952D02*
X92087619Y-70811190D01*
X92087619Y-70811190D02*
X92087619Y-71001666D01*
X92087619Y-71001666D02*
X92040000Y-71096904D01*
X92040000Y-71096904D02*
X91944761Y-71144523D01*
X91944761Y-71144523D02*
X91897142Y-71144523D01*
X91897142Y-71144523D02*
X91801904Y-71096904D01*
X91801904Y-71096904D02*
X91754285Y-71001666D01*
X91754285Y-71001666D02*
X91754285Y-70858809D01*
X91754285Y-70858809D02*
X91706666Y-70763571D01*
X91706666Y-70763571D02*
X91611428Y-70715952D01*
X91611428Y-70715952D02*
X91563809Y-70715952D01*
X91563809Y-70715952D02*
X91468571Y-70763571D01*
X91468571Y-70763571D02*
X91420952Y-70858809D01*
X91420952Y-70858809D02*
X91420952Y-71001666D01*
X91420952Y-71001666D02*
X91468571Y-71096904D01*
X91420952Y-71430238D02*
X91420952Y-71811190D01*
X91087619Y-71573095D02*
X91944761Y-71573095D01*
X91944761Y-71573095D02*
X92040000Y-71620714D01*
X92040000Y-71620714D02*
X92087619Y-71715952D01*
X92087619Y-71715952D02*
X92087619Y-71811190D01*
X92040000Y-72525476D02*
X92087619Y-72430238D01*
X92087619Y-72430238D02*
X92087619Y-72239762D01*
X92087619Y-72239762D02*
X92040000Y-72144524D01*
X92040000Y-72144524D02*
X91944761Y-72096905D01*
X91944761Y-72096905D02*
X91563809Y-72096905D01*
X91563809Y-72096905D02*
X91468571Y-72144524D01*
X91468571Y-72144524D02*
X91420952Y-72239762D01*
X91420952Y-72239762D02*
X91420952Y-72430238D01*
X91420952Y-72430238D02*
X91468571Y-72525476D01*
X91468571Y-72525476D02*
X91563809Y-72573095D01*
X91563809Y-72573095D02*
X91659047Y-72573095D01*
X91659047Y-72573095D02*
X91754285Y-72096905D01*
X92040000Y-73382619D02*
X92087619Y-73287381D01*
X92087619Y-73287381D02*
X92087619Y-73096905D01*
X92087619Y-73096905D02*
X92040000Y-73001667D01*
X92040000Y-73001667D02*
X91944761Y-72954048D01*
X91944761Y-72954048D02*
X91563809Y-72954048D01*
X91563809Y-72954048D02*
X91468571Y-73001667D01*
X91468571Y-73001667D02*
X91420952Y-73096905D01*
X91420952Y-73096905D02*
X91420952Y-73287381D01*
X91420952Y-73287381D02*
X91468571Y-73382619D01*
X91468571Y-73382619D02*
X91563809Y-73430238D01*
X91563809Y-73430238D02*
X91659047Y-73430238D01*
X91659047Y-73430238D02*
X91754285Y-72954048D01*
X91420952Y-73858810D02*
X92087619Y-73858810D01*
X91516190Y-73858810D02*
X91468571Y-73906429D01*
X91468571Y-73906429D02*
X91420952Y-74001667D01*
X91420952Y-74001667D02*
X91420952Y-74144524D01*
X91420952Y-74144524D02*
X91468571Y-74239762D01*
X91468571Y-74239762D02*
X91563809Y-74287381D01*
X91563809Y-74287381D02*
X92087619Y-74287381D01*
X92087619Y-75287381D02*
X92087619Y-74715953D01*
X92087619Y-75001667D02*
X91087619Y-75001667D01*
X91087619Y-75001667D02*
X91230476Y-74906429D01*
X91230476Y-74906429D02*
X91325714Y-74811191D01*
X91325714Y-74811191D02*
X91373333Y-74715953D01*
%TD*%
M02*
