%TF.GenerationSoftware,KiCad,Pcbnew,7.0.1*%
%TF.CreationDate,2023-04-20T18:11:54+02:00*%
%TF.ProjectId,PCB_Tetris,5043425f-5465-4747-9269-732e6b696361,rev?*%
%TF.SameCoordinates,Original*%
%TF.FileFunction,Copper,L2,Bot*%
%TF.FilePolarity,Positive*%
%FSLAX46Y46*%
G04 Gerber Fmt 4.6, Leading zero omitted, Abs format (unit mm)*
G04 Created by KiCad (PCBNEW 7.0.1) date 2023-04-20 18:11:54*
%MOMM*%
%LPD*%
G01*
G04 APERTURE LIST*
%TA.AperFunction,ComponentPad*%
%ADD10C,2.000000*%
%TD*%
%TA.AperFunction,ComponentPad*%
%ADD11R,1.700000X1.700000*%
%TD*%
%TA.AperFunction,ComponentPad*%
%ADD12O,1.700000X1.700000*%
%TD*%
%TA.AperFunction,ComponentPad*%
%ADD13R,3.000000X3.000000*%
%TD*%
%TA.AperFunction,ComponentPad*%
%ADD14C,3.000000*%
%TD*%
%TA.AperFunction,HeatsinkPad*%
%ADD15C,0.600000*%
%TD*%
%TA.AperFunction,ViaPad*%
%ADD16C,0.800000*%
%TD*%
%TA.AperFunction,Conductor*%
%ADD17C,0.400000*%
%TD*%
%TA.AperFunction,Conductor*%
%ADD18C,0.250000*%
%TD*%
G04 APERTURE END LIST*
D10*
%TO.P,FASTDROP1,1,1*%
%TO.N,+3.3V*%
X49850000Y-91925000D03*
X49850000Y-85425000D03*
%TO.P,FASTDROP1,2,2*%
%TO.N,GPIO35*%
X54350000Y-91925000D03*
X54350000Y-85425000D03*
%TD*%
%TO.P,HARDDROP1,1,1*%
%TO.N,GND*%
X49750000Y-122925000D03*
X49750000Y-116425000D03*
%TO.P,HARDDROP1,2,2*%
%TO.N,GPIO4*%
X54250000Y-122925000D03*
X54250000Y-116425000D03*
%TD*%
%TO.P,RECHTS1,1,1*%
%TO.N,GND*%
X49825000Y-102825000D03*
X49825000Y-96325000D03*
%TO.P,RECHTS1,2,2*%
%TO.N,GPIO19*%
X54325000Y-102825000D03*
X54325000Y-96325000D03*
%TD*%
%TO.P,ROTATE1,1,1*%
%TO.N,+3.3V*%
X59175000Y-91975000D03*
X59175000Y-85475000D03*
%TO.P,ROTATE1,2,2*%
%TO.N,GPIO2*%
X63675000Y-91975000D03*
X63675000Y-85475000D03*
%TD*%
%TO.P,RESET1,1,1*%
%TO.N,GND*%
X78000000Y-111325000D03*
X71500000Y-111325000D03*
%TO.P,RESET1,2,2*%
%TO.N,GPIO0*%
X78000000Y-106825000D03*
X71500000Y-106825000D03*
%TD*%
%TO.P,LINKS1,1,1*%
%TO.N,GND*%
X49900000Y-80950000D03*
X49900000Y-74450000D03*
%TO.P,LINKS1,2,2*%
%TO.N,GPIO13*%
X54400000Y-80950000D03*
X54400000Y-74450000D03*
%TD*%
D11*
%TO.P,Prog1,1,Pin_1*%
%TO.N,+3.3V*%
X89075000Y-116200000D03*
D12*
%TO.P,Prog1,2,Pin_2*%
%TO.N,RX0*%
X91615000Y-116200000D03*
%TO.P,Prog1,3,Pin_3*%
%TO.N,TX0*%
X94155000Y-116200000D03*
%TO.P,Prog1,4,Pin_4*%
%TO.N,GND*%
X96695000Y-116200000D03*
%TD*%
D13*
%TO.P,Kroonsteen1,1,Pin_1*%
%TO.N,VDD*%
X94775000Y-68245000D03*
D14*
%TO.P,Kroonsteen1,2,Pin_2*%
%TO.N,GND*%
X94775000Y-73325000D03*
%TD*%
D11*
%TO.P,J1,1,Pin_1*%
%TO.N,GPIO26*%
X99325000Y-125615000D03*
D12*
%TO.P,J1,2,Pin_2*%
%TO.N,GPIO25*%
X99325000Y-123075000D03*
%TO.P,J1,3,Pin_3*%
%TO.N,GND*%
X96785000Y-125615000D03*
%TO.P,J1,4,Pin_4*%
%TO.N,GPIO27*%
X96785000Y-123075000D03*
%TO.P,J1,5,Pin_5*%
%TO.N,GPIO22*%
X94245000Y-125615000D03*
%TO.P,J1,6,Pin_6*%
%TO.N,GPIO21*%
X94245000Y-123075000D03*
%TO.P,J1,7,Pin_7*%
%TO.N,GND*%
X91705000Y-125615000D03*
%TO.P,J1,8,Pin_8*%
%TO.N,GPIO23*%
X91705000Y-123075000D03*
%TO.P,J1,9,Pin_9*%
%TO.N,GPIO16*%
X89165000Y-125615000D03*
%TO.P,J1,10,Pin_10*%
%TO.N,GPIO12*%
X89165000Y-123075000D03*
%TO.P,J1,11,Pin_11*%
%TO.N,GPIO18*%
X86625000Y-125615000D03*
%TO.P,J1,12,Pin_12*%
%TO.N,GPIO17*%
X86625000Y-123075000D03*
%TO.P,J1,13,Pin_13*%
%TO.N,GPIO32*%
X84085000Y-125615000D03*
%TO.P,J1,14,Pin_14*%
%TO.N,GPIO15*%
X84085000Y-123075000D03*
%TO.P,J1,15,Pin_15*%
%TO.N,GND*%
X81545000Y-125615000D03*
%TO.P,J1,16,Pin_16*%
%TO.N,GPIO33*%
X81545000Y-123075000D03*
%TD*%
D15*
%TO.P,ESP32,39,GND*%
%TO.N,GND*%
X90728300Y-87678800D03*
X89203300Y-87678800D03*
X91490800Y-88441300D03*
X89965800Y-88441300D03*
X88440800Y-88441300D03*
X90728300Y-89203800D03*
X89203300Y-89203800D03*
X91490800Y-89966300D03*
X89965800Y-89966300D03*
X88440800Y-89966300D03*
X90728300Y-90728800D03*
X89203300Y-90728800D03*
%TD*%
D16*
%TO.N,GND*%
X78350000Y-72500000D03*
X94100000Y-64650000D03*
X98050000Y-77400000D03*
X91175000Y-78325000D03*
X68075000Y-75325000D03*
X71650000Y-82125000D03*
X67275000Y-85325000D03*
X56825000Y-94050000D03*
X47300000Y-94500000D03*
X59275000Y-110800000D03*
X104750000Y-119125000D03*
X96100000Y-119575000D03*
X82475000Y-118225000D03*
X77450000Y-125775000D03*
X98325000Y-101275000D03*
X97675000Y-104200000D03*
%TO.N,+3.3V*%
X80700000Y-73900000D03*
%TO.N,GND*%
X67825000Y-67475000D03*
%TO.N,+3.3V*%
X93522800Y-103378000D03*
X85902800Y-104952800D03*
X75438000Y-98450400D03*
X96062800Y-81127600D03*
%TO.N,GND*%
X91225000Y-113475000D03*
X94234000Y-85598000D03*
X83947000Y-89281000D03*
X82536300Y-112725000D03*
X68199000Y-125984000D03*
X92837000Y-94742000D03*
X95300000Y-128725000D03*
X102100000Y-119225000D03*
X95325000Y-93050000D03*
X62191000Y-103873000D03*
X62318000Y-78219000D03*
X105175000Y-124625000D03*
X72898000Y-98552000D03*
X77343000Y-86868000D03*
X76675000Y-69025000D03*
X95000000Y-102475000D03*
X89975000Y-112300000D03*
X75400000Y-112014000D03*
X72325000Y-89775000D03*
X74700000Y-71750000D03*
X94996000Y-108331000D03*
X92800000Y-127600500D03*
X60667000Y-84315000D03*
X52775000Y-97750000D03*
X88200000Y-107075000D03*
X52500000Y-109150000D03*
X58166000Y-125984000D03*
X74275000Y-115300000D03*
X62230000Y-118110000D03*
X57475000Y-68350000D03*
X70225000Y-78100000D03*
X94375000Y-104750000D03*
X80500000Y-109875000D03*
X77089000Y-115443000D03*
X88725000Y-110750000D03*
X85975000Y-79784298D03*
%TO.N,VDD*%
X84700000Y-68700000D03*
X82300000Y-70287500D03*
%TO.N,GPIO25*%
X103275000Y-126600000D03*
X71850000Y-118225000D03*
X85875000Y-81175000D03*
X75225000Y-129375000D03*
%TO.N,GPIO27*%
X69025000Y-120600000D03*
X70425000Y-118650000D03*
X83312000Y-81407000D03*
X87250000Y-128325500D03*
%TO.N,GPIO21*%
X89300000Y-106625000D03*
%TO.N,GPIO23*%
X95922500Y-98633800D03*
X90300000Y-102275000D03*
%TO.N,GPIO12*%
X80772000Y-81153000D03*
%TO.N,GPIO15*%
X79502000Y-94361000D03*
X73150000Y-94234000D03*
X66225000Y-117400000D03*
X68326000Y-94488000D03*
%TO.N,GPIO33*%
X87503000Y-102616000D03*
X87122000Y-81153000D03*
X85050000Y-118825000D03*
%TO.N,GPIO26*%
X98800000Y-128125000D03*
X84582000Y-79502000D03*
%TO.N,GPIO22*%
X97282000Y-102616000D03*
%TO.N,GPIO16*%
X83335800Y-115960800D03*
%TO.N,GPIO32*%
X88392000Y-81153000D03*
X96647000Y-100330000D03*
%TD*%
D17*
%TO.N,GND*%
X98325000Y-103550000D02*
X98325000Y-101275000D01*
X97675000Y-104200000D02*
X98325000Y-103550000D01*
%TO.N,GPIO22*%
X94245000Y-127520000D02*
X94245000Y-125615000D01*
X94400000Y-127675000D02*
X94245000Y-127520000D01*
X98118629Y-127675000D02*
X94400000Y-127675000D01*
X98468629Y-127325000D02*
X98118629Y-127675000D01*
X98625000Y-120600000D02*
X102225000Y-124200000D01*
X102225000Y-124200000D02*
X102225000Y-126800000D01*
X98625000Y-107500000D02*
X98625000Y-120600000D01*
X101700000Y-127325000D02*
X98468629Y-127325000D01*
X96800000Y-103098000D02*
X96800000Y-105675000D01*
X97282000Y-102616000D02*
X96800000Y-103098000D01*
X96800000Y-105675000D02*
X98625000Y-107500000D01*
X102225000Y-126800000D02*
X101700000Y-127325000D01*
%TO.N,+3.3V*%
X56275000Y-83350000D02*
X51925000Y-83350000D01*
X56775000Y-82850000D02*
X56275000Y-83350000D01*
X51925000Y-83350000D02*
X49850000Y-85425000D01*
X60175000Y-82850000D02*
X56775000Y-82850000D01*
X59175000Y-85475000D02*
X59175000Y-91975000D01*
X66606371Y-82850000D02*
X60175000Y-82850000D01*
X59175000Y-83850000D02*
X59175000Y-85475000D01*
X75556371Y-73900000D02*
X66606371Y-82850000D01*
X80700000Y-73900000D02*
X75556371Y-73900000D01*
X60175000Y-82850000D02*
X59175000Y-83850000D01*
X49850000Y-91925000D02*
X49850000Y-85425000D01*
X90938129Y-103675000D02*
X87180600Y-103675000D01*
X97625000Y-88695629D02*
X97750000Y-88570629D01*
X87180600Y-103675000D02*
X85902800Y-104952800D01*
X96300000Y-101921600D02*
X97750000Y-100471600D01*
X80060800Y-104952800D02*
X85902800Y-104952800D01*
X89075000Y-116200000D02*
X89075000Y-114450000D01*
X95447000Y-103378000D02*
X96300000Y-102525000D01*
X75438000Y-100330000D02*
X80060800Y-104952800D01*
X91375000Y-105525800D02*
X93522800Y-103378000D01*
X96300000Y-102525000D02*
X96300000Y-101921600D01*
X91375000Y-112150000D02*
X91375000Y-105525800D01*
X91235129Y-103378000D02*
X90938129Y-103675000D01*
X97750000Y-84338800D02*
X96062800Y-82651600D01*
X93522800Y-103378000D02*
X91235129Y-103378000D01*
X97750000Y-100471600D02*
X97750000Y-89483371D01*
X96062800Y-82651600D02*
X96062800Y-81127600D01*
X93522800Y-103378000D02*
X95447000Y-103378000D01*
X89075000Y-114450000D02*
X91375000Y-112150000D01*
X97750000Y-89483371D02*
X97625000Y-89358371D01*
X97750000Y-88570629D02*
X97750000Y-84338800D01*
X75438000Y-98450400D02*
X75438000Y-100330000D01*
X97625000Y-89358371D02*
X97625000Y-88695629D01*
%TO.N,VDD*%
X86175000Y-71175000D02*
X84700000Y-69700000D01*
X94775000Y-68245000D02*
X94655000Y-68245000D01*
X94655000Y-68245000D02*
X92475000Y-70425000D01*
X84700000Y-69700000D02*
X84700000Y-68700000D01*
X86175000Y-71175000D02*
X91725000Y-71175000D01*
X83187500Y-71175000D02*
X86175000Y-71175000D01*
X91725000Y-71175000D02*
X92475000Y-70425000D01*
X82300000Y-70287500D02*
X83187500Y-71175000D01*
%TO.N,GPIO25*%
X72700000Y-97025000D02*
X69825000Y-99900000D01*
X85875000Y-94600000D02*
X83450000Y-97025000D01*
X85875000Y-81175000D02*
X85875000Y-94600000D01*
X69825000Y-99900000D02*
X69925000Y-115400000D01*
X103275000Y-126600000D02*
X103275000Y-127050000D01*
X76225000Y-130375000D02*
X75225000Y-129375000D01*
X83450000Y-97025000D02*
X72700000Y-97025000D01*
X69925000Y-116575000D02*
X71850000Y-118225000D01*
X99950000Y-130375000D02*
X76225000Y-130375000D01*
X103275000Y-127050000D02*
X99950000Y-130375000D01*
X69925000Y-115400000D02*
X69925000Y-116575000D01*
%TO.N,GPIO27*%
X68625000Y-116475000D02*
X68625000Y-115700000D01*
X72216695Y-88429000D02*
X71792000Y-88853695D01*
X71450000Y-95900000D02*
X68625000Y-98725000D01*
X72226000Y-88429000D02*
X72216695Y-88429000D01*
X76800000Y-128375000D02*
X69025000Y-120600000D01*
X78105000Y-82550000D02*
X72226000Y-88429000D01*
X82169000Y-82550000D02*
X78105000Y-82550000D01*
D18*
X70425000Y-118650000D02*
X70425000Y-118275000D01*
D17*
X83312000Y-81407000D02*
X82169000Y-82550000D01*
X87200500Y-128375000D02*
X76800000Y-128375000D01*
X71792000Y-88853695D02*
X71792000Y-88863000D01*
X87250000Y-128325500D02*
X87200500Y-128375000D01*
X68625000Y-98725000D02*
X68625000Y-115700000D01*
X71792000Y-88863000D02*
X71450000Y-89205000D01*
X70425000Y-118275000D02*
X68625000Y-116475000D01*
X71450000Y-89205000D02*
X71450000Y-95900000D01*
%TO.N,GPIO21*%
X89300000Y-106625000D02*
X89300000Y-107169000D01*
X87825000Y-108644000D02*
X87825000Y-108675000D01*
X87925000Y-118475000D02*
X93100000Y-118475000D01*
X93125000Y-118450000D02*
X94245000Y-119570000D01*
X87075000Y-109425000D02*
X87075000Y-117625000D01*
X87825000Y-108675000D02*
X87075000Y-109425000D01*
X89300000Y-107169000D02*
X87825000Y-108644000D01*
X94245000Y-119570000D02*
X94245000Y-123075000D01*
X87075000Y-117625000D02*
X87925000Y-118475000D01*
X93100000Y-118475000D02*
X93125000Y-118450000D01*
%TO.N,GPIO23*%
X90514000Y-102489000D02*
X92964000Y-102489000D01*
X95922500Y-99530500D02*
X95922500Y-98633800D01*
X90300000Y-102275000D02*
X90514000Y-102489000D01*
X92964000Y-102489000D02*
X95922500Y-99530500D01*
%TO.N,GPIO12*%
X69875000Y-95950000D02*
X67300000Y-98525000D01*
X67300000Y-98525000D02*
X67300000Y-116700000D01*
X69875000Y-88621000D02*
X69875000Y-95950000D01*
X77343000Y-81153000D02*
X69875000Y-88621000D01*
X87890000Y-124350000D02*
X89165000Y-123075000D01*
X80772000Y-81153000D02*
X77343000Y-81153000D01*
X67300000Y-116700000D02*
X74950000Y-124350000D01*
X74950000Y-124350000D02*
X87890000Y-124350000D01*
%TO.N,GPIO15*%
X66225000Y-96589000D02*
X68326000Y-94488000D01*
X66225000Y-117400000D02*
X66225000Y-96589000D01*
X73150000Y-94234000D02*
X79375000Y-94234000D01*
X79375000Y-94234000D02*
X79502000Y-94361000D01*
%TO.N,GPIO33*%
X85050000Y-119570000D02*
X81545000Y-123075000D01*
X85050000Y-118825000D02*
X85050000Y-119570000D01*
X87503000Y-102616000D02*
X87122000Y-102235000D01*
X87122000Y-102235000D02*
X87122000Y-81153000D01*
%TO.N,GPIO26*%
X64975000Y-93925000D02*
X68700000Y-90200000D01*
X76581371Y-129600000D02*
X64975000Y-117993629D01*
X64975000Y-117993629D02*
X64975000Y-93925000D01*
X77343000Y-79502000D02*
X84582000Y-79502000D01*
X68700000Y-90200000D02*
X68700000Y-88145000D01*
X97325000Y-129600000D02*
X76581371Y-129600000D01*
X98800000Y-128125000D02*
X97325000Y-129600000D01*
X68700000Y-88145000D02*
X77343000Y-79502000D01*
%TO.N,GPIO16*%
X89235000Y-125615000D02*
X89165000Y-125615000D01*
X90415000Y-122090000D02*
X90415000Y-124435000D01*
X90415000Y-124435000D02*
X89235000Y-125615000D01*
X83335800Y-115960800D02*
X84285800Y-115960800D01*
X84285800Y-115960800D02*
X90415000Y-122090000D01*
%TO.N,GPIO32*%
X96725000Y-91264000D02*
X96725000Y-100252000D01*
X96725000Y-100252000D02*
X96647000Y-100330000D01*
X88392000Y-82931000D02*
X96725000Y-91264000D01*
X88392000Y-81153000D02*
X88392000Y-82931000D01*
%TD*%
%TA.AperFunction,Conductor*%
%TO.N,GND*%
G36*
X108513000Y-116440413D02*
G01*
X108558387Y-116485800D01*
X108575000Y-116547800D01*
X108575000Y-130926000D01*
X108558387Y-130988000D01*
X108513000Y-131033387D01*
X108451000Y-131050000D01*
X100565018Y-131050000D01*
X100508723Y-131036485D01*
X100464700Y-130998885D01*
X100442545Y-130945398D01*
X100447087Y-130887682D01*
X100477337Y-130838319D01*
X101640656Y-129675000D01*
X105969880Y-129675000D01*
X105988315Y-129873957D01*
X106042995Y-130066134D01*
X106132054Y-130244991D01*
X106252468Y-130404445D01*
X106400126Y-130539053D01*
X106570008Y-130644239D01*
X106738948Y-130709686D01*
X106756321Y-130716417D01*
X106952726Y-130753131D01*
X107152532Y-130753131D01*
X107152534Y-130753131D01*
X107348939Y-130716417D01*
X107473148Y-130668297D01*
X107535251Y-130644239D01*
X107543377Y-130639208D01*
X107705133Y-130539053D01*
X107852792Y-130404444D01*
X107973203Y-130244994D01*
X107973203Y-130244992D01*
X107973205Y-130244991D01*
X108062264Y-130066134D01*
X108116944Y-129873957D01*
X108119826Y-129842849D01*
X108135380Y-129675000D01*
X108116944Y-129476045D01*
X108116944Y-129476042D01*
X108062264Y-129283865D01*
X107973205Y-129105008D01*
X107852791Y-128945554D01*
X107705133Y-128810946D01*
X107535251Y-128705760D01*
X107348943Y-128633584D01*
X107348940Y-128633583D01*
X107348939Y-128633583D01*
X107152534Y-128596869D01*
X106952726Y-128596869D01*
X106756321Y-128633583D01*
X106756316Y-128633584D01*
X106570008Y-128705760D01*
X106400126Y-128810946D01*
X106252468Y-128945554D01*
X106132054Y-129105008D01*
X106042995Y-129283865D01*
X105988315Y-129476042D01*
X105969880Y-129675000D01*
X101640656Y-129675000D01*
X102039984Y-129275672D01*
X103752731Y-127562924D01*
X103758150Y-127557823D01*
X103803183Y-127517929D01*
X103837355Y-127468420D01*
X103841775Y-127462413D01*
X103878878Y-127415057D01*
X103883035Y-127405819D01*
X103894060Y-127386270D01*
X103899818Y-127377930D01*
X103921152Y-127321673D01*
X103923996Y-127314808D01*
X103948695Y-127259932D01*
X103950522Y-127249958D01*
X103956549Y-127228338D01*
X103960140Y-127218872D01*
X103960191Y-127218450D01*
X103970415Y-127182053D01*
X103991135Y-127150426D01*
X104007533Y-127132216D01*
X104102179Y-126968284D01*
X104160674Y-126788256D01*
X104180460Y-126600000D01*
X104160674Y-126411744D01*
X104111869Y-126261539D01*
X104102179Y-126231715D01*
X104007533Y-126067783D01*
X103880870Y-125927110D01*
X103727730Y-125815848D01*
X103554802Y-125738855D01*
X103369648Y-125699500D01*
X103369646Y-125699500D01*
X103180354Y-125699500D01*
X103180351Y-125699500D01*
X103075280Y-125721833D01*
X103020552Y-125721117D01*
X102971464Y-125696909D01*
X102937579Y-125653926D01*
X102925500Y-125600543D01*
X102925500Y-124224921D01*
X102925726Y-124217434D01*
X102927659Y-124185474D01*
X102929358Y-124157394D01*
X102918507Y-124098185D01*
X102917390Y-124090841D01*
X102910140Y-124031128D01*
X102906547Y-124021656D01*
X102900522Y-124000044D01*
X102898695Y-123990069D01*
X102874009Y-123935220D01*
X102871152Y-123928326D01*
X102849818Y-123872070D01*
X102849816Y-123872068D01*
X102849816Y-123872066D01*
X102844062Y-123863731D01*
X102833033Y-123844177D01*
X102828878Y-123834944D01*
X102791780Y-123787591D01*
X102787352Y-123781573D01*
X102753184Y-123732072D01*
X102741787Y-123721975D01*
X102708153Y-123692178D01*
X102702715Y-123687058D01*
X99361819Y-120346162D01*
X99334939Y-120305934D01*
X99325500Y-120258481D01*
X99325500Y-116547800D01*
X99342113Y-116485800D01*
X99387500Y-116440413D01*
X99449500Y-116423800D01*
X108451000Y-116423800D01*
X108513000Y-116440413D01*
G37*
%TD.AperFunction*%
%TA.AperFunction,Conductor*%
G36*
X98793800Y-63270113D02*
G01*
X98839187Y-63315500D01*
X98855800Y-63377500D01*
X98855800Y-106440781D01*
X98842285Y-106497076D01*
X98804685Y-106541099D01*
X98751198Y-106563254D01*
X98693482Y-106558712D01*
X98644119Y-106528462D01*
X97536819Y-105421162D01*
X97509939Y-105380934D01*
X97500500Y-105333481D01*
X97500500Y-103584965D01*
X97509529Y-103538514D01*
X97535302Y-103498828D01*
X97574064Y-103471686D01*
X97734730Y-103400151D01*
X97887870Y-103288889D01*
X98014533Y-103148216D01*
X98109179Y-102984284D01*
X98132503Y-102912500D01*
X98167674Y-102804256D01*
X98187460Y-102616000D01*
X98167674Y-102427744D01*
X98109179Y-102247716D01*
X98109179Y-102247715D01*
X98014533Y-102083783D01*
X97887870Y-101943110D01*
X97734732Y-101831849D01*
X97676351Y-101805857D01*
X97654383Y-101796076D01*
X97607441Y-101759565D01*
X97582896Y-101705394D01*
X97586398Y-101646026D01*
X97617137Y-101595118D01*
X98227731Y-100984524D01*
X98233150Y-100979423D01*
X98278183Y-100939529D01*
X98312377Y-100889989D01*
X98316770Y-100884019D01*
X98353878Y-100836656D01*
X98358035Y-100827418D01*
X98369061Y-100807868D01*
X98374818Y-100799530D01*
X98396152Y-100743274D01*
X98398994Y-100736411D01*
X98423695Y-100681531D01*
X98425522Y-100671556D01*
X98431549Y-100649939D01*
X98435140Y-100640472D01*
X98442387Y-100580779D01*
X98443514Y-100573377D01*
X98449643Y-100539932D01*
X98454358Y-100514206D01*
X98450726Y-100454166D01*
X98450500Y-100446679D01*
X98450500Y-89508292D01*
X98450726Y-89500805D01*
X98452738Y-89467543D01*
X98454358Y-89440765D01*
X98443507Y-89381556D01*
X98442390Y-89374212D01*
X98435140Y-89314499D01*
X98431547Y-89305027D01*
X98425522Y-89283415D01*
X98423695Y-89273440D01*
X98399009Y-89218591D01*
X98396152Y-89211697D01*
X98374818Y-89155441D01*
X98374816Y-89155439D01*
X98374816Y-89155437D01*
X98369062Y-89147102D01*
X98358032Y-89127546D01*
X98353878Y-89118315D01*
X98351890Y-89115778D01*
X98332283Y-89079753D01*
X98325500Y-89039303D01*
X98325500Y-89014697D01*
X98332282Y-88974249D01*
X98351888Y-88938226D01*
X98353005Y-88936799D01*
X98353878Y-88935685D01*
X98358035Y-88926447D01*
X98369061Y-88906897D01*
X98374818Y-88898559D01*
X98396152Y-88842303D01*
X98398994Y-88835440D01*
X98423695Y-88780560D01*
X98425522Y-88770585D01*
X98431549Y-88748968D01*
X98435140Y-88739501D01*
X98442387Y-88679808D01*
X98443514Y-88672406D01*
X98447066Y-88653023D01*
X98454358Y-88613235D01*
X98450726Y-88553195D01*
X98450500Y-88545708D01*
X98450500Y-84363710D01*
X98450726Y-84356223D01*
X98450793Y-84355103D01*
X98454357Y-84296194D01*
X98443509Y-84237001D01*
X98442392Y-84229656D01*
X98435140Y-84169928D01*
X98431546Y-84160452D01*
X98425520Y-84138836D01*
X98423694Y-84128868D01*
X98398997Y-84073995D01*
X98396155Y-84067134D01*
X98374818Y-84010870D01*
X98369058Y-84002526D01*
X98358039Y-83982990D01*
X98353878Y-83973743D01*
X98347365Y-83965430D01*
X98316785Y-83926396D01*
X98312354Y-83920377D01*
X98278183Y-83870871D01*
X98233153Y-83830978D01*
X98227715Y-83825858D01*
X96799619Y-82397762D01*
X96772739Y-82357534D01*
X96763300Y-82310081D01*
X96763300Y-81742992D01*
X96771536Y-81698555D01*
X96795150Y-81660020D01*
X96795333Y-81659816D01*
X96889979Y-81495884D01*
X96908500Y-81438882D01*
X96948474Y-81315856D01*
X96968260Y-81127600D01*
X96948474Y-80939344D01*
X96889979Y-80759316D01*
X96889979Y-80759315D01*
X96795333Y-80595383D01*
X96668670Y-80454710D01*
X96515530Y-80343448D01*
X96342602Y-80266455D01*
X96157448Y-80227100D01*
X96157446Y-80227100D01*
X95968154Y-80227100D01*
X95968152Y-80227100D01*
X95782997Y-80266455D01*
X95610069Y-80343448D01*
X95456929Y-80454710D01*
X95330266Y-80595383D01*
X95235620Y-80759315D01*
X95177126Y-80939342D01*
X95174456Y-80964744D01*
X95157340Y-81127600D01*
X95160010Y-81153000D01*
X95177126Y-81315857D01*
X95235620Y-81495884D01*
X95330266Y-81659816D01*
X95330450Y-81660020D01*
X95354064Y-81698555D01*
X95362300Y-81742992D01*
X95362300Y-82626679D01*
X95362074Y-82634166D01*
X95358441Y-82694207D01*
X95369283Y-82753371D01*
X95370410Y-82760772D01*
X95377660Y-82820473D01*
X95381250Y-82829939D01*
X95387275Y-82851552D01*
X95389103Y-82861529D01*
X95413791Y-82916383D01*
X95416656Y-82923301D01*
X95437980Y-82979526D01*
X95437982Y-82979530D01*
X95443741Y-82987873D01*
X95454761Y-83007413D01*
X95458920Y-83016654D01*
X95458921Y-83016655D01*
X95458922Y-83016657D01*
X95471860Y-83033171D01*
X95496016Y-83064005D01*
X95500451Y-83070032D01*
X95534617Y-83119529D01*
X95579647Y-83159422D01*
X95585083Y-83164540D01*
X97013181Y-84592638D01*
X97040061Y-84632866D01*
X97049500Y-84680319D01*
X97049500Y-88251560D01*
X97042717Y-88292010D01*
X97023110Y-88328034D01*
X97021122Y-88330571D01*
X97016963Y-88339812D01*
X97005939Y-88359357D01*
X97000182Y-88367697D01*
X96978853Y-88423934D01*
X96975989Y-88430848D01*
X96951303Y-88485699D01*
X96949475Y-88495676D01*
X96943454Y-88517277D01*
X96939859Y-88526757D01*
X96932609Y-88586456D01*
X96931483Y-88593855D01*
X96920641Y-88653020D01*
X96924274Y-88713063D01*
X96924500Y-88720550D01*
X96924500Y-89333450D01*
X96924274Y-89340937D01*
X96920641Y-89400978D01*
X96931483Y-89460142D01*
X96932610Y-89467543D01*
X96939860Y-89527244D01*
X96943450Y-89536710D01*
X96949475Y-89558323D01*
X96951303Y-89568300D01*
X96975991Y-89623154D01*
X96978856Y-89630072D01*
X97000180Y-89686297D01*
X97000182Y-89686301D01*
X97005941Y-89694644D01*
X97016961Y-89714184D01*
X97021120Y-89723425D01*
X97023110Y-89725965D01*
X97042717Y-89761989D01*
X97049500Y-89802439D01*
X97049500Y-90298482D01*
X97035985Y-90354777D01*
X96998385Y-90398800D01*
X96944898Y-90420955D01*
X96887182Y-90416413D01*
X96837819Y-90386163D01*
X93034396Y-86582740D01*
X89128819Y-82677162D01*
X89101939Y-82636934D01*
X89092500Y-82589481D01*
X89092500Y-81768392D01*
X89100736Y-81723955D01*
X89124350Y-81685420D01*
X89124533Y-81685216D01*
X89219179Y-81521284D01*
X89245953Y-81438882D01*
X89277674Y-81341256D01*
X89297460Y-81153000D01*
X89277674Y-80964744D01*
X89247332Y-80871363D01*
X89219179Y-80784715D01*
X89124533Y-80620783D01*
X88997870Y-80480110D01*
X88844730Y-80368848D01*
X88671802Y-80291855D01*
X88486648Y-80252500D01*
X88486646Y-80252500D01*
X88297354Y-80252500D01*
X88297352Y-80252500D01*
X88112197Y-80291855D01*
X87939269Y-80368848D01*
X87829885Y-80448320D01*
X87782781Y-80469292D01*
X87731219Y-80469292D01*
X87684115Y-80448320D01*
X87574730Y-80368848D01*
X87401802Y-80291855D01*
X87216648Y-80252500D01*
X87216646Y-80252500D01*
X87027354Y-80252500D01*
X87027352Y-80252500D01*
X86842197Y-80291855D01*
X86669272Y-80368846D01*
X86556244Y-80450966D01*
X86509140Y-80471937D01*
X86457578Y-80471937D01*
X86410474Y-80450965D01*
X86327730Y-80390848D01*
X86154802Y-80313855D01*
X85969648Y-80274500D01*
X85969646Y-80274500D01*
X85780354Y-80274500D01*
X85780352Y-80274500D01*
X85595197Y-80313855D01*
X85422269Y-80390848D01*
X85269129Y-80502110D01*
X85142466Y-80642783D01*
X85047820Y-80806715D01*
X84989326Y-80986742D01*
X84969540Y-81175000D01*
X84989326Y-81363257D01*
X85047820Y-81543284D01*
X85142466Y-81707216D01*
X85142650Y-81707420D01*
X85166264Y-81745955D01*
X85174500Y-81790392D01*
X85174500Y-94258481D01*
X85165061Y-94305934D01*
X85138181Y-94346162D01*
X83196162Y-96288181D01*
X83155934Y-96315061D01*
X83108481Y-96324500D01*
X72724921Y-96324500D01*
X72717434Y-96324274D01*
X72657391Y-96320641D01*
X72598226Y-96331483D01*
X72590827Y-96332609D01*
X72531128Y-96339859D01*
X72521648Y-96343454D01*
X72500047Y-96349475D01*
X72490070Y-96351303D01*
X72435219Y-96375989D01*
X72428305Y-96378853D01*
X72372069Y-96400182D01*
X72363725Y-96405941D01*
X72344186Y-96416961D01*
X72334942Y-96421121D01*
X72287597Y-96458213D01*
X72281568Y-96462649D01*
X72232070Y-96496816D01*
X72192183Y-96541838D01*
X72187051Y-96547290D01*
X69537181Y-99197161D01*
X69487818Y-99227411D01*
X69430102Y-99231953D01*
X69376615Y-99209798D01*
X69339015Y-99165775D01*
X69325500Y-99109480D01*
X69325500Y-99066519D01*
X69334939Y-99019066D01*
X69361819Y-98978838D01*
X69895115Y-98445542D01*
X71927731Y-96412924D01*
X71933151Y-96407822D01*
X71978183Y-96367929D01*
X72012358Y-96318416D01*
X72016779Y-96312407D01*
X72053877Y-96265057D01*
X72058033Y-96255820D01*
X72069058Y-96236273D01*
X72074818Y-96227930D01*
X72096154Y-96171668D01*
X72099014Y-96164766D01*
X72104781Y-96151954D01*
X72123694Y-96109932D01*
X72125519Y-96099970D01*
X72131545Y-96078348D01*
X72135140Y-96068872D01*
X72142389Y-96009165D01*
X72143516Y-96001762D01*
X72154357Y-95942606D01*
X72150726Y-95882577D01*
X72150500Y-95875090D01*
X72150500Y-94766590D01*
X72167113Y-94704590D01*
X72212500Y-94659203D01*
X72274500Y-94642590D01*
X72336500Y-94659203D01*
X72381887Y-94704590D01*
X72417466Y-94766216D01*
X72544129Y-94906889D01*
X72697269Y-95018151D01*
X72870197Y-95095144D01*
X73055352Y-95134500D01*
X73055354Y-95134500D01*
X73244646Y-95134500D01*
X73244648Y-95134500D01*
X73368084Y-95108262D01*
X73429803Y-95095144D01*
X73602730Y-95018151D01*
X73685271Y-94958181D01*
X73719838Y-94940569D01*
X73758156Y-94934500D01*
X78751430Y-94934500D01*
X78801865Y-94945220D01*
X78843579Y-94975527D01*
X78896129Y-95033888D01*
X79049269Y-95145151D01*
X79222197Y-95222144D01*
X79407352Y-95261500D01*
X79407354Y-95261500D01*
X79596646Y-95261500D01*
X79596648Y-95261500D01*
X79720083Y-95235262D01*
X79781803Y-95222144D01*
X79954730Y-95145151D01*
X80014965Y-95101388D01*
X80107870Y-95033889D01*
X80234533Y-94893216D01*
X80329179Y-94729284D01*
X80351950Y-94659203D01*
X80387674Y-94549256D01*
X80407460Y-94361000D01*
X80387674Y-94172744D01*
X80329179Y-93992716D01*
X80329179Y-93992715D01*
X80234533Y-93828783D01*
X80107870Y-93688110D01*
X79954730Y-93576848D01*
X79781802Y-93499855D01*
X79596648Y-93460500D01*
X79596646Y-93460500D01*
X79407354Y-93460500D01*
X79407352Y-93460500D01*
X79222197Y-93499855D01*
X79170711Y-93522779D01*
X79120275Y-93533500D01*
X73758156Y-93533500D01*
X73719838Y-93527431D01*
X73685270Y-93509818D01*
X73671558Y-93499856D01*
X73602730Y-93449849D01*
X73602729Y-93449848D01*
X73602727Y-93449847D01*
X73429802Y-93372855D01*
X73244648Y-93333500D01*
X73244646Y-93333500D01*
X73055354Y-93333500D01*
X73055352Y-93333500D01*
X72870197Y-93372855D01*
X72697269Y-93449848D01*
X72544129Y-93561110D01*
X72417466Y-93701783D01*
X72381887Y-93763410D01*
X72336500Y-93808797D01*
X72274500Y-93825410D01*
X72212500Y-93808797D01*
X72167113Y-93763410D01*
X72150500Y-93701410D01*
X72150500Y-89546520D01*
X72159939Y-89499068D01*
X72186818Y-89458840D01*
X72269722Y-89375934D01*
X72275159Y-89370815D01*
X72320183Y-89330929D01*
X72346682Y-89292536D01*
X72361036Y-89275314D01*
X72638314Y-88998036D01*
X72655536Y-88983682D01*
X72693929Y-88957183D01*
X72733822Y-88912151D01*
X72738924Y-88906731D01*
X78358837Y-83286819D01*
X78399065Y-83259939D01*
X78446518Y-83250500D01*
X82144079Y-83250500D01*
X82151566Y-83250726D01*
X82154706Y-83250915D01*
X82211606Y-83254358D01*
X82270782Y-83243513D01*
X82278181Y-83242387D01*
X82337872Y-83235140D01*
X82347335Y-83231550D01*
X82368958Y-83225522D01*
X82378932Y-83223695D01*
X82433808Y-83198996D01*
X82440673Y-83196152D01*
X82496930Y-83174818D01*
X82505270Y-83169060D01*
X82524819Y-83158035D01*
X82534057Y-83153878D01*
X82581413Y-83116775D01*
X82587420Y-83112355D01*
X82636929Y-83078183D01*
X82676823Y-83033150D01*
X82681924Y-83027731D01*
X83374975Y-82334681D01*
X83403486Y-82313391D01*
X83436872Y-82301075D01*
X83591803Y-82268144D01*
X83764730Y-82191151D01*
X83800917Y-82164860D01*
X83917870Y-82079889D01*
X83927097Y-82069642D01*
X84044533Y-81939216D01*
X84139179Y-81775284D01*
X84197674Y-81595256D01*
X84217460Y-81407000D01*
X84197674Y-81218744D01*
X84139179Y-81038716D01*
X84139179Y-81038715D01*
X84044533Y-80874783D01*
X83917870Y-80734110D01*
X83764730Y-80622848D01*
X83591802Y-80545855D01*
X83406648Y-80506500D01*
X83406646Y-80506500D01*
X83217354Y-80506500D01*
X83217352Y-80506500D01*
X83032197Y-80545855D01*
X82859269Y-80622848D01*
X82706129Y-80734110D01*
X82579466Y-80874783D01*
X82484820Y-81038715D01*
X82426325Y-81218746D01*
X82421134Y-81268129D01*
X82409734Y-81308549D01*
X82385495Y-81342846D01*
X81915162Y-81813181D01*
X81874934Y-81840061D01*
X81827481Y-81849500D01*
X81624458Y-81849500D01*
X81562458Y-81832887D01*
X81517071Y-81787500D01*
X81500458Y-81725500D01*
X81517071Y-81663500D01*
X81599179Y-81521284D01*
X81625953Y-81438882D01*
X81657674Y-81341256D01*
X81677460Y-81153000D01*
X81657674Y-80964744D01*
X81627332Y-80871363D01*
X81599179Y-80784715D01*
X81504533Y-80620783D01*
X81377870Y-80480110D01*
X81304519Y-80426818D01*
X81265205Y-80379297D01*
X81253649Y-80318714D01*
X81272707Y-80260057D01*
X81317667Y-80217838D01*
X81377404Y-80202500D01*
X83973844Y-80202500D01*
X84012162Y-80208569D01*
X84046728Y-80226181D01*
X84129270Y-80286151D01*
X84129271Y-80286151D01*
X84129272Y-80286152D01*
X84302197Y-80363144D01*
X84487352Y-80402500D01*
X84487354Y-80402500D01*
X84676646Y-80402500D01*
X84676648Y-80402500D01*
X84800084Y-80376262D01*
X84861803Y-80363144D01*
X85034730Y-80286151D01*
X85070643Y-80260059D01*
X85187870Y-80174889D01*
X85314533Y-80034216D01*
X85409179Y-79870284D01*
X85455933Y-79726390D01*
X85467674Y-79690256D01*
X85487460Y-79502000D01*
X85467674Y-79313744D01*
X85409179Y-79133716D01*
X85409179Y-79133715D01*
X85314533Y-78969783D01*
X85187870Y-78829110D01*
X85034730Y-78717848D01*
X84861802Y-78640855D01*
X84676648Y-78601500D01*
X84676646Y-78601500D01*
X84487354Y-78601500D01*
X84487352Y-78601500D01*
X84302197Y-78640855D01*
X84129272Y-78717847D01*
X84046730Y-78777818D01*
X84012162Y-78795431D01*
X83973844Y-78801500D01*
X77367921Y-78801500D01*
X77360434Y-78801274D01*
X77300391Y-78797641D01*
X77241227Y-78808483D01*
X77233828Y-78809610D01*
X77174124Y-78816860D01*
X77164651Y-78820453D01*
X77143047Y-78826476D01*
X77133069Y-78828305D01*
X77078225Y-78852987D01*
X77071310Y-78855851D01*
X77015070Y-78877181D01*
X77006723Y-78882943D01*
X76987187Y-78893961D01*
X76977944Y-78898121D01*
X76930608Y-78935205D01*
X76924582Y-78939639D01*
X76875072Y-78973816D01*
X76835184Y-79018838D01*
X76830052Y-79024289D01*
X68222290Y-87632051D01*
X68216838Y-87637183D01*
X68171816Y-87677070D01*
X68137649Y-87726568D01*
X68133213Y-87732597D01*
X68096121Y-87779942D01*
X68091961Y-87789186D01*
X68080941Y-87808725D01*
X68075182Y-87817069D01*
X68053853Y-87873305D01*
X68050989Y-87880219D01*
X68026303Y-87935070D01*
X68024475Y-87945047D01*
X68018454Y-87966648D01*
X68014859Y-87976128D01*
X68007609Y-88035827D01*
X68006483Y-88043226D01*
X67995641Y-88102391D01*
X67999274Y-88162434D01*
X67999500Y-88169921D01*
X67999500Y-89858482D01*
X67990061Y-89905935D01*
X67963181Y-89946163D01*
X65294306Y-92615036D01*
X65235073Y-92648048D01*
X65167333Y-92644965D01*
X65111343Y-92606711D01*
X65083848Y-92544724D01*
X65093070Y-92477544D01*
X65099061Y-92463885D01*
X65099063Y-92463881D01*
X65160108Y-92222821D01*
X65180643Y-91975000D01*
X65160108Y-91727179D01*
X65099063Y-91486119D01*
X64999173Y-91258393D01*
X64863164Y-91050215D01*
X64694744Y-90867262D01*
X64630500Y-90817259D01*
X64498514Y-90714529D01*
X64498510Y-90714526D01*
X64498509Y-90714526D01*
X64279810Y-90596172D01*
X64279806Y-90596170D01*
X64279805Y-90596170D01*
X64044615Y-90515429D01*
X63799335Y-90474500D01*
X63550665Y-90474500D01*
X63305384Y-90515429D01*
X63070194Y-90596170D01*
X63070190Y-90596171D01*
X63070190Y-90596172D01*
X63066892Y-90597957D01*
X62851485Y-90714529D01*
X62655259Y-90867259D01*
X62486837Y-91050214D01*
X62350825Y-91258395D01*
X62272870Y-91436117D01*
X62250937Y-91486119D01*
X62242905Y-91517837D01*
X62189891Y-91727183D01*
X62169356Y-91975000D01*
X62189891Y-92222816D01*
X62189891Y-92222819D01*
X62189892Y-92222821D01*
X62250937Y-92463881D01*
X62286398Y-92544724D01*
X62350825Y-92691604D01*
X62350827Y-92691607D01*
X62486836Y-92899785D01*
X62655256Y-93082738D01*
X62655259Y-93082740D01*
X62851485Y-93235470D01*
X62851487Y-93235471D01*
X62851491Y-93235474D01*
X63070190Y-93353828D01*
X63305386Y-93434571D01*
X63550665Y-93475500D01*
X63799335Y-93475500D01*
X64044614Y-93434571D01*
X64229364Y-93371145D01*
X64292131Y-93366486D01*
X64349101Y-93393244D01*
X64385595Y-93444524D01*
X64392211Y-93507116D01*
X64375636Y-93545470D01*
X64377299Y-93546219D01*
X64366961Y-93569186D01*
X64355941Y-93588725D01*
X64350182Y-93597069D01*
X64328853Y-93653305D01*
X64325989Y-93660219D01*
X64301303Y-93715070D01*
X64299475Y-93725047D01*
X64293454Y-93746648D01*
X64289859Y-93756128D01*
X64282609Y-93815827D01*
X64281483Y-93823226D01*
X64270641Y-93882391D01*
X64274274Y-93942434D01*
X64274500Y-93949921D01*
X64274500Y-117968708D01*
X64274274Y-117976195D01*
X64270641Y-118036236D01*
X64281483Y-118095400D01*
X64282610Y-118102801D01*
X64289860Y-118162502D01*
X64293450Y-118171968D01*
X64299475Y-118193581D01*
X64301303Y-118203558D01*
X64325991Y-118258412D01*
X64328856Y-118265330D01*
X64342195Y-118300500D01*
X64350182Y-118321559D01*
X64355941Y-118329902D01*
X64366961Y-118349442D01*
X64371120Y-118358683D01*
X64408216Y-118406034D01*
X64412654Y-118412065D01*
X64443474Y-118456716D01*
X64446817Y-118461558D01*
X64491847Y-118501451D01*
X64497283Y-118506569D01*
X74570839Y-128580125D01*
X74602354Y-128633627D01*
X74603980Y-128695699D01*
X74575308Y-128750778D01*
X74492466Y-128842783D01*
X74397820Y-129006715D01*
X74339326Y-129186742D01*
X74319540Y-129374999D01*
X74339326Y-129563257D01*
X74397820Y-129743284D01*
X74492466Y-129907216D01*
X74619129Y-130047889D01*
X74772269Y-130159151D01*
X74945197Y-130236144D01*
X75100126Y-130269075D01*
X75133513Y-130281391D01*
X75162027Y-130302684D01*
X75697663Y-130838319D01*
X75727913Y-130887682D01*
X75732455Y-130945398D01*
X75710300Y-130998885D01*
X75666277Y-131036485D01*
X75609982Y-131050000D01*
X45599000Y-131050000D01*
X45537000Y-131033387D01*
X45491613Y-130988000D01*
X45475000Y-130926000D01*
X45475000Y-129474630D01*
X46034250Y-129474630D01*
X46052685Y-129673587D01*
X46107365Y-129865764D01*
X46196424Y-130044621D01*
X46316838Y-130204075D01*
X46464496Y-130338683D01*
X46634378Y-130443869D01*
X46803318Y-130509316D01*
X46820691Y-130516047D01*
X47017096Y-130552761D01*
X47216902Y-130552761D01*
X47216904Y-130552761D01*
X47413309Y-130516047D01*
X47537518Y-130467927D01*
X47599621Y-130443869D01*
X47607747Y-130438838D01*
X47769503Y-130338683D01*
X47917162Y-130204074D01*
X48037573Y-130044624D01*
X48037573Y-130044622D01*
X48037575Y-130044621D01*
X48126634Y-129865764D01*
X48181314Y-129673587D01*
X48191537Y-129563257D01*
X48199750Y-129474630D01*
X48181314Y-129275675D01*
X48181314Y-129275672D01*
X48126634Y-129083495D01*
X48037575Y-128904638D01*
X47917161Y-128745184D01*
X47769503Y-128610576D01*
X47599621Y-128505390D01*
X47413313Y-128433214D01*
X47413310Y-128433213D01*
X47413309Y-128433213D01*
X47216904Y-128396499D01*
X47017096Y-128396499D01*
X46855988Y-128426615D01*
X46820686Y-128433214D01*
X46634378Y-128505390D01*
X46464496Y-128610576D01*
X46316838Y-128745184D01*
X46196424Y-128904638D01*
X46107365Y-129083495D01*
X46052685Y-129275672D01*
X46034250Y-129474630D01*
X45475000Y-129474630D01*
X45475000Y-124148610D01*
X48879942Y-124148610D01*
X48926766Y-124185055D01*
X49145393Y-124303368D01*
X49380506Y-124384083D01*
X49625707Y-124425000D01*
X49874293Y-124425000D01*
X50119493Y-124384083D01*
X50354606Y-124303368D01*
X50573233Y-124185053D01*
X50620056Y-124148609D01*
X49750000Y-123278553D01*
X48879942Y-124148609D01*
X48879942Y-124148610D01*
X45475000Y-124148610D01*
X45475000Y-122924999D01*
X48244858Y-122924999D01*
X48265386Y-123172732D01*
X48326413Y-123413721D01*
X48426268Y-123641370D01*
X48526563Y-123794882D01*
X48526564Y-123794882D01*
X49396447Y-122925001D01*
X50103553Y-122925001D01*
X50973434Y-123794882D01*
X51073730Y-123641369D01*
X51173586Y-123413721D01*
X51234613Y-123172732D01*
X51255141Y-122924999D01*
X52744356Y-122924999D01*
X52764891Y-123172816D01*
X52764891Y-123172819D01*
X52764892Y-123172821D01*
X52825937Y-123413881D01*
X52860820Y-123493406D01*
X52925825Y-123641604D01*
X52925827Y-123641607D01*
X53061836Y-123849785D01*
X53230256Y-124032738D01*
X53295667Y-124083649D01*
X53426485Y-124185470D01*
X53426487Y-124185471D01*
X53426491Y-124185474D01*
X53645190Y-124303828D01*
X53880386Y-124384571D01*
X54125665Y-124425500D01*
X54374335Y-124425500D01*
X54619614Y-124384571D01*
X54854810Y-124303828D01*
X55073509Y-124185474D01*
X55269744Y-124032738D01*
X55438164Y-123849785D01*
X55574173Y-123641607D01*
X55674063Y-123413881D01*
X55735108Y-123172821D01*
X55755643Y-122925000D01*
X55735108Y-122677179D01*
X55674063Y-122436119D01*
X55574173Y-122208393D01*
X55438164Y-122000215D01*
X55269744Y-121817262D01*
X55199990Y-121762970D01*
X55073514Y-121664529D01*
X55073510Y-121664526D01*
X55073509Y-121664526D01*
X54854810Y-121546172D01*
X54854806Y-121546170D01*
X54854805Y-121546170D01*
X54619615Y-121465429D01*
X54374335Y-121424500D01*
X54125665Y-121424500D01*
X53880384Y-121465429D01*
X53645194Y-121546170D01*
X53645190Y-121546171D01*
X53645190Y-121546172D01*
X53589025Y-121576567D01*
X53426485Y-121664529D01*
X53230259Y-121817259D01*
X53230256Y-121817261D01*
X53230256Y-121817262D01*
X53168660Y-121884173D01*
X53061837Y-122000214D01*
X52925825Y-122208395D01*
X52825938Y-122436117D01*
X52764891Y-122677183D01*
X52744356Y-122924999D01*
X51255141Y-122924999D01*
X51234613Y-122677267D01*
X51173586Y-122436278D01*
X51073730Y-122208630D01*
X50973434Y-122055116D01*
X50103553Y-122925000D01*
X50103553Y-122925001D01*
X49396447Y-122925001D01*
X49396447Y-122925000D01*
X48526564Y-122055116D01*
X48426266Y-122208634D01*
X48326413Y-122436278D01*
X48265386Y-122677267D01*
X48244858Y-122924999D01*
X45475000Y-122924999D01*
X45475000Y-121701390D01*
X48879942Y-121701390D01*
X49750000Y-122571447D01*
X49750001Y-122571447D01*
X50620057Y-121701390D01*
X50620056Y-121701388D01*
X50573235Y-121664947D01*
X50354606Y-121546631D01*
X50119493Y-121465916D01*
X49874293Y-121425000D01*
X49625707Y-121425000D01*
X49380506Y-121465916D01*
X49145393Y-121546631D01*
X48926764Y-121664946D01*
X48879942Y-121701388D01*
X48879942Y-121701390D01*
X45475000Y-121701390D01*
X45475000Y-117648610D01*
X48879942Y-117648610D01*
X48926766Y-117685055D01*
X49145393Y-117803368D01*
X49380506Y-117884083D01*
X49625707Y-117925000D01*
X49874293Y-117925000D01*
X50119493Y-117884083D01*
X50354606Y-117803368D01*
X50573233Y-117685053D01*
X50620056Y-117648609D01*
X49750000Y-116778553D01*
X48879942Y-117648609D01*
X48879942Y-117648610D01*
X45475000Y-117648610D01*
X45475000Y-116424999D01*
X48244858Y-116424999D01*
X48265386Y-116672732D01*
X48326413Y-116913721D01*
X48426268Y-117141370D01*
X48526563Y-117294882D01*
X48526564Y-117294882D01*
X49396447Y-116425001D01*
X50103553Y-116425001D01*
X50973434Y-117294882D01*
X51073730Y-117141369D01*
X51173586Y-116913721D01*
X51234613Y-116672732D01*
X51255141Y-116425000D01*
X52744356Y-116425000D01*
X52764891Y-116672816D01*
X52764891Y-116672819D01*
X52764892Y-116672821D01*
X52825937Y-116913881D01*
X52870960Y-117016523D01*
X52925825Y-117141604D01*
X52925827Y-117141607D01*
X53061836Y-117349785D01*
X53230256Y-117532738D01*
X53253077Y-117550500D01*
X53426485Y-117685470D01*
X53426487Y-117685471D01*
X53426491Y-117685474D01*
X53645190Y-117803828D01*
X53880386Y-117884571D01*
X54125665Y-117925500D01*
X54374335Y-117925500D01*
X54619614Y-117884571D01*
X54854810Y-117803828D01*
X55073509Y-117685474D01*
X55269744Y-117532738D01*
X55438164Y-117349785D01*
X55574173Y-117141607D01*
X55674063Y-116913881D01*
X55735108Y-116672821D01*
X55755643Y-116425000D01*
X55735108Y-116177179D01*
X55674063Y-115936119D01*
X55574173Y-115708393D01*
X55438164Y-115500215D01*
X55269744Y-115317262D01*
X55205531Y-115267283D01*
X55073514Y-115164529D01*
X55073510Y-115164526D01*
X55073509Y-115164526D01*
X54854810Y-115046172D01*
X54854806Y-115046170D01*
X54854805Y-115046170D01*
X54619615Y-114965429D01*
X54374335Y-114924500D01*
X54125665Y-114924500D01*
X53880384Y-114965429D01*
X53645194Y-115046170D01*
X53426485Y-115164529D01*
X53230259Y-115317259D01*
X53230256Y-115317261D01*
X53230256Y-115317262D01*
X53061836Y-115500215D01*
X53027334Y-115553025D01*
X52925825Y-115708395D01*
X52835780Y-115913678D01*
X52825937Y-115936119D01*
X52764892Y-116177179D01*
X52764891Y-116177183D01*
X52744356Y-116425000D01*
X51255141Y-116425000D01*
X51255141Y-116424999D01*
X51234613Y-116177267D01*
X51173586Y-115936278D01*
X51073730Y-115708630D01*
X50973434Y-115555116D01*
X50103553Y-116425000D01*
X50103553Y-116425001D01*
X49396447Y-116425001D01*
X49396447Y-116425000D01*
X48526564Y-115555116D01*
X48426266Y-115708634D01*
X48326413Y-115936278D01*
X48265386Y-116177267D01*
X48244858Y-116424999D01*
X45475000Y-116424999D01*
X45475000Y-115201390D01*
X48879942Y-115201390D01*
X49750000Y-116071447D01*
X49750001Y-116071447D01*
X50620057Y-115201390D01*
X50620056Y-115201388D01*
X50573235Y-115164947D01*
X50354606Y-115046631D01*
X50119493Y-114965916D01*
X49874293Y-114925000D01*
X49625707Y-114925000D01*
X49380506Y-114965916D01*
X49145393Y-115046631D01*
X48926764Y-115164946D01*
X48879942Y-115201388D01*
X48879942Y-115201390D01*
X45475000Y-115201390D01*
X45475000Y-104048610D01*
X48954942Y-104048610D01*
X49001766Y-104085055D01*
X49220393Y-104203368D01*
X49455506Y-104284083D01*
X49700707Y-104325000D01*
X49949293Y-104325000D01*
X50194493Y-104284083D01*
X50429606Y-104203368D01*
X50648233Y-104085053D01*
X50695056Y-104048609D01*
X49825000Y-103178553D01*
X48954942Y-104048609D01*
X48954942Y-104048610D01*
X45475000Y-104048610D01*
X45475000Y-102825000D01*
X48319858Y-102825000D01*
X48340386Y-103072732D01*
X48401413Y-103313721D01*
X48501268Y-103541370D01*
X48601563Y-103694882D01*
X48601564Y-103694882D01*
X49471447Y-102825001D01*
X50178553Y-102825001D01*
X51048434Y-103694882D01*
X51148730Y-103541369D01*
X51248586Y-103313721D01*
X51309613Y-103072732D01*
X51330141Y-102825000D01*
X52819356Y-102825000D01*
X52839891Y-103072816D01*
X52839891Y-103072819D01*
X52839892Y-103072821D01*
X52900937Y-103313881D01*
X52938779Y-103400151D01*
X53000825Y-103541604D01*
X53000827Y-103541607D01*
X53136836Y-103749785D01*
X53305256Y-103932738D01*
X53368390Y-103981877D01*
X53501485Y-104085470D01*
X53501487Y-104085471D01*
X53501491Y-104085474D01*
X53720190Y-104203828D01*
X53955386Y-104284571D01*
X54200665Y-104325500D01*
X54449335Y-104325500D01*
X54694614Y-104284571D01*
X54929810Y-104203828D01*
X55148509Y-104085474D01*
X55344744Y-103932738D01*
X55513164Y-103749785D01*
X55649173Y-103541607D01*
X55749063Y-103313881D01*
X55810108Y-103072821D01*
X55830643Y-102825000D01*
X55810108Y-102577179D01*
X55749063Y-102336119D01*
X55649173Y-102108393D01*
X55513164Y-101900215D01*
X55344744Y-101717262D01*
X55258204Y-101649905D01*
X55148514Y-101564529D01*
X55148510Y-101564526D01*
X55148509Y-101564526D01*
X54929810Y-101446172D01*
X54929806Y-101446170D01*
X54929805Y-101446170D01*
X54694615Y-101365429D01*
X54449335Y-101324500D01*
X54200665Y-101324500D01*
X53955384Y-101365429D01*
X53720194Y-101446170D01*
X53501485Y-101564529D01*
X53305259Y-101717259D01*
X53305256Y-101717261D01*
X53305256Y-101717262D01*
X53136836Y-101900215D01*
X53108811Y-101943111D01*
X53000825Y-102108395D01*
X52939714Y-102247716D01*
X52900937Y-102336119D01*
X52858626Y-102503200D01*
X52839891Y-102577183D01*
X52819356Y-102825000D01*
X51330141Y-102825000D01*
X51309613Y-102577267D01*
X51248586Y-102336278D01*
X51148730Y-102108630D01*
X51048434Y-101955116D01*
X50178553Y-102825000D01*
X50178553Y-102825001D01*
X49471447Y-102825001D01*
X49471447Y-102825000D01*
X48601564Y-101955116D01*
X48501266Y-102108634D01*
X48401413Y-102336278D01*
X48340386Y-102577267D01*
X48319858Y-102825000D01*
X45475000Y-102825000D01*
X45475000Y-101601390D01*
X48954942Y-101601390D01*
X49825000Y-102471447D01*
X49825001Y-102471447D01*
X50695057Y-101601390D01*
X50695056Y-101601388D01*
X50648235Y-101564947D01*
X50429606Y-101446631D01*
X50194493Y-101365916D01*
X49949293Y-101325000D01*
X49700707Y-101325000D01*
X49455506Y-101365916D01*
X49220393Y-101446631D01*
X49001764Y-101564946D01*
X48954942Y-101601388D01*
X48954942Y-101601390D01*
X45475000Y-101601390D01*
X45475000Y-97548610D01*
X48954942Y-97548610D01*
X49001766Y-97585055D01*
X49220393Y-97703368D01*
X49455506Y-97784083D01*
X49700707Y-97825000D01*
X49949293Y-97825000D01*
X50194493Y-97784083D01*
X50429606Y-97703368D01*
X50648233Y-97585053D01*
X50695056Y-97548609D01*
X49825000Y-96678553D01*
X48954942Y-97548609D01*
X48954942Y-97548610D01*
X45475000Y-97548610D01*
X45475000Y-96325000D01*
X48319858Y-96325000D01*
X48340386Y-96572732D01*
X48401413Y-96813721D01*
X48501268Y-97041370D01*
X48601563Y-97194882D01*
X48601564Y-97194882D01*
X49471447Y-96325001D01*
X50178553Y-96325001D01*
X51048434Y-97194882D01*
X51148730Y-97041369D01*
X51248586Y-96813721D01*
X51309613Y-96572732D01*
X51330141Y-96325000D01*
X52819356Y-96325000D01*
X52839891Y-96572816D01*
X52839891Y-96572819D01*
X52839892Y-96572821D01*
X52900937Y-96813881D01*
X52945960Y-96916523D01*
X53000825Y-97041604D01*
X53000827Y-97041607D01*
X53136836Y-97249785D01*
X53305256Y-97432738D01*
X53305259Y-97432740D01*
X53501485Y-97585470D01*
X53501487Y-97585471D01*
X53501491Y-97585474D01*
X53720190Y-97703828D01*
X53955386Y-97784571D01*
X54200665Y-97825500D01*
X54449335Y-97825500D01*
X54694614Y-97784571D01*
X54929810Y-97703828D01*
X55148509Y-97585474D01*
X55344744Y-97432738D01*
X55513164Y-97249785D01*
X55649173Y-97041607D01*
X55749063Y-96813881D01*
X55810108Y-96572821D01*
X55830643Y-96325000D01*
X55810108Y-96077179D01*
X55749063Y-95836119D01*
X55649173Y-95608393D01*
X55513164Y-95400215D01*
X55344744Y-95217262D01*
X55252096Y-95145151D01*
X55148514Y-95064529D01*
X55148510Y-95064526D01*
X55148509Y-95064526D01*
X54929810Y-94946172D01*
X54929806Y-94946170D01*
X54929805Y-94946170D01*
X54694615Y-94865429D01*
X54449335Y-94824500D01*
X54200665Y-94824500D01*
X53955384Y-94865429D01*
X53720194Y-94946170D01*
X53720190Y-94946171D01*
X53720190Y-94946172D01*
X53665947Y-94975527D01*
X53501485Y-95064529D01*
X53305259Y-95217259D01*
X53305256Y-95217261D01*
X53305256Y-95217262D01*
X53142197Y-95394391D01*
X53136837Y-95400214D01*
X53000825Y-95608395D01*
X52923867Y-95783843D01*
X52900937Y-95836119D01*
X52857115Y-96009168D01*
X52839891Y-96077183D01*
X52819356Y-96325000D01*
X51330141Y-96325000D01*
X51309613Y-96077267D01*
X51248586Y-95836278D01*
X51148730Y-95608630D01*
X51048434Y-95455116D01*
X50178553Y-96325000D01*
X50178553Y-96325001D01*
X49471447Y-96325001D01*
X49471447Y-96325000D01*
X48601564Y-95455116D01*
X48501266Y-95608634D01*
X48401413Y-95836278D01*
X48340386Y-96077267D01*
X48319858Y-96325000D01*
X45475000Y-96325000D01*
X45475000Y-95101390D01*
X48954942Y-95101390D01*
X49825000Y-95971447D01*
X49825001Y-95971447D01*
X50695057Y-95101390D01*
X50695056Y-95101388D01*
X50648235Y-95064947D01*
X50429606Y-94946631D01*
X50194493Y-94865916D01*
X49949293Y-94825000D01*
X49700707Y-94825000D01*
X49455506Y-94865916D01*
X49220393Y-94946631D01*
X49001764Y-95064946D01*
X48954942Y-95101388D01*
X48954942Y-95101390D01*
X45475000Y-95101390D01*
X45475000Y-91925000D01*
X48344356Y-91925000D01*
X48364891Y-92172816D01*
X48364891Y-92172819D01*
X48364892Y-92172821D01*
X48425937Y-92413881D01*
X48447871Y-92463885D01*
X48525825Y-92641604D01*
X48525827Y-92641607D01*
X48661836Y-92849785D01*
X48830256Y-93032738D01*
X48895667Y-93083649D01*
X49026485Y-93185470D01*
X49026487Y-93185471D01*
X49026491Y-93185474D01*
X49245190Y-93303828D01*
X49480386Y-93384571D01*
X49725665Y-93425500D01*
X49974335Y-93425500D01*
X50219614Y-93384571D01*
X50454810Y-93303828D01*
X50673509Y-93185474D01*
X50869744Y-93032738D01*
X51038164Y-92849785D01*
X51174173Y-92641607D01*
X51274063Y-92413881D01*
X51335108Y-92172821D01*
X51355643Y-91925000D01*
X52844356Y-91925000D01*
X52864891Y-92172816D01*
X52864891Y-92172819D01*
X52864892Y-92172821D01*
X52925937Y-92413881D01*
X52947871Y-92463885D01*
X53025825Y-92641604D01*
X53025827Y-92641607D01*
X53161836Y-92849785D01*
X53330256Y-93032738D01*
X53395667Y-93083649D01*
X53526485Y-93185470D01*
X53526487Y-93185471D01*
X53526491Y-93185474D01*
X53745190Y-93303828D01*
X53980386Y-93384571D01*
X54225665Y-93425500D01*
X54474335Y-93425500D01*
X54719614Y-93384571D01*
X54954810Y-93303828D01*
X55173509Y-93185474D01*
X55369744Y-93032738D01*
X55538164Y-92849785D01*
X55674173Y-92641607D01*
X55774063Y-92413881D01*
X55835108Y-92172821D01*
X55855643Y-91925000D01*
X55835108Y-91677179D01*
X55774063Y-91436119D01*
X55674173Y-91208393D01*
X55538164Y-91000215D01*
X55369744Y-90817262D01*
X55347612Y-90800036D01*
X55173514Y-90664529D01*
X55173510Y-90664526D01*
X55173509Y-90664526D01*
X54954810Y-90546172D01*
X54954806Y-90546170D01*
X54954805Y-90546170D01*
X54719615Y-90465429D01*
X54474335Y-90424500D01*
X54225665Y-90424500D01*
X53980384Y-90465429D01*
X53745194Y-90546170D01*
X53526485Y-90664529D01*
X53330259Y-90817259D01*
X53330256Y-90817261D01*
X53330256Y-90817262D01*
X53161836Y-91000215D01*
X53116499Y-91069607D01*
X53025825Y-91208395D01*
X52935780Y-91413678D01*
X52925937Y-91436119D01*
X52906297Y-91513677D01*
X52864891Y-91677183D01*
X52844356Y-91925000D01*
X51355643Y-91925000D01*
X51335108Y-91677179D01*
X51274063Y-91436119D01*
X51174173Y-91208393D01*
X51038164Y-91000215D01*
X50869744Y-90817262D01*
X50847612Y-90800036D01*
X50673514Y-90664529D01*
X50673510Y-90664526D01*
X50673509Y-90664526D01*
X50615480Y-90633122D01*
X50567977Y-90587543D01*
X50550500Y-90524069D01*
X50550500Y-86825931D01*
X50567977Y-86762457D01*
X50615480Y-86716877D01*
X50673509Y-86685474D01*
X50869744Y-86532738D01*
X51038164Y-86349785D01*
X51174173Y-86141607D01*
X51274063Y-85913881D01*
X51335108Y-85672821D01*
X51355643Y-85425000D01*
X51335108Y-85177179D01*
X51302567Y-85048683D01*
X51303223Y-84985325D01*
X51335091Y-84930564D01*
X52178837Y-84086819D01*
X52219066Y-84059939D01*
X52266519Y-84050500D01*
X53311792Y-84050500D01*
X53370809Y-84065445D01*
X53415601Y-84106678D01*
X53435368Y-84164260D01*
X53425348Y-84224310D01*
X53387955Y-84272353D01*
X53330256Y-84317261D01*
X53175215Y-84485680D01*
X53161836Y-84500215D01*
X53116499Y-84569607D01*
X53025825Y-84708395D01*
X52935780Y-84913678D01*
X52925937Y-84936119D01*
X52897432Y-85048683D01*
X52864891Y-85177183D01*
X52844356Y-85424999D01*
X52864891Y-85672816D01*
X52864891Y-85672819D01*
X52864892Y-85672821D01*
X52925937Y-85913881D01*
X52970960Y-86016523D01*
X53025825Y-86141604D01*
X53025827Y-86141607D01*
X53161836Y-86349785D01*
X53330256Y-86532738D01*
X53395667Y-86583650D01*
X53526485Y-86685470D01*
X53526487Y-86685471D01*
X53526491Y-86685474D01*
X53745190Y-86803828D01*
X53980386Y-86884571D01*
X54225665Y-86925500D01*
X54474335Y-86925500D01*
X54719614Y-86884571D01*
X54954810Y-86803828D01*
X55173509Y-86685474D01*
X55369744Y-86532738D01*
X55538164Y-86349785D01*
X55674173Y-86141607D01*
X55774063Y-85913881D01*
X55835108Y-85672821D01*
X55855643Y-85425000D01*
X55835108Y-85177179D01*
X55774063Y-84936119D01*
X55674173Y-84708393D01*
X55538164Y-84500215D01*
X55369744Y-84317262D01*
X55312045Y-84272353D01*
X55274652Y-84224310D01*
X55264632Y-84164260D01*
X55284399Y-84106678D01*
X55329191Y-84065445D01*
X55388208Y-84050500D01*
X56250079Y-84050500D01*
X56257566Y-84050726D01*
X56260706Y-84050915D01*
X56317606Y-84054358D01*
X56376782Y-84043513D01*
X56384181Y-84042387D01*
X56443872Y-84035140D01*
X56453335Y-84031550D01*
X56474958Y-84025522D01*
X56484932Y-84023695D01*
X56539808Y-83998996D01*
X56546673Y-83996152D01*
X56602930Y-83974818D01*
X56611270Y-83969060D01*
X56630819Y-83958035D01*
X56640057Y-83953878D01*
X56687413Y-83916775D01*
X56693420Y-83912355D01*
X56742929Y-83878183D01*
X56782823Y-83833149D01*
X56787908Y-83827747D01*
X57028840Y-83586816D01*
X57069066Y-83559939D01*
X57116519Y-83550500D01*
X58365754Y-83550500D01*
X58432029Y-83569697D01*
X58477783Y-83621345D01*
X58488849Y-83689451D01*
X58482609Y-83740828D01*
X58481483Y-83748226D01*
X58470641Y-83807391D01*
X58474274Y-83867434D01*
X58474500Y-83874921D01*
X58474500Y-84074069D01*
X58457023Y-84137543D01*
X58409519Y-84183122D01*
X58368922Y-84205092D01*
X58351485Y-84214529D01*
X58155259Y-84367259D01*
X57986837Y-84550214D01*
X57850825Y-84758395D01*
X57750938Y-84986117D01*
X57689891Y-85227183D01*
X57669356Y-85475000D01*
X57689891Y-85722816D01*
X57689891Y-85722819D01*
X57689892Y-85722821D01*
X57750937Y-85963881D01*
X57795960Y-86066523D01*
X57850825Y-86191604D01*
X57850827Y-86191607D01*
X57986836Y-86399785D01*
X58155256Y-86582738D01*
X58155259Y-86582740D01*
X58351485Y-86735470D01*
X58351487Y-86735471D01*
X58351491Y-86735474D01*
X58409519Y-86766877D01*
X58457023Y-86812457D01*
X58474500Y-86875931D01*
X58474500Y-90574069D01*
X58457023Y-90637543D01*
X58409519Y-90683122D01*
X58368922Y-90705092D01*
X58351485Y-90714529D01*
X58155259Y-90867259D01*
X57986837Y-91050214D01*
X57850825Y-91258395D01*
X57772870Y-91436117D01*
X57750937Y-91486119D01*
X57742905Y-91517837D01*
X57689891Y-91727183D01*
X57669356Y-91975000D01*
X57689891Y-92222816D01*
X57689891Y-92222819D01*
X57689892Y-92222821D01*
X57750937Y-92463881D01*
X57786398Y-92544724D01*
X57850825Y-92691604D01*
X57850827Y-92691607D01*
X57986836Y-92899785D01*
X58155256Y-93082738D01*
X58155259Y-93082740D01*
X58351485Y-93235470D01*
X58351487Y-93235471D01*
X58351491Y-93235474D01*
X58570190Y-93353828D01*
X58805386Y-93434571D01*
X59050665Y-93475500D01*
X59299335Y-93475500D01*
X59544614Y-93434571D01*
X59779810Y-93353828D01*
X59998509Y-93235474D01*
X60194744Y-93082738D01*
X60363164Y-92899785D01*
X60499173Y-92691607D01*
X60599063Y-92463881D01*
X60660108Y-92222821D01*
X60680643Y-91975000D01*
X60660108Y-91727179D01*
X60599063Y-91486119D01*
X60499173Y-91258393D01*
X60363164Y-91050215D01*
X60194744Y-90867262D01*
X60130500Y-90817259D01*
X59998514Y-90714529D01*
X59998510Y-90714526D01*
X59998509Y-90714526D01*
X59940480Y-90683122D01*
X59892977Y-90637543D01*
X59875500Y-90574069D01*
X59875500Y-86875931D01*
X59892977Y-86812457D01*
X59940480Y-86766877D01*
X59998509Y-86735474D01*
X60194744Y-86582738D01*
X60363164Y-86399785D01*
X60499173Y-86191607D01*
X60599063Y-85963881D01*
X60660108Y-85722821D01*
X60680643Y-85475000D01*
X62169356Y-85475000D01*
X62189891Y-85722816D01*
X62189891Y-85722819D01*
X62189892Y-85722821D01*
X62250937Y-85963881D01*
X62295960Y-86066523D01*
X62350825Y-86191604D01*
X62350827Y-86191607D01*
X62486836Y-86399785D01*
X62655256Y-86582738D01*
X62655259Y-86582740D01*
X62851485Y-86735470D01*
X62851487Y-86735471D01*
X62851491Y-86735474D01*
X63070190Y-86853828D01*
X63305386Y-86934571D01*
X63550665Y-86975500D01*
X63799335Y-86975500D01*
X64044614Y-86934571D01*
X64279810Y-86853828D01*
X64498509Y-86735474D01*
X64694744Y-86582738D01*
X64863164Y-86399785D01*
X64999173Y-86191607D01*
X65099063Y-85963881D01*
X65160108Y-85722821D01*
X65180643Y-85475000D01*
X65160108Y-85227179D01*
X65099063Y-84986119D01*
X64999173Y-84758393D01*
X64863164Y-84550215D01*
X64694744Y-84367262D01*
X64630500Y-84317259D01*
X64498514Y-84214529D01*
X64498510Y-84214526D01*
X64498509Y-84214526D01*
X64279810Y-84096172D01*
X64279806Y-84096170D01*
X64279805Y-84096170D01*
X64044615Y-84015429D01*
X63799335Y-83974500D01*
X63550665Y-83974500D01*
X63305384Y-84015429D01*
X63070194Y-84096170D01*
X62851485Y-84214529D01*
X62655259Y-84367259D01*
X62486837Y-84550214D01*
X62350825Y-84758395D01*
X62250938Y-84986117D01*
X62189891Y-85227183D01*
X62169356Y-85475000D01*
X60680643Y-85475000D01*
X60660108Y-85227179D01*
X60599063Y-84986119D01*
X60499173Y-84758393D01*
X60363164Y-84550215D01*
X60194744Y-84367262D01*
X60194742Y-84367261D01*
X60194740Y-84367258D01*
X59998326Y-84214383D01*
X59957773Y-84158405D01*
X59953489Y-84089414D01*
X59986806Y-84028850D01*
X60428837Y-83586818D01*
X60469065Y-83559939D01*
X60516518Y-83550500D01*
X66581450Y-83550500D01*
X66588937Y-83550726D01*
X66592077Y-83550915D01*
X66648977Y-83554358D01*
X66708153Y-83543513D01*
X66715552Y-83542387D01*
X66775243Y-83535140D01*
X66784706Y-83531550D01*
X66806329Y-83525522D01*
X66816303Y-83523695D01*
X66871179Y-83498996D01*
X66878044Y-83496152D01*
X66934301Y-83474818D01*
X66942641Y-83469060D01*
X66962190Y-83458035D01*
X66971428Y-83453878D01*
X67018784Y-83416775D01*
X67024791Y-83412355D01*
X67074300Y-83378183D01*
X67114194Y-83333150D01*
X67119295Y-83327731D01*
X75541912Y-74905115D01*
X93548436Y-74905115D01*
X93690958Y-75011806D01*
X93942047Y-75148911D01*
X94210097Y-75248888D01*
X94489642Y-75309699D01*
X94775000Y-75330109D01*
X95060357Y-75309699D01*
X95339902Y-75248888D01*
X95607952Y-75148911D01*
X95859041Y-75011806D01*
X96001562Y-74905115D01*
X94775001Y-73678553D01*
X94775000Y-73678553D01*
X93548436Y-74905115D01*
X75541912Y-74905115D01*
X75810208Y-74636819D01*
X75850437Y-74609939D01*
X75897890Y-74600500D01*
X80091844Y-74600500D01*
X80130162Y-74606569D01*
X80164728Y-74624181D01*
X80247270Y-74684151D01*
X80247271Y-74684151D01*
X80247272Y-74684152D01*
X80420197Y-74761144D01*
X80605352Y-74800500D01*
X80605354Y-74800500D01*
X80794646Y-74800500D01*
X80794648Y-74800500D01*
X80918083Y-74774262D01*
X80979803Y-74761144D01*
X81152730Y-74684151D01*
X81235271Y-74624182D01*
X81305870Y-74572889D01*
X81432533Y-74432216D01*
X81527179Y-74268284D01*
X81548629Y-74202267D01*
X81585674Y-74088256D01*
X81605460Y-73900000D01*
X81585674Y-73711744D01*
X81527179Y-73531716D01*
X81527179Y-73531715D01*
X81432533Y-73367783D01*
X81394010Y-73324999D01*
X92769890Y-73324999D01*
X92790300Y-73610357D01*
X92851111Y-73889902D01*
X92951088Y-74157952D01*
X93088193Y-74409042D01*
X93194883Y-74551562D01*
X94421446Y-73325001D01*
X95128553Y-73325001D01*
X96355115Y-74551562D01*
X96461806Y-74409041D01*
X96598911Y-74157952D01*
X96698888Y-73889902D01*
X96759699Y-73610357D01*
X96780109Y-73324999D01*
X96759699Y-73039642D01*
X96698888Y-72760097D01*
X96598911Y-72492047D01*
X96461806Y-72240958D01*
X96355115Y-72098436D01*
X95128553Y-73325000D01*
X95128553Y-73325001D01*
X94421446Y-73325001D01*
X94421446Y-73325000D01*
X93194883Y-72098436D01*
X93194882Y-72098437D01*
X93088195Y-72240954D01*
X92951088Y-72492047D01*
X92851111Y-72760097D01*
X92790300Y-73039642D01*
X92769890Y-73324999D01*
X81394010Y-73324999D01*
X81305870Y-73227110D01*
X81152730Y-73115848D01*
X80979802Y-73038855D01*
X80794648Y-72999500D01*
X80794646Y-72999500D01*
X80605354Y-72999500D01*
X80605352Y-72999500D01*
X80420197Y-73038855D01*
X80247272Y-73115847D01*
X80164730Y-73175818D01*
X80130162Y-73193431D01*
X80091844Y-73199500D01*
X75581281Y-73199500D01*
X75573794Y-73199274D01*
X75513762Y-73195642D01*
X75454613Y-73206481D01*
X75447214Y-73207608D01*
X75387493Y-73214860D01*
X75378012Y-73218456D01*
X75356407Y-73224479D01*
X75346440Y-73226305D01*
X75291605Y-73250984D01*
X75284689Y-73253848D01*
X75228440Y-73275181D01*
X75220096Y-73280941D01*
X75200554Y-73291963D01*
X75191315Y-73296121D01*
X75143965Y-73333216D01*
X75137937Y-73337652D01*
X75088438Y-73371819D01*
X75048554Y-73416838D01*
X75043422Y-73422290D01*
X66352533Y-82113181D01*
X66312305Y-82140061D01*
X66264852Y-82149500D01*
X60217372Y-82149500D01*
X60199921Y-82149500D01*
X60192434Y-82149274D01*
X60162595Y-82147469D01*
X60132394Y-82145642D01*
X60132393Y-82145642D01*
X60122424Y-82147469D01*
X60100073Y-82149500D01*
X56799921Y-82149500D01*
X56792434Y-82149274D01*
X56732391Y-82145641D01*
X56673227Y-82156483D01*
X56665828Y-82157610D01*
X56606124Y-82164860D01*
X56596651Y-82168453D01*
X56575047Y-82174476D01*
X56565069Y-82176305D01*
X56510225Y-82200987D01*
X56503310Y-82203851D01*
X56447070Y-82225181D01*
X56438723Y-82230943D01*
X56419187Y-82241961D01*
X56409944Y-82246121D01*
X56362608Y-82283205D01*
X56356582Y-82287639D01*
X56307072Y-82321816D01*
X56267184Y-82366838D01*
X56262052Y-82372289D01*
X56021159Y-82613183D01*
X55980934Y-82640061D01*
X55933481Y-82649500D01*
X54813817Y-82649500D01*
X54747721Y-82630416D01*
X54701970Y-82579038D01*
X54690647Y-82511180D01*
X54717236Y-82447730D01*
X54773554Y-82408219D01*
X54894091Y-82366838D01*
X55004810Y-82328828D01*
X55223509Y-82210474D01*
X55419744Y-82057738D01*
X55588164Y-81874785D01*
X55724173Y-81666607D01*
X55824063Y-81438881D01*
X55885108Y-81197821D01*
X55905643Y-80950000D01*
X55885108Y-80702179D01*
X55824063Y-80461119D01*
X55724173Y-80233393D01*
X55588164Y-80025215D01*
X55419744Y-79842262D01*
X55397612Y-79825036D01*
X55223514Y-79689529D01*
X55223510Y-79689526D01*
X55223509Y-79689526D01*
X55004810Y-79571172D01*
X55004806Y-79571170D01*
X55004805Y-79571170D01*
X54769615Y-79490429D01*
X54524335Y-79449500D01*
X54275665Y-79449500D01*
X54030384Y-79490429D01*
X53795194Y-79571170D01*
X53576485Y-79689529D01*
X53380259Y-79842259D01*
X53380256Y-79842261D01*
X53380256Y-79842262D01*
X53211836Y-80025215D01*
X53175968Y-80080116D01*
X53075825Y-80233395D01*
X52990104Y-80428821D01*
X52975937Y-80461119D01*
X52934981Y-80622849D01*
X52914891Y-80702183D01*
X52894356Y-80950000D01*
X52914891Y-81197816D01*
X52914891Y-81197819D01*
X52914892Y-81197821D01*
X52975937Y-81438881D01*
X53000941Y-81495884D01*
X53075825Y-81666604D01*
X53075827Y-81666607D01*
X53211836Y-81874785D01*
X53380256Y-82057738D01*
X53408716Y-82079889D01*
X53576485Y-82210470D01*
X53576487Y-82210471D01*
X53576491Y-82210474D01*
X53795190Y-82328828D01*
X53878808Y-82357534D01*
X54026446Y-82408219D01*
X54082764Y-82447730D01*
X54109353Y-82511180D01*
X54098030Y-82579038D01*
X54052279Y-82630416D01*
X53986183Y-82649500D01*
X51949910Y-82649500D01*
X51942423Y-82649274D01*
X51882391Y-82645642D01*
X51823242Y-82656481D01*
X51815843Y-82657608D01*
X51756122Y-82664860D01*
X51746641Y-82668456D01*
X51725036Y-82674479D01*
X51715067Y-82676306D01*
X51660228Y-82700986D01*
X51653313Y-82703850D01*
X51597067Y-82725182D01*
X51588720Y-82730943D01*
X51569192Y-82741957D01*
X51559948Y-82746118D01*
X51512597Y-82783214D01*
X51506568Y-82787649D01*
X51457070Y-82821816D01*
X51417183Y-82866838D01*
X51412051Y-82872290D01*
X50348269Y-83936072D01*
X50288541Y-83969199D01*
X50229907Y-83966168D01*
X50229749Y-83967120D01*
X50221420Y-83965730D01*
X50220332Y-83965674D01*
X50219621Y-83965430D01*
X49974335Y-83924500D01*
X49725665Y-83924500D01*
X49480384Y-83965429D01*
X49245194Y-84046170D01*
X49245190Y-84046171D01*
X49245190Y-84046172D01*
X49230064Y-84054358D01*
X49026485Y-84164529D01*
X48830259Y-84317259D01*
X48830256Y-84317261D01*
X48830256Y-84317262D01*
X48661836Y-84500215D01*
X48616499Y-84569607D01*
X48525825Y-84708395D01*
X48435780Y-84913678D01*
X48425937Y-84936119D01*
X48397432Y-85048683D01*
X48364891Y-85177183D01*
X48344356Y-85424999D01*
X48364891Y-85672816D01*
X48364891Y-85672819D01*
X48364892Y-85672821D01*
X48425937Y-85913881D01*
X48470960Y-86016523D01*
X48525825Y-86141604D01*
X48525827Y-86141607D01*
X48661836Y-86349785D01*
X48830256Y-86532738D01*
X48895667Y-86583650D01*
X49026485Y-86685470D01*
X49026487Y-86685471D01*
X49026491Y-86685474D01*
X49084519Y-86716877D01*
X49132023Y-86762457D01*
X49149500Y-86825931D01*
X49149500Y-90524069D01*
X49132023Y-90587543D01*
X49084519Y-90633122D01*
X49068151Y-90641981D01*
X49026485Y-90664529D01*
X48830259Y-90817259D01*
X48830256Y-90817261D01*
X48830256Y-90817262D01*
X48661836Y-91000215D01*
X48616499Y-91069607D01*
X48525825Y-91208395D01*
X48435780Y-91413678D01*
X48425937Y-91436119D01*
X48406297Y-91513677D01*
X48364891Y-91677183D01*
X48344356Y-91925000D01*
X45475000Y-91925000D01*
X45475000Y-82173610D01*
X49029942Y-82173610D01*
X49076766Y-82210055D01*
X49295393Y-82328368D01*
X49530506Y-82409083D01*
X49775707Y-82450000D01*
X50024293Y-82450000D01*
X50269493Y-82409083D01*
X50504606Y-82328368D01*
X50723233Y-82210053D01*
X50770056Y-82173609D01*
X49900000Y-81303553D01*
X49029942Y-82173609D01*
X49029942Y-82173610D01*
X45475000Y-82173610D01*
X45475000Y-80949999D01*
X48394858Y-80949999D01*
X48415386Y-81197732D01*
X48476413Y-81438721D01*
X48576268Y-81666370D01*
X48676563Y-81819882D01*
X48676564Y-81819882D01*
X49546447Y-80950001D01*
X50253553Y-80950001D01*
X51123434Y-81819882D01*
X51223730Y-81666369D01*
X51323586Y-81438721D01*
X51384613Y-81197732D01*
X51405141Y-80949999D01*
X51384613Y-80702267D01*
X51323586Y-80461278D01*
X51223730Y-80233630D01*
X51123434Y-80080116D01*
X50253553Y-80950000D01*
X50253553Y-80950001D01*
X49546447Y-80950001D01*
X49546447Y-80950000D01*
X48676564Y-80080116D01*
X48576266Y-80233634D01*
X48476413Y-80461278D01*
X48415386Y-80702267D01*
X48394858Y-80949999D01*
X45475000Y-80949999D01*
X45475000Y-79726390D01*
X49029942Y-79726390D01*
X49900000Y-80596447D01*
X49900001Y-80596447D01*
X50770057Y-79726390D01*
X50770056Y-79726388D01*
X50723235Y-79689947D01*
X50504606Y-79571631D01*
X50269493Y-79490916D01*
X50024293Y-79450000D01*
X49775707Y-79450000D01*
X49530506Y-79490916D01*
X49295393Y-79571631D01*
X49076764Y-79689946D01*
X49029942Y-79726388D01*
X49029942Y-79726390D01*
X45475000Y-79726390D01*
X45475000Y-75673610D01*
X49029942Y-75673610D01*
X49076766Y-75710055D01*
X49295393Y-75828368D01*
X49530506Y-75909083D01*
X49775707Y-75950000D01*
X50024293Y-75950000D01*
X50269493Y-75909083D01*
X50504606Y-75828368D01*
X50723233Y-75710053D01*
X50770056Y-75673609D01*
X49900000Y-74803553D01*
X49029942Y-75673609D01*
X49029942Y-75673610D01*
X45475000Y-75673610D01*
X45475000Y-74449999D01*
X48394858Y-74449999D01*
X48415386Y-74697732D01*
X48476413Y-74938721D01*
X48576268Y-75166370D01*
X48676563Y-75319882D01*
X48676564Y-75319882D01*
X49546447Y-74450001D01*
X50253553Y-74450001D01*
X51123434Y-75319882D01*
X51223730Y-75166369D01*
X51323586Y-74938721D01*
X51384613Y-74697732D01*
X51405141Y-74449999D01*
X52894356Y-74449999D01*
X52914891Y-74697816D01*
X52914891Y-74697819D01*
X52914892Y-74697821D01*
X52975937Y-74938881D01*
X53007925Y-75011806D01*
X53075825Y-75166604D01*
X53075827Y-75166607D01*
X53211836Y-75374785D01*
X53380256Y-75557738D01*
X53380259Y-75557740D01*
X53576485Y-75710470D01*
X53576487Y-75710471D01*
X53576491Y-75710474D01*
X53795190Y-75828828D01*
X54030386Y-75909571D01*
X54275665Y-75950500D01*
X54524335Y-75950500D01*
X54769614Y-75909571D01*
X55004810Y-75828828D01*
X55223509Y-75710474D01*
X55419744Y-75557738D01*
X55588164Y-75374785D01*
X55724173Y-75166607D01*
X55824063Y-74938881D01*
X55885108Y-74697821D01*
X55905643Y-74450000D01*
X55885108Y-74202179D01*
X55824063Y-73961119D01*
X55724173Y-73733393D01*
X55588164Y-73525215D01*
X55419744Y-73342262D01*
X55333560Y-73275182D01*
X55223514Y-73189529D01*
X55223510Y-73189526D01*
X55223509Y-73189526D01*
X55004810Y-73071172D01*
X55004806Y-73071170D01*
X55004805Y-73071170D01*
X54769615Y-72990429D01*
X54524335Y-72949500D01*
X54275665Y-72949500D01*
X54030384Y-72990429D01*
X53795194Y-73071170D01*
X53576485Y-73189529D01*
X53380259Y-73342259D01*
X53380256Y-73342261D01*
X53380256Y-73342262D01*
X53211836Y-73525215D01*
X53207589Y-73531716D01*
X53075825Y-73733395D01*
X53002746Y-73900000D01*
X52975937Y-73961119D01*
X52943741Y-74088257D01*
X52914891Y-74202183D01*
X52894356Y-74449999D01*
X51405141Y-74449999D01*
X51384613Y-74202267D01*
X51323586Y-73961278D01*
X51223730Y-73733630D01*
X51123434Y-73580116D01*
X50253553Y-74450000D01*
X50253553Y-74450001D01*
X49546447Y-74450001D01*
X49546447Y-74450000D01*
X48676564Y-73580116D01*
X48576266Y-73733634D01*
X48476413Y-73961278D01*
X48415386Y-74202267D01*
X48394858Y-74449999D01*
X45475000Y-74449999D01*
X45475000Y-73226390D01*
X49029942Y-73226390D01*
X49900000Y-74096447D01*
X49900001Y-74096447D01*
X50770057Y-73226390D01*
X50770056Y-73226388D01*
X50723235Y-73189947D01*
X50504606Y-73071631D01*
X50269493Y-72990916D01*
X50024293Y-72950000D01*
X49775707Y-72950000D01*
X49530506Y-72990916D01*
X49295393Y-73071631D01*
X49076764Y-73189946D01*
X49029942Y-73226388D01*
X49029942Y-73226390D01*
X45475000Y-73226390D01*
X45475000Y-70287500D01*
X81394540Y-70287500D01*
X81414326Y-70475757D01*
X81472820Y-70655784D01*
X81567466Y-70819716D01*
X81694129Y-70960389D01*
X81847269Y-71071651D01*
X82020197Y-71148644D01*
X82175126Y-71181575D01*
X82208513Y-71193891D01*
X82237027Y-71215184D01*
X82674551Y-71652707D01*
X82679671Y-71658145D01*
X82719571Y-71703183D01*
X82769065Y-71737346D01*
X82769074Y-71737352D01*
X82775103Y-71741788D01*
X82822444Y-71778878D01*
X82831683Y-71783036D01*
X82851219Y-71794053D01*
X82859570Y-71799818D01*
X82915826Y-71821152D01*
X82922720Y-71824009D01*
X82977569Y-71848695D01*
X82987544Y-71850522D01*
X83009156Y-71856547D01*
X83018628Y-71860140D01*
X83078341Y-71867390D01*
X83085685Y-71868507D01*
X83144894Y-71879358D01*
X83201602Y-71875927D01*
X83204934Y-71875726D01*
X83212421Y-71875500D01*
X86100073Y-71875500D01*
X86122424Y-71877531D01*
X86132394Y-71879358D01*
X86189463Y-71875905D01*
X86192434Y-71875726D01*
X86199921Y-71875500D01*
X86217372Y-71875500D01*
X91700079Y-71875500D01*
X91707566Y-71875726D01*
X91710706Y-71875915D01*
X91767606Y-71879358D01*
X91826782Y-71868513D01*
X91834181Y-71867387D01*
X91893872Y-71860140D01*
X91903335Y-71856550D01*
X91924958Y-71850522D01*
X91934932Y-71848695D01*
X91989808Y-71823996D01*
X91996673Y-71821152D01*
X92052930Y-71799818D01*
X92061270Y-71794060D01*
X92080819Y-71783035D01*
X92090057Y-71778878D01*
X92133446Y-71744883D01*
X93548436Y-71744883D01*
X94775000Y-72971446D01*
X94775001Y-72971446D01*
X96001562Y-71744883D01*
X95859042Y-71638193D01*
X95607952Y-71501088D01*
X95339902Y-71401111D01*
X95060357Y-71340300D01*
X94775000Y-71319890D01*
X94489642Y-71340300D01*
X94210097Y-71401111D01*
X93942047Y-71501088D01*
X93690954Y-71638195D01*
X93548437Y-71744882D01*
X93548436Y-71744883D01*
X92133446Y-71744883D01*
X92137413Y-71741775D01*
X92143426Y-71737352D01*
X92192929Y-71703183D01*
X92232823Y-71658150D01*
X92237924Y-71652731D01*
X93000290Y-70890367D01*
X93000290Y-70890366D01*
X93608837Y-70281817D01*
X93649065Y-70254938D01*
X93696518Y-70245499D01*
X96322870Y-70245499D01*
X96322872Y-70245499D01*
X96382483Y-70239091D01*
X96517331Y-70188796D01*
X96632546Y-70102546D01*
X96718796Y-69987331D01*
X96769091Y-69852483D01*
X96775500Y-69792873D01*
X96775499Y-66697128D01*
X96769091Y-66637517D01*
X96718796Y-66502669D01*
X96632546Y-66387454D01*
X96517331Y-66301204D01*
X96382483Y-66250909D01*
X96322873Y-66244500D01*
X96322869Y-66244500D01*
X93227130Y-66244500D01*
X93167515Y-66250909D01*
X93032669Y-66301204D01*
X92917454Y-66387454D01*
X92831204Y-66502668D01*
X92780909Y-66637516D01*
X92774500Y-66697131D01*
X92774500Y-69083480D01*
X92765061Y-69130933D01*
X92738181Y-69171161D01*
X91992191Y-69917151D01*
X91471162Y-70438181D01*
X91430934Y-70465061D01*
X91383481Y-70474500D01*
X86516519Y-70474500D01*
X86469066Y-70465061D01*
X86428838Y-70438181D01*
X85436819Y-69446162D01*
X85409939Y-69405934D01*
X85400500Y-69358481D01*
X85400500Y-69315392D01*
X85408736Y-69270955D01*
X85432350Y-69232420D01*
X85432533Y-69232216D01*
X85527179Y-69068284D01*
X85527178Y-69068284D01*
X85585674Y-68888256D01*
X85605460Y-68700000D01*
X85585674Y-68511744D01*
X85527179Y-68331716D01*
X85527179Y-68331715D01*
X85432533Y-68167783D01*
X85305870Y-68027110D01*
X85152730Y-67915848D01*
X84979802Y-67838855D01*
X84794648Y-67799500D01*
X84794646Y-67799500D01*
X84605354Y-67799500D01*
X84605352Y-67799500D01*
X84420197Y-67838855D01*
X84247269Y-67915848D01*
X84094129Y-68027110D01*
X83967466Y-68167783D01*
X83872820Y-68331715D01*
X83814326Y-68511742D01*
X83794540Y-68699999D01*
X83814326Y-68888257D01*
X83872820Y-69068284D01*
X83967466Y-69232216D01*
X83967650Y-69232420D01*
X83991264Y-69270955D01*
X83999500Y-69315392D01*
X83999500Y-69675079D01*
X83999274Y-69682566D01*
X83995641Y-69742607D01*
X84006483Y-69801771D01*
X84007610Y-69809172D01*
X84014860Y-69868873D01*
X84018450Y-69878339D01*
X84024475Y-69899952D01*
X84026303Y-69909929D01*
X84050991Y-69964783D01*
X84053856Y-69971701D01*
X84075180Y-70027926D01*
X84075182Y-70027930D01*
X84080941Y-70036273D01*
X84091961Y-70055813D01*
X84096120Y-70065054D01*
X84133216Y-70112405D01*
X84137651Y-70118432D01*
X84171817Y-70167929D01*
X84216847Y-70207822D01*
X84222283Y-70212940D01*
X84272162Y-70262819D01*
X84302412Y-70312182D01*
X84306954Y-70369898D01*
X84284799Y-70423385D01*
X84240776Y-70460985D01*
X84184481Y-70474500D01*
X83529018Y-70474500D01*
X83481565Y-70465061D01*
X83441337Y-70438181D01*
X83373054Y-70369898D01*
X83226500Y-70223343D01*
X83202263Y-70189049D01*
X83190864Y-70148632D01*
X83185674Y-70099244D01*
X83127179Y-69919216D01*
X83127179Y-69919215D01*
X83032533Y-69755283D01*
X82905870Y-69614610D01*
X82752730Y-69503348D01*
X82579802Y-69426355D01*
X82394648Y-69387000D01*
X82394646Y-69387000D01*
X82205354Y-69387000D01*
X82205352Y-69387000D01*
X82020197Y-69426355D01*
X81847269Y-69503348D01*
X81694129Y-69614610D01*
X81567466Y-69755283D01*
X81472820Y-69919215D01*
X81414326Y-70099242D01*
X81394540Y-70287500D01*
X45475000Y-70287500D01*
X45475000Y-64699999D01*
X45942250Y-64699999D01*
X45960685Y-64898957D01*
X46015365Y-65091134D01*
X46104424Y-65269991D01*
X46224838Y-65429445D01*
X46372496Y-65564053D01*
X46542378Y-65669239D01*
X46711318Y-65734686D01*
X46728691Y-65741417D01*
X46925096Y-65778131D01*
X47124902Y-65778131D01*
X47124904Y-65778131D01*
X47321309Y-65741417D01*
X47445518Y-65693297D01*
X47507621Y-65669239D01*
X47515747Y-65664208D01*
X47677503Y-65564053D01*
X47825162Y-65429444D01*
X47945573Y-65269994D01*
X47945573Y-65269992D01*
X47945575Y-65269991D01*
X48034634Y-65091134D01*
X48089314Y-64898957D01*
X48091987Y-64870105D01*
X48107750Y-64700000D01*
X48089314Y-64501045D01*
X48089314Y-64501042D01*
X48034634Y-64308865D01*
X47945575Y-64130008D01*
X47825161Y-63970554D01*
X47677503Y-63835946D01*
X47507621Y-63730760D01*
X47321313Y-63658584D01*
X47321310Y-63658583D01*
X47321309Y-63658583D01*
X47124904Y-63621869D01*
X46925096Y-63621869D01*
X46728691Y-63658583D01*
X46728686Y-63658584D01*
X46542378Y-63730760D01*
X46372496Y-63835946D01*
X46224838Y-63970554D01*
X46104424Y-64130008D01*
X46015365Y-64308865D01*
X45960685Y-64501042D01*
X45942250Y-64699999D01*
X45475000Y-64699999D01*
X45475000Y-63377500D01*
X45491613Y-63315500D01*
X45537000Y-63270113D01*
X45599000Y-63253500D01*
X98731800Y-63253500D01*
X98793800Y-63270113D01*
G37*
%TD.AperFunction*%
%TA.AperFunction,Conductor*%
G36*
X74765849Y-125036048D02*
G01*
X74766180Y-125033325D01*
X74781127Y-125035139D01*
X74781128Y-125035140D01*
X74840841Y-125042390D01*
X74848185Y-125043507D01*
X74907394Y-125054358D01*
X74964102Y-125050927D01*
X74967434Y-125050726D01*
X74974921Y-125050500D01*
X80137034Y-125050500D01*
X80191878Y-125063288D01*
X80235410Y-125099014D01*
X80258651Y-125150309D01*
X80256809Y-125206594D01*
X80214364Y-125364999D01*
X80214364Y-125365000D01*
X81671000Y-125365000D01*
X81733000Y-125381613D01*
X81778387Y-125427000D01*
X81795000Y-125489000D01*
X81795000Y-126945635D01*
X82008492Y-126888430D01*
X82222576Y-126788600D01*
X82416081Y-126653106D01*
X82583109Y-126486078D01*
X82713119Y-126300405D01*
X82757437Y-126261539D01*
X82814694Y-126247528D01*
X82871951Y-126261539D01*
X82916267Y-126300402D01*
X83046505Y-126486401D01*
X83213599Y-126653495D01*
X83407170Y-126789035D01*
X83621337Y-126888903D01*
X83849592Y-126950063D01*
X84085000Y-126970659D01*
X84320408Y-126950063D01*
X84548663Y-126888903D01*
X84762830Y-126789035D01*
X84956401Y-126653495D01*
X85123495Y-126486401D01*
X85253426Y-126300839D01*
X85297743Y-126261975D01*
X85355000Y-126247964D01*
X85412257Y-126261975D01*
X85456573Y-126300839D01*
X85586505Y-126486401D01*
X85753599Y-126653495D01*
X85947170Y-126789035D01*
X86161337Y-126888903D01*
X86389592Y-126950063D01*
X86625000Y-126970659D01*
X86860408Y-126950063D01*
X87088663Y-126888903D01*
X87302830Y-126789035D01*
X87496401Y-126653495D01*
X87663495Y-126486401D01*
X87793426Y-126300839D01*
X87837743Y-126261975D01*
X87895000Y-126247964D01*
X87952257Y-126261975D01*
X87996573Y-126300839D01*
X88126505Y-126486401D01*
X88293599Y-126653495D01*
X88487170Y-126789035D01*
X88701337Y-126888903D01*
X88929592Y-126950063D01*
X89165000Y-126970659D01*
X89400408Y-126950063D01*
X89628663Y-126888903D01*
X89842830Y-126789035D01*
X90036401Y-126653495D01*
X90203495Y-126486401D01*
X90333732Y-126300402D01*
X90378048Y-126261539D01*
X90435305Y-126247528D01*
X90492562Y-126261539D01*
X90536880Y-126300404D01*
X90666893Y-126486081D01*
X90833918Y-126653106D01*
X91027423Y-126788600D01*
X91241507Y-126888430D01*
X91454999Y-126945635D01*
X91455000Y-126945636D01*
X91455000Y-125489000D01*
X91471613Y-125427000D01*
X91517000Y-125381613D01*
X91579000Y-125365000D01*
X91831000Y-125365000D01*
X91893000Y-125381613D01*
X91938387Y-125427000D01*
X91955000Y-125489000D01*
X91955000Y-126945635D01*
X92168492Y-126888430D01*
X92382576Y-126788600D01*
X92576081Y-126653106D01*
X92743109Y-126486078D01*
X92873119Y-126300405D01*
X92917437Y-126261539D01*
X92974694Y-126247528D01*
X93031951Y-126261539D01*
X93076267Y-126300402D01*
X93206505Y-126486401D01*
X93206507Y-126486403D01*
X93206508Y-126486404D01*
X93373598Y-126653494D01*
X93491623Y-126736136D01*
X93530489Y-126780454D01*
X93544500Y-126837711D01*
X93544500Y-127495079D01*
X93544274Y-127502566D01*
X93540641Y-127562607D01*
X93551483Y-127621771D01*
X93552610Y-127629172D01*
X93559860Y-127688873D01*
X93563450Y-127698339D01*
X93569475Y-127719952D01*
X93571303Y-127729929D01*
X93595991Y-127784783D01*
X93598856Y-127791701D01*
X93620180Y-127847926D01*
X93620182Y-127847930D01*
X93625941Y-127856273D01*
X93636961Y-127875813D01*
X93641120Y-127885054D01*
X93678216Y-127932405D01*
X93682651Y-127938432D01*
X93716817Y-127987929D01*
X93761847Y-128027822D01*
X93767283Y-128032940D01*
X93887058Y-128152715D01*
X93892178Y-128158153D01*
X93932071Y-128203183D01*
X93981577Y-128237354D01*
X93987596Y-128241785D01*
X94031178Y-128275928D01*
X94034943Y-128278878D01*
X94044190Y-128283039D01*
X94063726Y-128294058D01*
X94072070Y-128299818D01*
X94128334Y-128321155D01*
X94135195Y-128323997D01*
X94190068Y-128348694D01*
X94200036Y-128350520D01*
X94221652Y-128356546D01*
X94231128Y-128360140D01*
X94290856Y-128367392D01*
X94298201Y-128368509D01*
X94357394Y-128379357D01*
X94417422Y-128375726D01*
X94424910Y-128375500D01*
X97259481Y-128375500D01*
X97315776Y-128389015D01*
X97359799Y-128426615D01*
X97381954Y-128480102D01*
X97377412Y-128537818D01*
X97347162Y-128587181D01*
X97071162Y-128863181D01*
X97030934Y-128890061D01*
X96983481Y-128899500D01*
X88173183Y-128899500D01*
X88111183Y-128882887D01*
X88065796Y-128837499D01*
X88049183Y-128775499D01*
X88065795Y-128713500D01*
X88077179Y-128693784D01*
X88135674Y-128513756D01*
X88155460Y-128325500D01*
X88135674Y-128137244D01*
X88099366Y-128025500D01*
X88077179Y-127957215D01*
X87982533Y-127793283D01*
X87855870Y-127652610D01*
X87702730Y-127541348D01*
X87529802Y-127464355D01*
X87344648Y-127425000D01*
X87344646Y-127425000D01*
X87155354Y-127425000D01*
X87155352Y-127425000D01*
X86970197Y-127464355D01*
X86797269Y-127541348D01*
X86646597Y-127650818D01*
X86612030Y-127668431D01*
X86573712Y-127674500D01*
X77141519Y-127674500D01*
X77094066Y-127665061D01*
X77053838Y-127638181D01*
X75280657Y-125865000D01*
X80214364Y-125865000D01*
X80271569Y-126078492D01*
X80371399Y-126292576D01*
X80506893Y-126486081D01*
X80673918Y-126653106D01*
X80867423Y-126788600D01*
X81081507Y-126888430D01*
X81294999Y-126945635D01*
X81295000Y-126945636D01*
X81295000Y-125865000D01*
X80214364Y-125865000D01*
X75280657Y-125865000D01*
X74657440Y-125241783D01*
X74624724Y-125183776D01*
X74626736Y-125117210D01*
X74662896Y-125061285D01*
X74722773Y-125032132D01*
X74765849Y-125036048D01*
G37*
%TD.AperFunction*%
%TA.AperFunction,Conductor*%
G36*
X74663938Y-97742113D02*
G01*
X74709325Y-97787500D01*
X74725938Y-97849500D01*
X74709325Y-97911500D01*
X74610820Y-98082115D01*
X74552326Y-98262142D01*
X74532540Y-98450399D01*
X74552326Y-98638657D01*
X74610820Y-98818684D01*
X74705466Y-98982616D01*
X74705650Y-98982820D01*
X74729264Y-99021355D01*
X74737500Y-99065792D01*
X74737500Y-100305079D01*
X74737274Y-100312566D01*
X74733641Y-100372607D01*
X74744483Y-100431771D01*
X74745610Y-100439172D01*
X74752860Y-100498873D01*
X74756450Y-100508339D01*
X74762475Y-100529952D01*
X74764303Y-100539929D01*
X74788991Y-100594783D01*
X74791856Y-100601701D01*
X74810149Y-100649933D01*
X74813182Y-100657930D01*
X74818941Y-100666273D01*
X74829961Y-100685813D01*
X74834120Y-100695054D01*
X74871216Y-100742405D01*
X74875651Y-100748432D01*
X74887280Y-100765279D01*
X74905057Y-100791034D01*
X74909817Y-100797929D01*
X74954847Y-100837822D01*
X74960283Y-100842940D01*
X79547858Y-105430515D01*
X79552978Y-105435953D01*
X79592567Y-105480640D01*
X79592872Y-105480984D01*
X79642369Y-105515149D01*
X79648402Y-105519588D01*
X79695743Y-105556677D01*
X79704974Y-105560831D01*
X79724526Y-105571858D01*
X79732870Y-105577618D01*
X79789122Y-105598951D01*
X79796028Y-105601812D01*
X79850868Y-105626494D01*
X79860830Y-105628319D01*
X79882450Y-105634346D01*
X79891925Y-105637939D01*
X79891928Y-105637940D01*
X79951656Y-105645192D01*
X79959001Y-105646309D01*
X80018194Y-105657157D01*
X80078221Y-105653526D01*
X80085709Y-105653300D01*
X85294644Y-105653300D01*
X85332962Y-105659369D01*
X85367528Y-105676981D01*
X85450070Y-105736951D01*
X85450071Y-105736951D01*
X85450072Y-105736952D01*
X85622997Y-105813944D01*
X85808152Y-105853300D01*
X85808154Y-105853300D01*
X85997446Y-105853300D01*
X85997448Y-105853300D01*
X86120883Y-105827062D01*
X86182603Y-105813944D01*
X86355530Y-105736951D01*
X86464795Y-105657566D01*
X86508670Y-105625689D01*
X86551954Y-105577618D01*
X86635333Y-105485016D01*
X86729979Y-105321084D01*
X86788474Y-105141056D01*
X86793664Y-105091666D01*
X86805063Y-105051250D01*
X86829300Y-105016955D01*
X87434437Y-104411819D01*
X87474666Y-104384939D01*
X87522119Y-104375500D01*
X90913208Y-104375500D01*
X90920695Y-104375726D01*
X90923835Y-104375915D01*
X90980735Y-104379358D01*
X91039911Y-104368513D01*
X91047310Y-104367387D01*
X91107001Y-104360140D01*
X91116464Y-104356550D01*
X91138087Y-104350522D01*
X91148061Y-104348695D01*
X91202937Y-104323996D01*
X91209802Y-104321152D01*
X91266059Y-104299818D01*
X91266060Y-104299817D01*
X91280142Y-104294477D01*
X91281387Y-104297762D01*
X91311162Y-104286626D01*
X91371178Y-104294813D01*
X91420156Y-104330451D01*
X91446409Y-104385038D01*
X91443673Y-104445548D01*
X91412600Y-104497542D01*
X90897290Y-105012851D01*
X90891838Y-105017983D01*
X90846816Y-105057870D01*
X90812649Y-105107368D01*
X90808213Y-105113397D01*
X90771121Y-105160742D01*
X90766961Y-105169986D01*
X90755941Y-105189525D01*
X90750182Y-105197869D01*
X90728853Y-105254105D01*
X90725989Y-105261019D01*
X90701303Y-105315870D01*
X90699475Y-105325847D01*
X90693454Y-105347448D01*
X90689859Y-105356928D01*
X90682609Y-105416627D01*
X90681483Y-105424026D01*
X90670641Y-105483191D01*
X90674274Y-105543234D01*
X90674500Y-105550721D01*
X90674500Y-111808481D01*
X90665061Y-111855934D01*
X90638181Y-111896162D01*
X88597290Y-113937051D01*
X88591838Y-113942183D01*
X88546816Y-113982070D01*
X88512649Y-114031568D01*
X88508213Y-114037597D01*
X88471121Y-114084942D01*
X88466961Y-114094186D01*
X88455941Y-114113725D01*
X88450182Y-114122069D01*
X88428853Y-114178305D01*
X88425989Y-114185219D01*
X88401303Y-114240070D01*
X88399475Y-114250047D01*
X88393454Y-114271648D01*
X88389859Y-114281128D01*
X88382609Y-114340827D01*
X88381483Y-114348226D01*
X88370641Y-114407391D01*
X88374274Y-114467434D01*
X88374500Y-114474921D01*
X88374500Y-114725501D01*
X88357887Y-114787501D01*
X88312500Y-114832888D01*
X88250500Y-114849501D01*
X88177128Y-114849501D01*
X88147322Y-114852704D01*
X88117515Y-114855909D01*
X87982667Y-114906204D01*
X87973811Y-114912835D01*
X87910553Y-114937075D01*
X87843996Y-114924453D01*
X87794005Y-114878736D01*
X87775500Y-114813569D01*
X87775500Y-109766519D01*
X87784939Y-109719066D01*
X87811819Y-109678838D01*
X88174829Y-109315827D01*
X88302731Y-109187924D01*
X88308150Y-109182823D01*
X88353183Y-109142929D01*
X88387351Y-109093426D01*
X88391763Y-109087428D01*
X88428878Y-109040057D01*
X88428880Y-109040052D01*
X88436661Y-109030121D01*
X88452537Y-109007118D01*
X89777731Y-107681924D01*
X89783150Y-107676823D01*
X89828183Y-107636929D01*
X89862355Y-107587420D01*
X89866775Y-107581413D01*
X89903878Y-107534057D01*
X89908035Y-107524819D01*
X89919060Y-107505270D01*
X89924818Y-107496930D01*
X89946152Y-107440673D01*
X89948996Y-107433808D01*
X89973695Y-107378932D01*
X89975522Y-107368958D01*
X89981552Y-107347331D01*
X89985140Y-107337871D01*
X89992387Y-107278184D01*
X89993514Y-107270779D01*
X90003344Y-107217137D01*
X90026990Y-107169066D01*
X90026016Y-107168504D01*
X90127179Y-106993284D01*
X90147659Y-106930252D01*
X90185674Y-106813256D01*
X90205460Y-106625000D01*
X90185674Y-106436744D01*
X90127179Y-106256716D01*
X90127179Y-106256715D01*
X90032533Y-106092783D01*
X89905870Y-105952110D01*
X89752730Y-105840848D01*
X89579802Y-105763855D01*
X89394648Y-105724500D01*
X89394646Y-105724500D01*
X89205354Y-105724500D01*
X89205352Y-105724500D01*
X89020197Y-105763855D01*
X88847269Y-105840848D01*
X88694129Y-105952110D01*
X88567466Y-106092783D01*
X88472820Y-106256715D01*
X88414326Y-106436742D01*
X88394540Y-106624999D01*
X88414326Y-106813257D01*
X88452340Y-106930252D01*
X88454983Y-106997518D01*
X88422090Y-107056251D01*
X87347290Y-108131051D01*
X87341838Y-108136183D01*
X87296816Y-108176070D01*
X87262649Y-108225568D01*
X87258213Y-108231598D01*
X87213352Y-108288860D01*
X87197460Y-108311881D01*
X86597290Y-108912051D01*
X86591838Y-108917183D01*
X86546816Y-108957070D01*
X86512649Y-109006568D01*
X86508213Y-109012597D01*
X86471121Y-109059942D01*
X86466961Y-109069186D01*
X86455941Y-109088725D01*
X86450182Y-109097069D01*
X86428853Y-109153305D01*
X86425989Y-109160219D01*
X86401303Y-109215070D01*
X86399475Y-109225047D01*
X86393454Y-109246648D01*
X86389859Y-109256128D01*
X86382609Y-109315827D01*
X86381483Y-109323226D01*
X86370641Y-109382391D01*
X86374274Y-109442434D01*
X86374500Y-109449921D01*
X86374500Y-116759481D01*
X86360985Y-116815776D01*
X86323385Y-116859799D01*
X86269898Y-116881954D01*
X86212182Y-116877412D01*
X86162819Y-116847162D01*
X84798740Y-115483083D01*
X84793622Y-115477647D01*
X84753729Y-115432617D01*
X84747886Y-115428584D01*
X84704236Y-115398454D01*
X84698205Y-115394016D01*
X84650854Y-115356920D01*
X84641613Y-115352761D01*
X84622073Y-115341741D01*
X84613730Y-115335982D01*
X84613727Y-115335981D01*
X84613726Y-115335980D01*
X84557501Y-115314656D01*
X84550583Y-115311791D01*
X84495729Y-115287103D01*
X84485752Y-115285275D01*
X84464139Y-115279250D01*
X84454673Y-115275660D01*
X84394972Y-115268410D01*
X84387571Y-115267283D01*
X84328407Y-115256441D01*
X84268366Y-115260074D01*
X84260879Y-115260300D01*
X83943956Y-115260300D01*
X83905638Y-115254231D01*
X83871070Y-115236618D01*
X83788527Y-115176647D01*
X83615602Y-115099655D01*
X83430448Y-115060300D01*
X83430446Y-115060300D01*
X83241154Y-115060300D01*
X83241152Y-115060300D01*
X83055997Y-115099655D01*
X82883069Y-115176648D01*
X82729929Y-115287910D01*
X82603266Y-115428583D01*
X82508620Y-115592515D01*
X82450126Y-115772542D01*
X82430340Y-115960800D01*
X82450126Y-116149057D01*
X82508620Y-116329084D01*
X82603266Y-116493016D01*
X82729929Y-116633689D01*
X82883069Y-116744951D01*
X83055997Y-116821944D01*
X83241152Y-116861300D01*
X83241154Y-116861300D01*
X83430446Y-116861300D01*
X83430448Y-116861300D01*
X83553883Y-116835062D01*
X83615603Y-116821944D01*
X83788530Y-116744951D01*
X83871071Y-116684981D01*
X83905638Y-116667369D01*
X83943956Y-116661300D01*
X83944281Y-116661300D01*
X83991734Y-116670739D01*
X84031962Y-116697619D01*
X85047162Y-117712819D01*
X85077412Y-117762182D01*
X85081954Y-117819898D01*
X85059799Y-117873385D01*
X85015776Y-117910985D01*
X84959481Y-117924500D01*
X84955352Y-117924500D01*
X84770197Y-117963855D01*
X84597269Y-118040848D01*
X84444129Y-118152110D01*
X84317466Y-118292783D01*
X84222820Y-118456715D01*
X84164326Y-118636742D01*
X84144540Y-118825000D01*
X84164326Y-119013257D01*
X84222820Y-119193283D01*
X84253297Y-119246071D01*
X84269437Y-119297263D01*
X84262431Y-119350481D01*
X84233590Y-119395751D01*
X81916994Y-121712347D01*
X81861408Y-121744440D01*
X81797222Y-121744441D01*
X81780410Y-121739936D01*
X81544999Y-121719340D01*
X81309592Y-121739936D01*
X81081336Y-121801097D01*
X80867170Y-121900965D01*
X80673598Y-122036505D01*
X80506505Y-122203598D01*
X80370965Y-122397170D01*
X80271097Y-122611336D01*
X80209936Y-122839592D01*
X80189340Y-123074999D01*
X80209936Y-123310406D01*
X80258971Y-123493406D01*
X80260813Y-123549691D01*
X80237572Y-123600986D01*
X80194040Y-123636712D01*
X80139196Y-123649500D01*
X75291519Y-123649500D01*
X75244066Y-123640061D01*
X75203838Y-123613181D01*
X71058488Y-119467831D01*
X71026972Y-119414329D01*
X71025347Y-119352255D01*
X71054018Y-119297180D01*
X71157533Y-119182216D01*
X71230217Y-119056322D01*
X71271895Y-119013164D01*
X71328955Y-118994624D01*
X71388041Y-119005042D01*
X71397270Y-119009151D01*
X71570197Y-119086144D01*
X71570200Y-119086144D01*
X71570201Y-119086145D01*
X71755352Y-119125500D01*
X71755354Y-119125500D01*
X71944646Y-119125500D01*
X71944648Y-119125500D01*
X72068083Y-119099262D01*
X72129803Y-119086144D01*
X72302730Y-119009151D01*
X72455871Y-118897888D01*
X72582533Y-118757216D01*
X72677179Y-118593284D01*
X72735674Y-118413256D01*
X72755460Y-118225000D01*
X72735674Y-118036744D01*
X72699270Y-117924706D01*
X72677179Y-117856715D01*
X72582533Y-117692783D01*
X72455870Y-117552110D01*
X72302730Y-117440848D01*
X72129802Y-117363855D01*
X71944648Y-117324500D01*
X71944646Y-117324500D01*
X71921670Y-117324500D01*
X71878649Y-117316798D01*
X71840972Y-117294648D01*
X70668802Y-116289931D01*
X70636844Y-116247597D01*
X70625500Y-116195783D01*
X70625500Y-115447207D01*
X70625787Y-115442186D01*
X70625503Y-115398173D01*
X70625500Y-115397371D01*
X70625500Y-115353266D01*
X70625180Y-115348252D01*
X70624791Y-115287910D01*
X70608462Y-112756981D01*
X70624351Y-112695450D01*
X70668641Y-112649869D01*
X70729695Y-112632217D01*
X70791475Y-112647131D01*
X70895393Y-112703368D01*
X71130506Y-112784083D01*
X71375707Y-112825000D01*
X71624293Y-112825000D01*
X71869493Y-112784083D01*
X72104606Y-112703368D01*
X72323233Y-112585053D01*
X72370055Y-112548610D01*
X77129942Y-112548610D01*
X77176766Y-112585055D01*
X77395393Y-112703368D01*
X77630506Y-112784083D01*
X77875707Y-112825000D01*
X78124293Y-112825000D01*
X78369493Y-112784083D01*
X78604606Y-112703368D01*
X78823233Y-112585053D01*
X78870056Y-112548609D01*
X78000000Y-111678553D01*
X77129942Y-112548609D01*
X77129942Y-112548610D01*
X72370055Y-112548610D01*
X72370056Y-112548609D01*
X71234128Y-111412681D01*
X71202034Y-111357094D01*
X71202034Y-111325000D01*
X71853553Y-111325000D01*
X72723434Y-112194882D01*
X72823730Y-112041369D01*
X72923586Y-111813721D01*
X72984613Y-111572732D01*
X73005141Y-111324999D01*
X76494858Y-111324999D01*
X76515386Y-111572732D01*
X76576413Y-111813721D01*
X76676268Y-112041370D01*
X76776563Y-112194882D01*
X76776564Y-112194882D01*
X77646447Y-111325001D01*
X77646447Y-111325000D01*
X78353553Y-111325000D01*
X79223434Y-112194882D01*
X79323730Y-112041369D01*
X79423586Y-111813721D01*
X79484613Y-111572732D01*
X79505141Y-111324999D01*
X79484613Y-111077267D01*
X79423586Y-110836278D01*
X79323730Y-110608630D01*
X79223434Y-110455116D01*
X78353553Y-111325000D01*
X77646447Y-111325000D01*
X76776564Y-110455116D01*
X76676266Y-110608634D01*
X76576413Y-110836278D01*
X76515386Y-111077267D01*
X76494858Y-111324999D01*
X73005141Y-111324999D01*
X72984613Y-111077267D01*
X72923586Y-110836278D01*
X72823730Y-110608630D01*
X72723434Y-110455116D01*
X71853553Y-111325000D01*
X71202034Y-111325000D01*
X71202034Y-111292906D01*
X71234128Y-111237319D01*
X72370056Y-110101390D01*
X77129942Y-110101390D01*
X78000000Y-110971447D01*
X78000001Y-110971447D01*
X78870057Y-110101390D01*
X78870056Y-110101388D01*
X78823235Y-110064947D01*
X78604606Y-109946631D01*
X78369493Y-109865916D01*
X78124293Y-109825000D01*
X77875707Y-109825000D01*
X77630506Y-109865916D01*
X77395393Y-109946631D01*
X77176764Y-110064946D01*
X77129942Y-110101388D01*
X77129942Y-110101390D01*
X72370056Y-110101390D01*
X72370057Y-110101389D01*
X72370056Y-110101388D01*
X72323235Y-110064947D01*
X72104606Y-109946631D01*
X71869493Y-109865916D01*
X71624293Y-109825000D01*
X71375707Y-109825000D01*
X71130506Y-109865916D01*
X70895393Y-109946631D01*
X70773073Y-110012827D01*
X70711693Y-110027749D01*
X70650926Y-110010499D01*
X70606542Y-109965552D01*
X70590059Y-109904574D01*
X70579331Y-108241787D01*
X70595221Y-108180255D01*
X70639511Y-108134674D01*
X70700565Y-108117022D01*
X70762345Y-108131936D01*
X70770193Y-108136183D01*
X70895190Y-108203828D01*
X71130386Y-108284571D01*
X71375665Y-108325500D01*
X71624335Y-108325500D01*
X71869614Y-108284571D01*
X72104810Y-108203828D01*
X72323509Y-108085474D01*
X72519744Y-107932738D01*
X72688164Y-107749785D01*
X72824173Y-107541607D01*
X72924063Y-107313881D01*
X72985108Y-107072821D01*
X73005643Y-106825000D01*
X76494356Y-106825000D01*
X76514891Y-107072816D01*
X76514891Y-107072819D01*
X76514892Y-107072821D01*
X76575937Y-107313881D01*
X76620960Y-107416523D01*
X76675825Y-107541604D01*
X76675827Y-107541607D01*
X76811836Y-107749785D01*
X76980256Y-107932738D01*
X76980259Y-107932740D01*
X77176485Y-108085470D01*
X77176487Y-108085471D01*
X77176491Y-108085474D01*
X77395190Y-108203828D01*
X77630386Y-108284571D01*
X77875665Y-108325500D01*
X78124335Y-108325500D01*
X78369614Y-108284571D01*
X78604810Y-108203828D01*
X78823509Y-108085474D01*
X79019744Y-107932738D01*
X79188164Y-107749785D01*
X79324173Y-107541607D01*
X79424063Y-107313881D01*
X79485108Y-107072821D01*
X79505643Y-106825000D01*
X79485108Y-106577179D01*
X79424063Y-106336119D01*
X79324173Y-106108393D01*
X79188164Y-105900215D01*
X79019744Y-105717262D01*
X78997612Y-105700036D01*
X78823514Y-105564529D01*
X78823510Y-105564526D01*
X78823509Y-105564526D01*
X78604810Y-105446172D01*
X78604806Y-105446170D01*
X78604805Y-105446170D01*
X78369615Y-105365429D01*
X78124335Y-105324500D01*
X77875665Y-105324500D01*
X77630384Y-105365429D01*
X77395194Y-105446170D01*
X77176485Y-105564529D01*
X76980259Y-105717259D01*
X76980256Y-105717261D01*
X76980256Y-105717262D01*
X76811836Y-105900215D01*
X76777930Y-105952112D01*
X76675825Y-106108395D01*
X76575938Y-106336117D01*
X76514891Y-106577183D01*
X76494356Y-106825000D01*
X73005643Y-106825000D01*
X72985108Y-106577179D01*
X72924063Y-106336119D01*
X72824173Y-106108393D01*
X72688164Y-105900215D01*
X72519744Y-105717262D01*
X72497612Y-105700036D01*
X72323514Y-105564529D01*
X72323510Y-105564526D01*
X72323509Y-105564526D01*
X72104810Y-105446172D01*
X72104806Y-105446170D01*
X72104805Y-105446170D01*
X71869615Y-105365429D01*
X71624335Y-105324500D01*
X71375665Y-105324500D01*
X71130384Y-105365429D01*
X70895190Y-105446171D01*
X70744138Y-105527916D01*
X70682758Y-105542838D01*
X70621991Y-105525588D01*
X70577607Y-105480640D01*
X70561124Y-105419663D01*
X70527708Y-100240110D01*
X70536991Y-100192229D01*
X70564021Y-100151634D01*
X72953837Y-97761819D01*
X72994066Y-97734939D01*
X73041519Y-97725500D01*
X74601938Y-97725500D01*
X74663938Y-97742113D01*
G37*
%TD.AperFunction*%
%TA.AperFunction,Conductor*%
G36*
X96033127Y-103905249D02*
G01*
X96081617Y-103950896D01*
X96099500Y-104015045D01*
X96099500Y-105650079D01*
X96099274Y-105657566D01*
X96095641Y-105717607D01*
X96106483Y-105776771D01*
X96107610Y-105784172D01*
X96114860Y-105843873D01*
X96118450Y-105853339D01*
X96124475Y-105874952D01*
X96126303Y-105884929D01*
X96150991Y-105939783D01*
X96153856Y-105946701D01*
X96175180Y-106002926D01*
X96175182Y-106002930D01*
X96180941Y-106011273D01*
X96191961Y-106030813D01*
X96196120Y-106040054D01*
X96233216Y-106087405D01*
X96237651Y-106093432D01*
X96271817Y-106142929D01*
X96316847Y-106182822D01*
X96322283Y-106187940D01*
X97888181Y-107753838D01*
X97915061Y-107794066D01*
X97924500Y-107841519D01*
X97924500Y-115220950D01*
X97910985Y-115277245D01*
X97873385Y-115321268D01*
X97819898Y-115343423D01*
X97762182Y-115338881D01*
X97712819Y-115308631D01*
X97566081Y-115161893D01*
X97372576Y-115026399D01*
X97158492Y-114926569D01*
X96945000Y-114869364D01*
X96945000Y-117530635D01*
X97158492Y-117473430D01*
X97372576Y-117373600D01*
X97566081Y-117238106D01*
X97712819Y-117091369D01*
X97762182Y-117061119D01*
X97819898Y-117056577D01*
X97873385Y-117078732D01*
X97910985Y-117122755D01*
X97924500Y-117179050D01*
X97924500Y-120575079D01*
X97924274Y-120582566D01*
X97920641Y-120642607D01*
X97931483Y-120701771D01*
X97932610Y-120709172D01*
X97939860Y-120768873D01*
X97943450Y-120778339D01*
X97949475Y-120799952D01*
X97951303Y-120809929D01*
X97975991Y-120864783D01*
X97978856Y-120871701D01*
X98000180Y-120927926D01*
X98000182Y-120927930D01*
X98005941Y-120936273D01*
X98016961Y-120955813D01*
X98021120Y-120965054D01*
X98058216Y-121012405D01*
X98062651Y-121018432D01*
X98096817Y-121067929D01*
X98141847Y-121107822D01*
X98147283Y-121112940D01*
X98718454Y-121684111D01*
X98749034Y-121734504D01*
X98752889Y-121793323D01*
X98729150Y-121847277D01*
X98683180Y-121884173D01*
X98647171Y-121900964D01*
X98453598Y-122036505D01*
X98286505Y-122203598D01*
X98156575Y-122389159D01*
X98112257Y-122428025D01*
X98055000Y-122442036D01*
X97997743Y-122428025D01*
X97953425Y-122389159D01*
X97938449Y-122367771D01*
X97823495Y-122203599D01*
X97656401Y-122036505D01*
X97462830Y-121900965D01*
X97248663Y-121801097D01*
X97187502Y-121784709D01*
X97020407Y-121739936D01*
X96785000Y-121719340D01*
X96549592Y-121739936D01*
X96321336Y-121801097D01*
X96107170Y-121900965D01*
X95913598Y-122036505D01*
X95746505Y-122203598D01*
X95616575Y-122389159D01*
X95572257Y-122428025D01*
X95515000Y-122442036D01*
X95457743Y-122428025D01*
X95413425Y-122389159D01*
X95398449Y-122367771D01*
X95283495Y-122203599D01*
X95116401Y-122036505D01*
X94998376Y-121953863D01*
X94959511Y-121909546D01*
X94945500Y-121852289D01*
X94945500Y-119594910D01*
X94945726Y-119587423D01*
X94948287Y-119545079D01*
X94949357Y-119527394D01*
X94938509Y-119468201D01*
X94937392Y-119460856D01*
X94930140Y-119401128D01*
X94926546Y-119391652D01*
X94920520Y-119370036D01*
X94918694Y-119360068D01*
X94893997Y-119305195D01*
X94891155Y-119298334D01*
X94869818Y-119242070D01*
X94864058Y-119233726D01*
X94853039Y-119214190D01*
X94848878Y-119204943D01*
X94825811Y-119175500D01*
X94811785Y-119157596D01*
X94807354Y-119151577D01*
X94773183Y-119102071D01*
X94728153Y-119062178D01*
X94722715Y-119057058D01*
X93585511Y-117919854D01*
X93585510Y-117919854D01*
X93585505Y-117919849D01*
X93560184Y-117894527D01*
X93530071Y-117876323D01*
X93517757Y-117867823D01*
X93490057Y-117846122D01*
X93490056Y-117846121D01*
X93457973Y-117831682D01*
X93444715Y-117824724D01*
X93414605Y-117806521D01*
X93381014Y-117796054D01*
X93367013Y-117790744D01*
X93334932Y-117776305D01*
X93300310Y-117769960D01*
X93285778Y-117766378D01*
X93266879Y-117760489D01*
X93252195Y-117755913D01*
X93217080Y-117753789D01*
X93202219Y-117751984D01*
X93167607Y-117745641D01*
X93132477Y-117747766D01*
X93117507Y-117747766D01*
X93082391Y-117745642D01*
X93047789Y-117751983D01*
X93032933Y-117753787D01*
X92997806Y-117755913D01*
X92964210Y-117766381D01*
X92949686Y-117769961D01*
X92941963Y-117771376D01*
X92936013Y-117772467D01*
X92913656Y-117774500D01*
X91898692Y-117774500D01*
X91841435Y-117760489D01*
X91797117Y-117721623D01*
X91775753Y-117666685D01*
X91782170Y-117608089D01*
X91814919Y-117559078D01*
X91866599Y-117530725D01*
X91908549Y-117519484D01*
X92078663Y-117473903D01*
X92292830Y-117374035D01*
X92486401Y-117238495D01*
X92653495Y-117071401D01*
X92783428Y-116885837D01*
X92827742Y-116846975D01*
X92884999Y-116832964D01*
X92942255Y-116846974D01*
X92986573Y-116885839D01*
X93116505Y-117071401D01*
X93283599Y-117238495D01*
X93477170Y-117374035D01*
X93691337Y-117473903D01*
X93919592Y-117535063D01*
X94155000Y-117555659D01*
X94390408Y-117535063D01*
X94618663Y-117473903D01*
X94832830Y-117374035D01*
X95026401Y-117238495D01*
X95193495Y-117071401D01*
X95323732Y-116885402D01*
X95368048Y-116846539D01*
X95425305Y-116832528D01*
X95482562Y-116846539D01*
X95526880Y-116885404D01*
X95656893Y-117071081D01*
X95823918Y-117238106D01*
X96017423Y-117373600D01*
X96231507Y-117473430D01*
X96444999Y-117530635D01*
X96445000Y-117530636D01*
X96445000Y-114869364D01*
X96444999Y-114869364D01*
X96231507Y-114926569D01*
X96017421Y-115026400D01*
X95823921Y-115161890D01*
X95656893Y-115328918D01*
X95526880Y-115514596D01*
X95482562Y-115553461D01*
X95425305Y-115567472D01*
X95368048Y-115553461D01*
X95323730Y-115514595D01*
X95313661Y-115500215D01*
X95193495Y-115328599D01*
X95026401Y-115161505D01*
X94832830Y-115025965D01*
X94618663Y-114926097D01*
X94557502Y-114909709D01*
X94390407Y-114864936D01*
X94155000Y-114844340D01*
X93919592Y-114864936D01*
X93691336Y-114926097D01*
X93477170Y-115025965D01*
X93283598Y-115161505D01*
X93116505Y-115328598D01*
X92986575Y-115514159D01*
X92942257Y-115553025D01*
X92885000Y-115567036D01*
X92827743Y-115553025D01*
X92783425Y-115514159D01*
X92701649Y-115397371D01*
X92653495Y-115328599D01*
X92486401Y-115161505D01*
X92292830Y-115025965D01*
X92078663Y-114926097D01*
X92017502Y-114909709D01*
X91850407Y-114864936D01*
X91615000Y-114844340D01*
X91379592Y-114864936D01*
X91151336Y-114926097D01*
X90937170Y-115025965D01*
X90743601Y-115161503D01*
X90621673Y-115283431D01*
X90568926Y-115314726D01*
X90507634Y-115316915D01*
X90452789Y-115289462D01*
X90417810Y-115239082D01*
X90410658Y-115219907D01*
X90368796Y-115107669D01*
X90282546Y-114992454D01*
X90167331Y-114906204D01*
X90032483Y-114855909D01*
X89972873Y-114849500D01*
X89972869Y-114849500D01*
X89965519Y-114849500D01*
X89909224Y-114835985D01*
X89865201Y-114798385D01*
X89843046Y-114744898D01*
X89847588Y-114687182D01*
X89877838Y-114637819D01*
X90337352Y-114178305D01*
X91852731Y-112662924D01*
X91858150Y-112657823D01*
X91903183Y-112617929D01*
X91937351Y-112568426D01*
X91941763Y-112562428D01*
X91978878Y-112515057D01*
X91983034Y-112505820D01*
X91994062Y-112486267D01*
X91999818Y-112477930D01*
X92021153Y-112421671D01*
X92023997Y-112414803D01*
X92048694Y-112359932D01*
X92050519Y-112349970D01*
X92056545Y-112328348D01*
X92060140Y-112318872D01*
X92067389Y-112259165D01*
X92068516Y-112251762D01*
X92079357Y-112192606D01*
X92075726Y-112132577D01*
X92075500Y-112125090D01*
X92075500Y-105867319D01*
X92084939Y-105819866D01*
X92111819Y-105779638D01*
X92843455Y-105048002D01*
X93585775Y-104305681D01*
X93614286Y-104284391D01*
X93647672Y-104272075D01*
X93802603Y-104239144D01*
X93975530Y-104162151D01*
X94058071Y-104102181D01*
X94092638Y-104084569D01*
X94130956Y-104078500D01*
X95422079Y-104078500D01*
X95429566Y-104078726D01*
X95432706Y-104078915D01*
X95489606Y-104082358D01*
X95548782Y-104071513D01*
X95556181Y-104070387D01*
X95615872Y-104063140D01*
X95625335Y-104059550D01*
X95646958Y-104053522D01*
X95656932Y-104051695D01*
X95711808Y-104026996D01*
X95718673Y-104024152D01*
X95774930Y-104002818D01*
X95783270Y-103997060D01*
X95802819Y-103986035D01*
X95812057Y-103981878D01*
X95859413Y-103944775D01*
X95865420Y-103940355D01*
X95889981Y-103923402D01*
X95905062Y-103912994D01*
X95968015Y-103891271D01*
X96033127Y-103905249D01*
G37*
%TD.AperFunction*%
%TA.AperFunction,Conductor*%
G36*
X87984818Y-83533588D02*
G01*
X88034181Y-83563838D01*
X91230924Y-86760581D01*
X91261734Y-86811711D01*
X91265082Y-86871312D01*
X91240192Y-86925572D01*
X91192833Y-86961913D01*
X91133981Y-86971915D01*
X91090908Y-86957743D01*
X91090791Y-86958079D01*
X90907440Y-86893922D01*
X90728300Y-86873737D01*
X90549159Y-86893922D01*
X90378996Y-86953464D01*
X90365191Y-86962138D01*
X90365190Y-86962138D01*
X90728300Y-87325247D01*
X92207460Y-88804407D01*
X92207461Y-88804407D01*
X92216135Y-88790603D01*
X92275677Y-88620440D01*
X92295862Y-88441300D01*
X92275677Y-88262159D01*
X92211521Y-88078809D01*
X92211856Y-88078691D01*
X92197685Y-88035621D01*
X92207685Y-87976768D01*
X92244026Y-87929408D01*
X92298286Y-87904518D01*
X92357888Y-87907865D01*
X92409019Y-87938675D01*
X95988181Y-91517837D01*
X96015061Y-91558065D01*
X96024500Y-91605518D01*
X96024500Y-97609300D01*
X96007887Y-97671300D01*
X95962500Y-97716687D01*
X95900500Y-97733300D01*
X95827852Y-97733300D01*
X95642697Y-97772655D01*
X95469769Y-97849648D01*
X95316629Y-97960910D01*
X95189966Y-98101583D01*
X95095320Y-98265515D01*
X95036826Y-98445542D01*
X95017040Y-98633799D01*
X95017040Y-98633800D01*
X95026933Y-98727928D01*
X95036826Y-98822057D01*
X95095320Y-99002083D01*
X95181323Y-99151046D01*
X95197463Y-99202238D01*
X95190457Y-99255456D01*
X95161616Y-99300726D01*
X92710162Y-101752181D01*
X92669934Y-101779061D01*
X92622481Y-101788500D01*
X91128905Y-101788500D01*
X91078470Y-101777780D01*
X91036755Y-101747473D01*
X90986810Y-101692004D01*
X90905871Y-101602112D01*
X90905869Y-101602111D01*
X90905867Y-101602108D01*
X90752730Y-101490848D01*
X90579802Y-101413855D01*
X90394648Y-101374500D01*
X90394646Y-101374500D01*
X90205354Y-101374500D01*
X90205352Y-101374500D01*
X90020197Y-101413855D01*
X89847269Y-101490848D01*
X89694129Y-101602110D01*
X89567466Y-101742783D01*
X89472820Y-101906715D01*
X89414326Y-102086742D01*
X89394943Y-102271162D01*
X89394540Y-102275000D01*
X89400964Y-102336119D01*
X89414326Y-102463257D01*
X89472820Y-102643284D01*
X89556661Y-102788500D01*
X89573274Y-102850500D01*
X89556661Y-102912500D01*
X89511274Y-102957887D01*
X89449274Y-102974500D01*
X88504029Y-102974500D01*
X88447734Y-102960985D01*
X88403710Y-102923385D01*
X88381555Y-102869897D01*
X88386099Y-102812180D01*
X88387712Y-102807216D01*
X88388674Y-102804256D01*
X88408460Y-102616000D01*
X88388674Y-102427744D01*
X88330179Y-102247716D01*
X88330179Y-102247715D01*
X88235533Y-102083783D01*
X88108870Y-101943111D01*
X87955731Y-101831850D01*
X87955730Y-101831849D01*
X87896063Y-101805283D01*
X87857301Y-101778141D01*
X87831529Y-101738455D01*
X87822500Y-101692004D01*
X87822500Y-91445460D01*
X88840191Y-91445460D01*
X88853996Y-91454135D01*
X89024159Y-91513677D01*
X89203300Y-91533862D01*
X89382440Y-91513677D01*
X89552603Y-91454135D01*
X89566407Y-91445461D01*
X89566407Y-91445460D01*
X90365191Y-91445460D01*
X90378996Y-91454135D01*
X90549159Y-91513677D01*
X90728300Y-91533862D01*
X90907440Y-91513677D01*
X91077603Y-91454135D01*
X91091407Y-91445461D01*
X91091407Y-91445460D01*
X90728301Y-91082353D01*
X90728300Y-91082353D01*
X90365191Y-91445460D01*
X89566407Y-91445460D01*
X89203301Y-91082353D01*
X89203300Y-91082353D01*
X88840191Y-91445460D01*
X87822500Y-91445460D01*
X87822500Y-90746975D01*
X87839697Y-90683974D01*
X87886519Y-90638447D01*
X87949978Y-90623024D01*
X88012472Y-90641981D01*
X88091496Y-90691635D01*
X88261655Y-90751176D01*
X88304280Y-90755978D01*
X88356369Y-90774204D01*
X88395392Y-90813225D01*
X88413619Y-90865314D01*
X88418422Y-90907940D01*
X88477965Y-91078104D01*
X88486638Y-91091908D01*
X88849747Y-90728801D01*
X88849747Y-90728800D01*
X89556853Y-90728800D01*
X89919960Y-91091907D01*
X89951921Y-91088307D01*
X89979687Y-91088308D01*
X90011638Y-91091908D01*
X90374747Y-90728801D01*
X90374747Y-90728800D01*
X91081853Y-90728800D01*
X91444960Y-91091907D01*
X91444961Y-91091907D01*
X91453635Y-91078103D01*
X91513176Y-90907944D01*
X91517978Y-90865318D01*
X91536205Y-90813228D01*
X91575228Y-90774205D01*
X91627318Y-90755978D01*
X91669944Y-90751176D01*
X91840103Y-90691635D01*
X91853907Y-90682961D01*
X91853907Y-90682960D01*
X91490800Y-90319853D01*
X91081853Y-90728800D01*
X90374747Y-90728800D01*
X89965800Y-90319853D01*
X89556853Y-90728800D01*
X88849747Y-90728800D01*
X88174928Y-90053981D01*
X88142834Y-89998394D01*
X88142834Y-89966300D01*
X88794353Y-89966300D01*
X89203300Y-90375247D01*
X89612247Y-89966300D01*
X90319353Y-89966300D01*
X90728300Y-90375247D01*
X91137246Y-89966301D01*
X91844353Y-89966301D01*
X92207460Y-90329407D01*
X92207461Y-90329407D01*
X92216135Y-90315603D01*
X92275677Y-90145440D01*
X92295862Y-89966299D01*
X92275677Y-89787159D01*
X92216135Y-89616996D01*
X92207460Y-89603191D01*
X91844353Y-89966300D01*
X91844353Y-89966301D01*
X91137246Y-89966301D01*
X91137247Y-89966300D01*
X90728300Y-89557353D01*
X90319353Y-89966300D01*
X89612247Y-89966300D01*
X89203300Y-89557353D01*
X88794353Y-89966300D01*
X88142834Y-89966300D01*
X88142834Y-89934206D01*
X88174928Y-89878619D01*
X88849747Y-89203800D01*
X89556853Y-89203800D01*
X89965800Y-89612747D01*
X90374747Y-89203800D01*
X91081853Y-89203800D01*
X91490800Y-89612747D01*
X91490801Y-89612747D01*
X91853908Y-89249638D01*
X91850308Y-89217684D01*
X91850307Y-89189919D01*
X91853907Y-89157960D01*
X91490800Y-88794853D01*
X91081853Y-89203800D01*
X90374747Y-89203800D01*
X89965800Y-88794853D01*
X89556853Y-89203800D01*
X88849747Y-89203800D01*
X88174928Y-88528981D01*
X88142834Y-88473394D01*
X88142834Y-88441300D01*
X88794353Y-88441300D01*
X89203300Y-88850247D01*
X89612247Y-88441300D01*
X90319353Y-88441300D01*
X90728300Y-88850247D01*
X91137247Y-88441300D01*
X90728300Y-88032353D01*
X90319353Y-88441300D01*
X89612247Y-88441300D01*
X89203300Y-88032353D01*
X88794353Y-88441300D01*
X88142834Y-88441300D01*
X88142834Y-88409206D01*
X88174928Y-88353619D01*
X88849746Y-87678801D01*
X89556853Y-87678801D01*
X89965799Y-88087747D01*
X90374747Y-87678800D01*
X90011638Y-87315690D01*
X89979692Y-87319291D01*
X89951923Y-87319291D01*
X89919961Y-87315690D01*
X89556853Y-87678800D01*
X89556853Y-87678801D01*
X88849746Y-87678801D01*
X88849747Y-87678800D01*
X88486638Y-87315690D01*
X88486638Y-87315691D01*
X88477964Y-87329496D01*
X88418422Y-87499659D01*
X88413619Y-87542285D01*
X88395392Y-87594372D01*
X88356372Y-87633392D01*
X88304285Y-87651619D01*
X88261659Y-87656422D01*
X88091496Y-87715964D01*
X88012472Y-87765619D01*
X87949978Y-87784576D01*
X87886519Y-87769153D01*
X87839697Y-87723626D01*
X87822500Y-87660625D01*
X87822500Y-86962138D01*
X88840190Y-86962138D01*
X89203300Y-87325247D01*
X89203301Y-87325247D01*
X89566408Y-86962138D01*
X89552604Y-86953465D01*
X89382440Y-86893922D01*
X89203300Y-86873737D01*
X89024159Y-86893922D01*
X88853996Y-86953464D01*
X88840191Y-86962138D01*
X88840190Y-86962138D01*
X87822500Y-86962138D01*
X87822500Y-83651519D01*
X87836015Y-83595224D01*
X87873615Y-83551201D01*
X87927102Y-83529046D01*
X87984818Y-83533588D01*
G37*
%TD.AperFunction*%
%TA.AperFunction,Conductor*%
G36*
X95834874Y-100749932D02*
G01*
X95873370Y-100791034D01*
X95914466Y-100862216D01*
X96049850Y-101012574D01*
X96047977Y-101014259D01*
X96067250Y-101035956D01*
X96082670Y-101086812D01*
X96075384Y-101139453D01*
X96046732Y-101184209D01*
X95822290Y-101408651D01*
X95816838Y-101413783D01*
X95771816Y-101453670D01*
X95737649Y-101503168D01*
X95733213Y-101509197D01*
X95696121Y-101556542D01*
X95691961Y-101565786D01*
X95680941Y-101585325D01*
X95675182Y-101593669D01*
X95653853Y-101649905D01*
X95650989Y-101656819D01*
X95626303Y-101711670D01*
X95624475Y-101721647D01*
X95618454Y-101743248D01*
X95614859Y-101752728D01*
X95607609Y-101812427D01*
X95606483Y-101819826D01*
X95595641Y-101878991D01*
X95599274Y-101939034D01*
X95599500Y-101946521D01*
X95599500Y-102183481D01*
X95590061Y-102230934D01*
X95563181Y-102271162D01*
X95193162Y-102641181D01*
X95152934Y-102668061D01*
X95105481Y-102677500D01*
X94130955Y-102677500D01*
X94092637Y-102671431D01*
X94058073Y-102653820D01*
X94020166Y-102626279D01*
X93984864Y-102586552D01*
X93969436Y-102535692D01*
X93976718Y-102483044D01*
X94005371Y-102438284D01*
X95678304Y-100765351D01*
X95726125Y-100735615D01*
X95782169Y-100730095D01*
X95834874Y-100749932D01*
G37*
%TD.AperFunction*%
%TD*%
M02*
