%TF.GenerationSoftware,KiCad,Pcbnew,7.0.1*%
%TF.CreationDate,2023-04-20T18:11:54+02:00*%
%TF.ProjectId,PCB_Tetris,5043425f-5465-4747-9269-732e6b696361,rev?*%
%TF.SameCoordinates,Original*%
%TF.FileFunction,Soldermask,Top*%
%TF.FilePolarity,Negative*%
%FSLAX46Y46*%
G04 Gerber Fmt 4.6, Leading zero omitted, Abs format (unit mm)*
G04 Created by KiCad (PCBNEW 7.0.1) date 2023-04-20 18:11:54*
%MOMM*%
%LPD*%
G01*
G04 APERTURE LIST*
G04 Aperture macros list*
%AMRoundRect*
0 Rectangle with rounded corners*
0 $1 Rounding radius*
0 $2 $3 $4 $5 $6 $7 $8 $9 X,Y pos of 4 corners*
0 Add a 4 corners polygon primitive as box body*
4,1,4,$2,$3,$4,$5,$6,$7,$8,$9,$2,$3,0*
0 Add four circle primitives for the rounded corners*
1,1,$1+$1,$2,$3*
1,1,$1+$1,$4,$5*
1,1,$1+$1,$6,$7*
1,1,$1+$1,$8,$9*
0 Add four rect primitives between the rounded corners*
20,1,$1+$1,$2,$3,$4,$5,0*
20,1,$1+$1,$4,$5,$6,$7,0*
20,1,$1+$1,$6,$7,$8,$9,0*
20,1,$1+$1,$8,$9,$2,$3,0*%
G04 Aperture macros list end*
%ADD10RoundRect,0.250000X0.450000X-0.350000X0.450000X0.350000X-0.450000X0.350000X-0.450000X-0.350000X0*%
%ADD11RoundRect,0.250000X-0.350000X-0.450000X0.350000X-0.450000X0.350000X0.450000X-0.350000X0.450000X0*%
%ADD12RoundRect,0.250000X0.475000X-0.337500X0.475000X0.337500X-0.475000X0.337500X-0.475000X-0.337500X0*%
%ADD13RoundRect,0.250000X-0.325000X-0.450000X0.325000X-0.450000X0.325000X0.450000X-0.325000X0.450000X0*%
%ADD14RoundRect,0.250000X0.450000X-0.325000X0.450000X0.325000X-0.450000X0.325000X-0.450000X-0.325000X0*%
%ADD15RoundRect,0.250000X0.350000X0.450000X-0.350000X0.450000X-0.350000X-0.450000X0.350000X-0.450000X0*%
%ADD16C,2.000000*%
%ADD17RoundRect,0.250000X-0.337500X-0.475000X0.337500X-0.475000X0.337500X0.475000X-0.337500X0.475000X0*%
%ADD18R,1.700000X1.700000*%
%ADD19O,1.700000X1.700000*%
%ADD20R,1.500000X2.000000*%
%ADD21R,3.800000X2.000000*%
%ADD22R,3.000000X3.000000*%
%ADD23C,3.000000*%
%ADD24R,0.760000X1.600000*%
%ADD25R,0.900000X1.500000*%
%ADD26R,1.500000X0.900000*%
%ADD27C,0.600000*%
%ADD28R,4.200000X4.200000*%
%ADD29R,1.600000X0.760000*%
%ADD30RoundRect,0.250000X-0.450000X0.350000X-0.450000X-0.350000X0.450000X-0.350000X0.450000X0.350000X0*%
G04 APERTURE END LIST*
D10*
%TO.C,R6*%
X85852000Y-104920800D03*
X85852000Y-102920800D03*
%TD*%
D11*
%TO.C,R2*%
X75454000Y-98399600D03*
X77454000Y-98399600D03*
%TD*%
D12*
%TO.C,C1*%
X96100000Y-79162500D03*
X96100000Y-77087500D03*
%TD*%
D13*
%TO.C,D1*%
X75175000Y-90220800D03*
X77225000Y-90220800D03*
%TD*%
D12*
%TO.C,C2*%
X82300000Y-70287500D03*
X82300000Y-68212500D03*
%TD*%
D11*
%TO.C,R3*%
X75098400Y-93522800D03*
X77098400Y-93522800D03*
%TD*%
D14*
%TO.C,D2*%
X93421200Y-112886600D03*
X93421200Y-110836600D03*
%TD*%
D10*
%TO.C,R5*%
X93472000Y-103362000D03*
X93472000Y-101362000D03*
%TD*%
D15*
%TO.C,R1*%
X81100000Y-76050000D03*
X79100000Y-76050000D03*
%TD*%
D16*
%TO.C,FASTDROP1*%
X49850000Y-91925000D03*
X49850000Y-85425000D03*
X54350000Y-91925000D03*
X54350000Y-85425000D03*
%TD*%
%TO.C,HARDDROP1*%
X49750000Y-122925000D03*
X49750000Y-116425000D03*
X54250000Y-122925000D03*
X54250000Y-116425000D03*
%TD*%
D11*
%TO.C,R7*%
X75403200Y-86817200D03*
X77403200Y-86817200D03*
%TD*%
D16*
%TO.C,RECHTS1*%
X49825000Y-102825000D03*
X49825000Y-96325000D03*
X54325000Y-102825000D03*
X54325000Y-96325000D03*
%TD*%
%TO.C,ROTATE1*%
X59175000Y-91975000D03*
X59175000Y-85475000D03*
X63675000Y-91975000D03*
X63675000Y-85475000D03*
%TD*%
D17*
%TO.C,C4*%
X87687500Y-66300000D03*
X89762500Y-66300000D03*
%TD*%
D16*
%TO.C,RESET1*%
X78000000Y-111325000D03*
X71500000Y-111325000D03*
X78000000Y-106825000D03*
X71500000Y-106825000D03*
%TD*%
%TO.C,LINKS1*%
X49900000Y-80950000D03*
X49900000Y-74450000D03*
X54400000Y-80950000D03*
X54400000Y-74450000D03*
%TD*%
D18*
%TO.C,Prog1*%
X89075000Y-116200000D03*
D19*
X91615000Y-116200000D03*
X94155000Y-116200000D03*
X96695000Y-116200000D03*
%TD*%
D20*
%TO.C,PLO1*%
X89300000Y-68600000D03*
X87000000Y-68600000D03*
D21*
X87000000Y-74900000D03*
D20*
X84700000Y-68600000D03*
%TD*%
D17*
%TO.C,C3*%
X83837500Y-66300000D03*
X85912500Y-66300000D03*
%TD*%
D22*
%TO.C,Kroonsteen1*%
X94775000Y-68245000D03*
D23*
X94775000Y-73325000D03*
%TD*%
D24*
%TO.C,SW1*%
X76225000Y-76015000D03*
X76225000Y-83635000D03*
%TD*%
D18*
%TO.C,J1*%
X99325000Y-125615000D03*
D19*
X99325000Y-123075000D03*
X96785000Y-125615000D03*
X96785000Y-123075000D03*
X94245000Y-125615000D03*
X94245000Y-123075000D03*
X91705000Y-125615000D03*
X91705000Y-123075000D03*
X89165000Y-125615000D03*
X89165000Y-123075000D03*
X86625000Y-125615000D03*
X86625000Y-123075000D03*
X84085000Y-125615000D03*
X84085000Y-123075000D03*
X81545000Y-125615000D03*
X81545000Y-123075000D03*
%TD*%
D25*
%TO.C,ESP32*%
X97305800Y-81133800D03*
X96035800Y-81133800D03*
X94765800Y-81133800D03*
X93495800Y-81133800D03*
X92225800Y-81133800D03*
X90955800Y-81133800D03*
X89685800Y-81133800D03*
X88415800Y-81133800D03*
X87145800Y-81133800D03*
X85875800Y-81133800D03*
X84605800Y-81133800D03*
X83335800Y-81133800D03*
X82065800Y-81133800D03*
X80795800Y-81133800D03*
D26*
X79545800Y-84173800D03*
X79545800Y-85443800D03*
X79545800Y-86713800D03*
X79545800Y-87983800D03*
X79545800Y-89253800D03*
X79545800Y-90523800D03*
X79545800Y-91793800D03*
X79545800Y-93063800D03*
X79545800Y-94333800D03*
X79545800Y-95603800D03*
D25*
X80795800Y-98633800D03*
X82065800Y-98633800D03*
X83335800Y-98633800D03*
X84605800Y-98633800D03*
X85875800Y-98633800D03*
X87145800Y-98633800D03*
X88415800Y-98633800D03*
X89685800Y-98633800D03*
X90955800Y-98633800D03*
X92225800Y-98633800D03*
X93495800Y-98633800D03*
X94765800Y-98633800D03*
X96035800Y-98633800D03*
X97305800Y-98633800D03*
D27*
X90728300Y-87678800D03*
X89203300Y-87678800D03*
X91490800Y-88441300D03*
X89965800Y-88441300D03*
X88440800Y-88441300D03*
X90728300Y-89203800D03*
D28*
X89965800Y-89203800D03*
D27*
X89203300Y-89203800D03*
X91490800Y-89966300D03*
X89965800Y-89966300D03*
X88440800Y-89966300D03*
X90728300Y-90728800D03*
X89203300Y-90728800D03*
%TD*%
D29*
%TO.C,SW2*%
X80645000Y-102235000D03*
X73025000Y-102235000D03*
%TD*%
D30*
%TO.C,R4*%
X93472000Y-106035600D03*
X93472000Y-108035600D03*
%TD*%
M02*
