<?xml version="1.0" encoding="UTF-8" standalone="no"?>
<svg
   width="1068mm"
   height="212mm"
   viewBox="0 0 1068 212"
   version="1.1"
   preserveAspectRatio="xMidYMid meet"
   id="svg19242"
   sodipodi:docname="tetris box.svg"
   inkscape:version="1.2.2 (732a01da63, 2022-12-09)"
   xmlns:inkscape="http://www.inkscape.org/namespaces/inkscape"
   xmlns:sodipodi="http://sodipodi.sourceforge.net/DTD/sodipodi-0.dtd"
   xmlns="http://www.w3.org/2000/svg"
   xmlns:svg="http://www.w3.org/2000/svg">
  <defs
     id="defs19246" />
  <sodipodi:namedview
     id="namedview19244"
     pagecolor="#ffffff"
     bordercolor="#000000"
     borderopacity="0.25"
     inkscape:showpageshadow="2"
     inkscape:pageopacity="0.0"
     inkscape:pagecheckerboard="0"
     inkscape:deskcolor="#d1d1d1"
     inkscape:document-units="mm"
     showgrid="false"
     showguides="true"
     inkscape:zoom="0.5"
     inkscape:cx="2805"
     inkscape:cy="505"
     inkscape:window-width="1920"
     inkscape:window-height="1001"
     inkscape:window-x="-9"
     inkscape:window-y="-9"
     inkscape:window-maximized="1"
     inkscape:current-layer="svgGroup" />
  <g
     id="svgGroup"
     stroke-linecap="round"
     fill-rule="evenodd"
     font-size="9pt"
     stroke="#000"
     stroke-width="0.25mm"
     fill="none"
     style="stroke:#000;stroke-width:0.25mm;fill:none">
    <path
       d="M 0 136 L 0 163.5 L 6 163.5 L 6 184.5 L 0 184.5 L 0 205.5 L 0 212 L 34 212 L 34 206 L 55 206 L 55 212 L 76 212 L 76 206 L 97 206 L 97 212 L 118 212 L 118 206 L 139 206 L 139 212 L 160 212 L 160 206 L 181 206 L 181 212 L 202 212 L 202 206 L 223 206 L 223 212 L 244 212 L 244 206 L 265 206 L 265 212 L 286 212 L 286 206 L 307 206 L 307 212 L 328 212 L 328 206 L 349 206 L 349 212 L 370 212 L 370 206 L 391 206 L 391 212 L 412 212 L 425 212 L 425 184.5 L 419 184.5 L 419 163.5 L 425 163.5 L 425 142.5 L 425 136 L 0 136 Z"
       id="front_outsideCutPath"
       stroke="#FF0000"
       stroke-width="0.1"
       style="stroke:#FF0000;stroke-width:0.1"
       vector-effect="non-scaling-stroke" />
    <path
       d="M 223.577 179.741 L 222.345 179.741 L 222.345 174.479 Q 222.345 173.845 222.161 173.416 A 1.466 1.466 0 0 0 221.892 172.994 A 1.389 1.389 0 0 0 221.323 172.631 Q 220.965 172.504 220.475 172.504 A 3.729 3.729 0 0 0 219.777 172.565 Q 219.022 172.709 218.604 173.195 A 2.014 2.014 0 0 0 218.254 173.807 Q 218.011 174.456 218.011 175.473 L 218.011 179.741 L 216.779 179.741 L 216.779 171.606 L 217.781 171.606 L 217.981 172.72 L 218.04 172.72 A 2.495 2.495 0 0 1 219.018 171.83 A 2.999 2.999 0 0 1 219.102 171.788 A 3.336 3.336 0 0 1 220.289 171.471 A 4.034 4.034 0 0 1 220.623 171.458 A 4.864 4.864 0 0 1 221.451 171.524 Q 222.319 171.674 222.835 172.167 A 2.135 2.135 0 0 1 223.355 172.983 Q 223.48 173.32 223.535 173.737 A 5.377 5.377 0 0 1 223.577 174.434 L 223.577 179.741 Z M 199.909 171.606 L 199.909 172.564 L 197.838 172.564 L 197.838 179.741 L 196.606 179.741 L 196.606 172.564 L 195.151 172.564 L 195.151 172.007 L 196.606 171.562 L 196.606 171.109 A 4.993 4.993 0 0 1 196.723 169.977 Q 197.083 168.434 198.559 168.167 A 3.745 3.745 0 0 1 199.226 168.111 A 3.967 3.967 0 0 1 199.787 168.153 Q 200.224 168.216 200.74 168.37 L 200.421 169.357 A 5.983 5.983 0 0 0 199.956 169.226 Q 199.721 169.171 199.514 169.147 A 2.65 2.65 0 0 0 199.204 169.127 A 1.662 1.662 0 0 0 198.803 169.173 A 1.067 1.067 0 0 0 198.172 169.591 Q 197.838 170.055 197.838 171.079 L 197.838 171.606 L 199.909 171.606 Z M 229.849 178.724 L 229.849 179.666 Q 229.668 179.754 229.332 179.814 A 4.609 4.609 0 0 1 229.259 179.826 Q 228.869 179.889 228.557 179.889 Q 226.675 179.889 226.294 178.307 A 3.873 3.873 0 0 1 226.197 177.403 L 226.197 172.564 L 225.032 172.564 L 225.032 171.97 L 226.197 171.458 L 226.717 169.721 L 227.429 169.721 L 227.429 171.606 L 229.789 171.606 L 229.789 172.564 L 227.429 172.564 L 227.429 177.351 Q 227.429 178.086 227.778 178.479 A 1.145 1.145 0 0 0 228.482 178.853 A 1.647 1.647 0 0 0 228.735 178.872 A 4.046 4.046 0 0 0 229.328 178.83 A 3.73 3.73 0 0 0 229.366 178.824 A 6.665 6.665 0 0 0 229.544 178.794 Q 229.714 178.762 229.832 178.729 A 1.845 1.845 0 0 0 229.849 178.724 Z M 206.076 171.547 L 205.906 172.69 Q 205.485 172.597 205.147 172.582 A 2.89 2.89 0 0 0 205.015 172.579 A 2.135 2.135 0 0 0 203.438 173.26 A 2.921 2.921 0 0 0 203.327 173.38 A 2.813 2.813 0 0 0 202.648 174.96 A 3.74 3.74 0 0 0 202.625 175.377 L 202.625 179.741 L 201.393 179.741 L 201.393 171.606 L 202.41 171.606 L 202.551 173.113 L 202.61 173.113 A 4.161 4.161 0 0 1 203.076 172.448 A 3.178 3.178 0 0 1 203.701 171.888 Q 204.34 171.458 205.104 171.458 A 5.656 5.656 0 0 1 205.61 171.479 A 4.128 4.128 0 0 1 206.076 171.547 Z M 214.506 176.904 A 6.364 6.364 0 0 0 214.619 175.666 Q 214.619 173.729 213.613 172.593 A 3.225 3.225 0 0 0 212.116 171.628 A 4.14 4.14 0 0 0 210.901 171.458 A 4.785 4.785 0 0 0 210.041 171.532 A 3.259 3.259 0 0 0 208.14 172.567 A 3.404 3.404 0 0 0 207.722 173.147 Q 207.145 174.152 207.145 175.666 Q 207.145 176.95 207.605 177.907 Q 208.065 178.865 208.912 179.377 A 3.431 3.431 0 0 0 209.699 179.727 A 3.956 3.956 0 0 0 210.849 179.889 A 4.784 4.784 0 0 0 211.684 179.819 A 3.285 3.285 0 0 0 213.617 178.772 Q 214.282 178.03 214.506 176.904 Z M 208.422 175.666 A 6.239 6.239 0 0 0 208.481 176.557 Q 208.547 177.01 208.684 177.376 A 2.585 2.585 0 0 0 209.045 178.041 Q 209.669 178.857 210.878 178.857 A 2.862 2.862 0 0 0 211.633 178.764 A 1.992 1.992 0 0 0 212.715 178.045 A 2.645 2.645 0 0 0 213.127 177.243 Q 213.248 176.872 213.301 176.419 A 6.49 6.49 0 0 0 213.342 175.666 Q 213.342 174.115 212.715 173.31 A 2.027 2.027 0 0 0 211.455 172.558 A 3.107 3.107 0 0 0 210.863 172.504 A 2.932 2.932 0 0 0 210.133 172.59 A 1.962 1.962 0 0 0 209.038 173.298 A 2.547 2.547 0 0 0 208.642 174.064 Q 208.422 174.726 208.422 175.666 Z"
       id="front_labelLayer"
       stroke="#777777"
       fill="#777777"
       style="stroke:#777777;fill:#777777"
       vector-effect="non-scaling-stroke" />
    <path
       d="M 434 136 L 434 163.5 L 428 163.5 L 428 184.5 L 434 184.5 L 434 205.5 L 434 212 L 460.5 212 L 460.5 206 L 481.5 206 L 481.5 212 L 502.5 212 L 502.5 206 L 523.5 206 L 523.5 212 L 544.5 212 L 544.5 206 L 565.5 206 L 565.5 212 L 586.5 212 L 586.5 206 L 607.5 206 L 607.5 212 L 628.5 212 L 634 212 L 634 184.5 L 640 184.5 L 640 163.5 L 634 163.5 L 634 142.5 L 634 136 L 434 136 Z"
       id="left_outsideCutPath"
       stroke="#FF0000"
       stroke-width="0.1"
       style="stroke:#FF0000;stroke-width:0.1"
       vector-effect="non-scaling-stroke" />
    <path
       d="M 539.407 171.606 L 539.407 172.564 L 537.336 172.564 L 537.336 179.741 L 536.104 179.741 L 536.104 172.564 L 534.649 172.564 L 534.649 172.007 L 536.104 171.562 L 536.104 171.109 A 4.993 4.993 0 0 1 536.221 169.977 Q 536.581 168.434 538.057 168.167 A 3.745 3.745 0 0 1 538.724 168.111 A 3.967 3.967 0 0 1 539.285 168.153 Q 539.722 168.216 540.238 168.37 L 539.919 169.357 A 5.983 5.983 0 0 0 539.454 169.226 Q 539.219 169.171 539.012 169.147 A 2.65 2.65 0 0 0 538.702 169.127 A 1.662 1.662 0 0 0 538.301 169.173 A 1.067 1.067 0 0 0 537.67 169.591 Q 537.336 170.055 537.336 171.079 L 537.336 171.606 L 539.407 171.606 Z M 533.64 175.117 L 533.64 175.896 L 528.037 175.896 A 4.945 4.945 0 0 0 528.123 176.724 Q 528.288 177.56 528.76 178.071 A 2.239 2.239 0 0 0 529.936 178.733 A 3.392 3.392 0 0 0 530.694 178.813 Q 532.007 178.813 533.291 178.264 L 533.291 179.362 Q 532.638 179.644 532.055 179.767 A 5.172 5.172 0 0 1 531.542 179.846 Q 531.29 179.873 531.004 179.883 A 10.037 10.037 0 0 1 530.649 179.889 A 4.788 4.788 0 0 1 529.451 179.747 A 3.39 3.39 0 0 1 527.803 178.791 A 3.626 3.626 0 0 1 526.935 177.198 Q 526.76 176.541 526.76 175.74 A 6.469 6.469 0 0 1 526.88 174.457 Q 527.038 173.678 527.403 173.071 A 3.648 3.648 0 0 1 527.729 172.616 A 3.157 3.157 0 0 1 530.03 171.468 A 4.355 4.355 0 0 1 530.33 171.458 A 3.754 3.754 0 0 1 531.387 171.599 A 2.856 2.856 0 0 1 532.749 172.464 A 3.445 3.445 0 0 1 533.53 174.038 A 5.014 5.014 0 0 1 533.64 175.117 Z M 544.632 178.724 L 544.632 179.666 Q 544.451 179.754 544.115 179.814 A 4.609 4.609 0 0 1 544.042 179.826 Q 543.652 179.889 543.34 179.889 Q 541.458 179.889 541.077 178.307 A 3.873 3.873 0 0 1 540.98 177.403 L 540.98 172.564 L 539.815 172.564 L 539.815 171.97 L 540.98 171.458 L 541.5 169.721 L 542.212 169.721 L 542.212 171.606 L 544.572 171.606 L 544.572 172.564 L 542.212 172.564 L 542.212 177.351 Q 542.212 178.086 542.561 178.479 A 1.145 1.145 0 0 0 543.265 178.853 A 1.647 1.647 0 0 0 543.519 178.872 A 4.046 4.046 0 0 0 544.111 178.83 A 3.73 3.73 0 0 0 544.149 178.824 A 6.665 6.665 0 0 0 544.327 178.794 Q 544.497 178.762 544.615 178.729 A 1.845 1.845 0 0 0 544.632 178.724 Z M 524.6 168.192 L 524.6 179.741 L 523.368 179.741 L 523.368 168.192 L 524.6 168.192 Z M 528.066 174.894 L 532.319 174.894 A 4.198 4.198 0 0 0 532.268 174.219 Q 532.209 173.857 532.081 173.567 A 1.906 1.906 0 0 0 531.799 173.109 A 1.688 1.688 0 0 0 530.783 172.531 A 2.532 2.532 0 0 0 530.315 172.489 A 2.429 2.429 0 0 0 529.613 172.586 A 1.876 1.876 0 0 0 528.753 173.128 A 2.434 2.434 0 0 0 528.269 173.944 Q 528.115 174.365 528.066 174.894 Z"
       id="left_labelLayer"
       stroke="#777777"
       fill="#777777"
       style="stroke:#777777;fill:#777777"
       vector-effect="non-scaling-stroke" />
    <path
       d="M 0 57 L 0 84.5 L 6 84.5 L 6 105.5 L 0 105.5 L 0 126.5 L 0 133 L 34 133 L 34 127 L 55 127 L 55 133 L 76 133 L 76 127 L 97 127 L 97 133 L 118 133 L 118 127 L 139 127 L 139 133 L 160 133 L 160 127 L 181 127 L 181 133 L 202 133 L 202 127 L 223 127 L 223 133 L 244 133 L 244 127 L 265 127 L 265 133 L 286 133 L 286 127 L 307 127 L 307 133 L 328 133 L 328 127 L 349 127 L 349 133 L 370 133 L 370 127 L 391 127 L 391 133 L 412 133 L 425 133 L 425 105.5 L 419 105.5 L 419 84.5 L 425 84.5 L 425 63.5 L 425 57 L 0 57 Z"
       id="back_outsideCutPath"
       stroke="#FF0000"
       stroke-width="0.1"
       style="stroke:#FF0000;stroke-width:0.1"
       vector-effect="non-scaling-stroke" />
    <path
       d="M 222.905 96.536 L 222.965 96.536 A 7.293 7.293 0 0 1 223.145 96.292 Q 223.353 96.022 223.649 95.678 A 26.472 26.472 0 0 1 223.937 95.349 L 226.564 92.566 L 228.027 92.566 L 224.731 96.032 L 228.257 100.7 L 226.765 100.7 L 223.893 96.855 L 222.965 97.657 L 222.965 100.7 L 221.748 100.7 L 221.748 89.151 L 222.965 89.151 L 222.965 95.275 Q 222.965 95.675 222.908 96.505 A 50.343 50.343 0 0 1 222.905 96.536 Z M 197.975 99.653 L 197.886 99.653 L 197.627 100.7 L 196.743 100.7 L 196.743 89.151 L 197.975 89.151 L 197.975 91.957 A 25.687 25.687 0 0 1 197.961 92.825 Q 197.947 93.263 197.916 93.649 L 197.975 93.649 A 2.801 2.801 0 0 1 200.02 92.462 A 4.208 4.208 0 0 1 200.529 92.432 A 3.766 3.766 0 0 1 201.588 92.573 A 2.819 2.819 0 0 1 203.019 93.527 A 3.63 3.63 0 0 1 203.655 94.753 Q 203.812 95.258 203.87 95.863 A 7.908 7.908 0 0 1 203.905 96.625 A 7.224 7.224 0 0 1 203.81 97.841 Q 203.699 98.488 203.46 99.008 A 3.463 3.463 0 0 1 203.011 99.739 A 2.917 2.917 0 0 1 200.938 100.829 A 4.179 4.179 0 0 1 200.529 100.848 A 3.737 3.737 0 0 1 199.589 100.734 A 3.252 3.252 0 0 1 199.078 100.555 Q 198.421 100.262 197.975 99.653 Z M 211.973 100.7 L 211.06 100.7 L 210.815 99.542 L 210.756 99.542 Q 210.326 100.082 209.898 100.376 A 2.27 2.27 0 0 1 209.542 100.577 Q 209.044 100.801 208.341 100.84 A 5.545 5.545 0 0 1 208.032 100.848 A 3.781 3.781 0 0 1 207.263 100.775 Q 206.792 100.677 206.431 100.449 A 2.122 2.122 0 0 1 206.136 100.225 Q 205.449 99.601 205.449 98.451 A 2.132 2.132 0 0 1 206.662 96.439 Q 207.635 95.921 209.39 95.868 L 210.771 95.824 L 210.771 95.319 Q 210.771 94.362 210.359 93.905 Q 209.947 93.449 209.041 93.449 A 4.011 4.011 0 0 0 208.118 93.564 Q 207.473 93.717 206.741 94.072 L 206.362 93.13 A 5.68 5.68 0 0 1 207.458 92.679 A 6.466 6.466 0 0 1 207.679 92.617 A 5.706 5.706 0 0 1 209.116 92.432 Q 210.025 92.432 210.641 92.685 A 2.097 2.097 0 0 1 211.272 93.078 Q 211.973 93.723 211.973 95.148 L 211.973 100.7 Z M 219.937 92.84 L 219.558 93.887 A 5.481 5.481 0 0 0 218.964 93.689 A 6.546 6.546 0 0 0 218.668 93.616 Q 218.185 93.508 217.814 93.508 Q 215.335 93.508 215.335 96.67 Q 215.335 98.169 215.94 98.971 A 1.957 1.957 0 0 0 217.208 99.728 A 2.981 2.981 0 0 0 217.732 99.772 A 5.157 5.157 0 0 0 219.155 99.565 A 6.368 6.368 0 0 0 219.818 99.334 L 219.818 100.425 Q 219.117 100.789 218.104 100.84 A 6.756 6.756 0 0 1 217.762 100.848 A 4.605 4.605 0 0 1 216.642 100.72 A 3.122 3.122 0 0 1 215.027 99.761 Q 214.191 98.822 214.077 97.21 A 7.45 7.45 0 0 1 214.059 96.685 A 6.798 6.798 0 0 1 214.164 95.449 Q 214.292 94.759 214.574 94.216 A 3.397 3.397 0 0 1 215.042 93.53 A 3.19 3.19 0 0 1 216.789 92.526 A 4.836 4.836 0 0 1 217.844 92.417 A 5.56 5.56 0 0 1 219.016 92.543 A 6.149 6.149 0 0 1 219.358 92.626 Q 219.701 92.721 219.929 92.836 A 1.869 1.869 0 0 1 219.937 92.84 Z M 200.35 93.464 A 3.462 3.462 0 0 0 199.68 93.524 Q 198.928 93.673 198.532 94.187 A 2.109 2.109 0 0 0 198.227 94.769 Q 197.975 95.473 197.975 96.625 A 8.146 8.146 0 0 0 198.016 97.467 Q 198.104 98.317 198.388 98.834 A 1.858 1.858 0 0 0 198.547 99.078 Q 199.059 99.74 200.126 99.809 A 3.961 3.961 0 0 0 200.38 99.817 A 2.456 2.456 0 0 0 201.078 99.723 A 1.772 1.772 0 0 0 202.072 98.989 Q 202.47 98.398 202.583 97.438 A 7.059 7.059 0 0 0 202.629 96.61 Q 202.629 95.105 202.129 94.326 A 2.044 2.044 0 0 0 202.072 94.243 A 1.797 1.797 0 0 0 200.928 93.519 A 2.849 2.849 0 0 0 200.35 93.464 Z M 210.741 97.434 L 210.741 96.7 L 209.509 96.751 A 9.046 9.046 0 0 0 208.786 96.804 Q 208.073 96.887 207.627 97.084 A 1.892 1.892 0 0 0 207.39 97.208 A 1.315 1.315 0 0 0 206.763 98.162 A 1.946 1.946 0 0 0 206.741 98.466 A 1.761 1.761 0 0 0 206.784 98.87 Q 206.857 99.18 207.053 99.394 A 1.097 1.097 0 0 0 207.145 99.483 A 1.341 1.341 0 0 0 207.648 99.75 Q 207.846 99.808 208.085 99.825 A 2.771 2.771 0 0 0 208.277 99.832 A 3.392 3.392 0 0 0 209.01 99.757 Q 209.653 99.615 210.084 99.201 Q 210.737 98.573 210.741 97.447 A 3.956 3.956 0 0 0 210.741 97.434 Z"
       id="back_labelLayer"
       stroke="#777777"
       fill="#777777"
       style="stroke:#777777;fill:#777777"
       vector-effect="non-scaling-stroke" />
    <path
       d="M 434 57 L 434 84.5 L 428 84.5 L 428 105.5 L 434 105.5 L 434 126.5 L 434 133 L 460.5 133 L 460.5 127 L 481.5 127 L 481.5 133 L 502.5 133 L 502.5 127 L 523.5 127 L 523.5 133 L 544.5 133 L 544.5 127 L 565.5 127 L 565.5 133 L 586.5 133 L 586.5 127 L 607.5 127 L 607.5 133 L 628.5 133 L 634 133 L 634 105.5 L 640 105.5 L 640 84.5 L 634 84.5 L 634 63.5 L 634 57 L 434 57 Z"
       id="right_outsideCutPath"
       stroke="#FF0000"
       stroke-width="0.1"
       style="stroke:#FF0000;stroke-width:0.1;stroke-dasharray:none"
       vector-effect="non-scaling-stroke" />
    <path
       d="M 543.452 98.948 L 542.22 98.948 L 542.22 93.686 Q 542.22 93.052 542.036 92.623 A 1.466 1.466 0 0 0 541.767 92.202 A 1.389 1.389 0 0 0 541.197 91.838 Q 540.839 91.712 540.349 91.712 Q 539.065 91.712 538.475 92.41 Q 537.936 93.048 537.89 94.43 A 7.952 7.952 0 0 0 537.885 94.696 L 537.885 98.948 L 536.653 98.948 L 536.653 87.4 L 537.885 87.4 L 537.885 90.896 A 11.083 11.083 0 0 1 537.878 91.321 Q 537.864 91.676 537.826 91.942 L 537.9 91.942 Q 538.264 91.356 538.936 91.018 A 3.163 3.163 0 0 1 539.974 90.71 A 3.999 3.999 0 0 1 540.468 90.68 A 4.999 4.999 0 0 1 541.308 90.746 Q 542.187 90.896 542.706 91.389 Q 543.285 91.94 543.415 92.994 A 5.328 5.328 0 0 1 543.452 93.642 L 543.452 98.948 Z M 532.171 90.814 L 534.983 90.814 L 534.983 91.593 L 533.477 91.771 A 2.002 2.002 0 0 1 533.65 92.029 Q 533.726 92.163 533.795 92.322 A 3.798 3.798 0 0 1 533.848 92.451 A 2.37 2.37 0 0 1 533.988 93.017 A 3.044 3.044 0 0 1 534.011 93.397 A 2.824 2.824 0 0 1 533.882 94.272 A 2.284 2.284 0 0 1 533.195 95.304 A 2.732 2.732 0 0 1 532.12 95.87 Q 531.713 95.985 531.23 96.01 A 5.351 5.351 0 0 1 530.953 96.017 A 3.96 3.96 0 0 1 530.495 95.991 A 3.344 3.344 0 0 1 530.271 95.957 A 2.192 2.192 0 0 0 529.917 96.186 Q 529.734 96.334 529.629 96.502 A 0.927 0.927 0 0 0 529.484 97.004 Q 529.484 97.328 529.742 97.487 A 0.685 0.685 0 0 0 529.758 97.497 A 0.864 0.864 0 0 0 529.95 97.576 Q 530.226 97.657 530.701 97.657 L 532.141 97.657 Q 533.462 97.657 534.171 98.214 A 1.802 1.802 0 0 1 534.841 99.362 A 2.707 2.707 0 0 1 534.879 99.832 A 2.668 2.668 0 0 1 534.727 100.754 Q 534.481 101.426 533.838 101.863 A 2.931 2.931 0 0 1 533.796 101.891 A 3.695 3.695 0 0 1 532.843 102.323 Q 531.933 102.6 530.634 102.6 Q 529.038 102.6 528.174 102.006 Q 527.309 101.412 527.309 100.329 Q 527.309 99.587 527.784 99.045 Q 528.259 98.503 529.12 98.31 A 1.279 1.279 0 0 1 528.624 97.909 A 1.518 1.518 0 0 1 528.597 97.872 A 1.142 1.142 0 0 1 528.387 97.255 A 1.415 1.415 0 0 1 528.385 97.182 A 1.409 1.409 0 0 1 528.456 96.728 A 1.249 1.249 0 0 1 528.623 96.403 Q 528.802 96.15 529.139 95.911 A 3.87 3.87 0 0 1 529.372 95.757 A 2.16 2.16 0 0 1 528.434 95.006 A 2.677 2.677 0 0 1 528.345 94.874 A 2.547 2.547 0 0 1 527.954 93.646 A 3.108 3.108 0 0 1 527.947 93.449 A 3.56 3.56 0 0 1 528.041 92.607 A 2.342 2.342 0 0 1 528.749 91.389 Q 529.441 90.764 530.632 90.679 A 5.441 5.441 0 0 1 531.02 90.666 Q 531.658 90.666 532.171 90.814 Z M 549.723 97.932 L 549.723 98.874 Q 549.542 98.961 549.207 99.021 A 4.609 4.609 0 0 1 549.133 99.034 Q 548.744 99.097 548.432 99.097 Q 546.549 99.097 546.168 97.515 A 3.873 3.873 0 0 1 546.072 96.611 L 546.072 91.771 L 544.906 91.771 L 544.906 91.178 L 546.072 90.666 L 546.591 88.929 L 547.304 88.929 L 547.304 90.814 L 549.664 90.814 L 549.664 91.771 L 547.304 91.771 L 547.304 96.559 Q 547.304 97.293 547.653 97.687 A 1.145 1.145 0 0 0 548.356 98.061 A 1.647 1.647 0 0 0 548.61 98.08 A 4.046 4.046 0 0 0 549.203 98.038 A 3.73 3.73 0 0 0 549.241 98.032 A 6.665 6.665 0 0 0 549.419 98.001 Q 549.589 97.97 549.707 97.936 A 1.845 1.845 0 0 0 549.723 97.932 Z M 522.96 90.755 L 522.789 91.898 Q 522.369 91.805 522.031 91.789 A 2.89 2.89 0 0 0 521.899 91.786 A 2.135 2.135 0 0 0 520.321 92.467 A 2.921 2.921 0 0 0 520.21 92.588 A 2.813 2.813 0 0 0 519.531 94.168 A 3.74 3.74 0 0 0 519.509 94.584 L 519.509 98.948 L 518.277 98.948 L 518.277 90.814 L 519.294 90.814 L 519.435 92.321 L 519.494 92.321 A 4.161 4.161 0 0 1 519.959 91.656 A 3.178 3.178 0 0 1 520.585 91.096 Q 521.223 90.666 521.988 90.666 A 5.656 5.656 0 0 1 522.494 90.687 A 4.128 4.128 0 0 1 522.96 90.755 Z M 525.713 90.814 L 525.713 98.948 L 524.481 98.948 L 524.481 90.814 L 525.713 90.814 Z M 531.747 98.763 L 530.271 98.763 A 2.832 2.832 0 0 0 529.76 98.806 Q 529.47 98.859 529.241 98.978 A 1.443 1.443 0 0 0 528.964 99.164 A 1.298 1.298 0 0 0 528.538 99.9 A 1.971 1.971 0 0 0 528.497 100.314 A 1.237 1.237 0 0 0 528.578 100.773 Q 528.695 101.069 528.981 101.268 A 1.446 1.446 0 0 0 529.053 101.316 Q 529.607 101.656 530.639 101.657 A 6.108 6.108 0 0 0 530.649 101.657 Q 532.035 101.657 532.778 101.287 A 2.046 2.046 0 0 0 532.946 101.194 A 1.797 1.797 0 0 0 533.363 100.845 A 1.347 1.347 0 0 0 533.692 99.936 A 1.667 1.667 0 0 0 533.661 99.605 Q 533.58 99.205 533.284 99.019 Q 532.973 98.824 532.244 98.777 A 7.839 7.839 0 0 0 531.747 98.763 Z M 529.165 93.419 A 2.405 2.405 0 0 0 529.214 93.923 Q 529.281 94.236 529.439 94.47 A 1.318 1.318 0 0 0 529.647 94.711 Q 530.082 95.105 530.823 95.144 A 3.172 3.172 0 0 0 530.99 95.148 Q 532.414 95.148 532.714 94.057 A 2.495 2.495 0 0 0 532.794 93.397 Q 532.794 91.564 530.968 91.564 A 2.585 2.585 0 0 0 530.441 91.614 Q 529.946 91.717 529.632 92.031 Q 529.235 92.428 529.175 93.151 A 3.241 3.241 0 0 0 529.165 93.419 Z M 524.585 87.99 A 0.576 0.576 0 0 0 524.458 88.171 Q 524.378 88.346 524.378 88.61 Q 524.378 89.025 524.585 89.229 Q 524.793 89.434 525.105 89.434 Q 525.402 89.434 525.617 89.229 A 0.601 0.601 0 0 0 525.734 89.074 Q 525.788 88.973 525.812 88.843 A 1.275 1.275 0 0 0 525.832 88.61 A 1.409 1.409 0 0 0 525.826 88.476 Q 525.815 88.355 525.781 88.255 A 0.622 0.622 0 0 0 525.617 87.994 A 0.726 0.726 0 0 0 525.105 87.793 A 0.94 0.94 0 0 0 525.043 87.795 A 0.712 0.712 0 0 0 524.585 87.99 Z"
       id="right_labelLayer"
       stroke="#777777"
       fill="#777777"
       style="stroke:#777777;fill:#777777"
       vector-effect="non-scaling-stroke" />
    <path
       d="M 649 6 L 649 32.5 L 643 32.5 L 643 53.5 L 649 53.5 L 649 74.5 L 643 74.5 L 643 95.5 L 649 95.5 L 649 116.5 L 643 116.5 L 643 137.5 L 649 137.5 L 649 158.5 L 643 158.5 L 643 179.5 L 649 179.5 L 649 200.5 L 649 206 L 677 206 L 677 212 L 698 212 L 698 206 L 719 206 L 719 212 L 740 212 L 740 206 L 761 206 L 761 212 L 782 212 L 782 206 L 803 206 L 803 212 L 824 212 L 824 206 L 845 206 L 845 212 L 866 212 L 866 206 L 887 206 L 887 212 L 908 212 L 908 206 L 929 206 L 929 212 L 950 212 L 950 206 L 971 206 L 971 212 L 992 212 L 992 206 L 1013 206 L 1013 212 L 1034 212 L 1034 206 L 1055 206 L 1062 206 L 1062 179.5 L 1068 179.5 L 1068 158.5 L 1062 158.5 L 1062 137.5 L 1068 137.5 L 1068 116.5 L 1062 116.5 L 1062 95.5 L 1068 95.5 L 1068 74.5 L 1062 74.5 L 1062 53.5 L 1068 53.5 L 1068 32.5 L 1062 32.5 L 1062 11.5 L 1062 6 L 1034 6 L 1034 0 L 1013 0 L 1013 6 L 992 6 L 992 0 L 971 0 L 971 6 L 950 6 L 950 0 L 929 0 L 929 6 L 908 6 L 908 0 L 887 0 L 887 6 L 866 6 L 866 0 L 845 0 L 845 6 L 824 6 L 824 0 L 803 0 L 803 6 L 782 6 L 782 0 L 761 0 L 761 6 L 740 6 L 740 0 L 719 0 L 719 6 L 698 6 L 698 0 L 677 0 L 677 6 L 656 6 L 649 6 Z"
       id="bottom_outsideCutPath"
       stroke="#FF0000"
       stroke-width="0.1"
       style="stroke:#FF0000;stroke-width:0.1"
       vector-effect="non-scaling-stroke" />
    <path
       d="M 925.249 121.899 L 921.812 121.899 L 921.812 107.138 A 10.139 10.139 0 0 0 921.71 105.647 Q 921.596 104.886 921.357 104.272 A 4.153 4.153 0 0 0 920.653 103.07 Q 919.493 101.714 917.05 101.714 A 8.843 8.843 0 0 0 915.25 101.885 Q 913.375 102.275 912.309 103.556 Q 910.777 105.399 910.777 109.229 L 910.777 121.899 L 907.341 121.899 L 907.341 107.138 A 10.139 10.139 0 0 0 907.238 105.647 Q 907.125 104.886 906.886 104.272 A 4.153 4.153 0 0 0 906.181 103.07 A 3.605 3.605 0 0 0 904.523 101.992 Q 903.674 101.714 902.558 101.714 Q 899.328 101.714 897.827 103.65 A 5.763 5.763 0 0 0 896.973 105.273 Q 896.419 106.84 896.34 109.19 A 23.927 23.927 0 0 0 896.326 109.995 L 896.326 121.899 L 892.89 121.899 L 892.89 99.209 L 895.685 99.209 L 896.244 102.314 L 896.409 102.314 Q 897.382 100.658 899.152 99.726 A 8.159 8.159 0 0 1 902.375 98.822 A 9.855 9.855 0 0 1 903.117 98.795 Q 906.412 98.795 908.294 100.272 A 5.867 5.867 0 0 1 910.073 102.646 L 910.239 102.646 A 7.176 7.176 0 0 1 912.942 99.962 A 8.621 8.621 0 0 1 913.179 99.83 A 8.698 8.698 0 0 1 916.37 98.859 A 10.846 10.846 0 0 1 917.568 98.795 A 11.946 11.946 0 0 1 919.735 98.978 Q 920.939 99.201 921.88 99.693 A 5.664 5.664 0 0 1 923.334 100.772 Q 925.249 102.749 925.249 107.097 L 925.249 121.899 Z M 789.188 118.98 L 788.939 118.98 L 788.215 121.899 L 785.751 121.899 L 785.751 89.685 L 789.188 89.685 L 789.188 97.511 A 71.653 71.653 0 0 1 789.149 99.932 Q 789.11 101.077 789.033 102.096 A 42.898 42.898 0 0 1 789.022 102.231 L 789.188 102.231 A 7.814 7.814 0 0 1 794.891 98.919 A 11.738 11.738 0 0 1 796.31 98.836 Q 800.782 98.836 803.256 101.89 Q 805.237 104.335 805.631 108.407 A 22.059 22.059 0 0 1 805.73 110.533 Q 805.73 114.478 804.487 117.18 A 9.66 9.66 0 0 1 803.235 119.218 A 8.136 8.136 0 0 1 797.452 122.259 A 11.656 11.656 0 0 1 796.31 122.314 A 10.424 10.424 0 0 1 793.69 121.994 A 9.07 9.07 0 0 1 792.262 121.496 A 7.612 7.612 0 0 1 789.188 118.98 Z M 847.778 119.063 L 847.778 121.692 A 3.38 3.38 0 0 1 847.377 121.852 Q 846.949 121.993 846.337 122.103 A 12.853 12.853 0 0 1 846.132 122.138 A 14.896 14.896 0 0 1 845.161 122.264 Q 844.637 122.314 844.175 122.314 A 8.976 8.976 0 0 1 841.53 121.958 Q 838.622 121.06 837.861 117.902 A 10.802 10.802 0 0 1 837.592 115.378 L 837.592 101.88 L 834.341 101.88 L 834.341 100.223 L 837.592 98.795 L 839.041 93.95 L 841.028 93.95 L 841.028 99.209 L 847.612 99.209 L 847.612 101.88 L 841.028 101.88 L 841.028 115.233 A 6.92 6.92 0 0 0 841.128 116.448 Q 841.247 117.115 841.509 117.643 A 3.334 3.334 0 0 0 842.001 118.38 A 3.193 3.193 0 0 0 843.964 119.425 A 4.594 4.594 0 0 0 844.672 119.477 A 11.287 11.287 0 0 0 846.326 119.359 A 10.403 10.403 0 0 0 846.432 119.343 A 18.591 18.591 0 0 0 846.928 119.258 Q 847.402 119.169 847.732 119.076 A 5.16 5.16 0 0 0 847.778 119.063 Z M 862.746 119.063 L 862.746 121.692 A 3.38 3.38 0 0 1 862.345 121.852 Q 861.917 121.993 861.305 122.103 A 12.853 12.853 0 0 1 861.1 122.138 A 14.896 14.896 0 0 1 860.129 122.264 Q 859.606 122.314 859.144 122.314 A 8.976 8.976 0 0 1 856.498 121.958 Q 853.591 121.06 852.83 117.902 A 10.802 10.802 0 0 1 852.56 115.378 L 852.56 101.88 L 849.31 101.88 L 849.31 100.223 L 852.56 98.795 L 854.009 93.95 L 855.997 93.95 L 855.997 99.209 L 862.58 99.209 L 862.58 101.88 L 855.997 101.88 L 855.997 115.233 A 6.92 6.92 0 0 0 856.097 116.448 Q 856.216 117.115 856.477 117.643 A 3.334 3.334 0 0 0 856.97 118.38 A 3.193 3.193 0 0 0 858.932 119.425 A 4.594 4.594 0 0 0 859.641 119.477 A 11.287 11.287 0 0 0 861.294 119.359 A 10.403 10.403 0 0 0 861.4 119.343 A 18.591 18.591 0 0 0 861.896 119.258 Q 862.371 119.169 862.7 119.076 A 5.16 5.16 0 0 0 862.746 119.063 Z M 831.003 113.987 A 17.752 17.752 0 0 0 831.319 110.533 Q 831.319 108.328 830.851 106.495 A 10.701 10.701 0 0 0 828.513 101.962 A 8.997 8.997 0 0 0 824.337 99.268 A 11.548 11.548 0 0 0 820.946 98.795 A 13.348 13.348 0 0 0 818.549 99.001 A 9.09 9.09 0 0 0 813.245 101.89 Q 811.403 103.945 810.784 107.082 A 17.844 17.844 0 0 0 810.471 110.533 A 17.193 17.193 0 0 0 810.687 113.318 A 12.714 12.714 0 0 0 811.754 116.786 A 11.296 11.296 0 0 0 812.004 117.276 A 9.304 9.304 0 0 0 815.398 120.885 A 9.569 9.569 0 0 0 817.595 121.862 A 11.036 11.036 0 0 0 820.801 122.314 A 13.345 13.345 0 0 0 823.132 122.119 A 9.162 9.162 0 0 0 828.524 119.198 A 9.587 9.587 0 0 0 829.665 117.629 Q 830.596 116.036 831.003 113.987 Z M 886.55 113.987 A 17.752 17.752 0 0 0 886.865 110.533 Q 886.865 108.328 886.398 106.495 A 10.701 10.701 0 0 0 884.06 101.962 A 8.997 8.997 0 0 0 879.883 99.268 A 11.548 11.548 0 0 0 876.493 98.795 A 13.348 13.348 0 0 0 874.095 99.001 A 9.09 9.09 0 0 0 868.791 101.89 Q 866.949 103.945 866.33 107.082 A 17.844 17.844 0 0 0 866.017 110.533 A 17.193 17.193 0 0 0 866.233 113.318 A 12.714 12.714 0 0 0 867.301 116.786 A 11.296 11.296 0 0 0 867.551 117.276 A 9.304 9.304 0 0 0 870.944 120.885 A 9.569 9.569 0 0 0 873.141 121.862 A 11.036 11.036 0 0 0 876.348 122.314 A 13.345 13.345 0 0 0 878.678 122.119 A 9.162 9.162 0 0 0 884.07 119.198 A 9.587 9.587 0 0 0 885.212 117.629 Q 886.143 116.036 886.55 113.987 Z M 814.032 110.533 A 17.403 17.403 0 0 0 814.197 113.02 Q 814.38 114.282 814.764 115.304 A 7.21 7.21 0 0 0 815.771 117.158 Q 817.51 119.436 820.884 119.436 A 7.983 7.983 0 0 0 822.99 119.174 A 5.555 5.555 0 0 0 826.008 117.169 A 7.378 7.378 0 0 0 827.157 114.931 Q 827.495 113.897 827.643 112.635 A 18.103 18.103 0 0 0 827.758 110.533 A 17.148 17.148 0 0 0 827.595 108.09 Q 827.416 106.846 827.038 105.838 A 7.076 7.076 0 0 0 826.008 103.96 Q 824.259 101.714 820.843 101.714 A 8.179 8.179 0 0 0 818.807 101.952 A 5.474 5.474 0 0 0 815.75 103.929 A 7.106 7.106 0 0 0 814.645 106.064 Q 814.319 107.045 814.166 108.245 A 18.16 18.16 0 0 0 814.032 110.533 Z M 869.578 110.533 A 17.403 17.403 0 0 0 869.744 113.02 Q 869.926 114.282 870.31 115.304 A 7.21 7.21 0 0 0 871.317 117.158 Q 873.056 119.436 876.431 119.436 A 7.983 7.983 0 0 0 878.537 119.174 A 5.555 5.555 0 0 0 881.555 117.169 A 7.378 7.378 0 0 0 882.704 114.931 Q 883.041 113.897 883.189 112.635 A 18.103 18.103 0 0 0 883.304 110.533 A 17.148 17.148 0 0 0 883.142 108.09 Q 882.962 106.846 882.584 105.838 A 7.076 7.076 0 0 0 881.555 103.96 Q 879.805 101.714 876.389 101.714 A 8.179 8.179 0 0 0 874.353 101.952 A 5.474 5.474 0 0 0 871.296 103.929 A 7.106 7.106 0 0 0 870.192 106.064 Q 869.866 107.045 869.713 108.245 A 18.16 18.16 0 0 0 869.578 110.533 Z M 795.813 101.714 Q 792.293 101.714 790.741 103.732 Q 789.376 105.506 789.211 109.413 A 26.478 26.478 0 0 0 789.188 110.533 A 22.723 22.723 0 0 0 789.3 112.882 Q 789.547 115.252 790.338 116.694 A 5.183 5.183 0 0 0 790.782 117.376 A 4.986 4.986 0 0 0 793.311 119.083 Q 794.156 119.347 795.188 119.414 A 11.05 11.05 0 0 0 795.896 119.436 A 6.851 6.851 0 0 0 797.842 119.175 A 4.942 4.942 0 0 0 800.616 117.127 A 7.889 7.889 0 0 0 801.592 115.016 Q 801.898 114.013 802.042 112.799 A 19.692 19.692 0 0 0 802.169 110.492 A 20.304 20.304 0 0 0 802.046 108.178 Q 801.732 105.45 800.616 103.888 A 5.012 5.012 0 0 0 797.425 101.868 A 7.948 7.948 0 0 0 795.813 101.714 Z"
       id="bottom_labelLayer"
       stroke="#777777"
       fill="#777777"
       style="stroke:#777777;fill:#777777"
       vector-effect="non-scaling-stroke" />
    <rect
       style="fill:none;stroke:#ff0000;stroke-width:0.181234;stroke-opacity:1"
       id="rect19423"
       width="319.81876"
       height="159.81876"
       x="655.09064"
       y="26.090618" />
    <circle
       style="fill:none;stroke:#fa0000;stroke-width:0.0229616;stroke-opacity:1"
       id="path19477"
       cx="988.09998"
       cy="74.699997"
       r="1.0885192" />
    <circle
       style="fill:none;stroke:#fa0000;stroke-width:0.0344424;stroke-opacity:1"
       id="path19477-88"
       cx="1043.77"
       cy="130.25"
       r="1.6327788" />
    <circle
       style="fill:none;stroke:#fa0000;stroke-width:0.0344424;stroke-opacity:1"
       id="path19477-88-1"
       cx="1043.65"
       cy="110.15"
       r="1.6327788" />
    <circle
       style="fill:none;stroke:#fa0000;stroke-width:0.0229616;stroke-opacity:1"
       id="path19477-8"
       cx="1048.1"
       cy="74.699997"
       r="1.0885192" />
    <circle
       style="fill:none;stroke:#fa0000;stroke-width:0.0229616;stroke-opacity:1"
       id="path19477-0"
       cx="988.09998"
       cy="139.5"
       r="1.0885192" />
    <circle
       style="fill:none;stroke:#fa0000;stroke-width:0.0229616;stroke-opacity:1"
       id="path19477-8-8"
       cx="1048.1"
       cy="139.5"
       r="1.0885192" />
    <circle
       style="fill:none;stroke:#fa0000;stroke-width:0.0344424;stroke-opacity:1"
       id="path19477-88-6"
       cx="1043.65"
       cy="99.25"
       r="1.6327788" />
    <circle
       style="fill:none;stroke:#fa0000;stroke-width:0.0344424;stroke-opacity:1"
       id="path19477-88-5"
       cx="1043.65"
       cy="88.279999"
       r="1.6327788" />
    <circle
       style="fill:none;stroke:#fa0000;stroke-width:0.0344424;stroke-opacity:1"
       id="path19477-88-65"
       cx="1034.34"
       cy="99.300003"
       r="1.6327788" />
    <circle
       style="fill:none;stroke:#fa0000;stroke-width:0.0344424;stroke-opacity:1"
       id="path19477-88-0"
       cx="1021.02"
       cy="119.65"
       r="1.6327788" />
    <rect
       style="fill:none;stroke:#ff0000;stroke-width:0.122456;stroke-opacity:1"
       id="rect26694"
       width="19.877544"
       height="5.8775444"
       x="15.061228"
       y="112.11124" />
    <rect
       style="fill:none;stroke:#ff0000;stroke-width:0.122456;stroke-opacity:1"
       id="rect26694-1"
       width="19.877544"
       height="5.8775444"
       x="309.06122"
       y="112.11123" />
    <rect
       style="fill:none;stroke:#ff0000;stroke-width:0.122456;stroke-opacity:1"
       id="rect26694-2"
       width="19.877544"
       height="5.8775444"
       x="15.061228"
       y="191.06123" />
    <rect
       style="fill:none;stroke:#ff0000;stroke-width:0.122456;stroke-opacity:1"
       id="rect26694-1-8"
       width="19.877544"
       height="5.8775444"
       x="309.06122"
       y="191.06123" />
    <path
       style="fill:none;stroke:#ff0000;stroke-width:0.1;stroke-opacity:1;stroke-dasharray:none"
       d="m 427.96534,48.175333 h 5.99998 v 3.002939 h 200.0001 v -3.000336 h 6.00379 V 28.177307 h -5.99757 V 25.180965 H 433.97453 v 2.99716 h -5.9975 v 19.997208 z"
       id="path26947" />
    <path
       style="fill:none;stroke:#ff0000;stroke-width:0.1;stroke-dasharray:none;stroke-opacity:1"
       d="m 207.12994,47.893993 h 5.99998 v 3.002939 h 200.0001 v -3.000336 h 6.00379 V 27.895967 h -5.99757 V 24.899625 H 213.13913 v 2.99716 h -5.9975 v 19.997208 z"
       id="path26947-5" />
  </g>
</svg>
